<?xml version="1.0" encoding="iso-8859-1"?>
<!-- Generator: Adobe Illustrator 19.0.0, SVG Export Plug-In . SVG Version: 6.00 Build 0)  -->
<svg version="1.1" id="Capa_1" xmlns="http://www.w3.org/2000/svg" xmlns:xlink="http://www.w3.org/1999/xlink" x="0px" y="0px"
	 viewBox="0 0 512 512" style="enable-background:new 0 0 512 512;" xml:space="preserve">
<circle style="fill:#E4EAF8;" cx="256.341" cy="229.038" r="220.987"/>
<path style="fill:#C2C7D0;" d="M118.556,308.584c-55.771-96.599-30.309-217.79,55.173-284.52
	C49.084,74.479-2.199,223.197,64.963,339.525c67.128,116.269,221.533,146.325,327.582,63.538
	C292.013,443.726,174.328,405.181,118.556,308.584z"/>
<path style="fill:#FEA82F;" d="M480.861,316.682c-3.86-76.171-112.13-88.015-132.418-14.51c-1.118,4.064-1.848,7.86-2.215,12.577
	c-0.236,2.986-0.263,18.245-0.25,27.411H480.96C480.964,318.385,480.961,318.687,480.861,316.682z"/>
<path style="fill:#FF8031;" d="M396.841,302.171c6.518-23.613,22.12-38.404,40.418-45.098c-33.793-12.07-76.782,1.498-88.816,45.098
	c-1.118,4.064-1.848,7.86-2.215,12.577c-0.236,2.986-0.263,18.245-0.25,27.411h48.398
	C394.338,316.12,394.168,311.888,396.841,302.171z"/>
<path style="fill:#ABFFDB;" d="M484.416,504.494c11.815,0,20.819-10.586,18.92-22.248l-4.731-29.07
	c-1.356-6.864-2.131-18.278-15.278-23.804c-1.227-0.515-4.021-1.285-3.965-1.269c-57.658-20.367-4.595-1.624-30.097-10.601
	l-12.773-7.909v-15.201c-13.705,6.899-30.525,7.429-44.528,0.959l0.009,14.242l-13.134,8.046l-6.768,2.327h-0.015l0.002,0.004
	c-0.102,0.036-27.812,9.849-25.982,9.028c-7.276,2.717-13.428,8.698-14.288,17.07c-0.376,3.654-5.122,30.244-8.007,46.266
	c-1.142,6.338,3.729,12.159,10.169,12.159H484.416z"/>
<path style="fill:#E4EAF8;" d="M413.468,430.529l25.934-19.134l0,0l-2.909-1.801v-15.201c-13.705,6.899-30.525,7.429-44.528,0.959
	l0.009,14.242l-2.94,1.801L413.468,430.529z"/>
<path style="fill:#C2C7D0;" d="M413.603,399.878c-7.424,0.081-14.86-1.394-21.638-4.526l0.009,14.242l-2.94,1.801l24.019,18.808
	h0.551L413.603,399.878L413.603,399.878z"/>
<g>
	<path style="fill:#FF8031;" d="M391.974,409.594l21.494,20.936l-19.185,13.352c-2.799,1.948-6.686,0.643-7.743-2.6l-7.7-23.641
		L391.974,409.594z"/>
	<path style="fill:#FF8031;" d="M436.493,409.594l-23.026,20.936l19.185,13.352c2.799,1.948,6.686,0.643,7.742-2.6l8.87-23.779
		L436.493,409.594z"/>
</g>
<path style="fill:#FF9052;" d="M422.115,460.113c-6.048,0-11.244,0-17.293,0l-11.865,44.416c14.352,0,26.671,0,41.023,0
	L422.115,460.113z"/>
<path style="fill:#FEA82F;" d="M413.468,430.529l-16.107,11.209l7.461,18.374c6.048,0,11.244,0,17.292,0l7.461-18.374
	L413.468,430.529z"/>
<path style="fill:#FF8031;" d="M422.115,460.113c-6.048,0-11.244,0-17.293,0l-11.865,44.416h17.3l11.861-44.403L422.115,460.113z"/>
<path style="fill:#FF9052;" d="M410.849,432.352l-13.489,9.387l7.461,18.374c6.048,0,11.244,0,17.292,0l0.004-0.009L410.849,432.352
	z"/>
<g>
	<path style="fill:#E4EAF8;" d="M366.246,334.309c-11.715-4.175-25.323,3.589-25.323,14.917c0,11.324,13.606,19.092,25.323,14.917
		V334.309z"/>
	<path style="fill:#E4EAF8;" d="M460.712,334.309c11.715-4.175,25.323,3.589,25.323,14.917c0,11.324-13.606,19.092-25.323,14.917
		V334.309z"/>
</g>
<g>
	<path style="fill:#C2C7D0;" d="M342.669,342.481c-7.195,13.141,8.566,27.011,23.578,21.662v-13.489
		C357.056,353.929,346.706,349.855,342.669,342.481z"/>
	<path style="fill:#C2C7D0;" d="M460.712,350.654v13.489c11.717,4.176,25.323-3.592,25.323-14.917c0-2.442-0.635-4.718-1.745-6.745
		C480.253,349.855,469.903,353.929,460.712,350.654z"/>
</g>
<path style="fill:#FFFFFF;" d="M460.276,316.66c1.25,0.121,2.211,1.157,2.211,2.413c0,41.263,0.027,35.23-0.069,37.149
	c-2.804,55.326-81.445,63.929-96.181,10.539c-0.812-2.952-1.342-5.709-1.609-9.135c-0.274-3.465-0.16-22.277-0.16-22.216
	c0-9.609,8.528-16.941,18.039-15.568c14.98,2.162,36.843,1.322,55.922-14.986c1.96-1.676,4.936-1.134,6.188,1.12
	C446.98,310.233,451.68,315.829,460.276,316.66z"/>
<path style="fill:#E4EAF8;" d="M394.521,356.221c-0.095-1.893-0.07,3.949-0.069-35.517c-4.293,0.005-8.321-0.339-11.944-0.862
	c-9.511-1.373-18.039,5.959-18.039,15.568c0-0.06-0.114,18.751,0.16,22.216c2.534,32.527,33.157,52.022,63.842,42.641
	C410.607,394.805,395.712,379.737,394.521,356.221z"/>
<path style="fill:#DDDDDD;" d="M473.95,486.227c0-4.144-3.358-7.501-7.501-7.501c-4.142,0-7.501,3.357-7.501,7.501v18.267h15.002
	V486.227z"/>
<path style="fill:#FEA82F;" d="M163.613,316.682c-3.86-76.171-112.13-88.015-132.418-14.51c-1.118,4.064-1.848,7.86-2.215,12.577
	c-0.236,2.986-0.263,18.245-0.25,27.411h134.982C163.717,318.385,163.714,318.687,163.613,316.682z"/>
<path style="fill:#FF8031;" d="M79.594,302.171c6.518-23.613,22.12-38.404,40.418-45.098c-33.793-12.07-76.782,1.498-88.816,45.098
	c-1.118,4.064-1.848,7.86-2.215,12.577c-0.236,2.986-0.263,18.245-0.25,27.411h48.398C77.092,316.12,76.922,311.888,79.594,302.171z
	"/>
<path style="fill:#ABFFDB;" d="M167.169,504.494c11.815,0,20.819-10.586,18.92-22.248l-4.731-29.07
	c-1.356-6.864-2.131-18.278-15.278-23.804c-1.227-0.515-4.021-1.285-3.965-1.269c-57.657-20.367-4.595-1.624-30.097-10.601
	l-12.773-7.909v-15.201c-13.705,6.899-30.525,7.429-44.528,0.959l0.009,14.242l-13.134,8.046l-6.768,2.327H54.81l0.002,0.004
	C54.71,420.007,27,429.82,28.83,428.999c-7.276,2.717-13.428,8.698-14.288,17.07c-0.29,2.817-3.175,19.259-5.805,33.985
	c-2.275,12.742,7.521,24.44,20.464,24.44H167.169z"/>
<path style="fill:#91DFBF;" d="M25.483,480.055c6.488-42.397,5.328-43.028,8.519-47.968c2.25-3.483,5.378-6.123,8.982-7.938
	c-14.446,5.078-14.248,4.894-14.153,4.852c-4.702,1.755-8.797,4.791-11.573,9.088c-2.832,4.384-1.595,3.184-8.519,41.967
	c-2.275,12.742,7.521,24.44,20.464,24.44h16.744C33.004,504.494,23.207,492.797,25.483,480.055z"/>
<path style="fill:#E4EAF8;" d="M96.221,430.529l25.934-19.134l0,0l-2.909-1.801v-15.201c-13.705,6.899-30.525,7.429-44.528,0.959
	l0.009,14.242l-2.94,1.801L96.221,430.529z"/>
<path style="fill:#C2C7D0;" d="M96.356,399.878c-7.424,0.081-14.86-1.394-21.638-4.526l0.009,14.242l-2.94,1.801l24.019,18.808
	h0.551L96.356,399.878L96.356,399.878z"/>
<g>
	<path style="fill:#FF8031;" d="M74.727,409.594l21.495,20.936l-19.185,13.352c-2.799,1.948-6.686,0.643-7.743-2.6l-7.7-23.641
		L74.727,409.594z"/>
	<path style="fill:#FF8031;" d="M119.247,409.594l-23.026,20.936l19.185,13.352c2.799,1.948,6.686,0.643,7.743-2.6l8.87-23.779
		L119.247,409.594z"/>
</g>
<path style="fill:#FF9052;" d="M104.867,460.113c-6.048,0-11.244,0-17.293,0l-11.865,44.416c14.352,0,26.671,0,41.023,0
	L104.867,460.113z"/>
<path style="fill:#FEA82F;" d="M96.221,430.529l-16.107,11.209l7.461,18.374c6.048,0,11.244,0,17.292,0l7.461-18.374L96.221,430.529
	z"/>
<path style="fill:#FF8031;" d="M104.867,460.113c-6.048,0-11.244,0-17.293,0l-11.865,44.416h17.3l11.861-44.403L104.867,460.113z"/>
<path style="fill:#FF9052;" d="M93.602,432.352l-13.489,9.387l7.461,18.374c6.048,0,11.244,0,17.292,0l0.004-0.009L93.602,432.352z"
	/>
<g>
	<path style="fill:#E4EAF8;" d="M49,334.309c-11.715-4.175-25.323,3.589-25.323,14.917c0,11.324,13.606,19.092,25.323,14.917
		V334.309z"/>
	<path style="fill:#E4EAF8;" d="M143.466,334.309c11.715-4.175,25.323,3.589,25.323,14.917c0,11.324-13.606,19.092-25.323,14.917
		V334.309z"/>
</g>
<g>
	<path style="fill:#C2C7D0;" d="M25.422,342.481c-1.11,2.027-1.745,4.303-1.745,6.745c0,11.324,13.606,19.092,25.323,14.917v-13.489
		C39.808,353.929,29.459,349.855,25.422,342.481z"/>
	<path style="fill:#C2C7D0;" d="M143.466,350.654v13.489c15.011,5.35,30.773-8.52,23.578-21.662
		C163.006,349.855,152.657,353.929,143.466,350.654z"/>
</g>
<path style="fill:#FFFFFF;" d="M143.03,316.66c1.25,0.121,2.211,1.157,2.211,2.413c0,41.263,0.027,35.23-0.069,37.149
	c-2.804,55.326-81.445,63.929-96.181,10.539c-0.812-2.952-1.342-5.709-1.609-9.135c-0.274-3.465-0.16-22.277-0.16-22.216
	c0-9.609,8.528-16.941,18.039-15.568c14.98,2.162,36.843,1.322,55.922-14.986c1.96-1.676,4.936-1.134,6.188,1.12
	C129.733,310.233,134.434,315.829,143.03,316.66z"/>
<path style="fill:#E4EAF8;" d="M77.274,356.221c-0.095-1.893-0.07,3.949-0.069-35.517c-4.293,0.005-8.321-0.339-11.944-0.862
	c-9.511-1.373-18.039,5.959-18.039,15.568c0-0.06-0.114,18.751,0.16,22.216c0.267,3.426,0.797,6.183,1.609,9.135
	c8.473,30.697,38.069,40.894,62.233,33.506C93.36,394.805,78.466,379.737,77.274,356.221z"/>
<path style="fill:#DDDDDD;" d="M51.775,504.494v-18.267c0-4.144-3.358-7.501-7.501-7.501s-7.501,3.357-7.501,7.501v18.267
	L51.775,504.494L51.775,504.494z"/>
<path style="fill:#FEA82F;" d="M339.161,267.943c-4.854-95.769-140.979-110.659-166.487-18.243
	c-3.73,13.564-3.141,21.014-3.1,50.277h169.712C339.292,270.085,339.288,270.464,339.161,267.943z"/>
<path style="fill:#FF8031;" d="M223.115,265.512c2.522-32.354,22.849-62.975,57.355-73.79
	c-41.839-12.831-93.121,4.811-107.795,57.977c-3.729,13.564-3.141,21.014-3.1,50.277H222.8
	C222.784,288.451,222.818,269.267,223.115,265.512z"/>
<path style="fill:#ABFFDB;" d="M353.905,504.077c9.47,0,16.685-8.484,15.164-17.831l-7.598-46.69
	c-1.705-8.63-2.679-22.981-19.208-29.929c-0.101-0.042-42.363-14.639-42.925-14.987c-16.679-10.327-15.96-9.629-15.96-10.482
	v-16.791c0-0.796-0.826-1.306-1.547-0.968c-16.44,7.72-36.158,8.317-52.924,1.128c-0.717-0.307-1.513,0.203-1.513,0.983
	c0.011,17.028,0.218,16.122-0.506,16.565c-17.053,10.447-15.935,9.779-16.109,9.839l-8.397,2.887h-0.019l0.003,0.006
	c-0.109,0.038-34.911,12.358-32.667,11.351c-9.148,3.416-16.883,10.936-17.964,21.462c-0.442,4.297-5.687,33.801-9.332,54.085
	c-1.815,10.096,5.946,19.372,16.204,19.372L353.905,504.077z"/>
<path style="fill:#91DFBF;" d="M161.351,484.705c0,0,8.891-56.789,9.332-61.085c0.883-8.602,6.116-15.272,13.524-19.406
	c-14.837,5.199-14.618,4.996-14.506,4.946c-9.148,3.416-16.883,10.936-17.964,21.462c-0.442,4.297-5.687,33.801-9.332,54.085
	c-1.815,10.096,5.946,19.372,16.204,19.372h18.947C167.297,504.077,159.536,494.801,161.351,484.705z"/>
<path style="fill:#E4EAF8;" d="M254.429,411.082l32.607-24.057l0,0l-3.657-2.264v-19.112c-17.231,8.674-38.379,9.341-55.985,1.206
	l0.011,17.906l-3.696,2.264L254.429,411.082z"/>
<path style="fill:#C2C7D0;" d="M254.429,411.082v-38.516c-9.278,0.072-18.566-1.799-27.035-5.712l0.011,17.906l-3.696,2.264
	L254.429,411.082z"/>
<g>
	<path style="fill:#FF8031;" d="M227.405,384.761l27.024,26.321l-24.122,16.787c-3.52,2.449-8.406,0.809-9.734-3.269l-9.68-29.724
		L227.405,384.761z"/>
	<path style="fill:#FF8031;" d="M283.379,384.761l-28.95,26.321l24.122,16.787c3.52,2.449,8.406,0.809,9.734-3.269l11.152-29.897
		L283.379,384.761z"/>
</g>
<path style="fill:#FF9052;" d="M265.314,448.243l-21.79-0.051l-14.884,55.93c16.409,0,35.168,0,51.577,0L265.314,448.243z"/>
<polygon style="fill:#FF8031;" points="265.314,448.243 243.524,448.193 228.64,504.122 251.145,504.122 265.549,449.124 "/>
<g>
	<path style="fill:#E4EAF8;" d="M195.058,290.105c-14.73-5.25-31.838,4.513-31.838,18.754c0,14.238,17.106,24.005,31.838,18.754
		V290.105z"/>
	<path style="fill:#E4EAF8;" d="M313.83,290.105c14.73-5.25,31.838,4.513,31.838,18.754c0,14.238-17.106,24.005-31.838,18.754
		V290.105z"/>
</g>
<g>
	<path style="fill:#C2C7D0;" d="M165.676,299.929c-1.554,2.661-2.455,5.678-2.455,8.932c0,14.238,17.106,24.005,31.838,18.754
		v-17.863C183.693,313.802,170.923,308.911,165.676,299.929z"/>
	<path style="fill:#C2C7D0;" d="M313.83,309.752v17.863c14.732,5.25,31.838-4.517,31.838-18.754c0-3.254-0.901-6.271-2.455-8.932
		C337.965,308.911,325.195,313.802,313.83,309.752z"/>
</g>
<path style="fill:#F7CF9C;" d="M313.281,267.916c1.571,0.152,2.78,1.455,2.78,3.034c0,51.879,0.034,44.294-0.087,46.707
	c-3.525,69.56-102.399,80.377-120.927,13.251c-1.021-3.712-1.687-7.178-2.023-11.485c-0.345-4.357-0.201-28.007-0.201-27.932
	c0-12.081,10.722-21.3,22.68-19.573c18.833,2.718,46.323,1.662,70.31-18.841c2.465-2.107,6.206-1.426,7.779,1.408
	C296.564,259.836,302.473,266.873,313.281,267.916z"/>
<path style="fill:#FFFFFF;" d="M313.281,267.916c1.571,0.152,2.78,1.455,2.78,3.034c0,51.879,0.034,44.294-0.087,46.707
	c-3.525,69.56-102.399,80.377-120.927,13.251c-1.021-3.712-1.687-7.178-2.023-11.485c-0.345-4.357-0.201-28.007-0.201-27.932
	c0-12.081,10.722-21.3,22.68-19.573c18.833,2.718,46.323,1.662,70.31-18.841c2.465-2.107,6.206-1.426,7.779,1.408
	C296.564,259.836,302.473,266.873,313.281,267.916z"/>
<path style="fill:#E4EAF8;" d="M222.888,317.656c-0.12-2.384-0.088,4.991-0.087-44.94c-2.547-0.191-4.989-0.466-7.298-0.8
	c-11.957-1.726-22.68,7.492-22.68,19.573c0-0.076-0.143,23.575,0.201,27.932c0.336,4.308,1.002,7.773,2.023,11.485
	c10.205,36.974,44.786,50.292,74.384,43.178C245.295,368.284,224.472,348.9,222.888,317.656z"/>
<path style="fill:#FEA82F;" d="M254.429,411.082l-20.251,14.094l9.38,23.102c7.604,0,14.138,0,21.742,0l9.381-23.102
	L254.429,411.082z"/>
<path style="fill:#FF9052;" d="M251.151,413.363l-16.973,11.812l9.38,23.102c7.604,0,14.138,0,21.742,0l0.014-0.034L251.151,413.363
	z"/>
<g>
	<path style="fill:#474D54;" d="M327.988,396.257c0.017,0.006,0.034,0.012,0.05,0.017
		C328.019,396.267,328.002,396.262,327.988,396.257z"/>
	<path style="fill:#474D54;" d="M327.964,396.248c0.007,0.002,0.015,0.005,0.024,0.009
		C327.979,396.254,327.972,396.251,327.964,396.248z"/>
	<path style="fill:#474D54;" d="M327.947,396.242c0.005,0.002,0.011,0.004,0.016,0.006
		C327.957,396.246,327.952,396.244,327.947,396.242z"/>
	<path style="fill:#474D54;" d="M486.665,422.745C487.116,422.881,486.522,422.664,486.665,422.745L486.665,422.745z"/>
	<path style="fill:#474D54;" d="M328.037,396.274c0.034,0.012,0.073,0.026,0.111,0.039
		C328.116,396.302,328.079,396.289,328.037,396.274z"/>
	<path style="fill:#474D54;" d="M511.459,480.756c-6.025-35.436-5.148-49.742-24.303-57.793c-0.302-0.127-0.439-0.19-0.489-0.218
		c-0.926-0.279-6.297-2.061-31.782-11.062l-0.009,0.022c-2.603-0.915,0.062,0.128-9.642-5.65v-3.872
		c10.092-6.148,18.523-15.635,22.801-28.543c22.613,1.761,35.577-22.902,21.368-38.476c0.002-17.945,1.003-35.138-11.5-54.646
		c18.527-78.477-5.598-164.432-69.233-221.845c-3.077-2.775-7.819-2.532-10.594,0.544c-2.775,3.076-2.531,7.819,0.544,10.594
		c12.25,11.052,23.059,23.41,32.312,36.756c-21.213-7.438-44.26-13.451-68.506-17.936c-12.456-27.656-28.416-49.84-46.619-65.099
		c19.686,5.749,38.515,14.347,55.925,25.638c3.472,2.254,8.12,1.265,10.374-2.211c2.254-3.476,1.265-8.12-2.211-10.374
		C291.955-20.449,172.658-11.107,94.77,66.779c-58.89,58.89-78.024,140.785-60.611,214.057
		c-12.889,20.979-11.619,39.02-11.598,54.35c-14.245,15.657-1.061,40.41,21.63,38.439c4.614,13.393,12.814,22.832,22.559,28.837
		v3.593l-1.528,0.946c-8.34,4.928-5.632,3.831-8.112,4.703l-0.008-0.021c-38.608,13.635-29.221,9.998-32.276,11.281
		c-9.528,4.005-15.453,11.057-18.112,21.556c-1.017,4.016,1.414,8.096,5.43,9.113c4.01,1.012,8.096-1.413,9.113-5.43
		c1.099-4.34,2.996-8.725,9.38-11.408c0.897-0.373,2.977-0.906,3.533-1.104c28.074-9.916,21.167-7.475,22.939-8.087l6.196,16.607
		c2.047,5.989,8.066,9.301,13.935,8.323l3.399,8.371l-9.64,36.088H52.405v-17.421c0-4.143-3.357-7.501-7.501-7.501
		s-7.501,3.357-7.501,7.501v17.421c-7.011-0.626-14.097,2.024-19.387-4.195c-4.083-4.802-2.5-10.385-2.51-10.698
		c0.666-4.089-2.108-7.942-6.198-8.608c-4.09-0.665-7.942,2.108-8.608,6.198c0.018,0.389-3.116,12.238,5.889,22.827
		c5.123,6.024,12.597,9.48,20.504,9.48c58.444-0.003,432.563,0.01,457.799,0C501.487,511.996,514.122,497.116,511.459,480.756z
		 M455.992,356.84c-0.953,18.815-12.824,33.212-31.063,37.66c-26.254,6.233-49.532-11.527-51.112-36.665
		c-0.178-3.05-0.129-19.995-0.123-21.286c0-4.965,4.386-8.752,9.345-8.039c15.623,2.255,38.108,1.495,58.412-14.11
		c3.751,5.09,8.766,8.576,14.601,10.159C456.041,332.473,456.092,354.85,455.992,356.84z M327.94,396.24
		c-0.001,0-0.001,0-0.002-0.001c-1.292-0.456-6.133-2.166-21.834-7.71l0,0l-0.017-0.006l-0.001,0.003
		c-3.751-1.206,0.108,0.107-13.596-7.929v-7.185c14.246-8.399,24.621-21.209,29.544-37.284c6.079,0.778,12.602-0.226,18.288-3.069
		c0,0.692,0.001,1.399,0.002,2.129c-9.008,9.901-7.856,25.716,4.529,34.052c0.002,0.002,0.004,0.003,0.007,0.005
		c-4.963,9.942-10.432,19.054-16.331,27.203c-0.393-0.139-0.552-0.195-0.586-0.207c0.001,0.001,0.003,0.001,0.005,0.002
		C327.945,396.241,327.942,396.24,327.94,396.24z M283.123,420.959L283.123,420.959c-0.042-0.029-0.954-0.664-15.168-10.556
		l17.896-16.272c0.101,0.062,6.473,4.007,6.075,3.76l-8.646,23.176c-0.115-0.08-0.147-0.102-0.154-0.107
		C283.125,420.96,283.125,420.96,283.123,420.959z M256.123,400.885l-19.792-19.277v-0.73c13.021,3.586,27.475,3.491,41.159-0.805
		v1.385L256.123,400.885z M267.058,428.056l-5.257,12.945h-11.713l-5.256-12.945l11.112-7.734L267.058,428.056z M163.307,286.005
		c-5.941-11.477-14.765-20.579-25.159-27.118c-0.636-7.744-1.032-15.572-1.188-23.385h33.745
		C162.819,254.739,163.302,265.27,163.307,286.005z M157.838,357.352c-1.443,0.767-3.076,1.228-4.546,1.342
		c0-5.605,0-10.713,0-16.842C162.593,342.576,166.227,352.822,157.838,357.352z M186.634,321.369
		c-3.692,0.178-7.369-0.83-10.396-2.965c-11.274-7.953-3.673-23.228,10.376-22.523C186.607,298.05,186.634,321.262,186.634,321.369z
		 M136.965,220.501c0.777-40.068,7.891-81.684,23.203-118.523c28.195-4.767,57.973-7.431,88.323-7.809v85.643
		c-28.763,1.925-54.759,16.483-70.098,40.689H136.965z M171.635,335.164c0-0.727,0-1.418,0-2.085
		c5.265,2.62,11.783,3.923,18.505,3.016c6.005,18.634,17.551,31.24,31.182,38.727l0.005,5.755
		c-15.06,9.226-6.32,5.417-37.517,16.358c-5.64-7.732-11.449-17.197-16.687-27.689C178.684,362.027,181.271,345.725,171.635,335.164
		z M227.777,394.219l16.425,15.998c-0.538,0.375-12.109,8.429-15.544,10.819l-7.429-22.807
		C221.365,398.146,228.174,393.976,227.777,394.219z M204.375,331.333c-3.184-9.905-2.739-12.983-2.739-40.136
		c0-7.69,6.834-13.273,14.183-12.215c19.87,2.868,48.663,1.829,74.33-18.835c4.894,7.478,11.88,12.409,20.13,14.234
		c-0.006,43.45,0.135,41.226-0.329,45.921C304.102,377.862,222.074,386.439,204.375,331.333z M325.285,321.369
		c0-3.237,0-23.085,0-25.487c4.309-0.223,8.876,1.293,12.07,4.342C346.404,308.943,338.033,321.984,325.285,321.369z
		 M358.691,358.694c-2.113-0.165-4.456-1.008-6.268-2.483c-6.552-5.395-1.568-13.735,6.248-14.356
		C358.662,346.411,358.671,344.594,358.691,358.694z M348.583,286.887c0.002-15.049,1.172-31.329-6.897-51.384h33.337
		c-0.153,7.704-0.541,15.416-1.161,23.039C363.665,265.003,354.78,274.326,348.583,286.887z M359.368,373.718
		c1,0.01,2.479-0.087,2.579-0.091c4.018,11.535,10.647,20.37,19.305,26.647c-6.406,4.664-13.08,8.977-19.956,12.899
		c-4.575-5.566-11.326-9.64-17.965-11.71C349.126,393.022,354.493,383.739,359.368,373.718z M460.629,325.392
		c0.002,0,0.003,0,0.005,0c0,0,0,0.001,0.001,0.001C460.633,325.392,460.631,325.392,460.629,325.392z M476.728,356.668
		c-1.676,1.182-3.639,1.866-5.673,2.024v-16.842C479.692,342.524,483.79,351.692,476.728,356.668z M474.4,327.169
		c-1.106-0.178-2.223-0.288-3.346-0.327l-0.001-6.52c0-5.132-3.86-9.372-8.98-9.863c-4.17-0.403-7.438-2.687-9.713-6.786
		c-3.54-6.374-12.017-7.928-17.577-3.173c-16.81,14.367-36.246,15.087-49.601,13.163c-10.15-1.465-20.052,3.888-24.352,13.182
		c-1.845-0.083-3.685,0.035-5.496,0.328c0.065-14.227,1.055-24.92,9.396-38.387c11.917-19.188,32.465-27.21,51.514-26.681
		c29.252,0.942,56.3,21.378,58.066,56.218C474.405,320.258,474.4,316.139,474.4,327.169z M465.573,266.132
		c-20.878-18.509-50.576-23.739-76.178-14.989c0.307-5.202,0.521-10.42,0.621-15.641h78.832
		C468.484,245.894,467.423,255.876,465.573,266.132z M263.492,15.437c20.788,2.365,40.836,14.532,58.391,35.558
		c8.314,9.959,15.815,21.595,22.407,34.603c-26.023-3.906-53.194-6.098-80.798-6.434V15.437z M263.492,94.169
		c30.343,0.377,60.113,3.041,88.303,7.805c5.767,13.935,10.599,29.109,14.351,45.307c0.936,4.036,4.973,6.553,8.999,5.616
		c4.036-0.935,6.551-4.964,5.616-8.999c-3.167-13.68-7.039-26.601-11.528-38.669c26.859,5.506,52.007,12.978,74.488,22.253
		c15.234,28.463,23.961,60.271,25.121,93.018h-78.821c-0.262-13.744-1.236-27.45-2.922-40.844c-0.518-4.109-4.282-7.024-8.379-6.506
		c-4.109,0.518-7.023,4.27-6.506,8.379c1.608,12.777,2.541,25.852,2.801,38.971h-41.139c-15.552-23.783-42.249-38.232-70.385-40.566
		V94.169H263.492z M333.465,267.95c0.142,2.811,0.12-3.629,0.116,13.799c-2.707-0.649-5.497-0.939-8.299-0.865l-0.001-10.293
		c0-5.465-4.113-9.983-9.568-10.51c-0.001,0-0.001,0-0.002-0.001c-6-0.578-10.682-3.825-13.917-9.649
		c-1.852-3.335-5.06-5.635-8.801-6.309c-3.732-0.672-7.54,0.36-10.435,2.834c-21.926,18.741-47.227,19.687-64.597,17.181
		c-12.492-1.802-24.626,5.125-29.349,16.86c-3.47-0.306-6.95-0.048-10.301,0.758c0.007-3.852,0.031-9.533,0.159-13.375
		c1.089-32.21,25.463-71.664,73.455-73.712C291.977,192.958,331.039,220.097,333.465,267.95z M248.491,15.44v63.725
		c-27.6,0.336-54.769,2.527-80.788,6.433C184.49,52.529,211.532,19.612,248.491,15.44z M196.108,23.585
		c-20.289,17.095-35.589,40.968-46.494,65.036c-24.242,4.483-47.286,10.491-68.497,17.924
		C108.567,67.144,148.969,37.418,196.108,23.585z M68.246,127.49c22.491-9.281,47.651-16.757,74.524-22.264
		c-13.526,36.117-20.073,75.942-20.81,115.275H43.139C44.294,187.346,53.018,155.817,68.246,127.49z M121.968,235.503
		c0.102,5.324,0.323,10.649,0.64,15.959c-27.9-9.648-57.336-2.827-76.226,14.522c-1.826-10.126-2.901-20.307-3.247-30.481
		L121.968,235.503L121.968,235.503z M31.659,350.273c0-4.688,4.537-8.044,9.247-8.418c-0.009,4.683,0.003,8.419,0.02,16.839
		C36.255,358.33,31.659,354.995,31.659,350.273z M43.064,326.844c-1.845-0.083-3.685,0.035-5.496,0.328
		c0.034-8.443-0.066-13.501,2.173-21.642c17.841-64.639,113.393-54.458,116.804,12.795c0.099,2.021,0.092-2.298,0.09,8.844
		c-1.106-0.178-2.223-0.288-3.346-0.327l-0.001-6.521c0-5.132-3.86-9.372-8.98-9.863c-4.17-0.403-7.438-2.687-9.713-6.786
		c-3.547-6.391-12.026-7.915-17.577-3.173c-16.81,14.369-36.252,15.088-49.6,13.163C57.198,312.188,47.336,317.61,43.064,326.844z
		 M56.064,358.024c-0.204-2.577-0.136-15.426-0.136-21.475c0-4.957,4.381-8.752,9.346-8.039c15.626,2.255,38.108,1.497,58.411-14.11
		c3.751,5.09,8.766,8.576,14.601,10.159c-0.04,30.935,1.063,37.583-3.917,48.321C117.872,408.106,59.498,401.963,56.064,358.024z
		 M76.373,436.328L70.74,421.23l2.648-1.64l11.722,10.657L76.373,436.328z M86.524,496.994l7.769-29.081h5.655l7.769,29.081H86.524z
		 M90.327,444.895l6.794-4.729l6.793,4.729l-3.255,8.017h-7.076L90.327,444.895z M96.943,420.729l-12.346-11.226
		c7.387,1.539,15.785,1.736,23.566,0.298L96.943,420.729z M119.525,419.677c0.111,0.068,3.218,1.971,3.025,1.853l-4.795,14.719
		l-8.893-6.189L119.525,419.677z M141.713,496.994h-18.468l-9.641-36.089l3.398-8.37c5.826,0.972,11.979-2.309,13.996-8.504
		l5.286-16.227c3.461,1.225,6.464,2.285,9.042,3.194C139.507,472.229,132.582,481.987,141.713,496.994z M130.564,400.154
		c8.708-6.13,15.871-14.949,19.703-26.511c0.102,0.008,1.768,0.084,2.35,0.079c5.173,10.63,10.578,19.825,16.42,28.289
		c-4.618,1.218-12.162,5.742-17.044,11.906C144.602,409.773,137.433,405.168,130.564,400.154z M224.323,496.984h-27.167v-24.149
		c0-4.143-3.357-7.501-7.501-7.501c-4.144,0-7.501,3.357-7.501,7.501v24.149c-2.567,0-9.793,0-13.789,0
		c-10.075,0-17.697-9.108-15.923-19.018c9.301-51.996,7.759-49.405,10.195-53.177c4.308-6.664,9.996-8.112,15.576-10.025
		c7.375-2.528,19.258-6.733,29.28-10.266l7.352,22.572c2.396,7.36,10.116,11.089,17.078,9.071l5.22,12.856L224.323,496.984z
		 M239.852,496.984l10.948-40.982h10.292l10.947,40.982H239.852z M344.881,496.984c-2.352,0-11.658,0-15.12,0v-24.149
		c0-4.143-3.357-7.501-7.501-7.501s-7.501,3.357-7.501,7.501v24.149h-27.192l-12.82-47.99l5.22-12.855
		c6.874,1.994,14.546-1.621,17.018-8.893l8.573-22.979c0.095,0.033,2.169,0.757,2.304,0.804l0,0
		c0.473,0.149-0.348-0.138,2.424,0.841c48.108,16.995,40.812,5.526,51.526,71.16C363.514,487.515,355.446,496.984,344.881,496.984z
		 M388.738,496.994h-16.662c4.053-6.415,5.844-14.347,4.545-22.331c-3.795-22.935-6.036-38.167-7.503-44.533
		c1.974-0.697,4.166-1.471,6.581-2.327l5.285,16.228c2.011,6.172,8.148,9.479,13.996,8.504l3.399,8.371L388.738,496.994z
		 M394.226,436.249l-4.794-14.719c0.105-0.065,3.218-1.971,3.025-1.853l10.661,10.384L394.226,436.249z M427.597,409.311
		l-12.558,11.417l-11.218-10.926C411.647,411.246,419.767,411.079,427.597,409.311z M421.657,444.895l-3.255,8.017h-7.077
		l-3.255-8.017l6.794-4.729L421.657,444.895z M404.266,496.994l7.769-29.081h5.655l7.768,29.081H404.266z M438.593,419.589
		c0.101,0.062,2.821,1.746,2.649,1.64l-5.633,15.098l-8.738-6.081L438.593,419.589z M493.967,492.798
		c-5.29,6.219-12.396,3.571-19.387,4.195v-17.421c0-4.143-3.357-7.501-7.501-7.501c-4.144,0-7.501,3.357-7.501,7.501v17.421h-18.593
		l-9.64-36.088l3.399-8.371c5.781,0.963,11.86-2.255,13.935-8.323l6.196-16.607c12.709,4.467-3.587-1.284,16.902,5.955
		c20.341,7.16,17.225,2.923,24.874,49.608C497.213,486.621,496.236,490.132,493.967,492.798z"/>
	<path style="fill:#474D54;" d="M307.863,405.073L307.863,405.073C307.873,405.076,307.872,405.076,307.863,405.073z"/>
	<path style="fill:#474D54;" d="M328.149,396.313c0.012,0.004,0.022,0.008,0.033,0.012
		C328.171,396.321,328.16,396.317,328.149,396.313z"/>
	<path style="fill:#474D54;" d="M328.294,396.365C328.389,396.398,328.364,396.389,328.294,396.365L328.294,396.365z"/>
	<path style="fill:#474D54;" d="M328.181,396.325c0.042,0.015,0.081,0.029,0.112,0.04
		C328.267,396.355,328.23,396.342,328.181,396.325z"/>
</g>
<g>
</g>
<g>
</g>
<g>
</g>
<g>
</g>
<g>
</g>
<g>
</g>
<g>
</g>
<g>
</g>
<g>
</g>
<g>
</g>
<g>
</g>
<g>
</g>
<g>
</g>
<g>
</g>
<g>
</g>
</svg>
