<?xml version="1.0" encoding="iso-8859-1"?>
<!-- Generator: Adobe Illustrator 19.0.0, SVG Export Plug-In . SVG Version: 6.00 Build 0)  -->
<svg version="1.1" id="Capa_1" xmlns="http://www.w3.org/2000/svg" xmlns:xlink="http://www.w3.org/1999/xlink" x="0px" y="0px"
	 viewBox="0 0 512.001 512.001" style="enable-background:new 0 0 512.001 512.001;" xml:space="preserve">
<path style="fill:#FEA82F;" d="M285.906,324.966h-95.475H149.2L159.2,480.498c8.922,0,185.149,0,193.595,0l10.001-155.532
	L285.906,324.966L285.906,324.966z"/>
<path style="fill:#FF8031;" d="M149.201,324.966l10.001,155.532c8.589,0,24.707,0,32.23,0L181.43,324.966L149.201,324.966
	L149.201,324.966z"/>
<g>
	<path style="fill:#E4EAF8;" d="M158.561,147.634v-17.796c0-9.656-7.827-17.483-17.483-17.483s-17.483,7.827-17.483,17.483v17.797
		h34.966V147.634z"/>
	<path style="fill:#E4EAF8;" d="M353.435,147.634v-17.796c0-9.656,7.827-17.483,17.483-17.483s17.483,7.827,17.483,17.483v17.797
		h-34.966V147.634z"/>
	<path style="fill:#E4EAF8;" d="M238.515,147.634v-17.796c0-9.656,7.827-17.483,17.483-17.483c9.656,0,17.483,7.827,17.483,17.483
		v17.797h-34.966V147.634z"/>
</g>
<g>
	<path style="fill:#C2C7D0;" d="M149.82,114.713c-2.573-1.491-5.553-2.358-8.742-2.358c-9.656,0-17.483,7.827-17.483,17.483v17.796
		h17.483v-17.796C141.078,123.37,144.599,117.737,149.82,114.713z"/>
	<path style="fill:#C2C7D0;" d="M379.659,114.713c-2.573-1.491-5.553-2.358-8.742-2.358c-9.656,0-17.483,7.827-17.483,17.483v17.796
		h17.483v-17.796C370.918,123.37,374.439,117.737,379.659,114.713z"/>
	<path style="fill:#C2C7D0;" d="M264.74,114.713c-2.573-1.491-5.553-2.358-8.742-2.358c-9.656,0-17.483,7.827-17.483,17.483v17.796
		h17.483v-17.796C255.998,123.37,259.519,117.737,264.74,114.713z"/>
</g>
<path style="fill:#FFFFFF;" d="M362.796,325.966L378.4,197.637c-6.116,0-243.46,0-244.805,0l15.605,128.329H362.796z"/>
<polygon style="fill:#E4EAF8;" points="133.596,197.637 149.201,325.966 181.43,325.966 165.826,197.637 "/>
<path style="fill:#6DC296;" d="M406.487,146.634c-36.747,0-271.062,0-300.977,0c-3.997,0-7.015,3.622-6.294,7.554l7.055,38.472
	c0.847,4.62,4.874,7.976,9.572,7.976c14.421,0,266.11,0,280.313,0c4.697,0,8.725-3.356,9.572-7.976l7.055-38.472
	C413.503,150.257,410.483,146.634,406.487,146.634z"/>
<path style="fill:#5FA77E;" d="M156.362,192.661l-7.055-38.472c-0.721-3.931,2.298-7.554,6.294-7.554h-50.092
	c-3.997,0-7.015,3.622-6.295,7.554l7.055,38.472c0.847,4.62,4.874,7.976,9.572,7.976h50.092
	C161.236,200.637,157.209,197.282,156.362,192.661z"/>
<path style="fill:#ABFFDB;" d="M367.322,490.999L367.322,490.999c0,7.456-6.044,13.501-13.501,13.501H159.175
	c-7.456,0-13.501-6.044-13.501-13.501l0,0c0-7.456,6.044-13.501,13.501-13.501h194.646
	C361.277,477.498,367.322,483.542,367.322,490.999z"/>
<path style="fill:#92E0C0;" d="M179.176,490.999c0-7.456,6.044-13.501,13.501-13.501h-33.502c-7.456,0-13.501,6.044-13.501,13.501
	s6.044,13.501,13.501,13.501h33.502C185.221,504.5,179.176,498.455,179.176,490.999z"/>
<path style="fill:#AFB5BC;" d="M169.282,53.959c-4.188,0-8.316-1.942-10.957-5.599c-4.364-6.045-3.002-14.484,3.043-18.849
	l7.658-5.529c6.043-4.362,14.484-3.004,18.849,3.043c4.364,6.045,3.002,14.484-3.043,18.849l-7.658,5.529
	C174.785,53.128,172.02,53.959,169.282,53.959z"/>
<path style="fill:#969A9F;" d="M180.615,45.85c-4.188,0-8.316-1.942-10.957-5.599c-3.955-5.478-3.193-12.912,1.48-17.508
	c-0.727,0.346-1.436,0.752-2.113,1.24l-7.658,5.529c-6.045,4.364-7.407,12.804-3.043,18.849c2.64,3.656,6.768,5.599,10.957,5.599
	c2.738,0,5.503-0.831,7.892-2.556l7.658-5.529c0.564-0.407,1.074-0.861,1.556-1.334C184.548,45.415,182.577,45.85,180.615,45.85z"/>
<g>
	<path style="fill:#AFB5BC;" d="M342.715,53.959c4.189,0,8.317-1.942,10.957-5.599c4.364-6.045,3.002-14.484-3.043-18.849
		l-7.658-5.529c-6.043-4.362-14.484-3.004-18.849,3.043c-4.364,6.045-3.002,14.484,3.043,18.849l7.658,5.529
		C337.212,53.128,339.976,53.959,342.715,53.959z"/>
	<path style="fill:#AFB5BC;" d="M255.998,47.503c-7.456,0-13.501-6.044-13.501-13.501V21.001c0-7.456,6.044-13.501,13.501-13.501
		c7.456,0,13.501,6.044,13.501,13.501v13.001C269.499,41.459,263.454,47.503,255.998,47.503z"/>
</g>
<g>
	<path style="fill:#969A9F;" d="M255.998,32.502c-7.136,0-12.965-5.54-13.453-12.553c-0.029,0.347-0.048,0.697-0.048,1.052v13.001
		c0,7.456,6.044,13.501,13.501,13.501c7.456,0,13.501-6.044,13.501-13.501V21.001c0-0.355-0.019-0.705-0.048-1.052
		C268.963,26.962,263.134,32.502,255.998,32.502z"/>
	<path style="fill:#969A9F;" d="M331.381,45.85c4.188,0,8.316-1.942,10.957-5.599c3.955-5.478,3.193-12.912-1.48-17.508
		c0.727,0.346,1.436,0.752,2.113,1.24l7.658,5.529c6.045,4.364,7.407,12.804,3.043,18.849c-2.64,3.656-6.768,5.599-10.957,5.599
		c-2.738,0-5.503-0.831-7.892-2.556l-7.658-5.529c-0.564-0.407-1.074-0.861-1.556-1.334C327.448,45.415,329.42,45.85,331.381,45.85z
		"/>
</g>
<g>
	<path style="fill:#ABB0B7;" d="M302.029,236.499h-92.062c-4.143,0-7.5,3.357-7.5,7.5c0,4.143,3.357,7.5,7.5,7.5h92.062
		c4.142,0,7.5-3.357,7.5-7.5C309.529,239.858,306.171,236.499,302.029,236.499z"/>
	<path style="fill:#ABB0B7;" d="M302.029,272.5h-92.062c-4.143,0-7.5,3.357-7.5,7.5c0,4.143,3.357,7.5,7.5,7.5h92.062
		c4.142,0,7.5-3.357,7.5-7.5C309.529,275.858,306.171,272.5,302.029,272.5z"/>
</g>
<path style="fill:#474D54;" d="M417.166,144.136c-6.087-7.306-14.588-4.348-21.264-5.002v-10.296
	c0-11.164-7.36-20.639-17.483-23.832V67.767c0-14.296-12.61-19.16-15.417-21.921c2.158-8.163-0.738-17.185-7.982-22.415
	l-7.659-5.529c-9.411-6.792-22.525-4.678-29.32,4.733c-6.793,9.41-4.677,22.527,4.733,29.321c5.795,3.551,10.217,9.505,19.941,9.505
	c4.136,0,8.132-1.233,11.514-3.445c4.48,3.803,9.189,4.932,9.189,9.753v37.239c-10.122,3.193-17.482,12.668-17.482,23.831v10.296
	h-64.953v-10.296c0-11.164-7.36-20.639-17.483-23.832v-51.41C271.381,50.567,277,42.938,277,34.002V21.001
	C277,9.422,267.579,0,255.999,0c-11.58,0-21.001,9.422-21.001,21.001v13.001c0,8.935,5.618,16.563,13.5,19.592v51.412
	c-10.122,3.193-17.482,12.668-17.482,23.831v10.296h-15.785c-4.143,0-7.5,3.357-7.5,7.5c0,4.143,3.357,7.5,7.5,7.5
	c27.635,0,166.43,0,189.937,0l-6.816,37.173c-0.194,1.06-1.117,1.829-2.194,1.829c-26.23,0-266.412,0-280.314,0
	c-1.077,0-2-0.77-2.194-1.828l-6.816-37.174c14.641,0,53.62,0,73.397,0c4.143,0,7.5-3.357,7.5-7.5c0-4.143-3.357-7.5-7.5-7.5
	h-14.165v-10.296c0-11.164-7.36-20.639-17.483-23.832V67.767c0-4.816,4.672-5.918,9.189-9.753c3.382,2.212,7.378,3.446,11.514,3.446
	c9.692,0,14.281-6.035,19.941-9.505c15.25-11.01,9.328-34.812-8.948-37.76c-11.92-1.919-18.311,6.391-23.298,9.235
	c-7.244,5.23-10.141,14.253-7.981,22.415c-2.902,2.855-15.417,7.547-15.417,21.92v37.24c-10.123,3.193-17.483,12.668-17.483,23.832
	v10.296c-7.004,0.686-15.187-2.289-21.264,5.002c-2.648,3.178-3.739,7.335-2.993,11.405l7.055,38.474
	c1.501,8.183,8.63,14.123,16.949,14.123h11.13l14.76,118.542l9.561,144.867c-7.682,3.125-13.118,10.661-13.118,19.452
	c0,11.58,9.422,21.001,21.001,21.001h21.052c4.143,0,7.5-3.357,7.5-7.5s-3.357-7.5-7.5-7.5h-21.052c-3.309,0-6-2.691-6-6
	c0-3.309,2.691-6,6-6c11.185,0,183.725,0,194.646,0c3.309,0,6,2.691,6,6c0,3.309-2.691,6-6,6H215.23c-4.143,0-7.5,3.357-7.5,7.5
	s3.357,7.5,7.5,7.5h138.591c11.58,0,21.001-9.422,21.001-21.001c0-9.158-5.902-16.944-14.094-19.81l9.538-144.509l8-64.252
	c0.512-4.11-2.405-7.857-6.516-8.37c-4.1-0.511-7.857,2.404-8.37,6.516l-7.208,57.892H155.824L142.088,208.14h227.821l-2.171,17.435
	c-0.512,4.11,2.405,7.857,6.516,8.37c4.103,0.509,7.857-2.404,8.369-6.516l2.401-19.288h11.131c8.32,0,15.448-5.939,16.949-14.124
	l7.055-38.473C420.906,151.471,419.815,147.315,417.166,144.136z M347.59,43.97c-0.1,0.085-1.611,2.489-4.875,2.489
	c-3.134,0-4.06-1.886-11.16-6.666c-4.735-3.415-2.26-10.866,3.524-10.866c3.132,0,4.069,1.897,11.158,6.666
	c1.3,0.938,2.156,2.326,2.411,3.908C349.082,42.18,347.545,44.07,347.59,43.97z M249.998,21.001c0-3.309,2.691-6,6-6
	c3.309,0,6,2.691,6,6v13.001c0,3.309-2.691,6-6,6c-3.309,0-6-2.691-6-6L249.998,21.001L249.998,21.001z M265.981,139.133h-19.965
	v-10.296c0-5.504,4.477-9.983,9.982-9.983s9.983,4.479,9.983,9.983v10.296H265.981z M380.901,139.133h-19.965v-10.296
	c0-5.504,4.477-9.983,9.982-9.983s9.983,4.479,9.983,9.983v10.296H380.901z M165.759,35.593c6.506-4.213,8.191-7.228,12.128-6.588
	c5.242,0.844,6.883,7.665,2.555,10.788c-6.961,4.688-8.013,6.666-11.16,6.666c-1.956,0-3.733-0.907-4.875-2.489
	C162.465,41.283,163.068,37.533,165.759,35.593z M131.095,128.838c0-5.504,4.478-9.983,9.983-9.983s9.983,4.479,9.983,9.983v10.296
	h-19.966v-10.296H131.095z M354.784,333.466l-9.011,136.531H166.223l-9.011-136.531L354.784,333.466L354.784,333.466z"/>
<g>
</g>
<g>
</g>
<g>
</g>
<g>
</g>
<g>
</g>
<g>
</g>
<g>
</g>
<g>
</g>
<g>
</g>
<g>
</g>
<g>
</g>
<g>
</g>
<g>
</g>
<g>
</g>
<g>
</g>
</svg>
