<?xml version="1.0" encoding="iso-8859-1"?>
<!-- Generator: Adobe Illustrator 19.0.0, SVG Export Plug-In . SVG Version: 6.00 Build 0)  -->
<svg version="1.1" id="Capa_1" xmlns="http://www.w3.org/2000/svg" xmlns:xlink="http://www.w3.org/1999/xlink" x="0px" y="0px"
	 viewBox="0 0 512 512" style="enable-background:new 0 0 512 512;" xml:space="preserve">
<path style="fill:#ABFFDB;" d="M467.393,120.707h-95.957c-5.412,0-9.841,4.428-9.841,9.841c0,4.192,0,67.368,0,63.593
	c0,6.16,4.993,11.154,11.154,11.154c88.986,0,82.812-0.6,85.369,1.813l14.101,13.31c1.896,1.79,5.014,0.446,5.014-2.162
	c0-8.084,0-93.071,0-87.707C477.234,125.135,472.805,120.707,467.393,120.707z"/>
<path style="fill:#FEA82F;" d="M44.014,120.707h95.957c5.412,0,9.841,4.428,9.841,9.841c0,4.192,0,67.368,0,63.593
	c0,6.16-4.993,11.154-11.154,11.154c-86.308,0-82.533-0.863-85.369,1.813l-14.101,13.31c-1.896,1.79-5.014,0.446-5.014-2.162
	c0-8.084,0-93.071,0-87.707C34.174,125.135,38.602,120.707,44.014,120.707z"/>
<path style="fill:#FFFFFF;" d="M315.801,7.501H195.605c-8.658,0-15.741,7.084-15.741,15.741v81.724
	c0,8.658,7.083,15.741,15.741,15.741h43.3l12.228,17.687c2.488,3.598,6.559,3.598,9.048,0l12.228-17.687h43.393
	c8.658,0,15.741-7.084,15.741-15.741V23.242C331.542,14.584,324.458,7.501,315.801,7.501z"/>
<path style="fill:#92E0C0;" d="M391.446,194.14c0-23.888,0-39.872,0-63.593c0-5.412,4.428-9.841,9.841-9.841h-29.852
	c-5.412,0-9.841,4.428-9.841,9.841c0,14.111,0,52.404,0,63.593c0,6.16,4.994,11.154,11.154,11.154c7.684,0,22.197,0,29.852,0
	C396.441,205.294,391.446,200.3,391.446,194.14z"/>
<path style="fill:#ED3E3E;" d="M453.555,205.294c4.474,0,5.127,3.057,18.664,15.123c1.896,1.79,5.014,0.445,5.014-2.162v-12.961
	L453.555,205.294L453.555,205.294z"/>
<path style="fill:#FF9052;" d="M64.027,130.547c0-5.412,4.428-9.841,9.841-9.841H44.015c-5.412,0-9.841,4.428-9.841,9.841
	c0,10.549,0,77.59,0,87.707c0,2.608,3.118,3.952,5.014,2.162c13.542-12.07,14.187-15.123,18.664-15.123h6.173
	C64.027,181.582,64.027,154.15,64.027,130.547z"/>
<g>
	<path style="fill:#E4EAF8;" d="M209.717,104.966V23.242c0-8.658,7.084-15.741,15.741-15.741h-29.852
		c-8.658,0-15.741,7.084-15.741,15.741v81.724c0,8.658,7.084,15.741,15.741,15.741h29.852
		C216.801,120.707,209.717,113.623,209.717,104.966z"/>
	<path style="fill:#E4EAF8;" d="M268.758,120.707h-29.852l12.228,17.687c2.488,3.598,6.559,3.598,9.048,0l10.403-15.047
		L268.758,120.707z"/>
</g>
<path style="fill:#FEA82F;" d="M480.851,316.267c-3.86-76.168-112.124-88.01-132.412-14.51c-1.118,4.064-1.848,7.86-2.215,12.576
	c-0.236,2.986-0.263,18.244-0.25,27.41H480.95C480.954,317.97,480.951,318.272,480.851,316.267z"/>
<path style="fill:#FF8031;" d="M396.835,301.757c6.517-23.612,22.119-38.402,40.416-45.096
	c-42.43-15.156-87.401,11.151-91.027,57.672c-0.236,2.986-0.263,18.244-0.25,27.41h48.396
	C394.332,315.705,394.163,311.473,396.835,301.757z"/>
<path style="fill:#ABFFDB;" d="M484.406,504.07c11.815,0,20.818-10.586,18.919-22.248l-4.73-29.068
	c-1.356-6.864-2.131-18.277-15.277-23.803c-1.227-0.515-4.021-1.285-3.965-1.269c-57.655-20.366-4.594-1.624-30.095-10.602
	l-12.772-7.908v-15.2c-13.704,6.898-30.523,7.429-44.526,0.959l0.009,14.241l-13.133,8.046l-6.767,2.327h-0.015l0.002,0.004
	c-0.102,0.036-27.811,9.849-25.981,9.028c-7.276,2.717-13.427,8.698-14.287,17.069c-0.376,3.654-5.121,30.242-8.007,46.263
	c-1.142,6.337,3.729,12.159,10.169,12.159h150.457V504.07z"/>
<path style="fill:#E4EAF8;" d="M413.461,430.109l25.933-19.133l0,0l-2.909-1.801v-15.2c-13.704,6.898-30.523,7.429-44.526,0.959
	l0.009,14.241l-2.94,1.801L413.461,430.109z"/>
<path style="fill:#C2C7D0;" d="M413.596,399.459c-7.424,0.081-14.859-1.394-21.637-4.525l0.009,14.241l-2.94,1.801l24.018,18.807
	h0.551L413.596,399.459L413.596,399.459z"/>
<g>
	<path style="fill:#FF8031;" d="M391.968,409.175l21.493,20.935l-19.184,13.351c-2.799,1.948-6.685,0.643-7.743-2.6l-7.7-23.64
		L391.968,409.175z"/>
	<path style="fill:#FF8031;" d="M436.486,409.175l-23.025,20.935l19.184,13.351c2.799,1.948,6.685,0.643,7.742-2.6l8.87-23.778
		L436.486,409.175z"/>
</g>
<path style="fill:#FF9052;" d="M422.108,459.691c-6.047,0-11.244,0-17.292,0l-11.865,44.414c14.351,0,26.67,0,41.021,0
	L422.108,459.691z"/>
<path style="fill:#FEA82F;" d="M413.461,430.109l-16.106,11.209l7.461,18.373c6.047,0,11.244,0,17.291,0l7.461-18.373
	L413.461,430.109z"/>
<path style="fill:#FF8031;" d="M422.108,459.691c-6.047,0-11.244,0-17.292,0l-11.865,44.414h17.299l11.861-44.401L422.108,459.691z"
	/>
<path style="fill:#FF9052;" d="M410.843,431.931l-13.488,9.387l7.461,18.373c6.047,0,11.244,0,17.291,0l0.004-0.009L410.843,431.931
	z"/>
<g>
	<path style="fill:#E4EAF8;" d="M366.241,333.893c-11.715-4.174-25.322,3.589-25.322,14.916c0,11.324,13.605,19.091,25.322,14.916
		V333.893z"/>
	<path style="fill:#E4EAF8;" d="M460.703,333.893c11.715-4.174,25.322,3.589,25.322,14.916c0,11.324-13.605,19.091-25.322,14.916
		V333.893z"/>
</g>
<g>
	<path style="fill:#C2C7D0;" d="M342.666,342.065c-7.195,13.14,8.566,27.01,23.577,21.661v-13.488
		C357.052,353.513,346.702,349.438,342.666,342.065z"/>
	<path style="fill:#C2C7D0;" d="M460.703,350.237v13.488c15.01,5.349,30.771-8.52,23.577-21.661
		C480.243,349.438,469.894,353.513,460.703,350.237z"/>
</g>
<path style="fill:#FFFFFF;" d="M460.267,316.245c1.25,0.121,2.211,1.157,2.211,2.413c0,41.261,0.027,35.229-0.069,37.147
	c-2.804,55.323-81.441,63.926-96.176,10.539c-0.812-2.952-1.342-5.708-1.609-9.135c-0.274-3.465-0.16-22.276-0.16-22.215
	c0-9.609,8.528-16.94,18.038-15.567c14.979,2.162,36.842,1.322,55.919-14.985c1.96-1.675,4.935-1.134,6.187,1.12
	C446.971,309.818,451.672,315.415,460.267,316.245z"/>
<path style="fill:#E4EAF8;" d="M394.516,355.805c-0.095-1.893-0.07,3.949-0.069-35.516c-4.292,0.005-8.321-0.339-11.944-0.862
	c-9.511-1.373-18.038,5.958-18.038,15.567c0-0.06-0.114,18.75,0.16,22.215c2.534,32.525,33.155,52.02,63.839,42.639
	C410.601,394.387,395.707,379.319,394.516,355.805z"/>
<path style="fill:#FEA82F;" d="M163.619,316.267c-3.86-76.168-112.124-88.01-132.412-14.51c-2.966,10.788-2.498,16.713-2.465,39.987
	h134.976C163.723,317.97,163.72,318.272,163.619,316.267z"/>
<path style="fill:#FF8031;" d="M79.604,301.757c6.517-23.612,22.119-38.402,40.416-45.096
	c-42.43-15.156-87.401,11.151-91.027,57.672c-0.236,2.986-0.263,18.244-0.25,27.41h48.395
	C77.102,315.705,76.932,311.473,79.604,301.757z"/>
<path style="fill:#ABFFDB;" d="M167.174,504.07c11.815,0,20.817-10.586,18.919-22.248l-4.73-29.068
	c-1.356-6.864-2.131-18.277-15.277-23.803c-1.227-0.515-4.021-1.285-3.965-1.269c-57.655-20.366-4.594-1.624-30.095-10.602
	l-12.772-7.908v-15.2c-13.704,6.898-30.523,7.429-44.526,0.959l0.009,14.241l-13.133,8.046l-6.767,2.327h-0.015l0.002,0.004
	c-0.102,0.036-27.811,9.849-25.981,9.028c-7.276,2.717-13.427,8.698-14.287,17.069c-0.29,2.817-3.175,19.258-5.804,33.983
	c-2.275,12.741,7.521,24.439,20.463,24.439L167.174,504.07z"/>
<path style="fill:#91DFBF;" d="M25.495,479.633c0,0,5.514-37.168,5.804-39.984c0.754-7.336,5.506-12.802,11.696-15.919
	c-14.445,5.077-14.247,4.893-14.152,4.851c-7.276,2.717-13.427,8.696-14.287,17.069c-0.29,2.817-3.175,19.258-5.804,33.983
	c-2.275,12.741,7.521,24.439,20.463,24.439h16.743C33.015,504.07,23.22,492.374,25.495,479.633z"/>
<path style="fill:#E4EAF8;" d="M96.23,430.109l25.933-19.133l0,0l-2.909-1.801v-15.2c-13.704,6.898-30.523,7.429-44.526,0.959
	l0.009,14.241l-2.94,1.801L96.23,430.109z"/>
<path style="fill:#C2C7D0;" d="M96.365,399.459c-7.424,0.081-14.859-1.394-21.637-4.525l0.009,14.241l-2.94,1.801l24.018,18.807
	h0.551L96.365,399.459L96.365,399.459z"/>
<g>
	<path style="fill:#FF8031;" d="M74.736,409.175l21.494,20.935L77.046,443.46c-2.799,1.948-6.685,0.643-7.743-2.6l-7.7-23.64
		L74.736,409.175z"/>
	<path style="fill:#FF8031;" d="M119.255,409.175L96.23,430.109l19.184,13.351c2.799,1.948,6.685,0.643,7.742-2.6l8.87-23.778
		L119.255,409.175z"/>
</g>
<path style="fill:#FF9052;" d="M104.876,459.691c-6.047,0-11.244,0-17.292,0l-11.864,44.415c14.351,0,26.67,0,41.021,0
	L104.876,459.691z"/>
<path style="fill:#FEA82F;" d="M96.23,430.109l-16.106,11.209l7.461,18.373c6.047,0,11.244,0,17.292,0l7.461-18.373L96.23,430.109z"
	/>
<path style="fill:#FF8031;" d="M104.876,459.691c-6.047,0-11.244,0-17.292,0l-11.864,44.415h17.299l11.861-44.401L104.876,459.691z"
	/>
<path style="fill:#FF9052;" d="M93.611,431.931l-13.488,9.387l7.461,18.373c6.047,0,11.244,0,17.291,0l0.004-0.009L93.611,431.931z"
	/>
<g>
	<path style="fill:#E4EAF8;" d="M49.011,333.893c-11.715-4.174-25.322,3.589-25.322,14.916c0,11.324,13.605,19.091,25.322,14.916
		V333.893z"/>
	<path style="fill:#E4EAF8;" d="M143.472,333.893c11.715-4.174,25.322,3.589,25.322,14.916c0,11.324-13.605,19.091-25.322,14.916
		V333.893z"/>
</g>
<g>
	<path style="fill:#C2C7D0;" d="M25.434,342.065c-7.195,13.14,8.566,27.01,23.577,21.661v-13.488
		C39.82,353.513,29.471,349.438,25.434,342.065z"/>
	<path style="fill:#C2C7D0;" d="M143.472,350.237v13.488c15.01,5.349,30.771-8.52,23.577-21.661
		C163.012,349.438,152.663,353.513,143.472,350.237z"/>
</g>
<path style="fill:#FFFFFF;" d="M143.036,316.245c1.25,0.121,2.211,1.157,2.211,2.413c0,41.261,0.027,35.229-0.069,37.147
	c-2.804,55.323-81.441,63.926-96.176,10.539c-0.812-2.952-1.342-5.708-1.609-9.135c-0.274-3.465-0.16-22.276-0.16-22.215
	c0-9.609,8.528-16.94,18.038-15.567c14.979,2.162,36.842,1.322,55.919-14.985c1.96-1.675,4.935-1.134,6.187,1.12
	C129.74,309.818,134.441,315.415,143.036,316.245z"/>
<path style="fill:#E4EAF8;" d="M77.284,355.805c-0.095-1.893-0.07,3.949-0.069-35.516c-4.292,0.005-8.321-0.339-11.944-0.862
	c-9.511-1.373-18.038,5.958-18.038,15.567c0-0.06-0.114,18.75,0.16,22.215c2.534,32.525,33.155,52.02,63.839,42.639
	C93.369,394.387,78.476,379.319,77.284,355.805z"/>
<path style="fill:#FEA82F;" d="M339.158,267.53c-4.853-95.764-140.972-110.654-166.479-18.242c-3.73,13.563-3.141,21.013-3.1,50.275
	h169.703C339.289,269.672,339.285,270.052,339.158,267.53z"/>
<path style="fill:#FF8031;" d="M225.902,249.288c8.636-31.289,29.958-50.262,54.567-57.974c-41.837-12.83-93.117,4.81-107.79,57.974
	c-3.729,13.563-3.141,21.013-3.1,50.275h53.223C222.756,266.824,222.543,261.505,225.902,249.288z"/>
<path style="fill:#ABFFDB;" d="M353.902,503.653c9.47,0,16.684-8.484,15.163-17.83l-7.598-46.687
	c-1.705-8.63-2.679-22.98-19.207-29.927c-1.609-0.675-4.872-1.555-5.024-1.609c-39.17-13.837-37.651-13.224-37.898-13.377
	l-15.447-9.565c-0.318-0.197-0.511-0.544-0.511-0.918v-16.79c0-0.796-0.826-1.306-1.547-0.968
	c-16.439,7.72-36.157,8.317-52.922,1.128c-0.717-0.307-1.513,0.203-1.513,0.983c0.011,17.027,0.218,16.121-0.506,16.564
	c-17.052,10.447-15.934,9.779-16.108,9.839l-8.397,2.887h-0.019l0.003,0.006c-0.109,0.038-34.91,12.358-32.665,11.351
	c-9.148,3.416-16.882,10.936-17.963,21.461c-0.442,4.296-5.686,33.799-9.332,54.082c-1.815,10.096,5.945,19.371,16.203,19.371
	H353.902z"/>
<path style="fill:#91DFBF;" d="M161.357,484.282c0,0,8.891-56.786,9.332-61.082c0.883-8.602,6.115-15.271,13.523-19.405
	c-14.836,5.198-14.617,4.995-14.505,4.945c-9.148,3.416-16.882,10.936-17.963,21.461c-0.442,4.296-5.686,33.799-9.332,54.082
	c-1.815,10.096,5.945,19.371,16.203,19.371h18.946C167.302,503.653,159.542,494.378,161.357,484.282z"/>
<path style="fill:#E4EAF8;" d="M254.43,410.663l32.605-24.056l0,0l-3.657-2.264v-19.111c-17.23,8.674-38.377,9.341-55.982,1.206
	l0.011,17.905l-3.696,2.264L254.43,410.663z"/>
<path style="fill:#C2C7D0;" d="M254.43,410.663v-38.514c-9.278,0.072-18.565-1.799-27.034-5.711l0.011,17.905l-3.696,2.264
	L254.43,410.663z"/>
<g>
	<path style="fill:#FF8031;" d="M227.407,384.343l27.023,26.32l-24.121,16.786c-3.52,2.449-8.406,0.809-9.734-3.269l-9.68-29.722
		L227.407,384.343z"/>
	<path style="fill:#FF8031;" d="M283.379,384.343l-28.948,26.32l24.121,16.786c3.52,2.449,8.406,0.809,9.734-3.269l11.152-29.895
		L283.379,384.343z"/>
</g>
<path style="fill:#FF9052;" d="M265.314,447.822l-21.789-0.051l-14.883,55.927c16.408,0,35.167,0,51.575,0L265.314,447.822z"/>
<polygon style="fill:#FF8031;" points="265.314,447.822 243.526,447.771 228.643,503.698 251.146,503.698 265.549,448.702 "/>
<g>
	<path style="fill:#E4EAF8;" d="M195.062,289.692c-14.729-5.249-31.836,4.512-31.836,18.753c0,14.237,17.105,24.004,31.836,18.753
		V289.692z"/>
	<path style="fill:#E4EAF8;" d="M313.828,289.692c14.729-5.249,31.836,4.512,31.836,18.753c0,14.237-17.105,24.004-31.836,18.753
		V289.692z"/>
</g>
<g>
	<path style="fill:#C2C7D0;" d="M165.681,299.515c-9.665,16.545,10.258,34.5,29.381,27.685v-17.862
		C183.697,313.388,170.928,308.496,165.681,299.515z"/>
	<path style="fill:#C2C7D0;" d="M313.828,309.337V327.2c19.122,6.815,39.046-11.139,29.381-27.685
		C337.961,308.496,325.193,313.388,313.828,309.337z"/>
</g>
<path style="fill:#F7CF9C;" d="M313.279,267.502c1.571,0.152,2.78,1.455,2.78,3.034c0,51.877,0.034,44.292-0.087,46.704
	c-3.525,69.557-102.394,80.373-120.921,13.25c-1.021-3.712-1.687-7.178-2.023-11.485c-0.345-4.356-0.201-28.006-0.201-27.931
	c0-12.081,10.722-21.299,22.679-19.572c18.832,2.718,46.32,1.662,70.306-18.84c2.465-2.107,6.205-1.426,7.779,1.408
	C296.562,259.424,302.472,266.46,313.279,267.502z"/>
<path style="fill:#FFFFFF;" d="M313.279,267.502c1.571,0.152,2.78,1.455,2.78,3.034c0,51.877,0.034,44.292-0.087,46.704
	c-3.525,69.557-102.394,80.373-120.921,13.25c-1.021-3.712-1.687-7.178-2.023-11.485c-0.345-4.356-0.201-28.006-0.201-27.931
	c0-12.081,10.722-21.299,22.679-19.572c18.832,2.718,46.32,1.662,70.306-18.84c2.465-2.107,6.205-1.426,7.779,1.408
	C296.562,259.424,302.472,266.46,313.279,267.502z"/>
<path style="fill:#E4EAF8;" d="M222.891,317.241c-0.12-2.384-0.088,4.99-0.087-44.938c-2.547-0.191-4.988-0.466-7.298-0.8
	c-11.957-1.726-22.679,7.492-22.679,19.572c0-0.076-0.143,23.574,0.201,27.931c2.98,38.243,37.757,63.949,76.404,54.661
	C245.297,367.867,224.474,348.484,222.891,317.241z"/>
<path style="fill:#FEA82F;" d="M254.43,410.663l-20.25,14.093l9.38,23.101c7.604,0,14.137,0,21.741,0l9.381-23.101L254.43,410.663z"
	/>
<path style="fill:#FF9052;" d="M251.152,412.944l-16.972,11.812l9.38,23.101c7.604,0,14.137,0,21.741,0l0.014-0.034L251.152,412.944
	z"/>
<path style="fill:#474D54;" d="M511.454,480.733l-0.479-2.944c-0.666-4.088-4.525-6.863-8.609-6.197
	c-4.089,0.666-6.863,4.519-6.197,8.608l0.479,2.944c1.179,7.251-4.423,13.826-11.76,13.826h-10.311v-17.42
	c0-4.143-3.357-7.501-7.501-7.501c-4.143,0-7.501,3.357-7.501,7.501v17.42h-18.592l-9.64-36.087l3.399-8.371
	c5.78,0.963,11.86-2.255,13.934-8.323l6.195-16.606c20.647,7.279,25.484,8.887,26.343,9.136c0.037,0.016,0.077,0.033,0.125,0.053
	c4.75,1.996,7.436,4.977,8.98,9.967c1.225,3.956,5.422,6.177,9.383,4.948c3.957-1.225,6.172-5.425,4.948-9.383
	c-2.833-9.158-8.721-15.673-17.5-19.362c-0.302-0.127-0.439-0.19-0.489-0.218c-0.926-0.28-6.297-2.061-31.781-11.062l-0.009,0.022
	c-2.509-0.889,0.421,0.341-9.641-5.649v-3.872c10.092-6.147,18.522-15.634,22.8-28.542c22.612,1.761,35.576-22.901,21.366-38.474
	c0.002-17.76,0.044-17.058-0.141-18.188c-4.473-78.199-108.951-94.384-140.67-30.085c0.004-19.842,0.043-19.108-0.169-20.334
	c-5.87-104.014-153.937-119.915-181.715-19.271c-3.859,14.034-3.386,23.235-3.381,38.725
	C135.198,231.66,44.525,231.863,25.298,301.53c-3.254,11.829-2.736,19.787-2.718,33.639c-14.758,16.219-0.347,40.346,21.629,38.436
	c4.613,13.392,12.813,22.831,22.558,28.836v3.593c-8.261,4.92-7.203,4.794-9.641,5.649l-0.008-0.022
	c-36.133,12.733-30.357,10.478-32.272,11.281C9.254,429.498,6.857,442.932,5.569,450.15c-0.119,0.664-0.231,1.3-0.35,1.898
	c-0.46,2.341,1.332-8.197-4.673,28.687c-2.665,16.382,9.993,31.236,26.566,31.236c0.124,0,364.372,0.066,457.777,0
	C501.484,511.971,514.118,497.092,511.454,480.733z M455.99,356.823c-2.351,46.401-68.432,53.692-80.805,8.858
	c-1.915-6.959-1.428-9.705-1.489-29.092c0.023-0.108-0.183-3.603,2.797-6.184c1.823-1.58,4.15-2.256,6.547-1.911
	c15.623,2.255,38.105,1.495,58.409-14.109c3.751,5.089,8.766,8.576,14.6,10.159C456.055,360.195,456.07,355.246,455.99,356.823z
	 M460.628,325.375c0.002,0,0.003,0,0.005,0c0,0,0,0.001,0.001,0.001C460.632,325.375,460.63,325.375,460.628,325.375z
	 M476.726,356.651c-1.676,1.182-3.639,1.866-5.672,2.024v-16.841C479.748,342.511,483.752,351.699,476.726,356.651z M357.51,305.515
	c17.885-64.801,113.397-54.296,116.798,12.791c0.095,1.94,0.09-2.183,0.09,8.847c-1.106-0.178-2.223-0.288-3.346-0.327l-0.001-6.52
	c0-5.131-3.86-9.372-8.981-9.863c-4.169-0.403-7.438-2.687-9.713-6.785c-3.54-6.373-12.017-7.928-17.576-3.173
	c-16.809,14.366-36.246,15.086-49.599,13.162c-10.151-1.465-20.052,3.89-24.351,13.181c-1.845-0.083-3.685,0.035-5.495,0.328
	C355.372,318.704,355.27,313.658,357.51,305.515z M358.675,341.837c-0.003,1.539-0.011,0.826,0.02,16.838
	c-2.033-0.158-3.996-0.843-5.671-2.024C345.968,351.678,350.051,342.523,358.675,341.837z M335.685,318.388
	c-3.028,2.135-6.705,3.143-10.395,2.965c0-3.21,0-22.613,0-25.486C339.42,295.138,346.889,310.485,335.685,318.388z
	 M181.164,251.252c23.329-84.522,147.871-70.797,152.305,16.684c0.133,2.62,0.119-3.616,0.116,13.798
	c-2.707-0.649-5.496-0.939-8.299-0.865l-0.001-10.293c0-5.464-4.113-9.983-9.57-10.51c0,0,0,0,0-0.001
	c-5.999-0.578-10.682-3.825-13.916-9.649c-3.888-7.004-13.166-8.66-19.234-3.474c-21.926,18.74-47.227,19.685-64.593,17.18
	c-12.492-1.799-24.625,5.123-29.347,16.859c-3.47-0.306-6.95-0.048-10.302,0.759C178.347,269.793,178.046,262.591,181.164,251.252z
	 M256.132,400.865l-19.791-19.276l-0.001-0.729c13.367,3.681,27.769,3.398,41.157-0.807v1.386L256.132,400.865z M267.066,428.035
	l-5.256,12.944h-11.713l-5.255-12.944l11.113-7.734L267.066,428.035z M244.212,410.197c-0.532,0.37-12.084,8.41-15.544,10.818
	l-7.428-22.805c0.1-0.061,6.976-4.273,6.546-4.01L244.212,410.197z M285.858,394.111c0.101,0.062,6.472,4.007,6.074,3.76
	l-8.646,23.175c-3.986-2.774-13.251-9.223-15.323-10.665L285.858,394.111z M245.749,367.535
	c-25.5-4.409-42.047-24.829-43.922-48.921c-0.27-3.41-0.15-18.49-0.179-27.431c0-7.704,6.845-13.269,14.181-12.214
	c19.875,2.871,48.661,1.829,74.326-18.834c4.893,7.478,11.881,12.408,20.129,14.233c0.006,46.206,0.016,40.818-0.078,42.686
	C308.435,352.022,277.932,372.925,245.749,367.535z M186.627,295.866c-0.01,3.226,0.02,25.381,0.02,25.487
	c-7.919,0.372-15.818-4.974-15.818-12.743C170.828,300.79,178.814,295.476,186.627,295.866z M158.977,356.651
	c-1.675,1.182-3.638,1.866-5.671,2.024v-16.841C162.029,342.513,165.985,351.712,158.977,356.651z M31.679,350.255
	c0-4.694,4.547-8.044,9.247-8.418c-0.009,4.393-0.003,1.063,0.02,16.838C36.215,358.307,31.679,354.933,31.679,350.255z
	 M43.084,326.827c-1.845-0.083-3.686,0.036-5.497,0.329c0.034-8.49-0.06-13.518,2.173-21.64
	c17.888-64.809,113.398-54.286,116.797,12.793c0.094,1.853,0.091-1.952,0.091,8.845c-1.106-0.178-2.223-0.288-3.346-0.327
	l-0.001-6.52c0-5.13-3.858-9.369-8.977-9.862c-4.17-0.403-7.44-2.686-9.717-6.787c-3.539-6.373-12.016-7.925-17.576-3.172
	c-16.81,14.368-36.251,15.087-49.598,13.162C57.302,312.186,47.392,317.516,43.084,326.827z M56.083,358.006
	c-0.207-2.619-0.114-14.527-0.136-21.474c0-4.939,4.362-8.753,9.345-8.039c15.622,2.256,38.106,1.494,58.409-14.109
	c3.75,5.089,8.766,8.576,14.6,10.159c-0.001,35.546,0.027,30.52-0.06,32.279C135.674,407.465,60.072,409.168,56.083,358.006z
	 M71.014,496.97H52.423v-17.42c0-4.143-3.358-7.501-7.501-7.501s-7.501,3.357-7.501,7.501v17.42
	c-7.011-0.626-14.096,2.024-19.385-4.195c-2.268-2.666-3.246-6.177-2.684-9.631c7.639-46.403,4.477-42.426,24.92-49.622
	c14.07-4.97,16.044-5.674,16.54-5.831c0.001,0,0.003-0.001,0.004-0.001c0.114-0.035,0.21-0.07,0.31-0.105l6.194,16.605
	c2.044,5.978,8.058,9.303,13.935,8.323l3.399,8.371L71.014,496.97z M76.391,436.306l-5.632-15.097
	c0.105-0.065,2.82-1.746,2.649-1.64l11.721,10.657L76.391,436.306z M86.542,496.97l7.768-29.079h5.655l7.768,29.079H86.542z
	 M90.344,444.873l6.793-4.728l6.793,4.728l-3.255,8.017H93.6L90.344,444.873z M96.96,420.708l-12.346-11.226
	c7.367,1.534,15.779,1.734,23.566,0.297L96.96,420.708z M119.541,419.656c0.22,0.135,3.13,1.917,3.024,1.853l-4.793,14.718
	l-8.893-6.188L119.541,419.656z M141.727,496.97H123.26l-9.641-36.088l3.398-8.37c5.835,0.973,11.981-2.317,13.996-8.505
	l5.284-16.225c3.461,1.226,6.462,2.286,9.042,3.195C139.481,472.438,132.613,481.985,141.727,496.97z M134.747,411.38l-8.758-5.365
	l0.002-2.977c10.748-6.105,19.805-15.878,24.292-29.416c22.251,1.733,35.822-22.63,21.366-38.474c0-0.73,0-1.423,0-2.093
	c5.606,2.795,12.022,3.902,18.502,3.019c6.003,18.636,17.551,31.242,31.182,38.73l0.004,5.754l-12.279,7.523
	c-0.103,0.036-39.495,13.666-40.731,14.128c-7.53,2.811-13.969,7.716-18.327,14.506C137.686,412.375,144.023,414.569,134.747,411.38
	z M224.333,496.96h-27.165v-24.148c0-4.143-3.358-7.501-7.501-7.501s-7.501,3.357-7.501,7.501v24.148c-2.571,0-9.799,0-13.789,0
	c-10.077,0-17.694-9.113-15.922-19.016c8.669-48.456,7.737-46.461,8.454-49.11c1.587-5.903,6.745-10.287,12.389-12.467
	c2.368-0.614,31.369-10.886,34.207-11.89l7.351,22.571c2.397,7.359,10.118,11.089,17.077,9.071l5.219,12.854L224.333,496.96z
	 M239.86,496.96l10.947-40.98H261.1l10.947,40.98H239.86z M344.886,496.96c-2.352,0-11.658,0-15.119,0v-24.148
	c0-4.143-3.357-7.501-7.501-7.501s-7.501,3.357-7.501,7.501v24.148h-27.191l-12.819-47.987l5.219-12.854
	c6.985,2.026,14.578-1.716,17.018-8.893l8.572-22.978c33.091,11.635,30.967,10.945,31.582,11.106
	c19.41,5.322,16.568,16.247,24.671,61.695C363.517,487.49,355.45,496.96,344.886,496.96z M341.478,401.001
	c-0.008-0.003-0.015-0.005-0.023-0.008c-0.034-0.012-0.112-0.039-0.239-0.084c-0.016-0.006-0.032-0.011-0.047-0.016
	c0.011,0.004,0.022,0.008,0.033,0.012c-0.065-0.023-0.141-0.05-0.234-0.083c0.006,0.002,0.012,0.004,0.018,0.006
	c-0.061-0.022-0.109-0.039-0.147-0.052c0.017,0.006,0.036,0.013,0.056,0.02c-0.033-0.011-0.065-0.023-0.1-0.035
	c0.005,0.002,0.011,0.004,0.017,0.006c-0.072-0.025-0.094-0.033-0.082-0.029c-2.182-0.771-10.038-3.545-34.637-12.233l-0.001,0.003
	c-3.823-1.243,0.385,0.267-13.595-7.929v-7.202c13.253-7.792,24.309-20.174,29.542-37.266c6.356,0.814,12.712-0.289,18.287-3.078
	c0,0.695,0.001,1.404,0.002,2.137c-14.465,15.899-0.742,40.379,21.629,38.436c4.847,14.071,13.653,23.784,24.051,29.729l0.002,2.678
	c-11.288,6.914-5.79,4.272-22.502,10.167C358.431,408.357,350.392,403.256,341.478,401.001z M341.462,400.995
	C341.483,401.002,341.484,401.002,341.462,400.995L341.462,400.995z M341.441,400.987c-0.003-0.001-0.006-0.002-0.009-0.003
	C341.435,400.985,341.438,400.986,341.441,400.987z M341.373,400.964c-0.041-0.015-0.081-0.029-0.118-0.042
	C341.299,400.937,341.339,400.951,341.373,400.964z M388.74,496.97h-16.661c2.901-4.59,4.671-10.013,4.924-15.716
	c0.293-6.602-7.531-49.618-7.883-51.145c1.974-0.697,4.165-1.471,6.58-2.327l5.284,16.227c2.011,6.171,8.148,9.479,13.995,8.504
	l3.399,8.371L388.74,496.97z M394.229,436.228l-4.793-14.718c0.105-0.065,3.218-1.971,3.025-1.853l10.661,10.384L394.229,436.228z
	 M427.597,409.291l-12.557,11.417l-11.218-10.926C411.649,411.226,419.768,411.059,427.597,409.291z M421.656,444.873l-3.255,8.017
	h-7.076l-3.255-8.017l6.793-4.728L421.656,444.873z M404.267,496.97l7.769-29.079h5.654l7.768,29.079H404.267z M438.593,419.568
	c0.1,0.062,2.821,1.746,2.649,1.64l-5.632,15.097l-8.738-6.08L438.593,419.568z"/>
<path d="M486.663,422.725C487.112,422.861,486.519,422.644,486.663,422.725L486.663,422.725z"/>
<path d="M340.987,400.827c0.039,0.014,0.083,0.029,0.133,0.047C341.075,400.858,341.03,400.842,340.987,400.827z"/>
<path d="M340.84,400.775c-0.01-0.003-0.018-0.006-0.027-0.01C340.821,400.768,340.831,400.772,340.84,400.775z"/>
<path d="M341.17,400.892c-0.011-0.004-0.022-0.008-0.033-0.012C341.146,400.883,341.159,400.888,341.17,400.892z"/>
<path d="M341.121,400.874c0.005,0.002,0.01,0.004,0.016,0.005C341.131,400.878,341.126,400.876,341.121,400.874z"/>
<path style="fill:#474D54;" d="M373.045,212.794h80.467c12.618,10.915,14.253,15.936,21.043,15.936
	c5.734,0,10.476-4.644,10.476-10.476v-87.707c0-9.563-7.779-17.342-17.341-17.342h-95.957c-9.562,0-17.342,7.78-17.342,17.342
	v63.593C354.391,204.426,362.759,212.794,373.045,212.794z M369.392,130.547c0-1.268,1.072-2.341,2.341-2.341h95.957
	c1.269,0,2.34,1.072,2.34,2.341v77.21c-4.782-3.796-8.02-9.964-16.178-9.964h-80.807c-2.015,0-3.653-1.639-3.653-3.653V130.547z"/>
<g>
	<path style="fill:#48C397;" d="M382.819,167.503c0.476,0.738,1.175,1.468,2.07,2.08c0.81,0.534,1.739,0.921,2.7,1.12
		c6.095,1.119,10.646-4.909,8.391-10.23c-0.683-1.712-2.154-3.29-4.05-4.051c-1.331-0.56-2.855-0.736-4.34-0.43
		c-0.817,0.153-1.843,0.545-2.7,1.11c-0.808,0.55-1.51,1.231-2.07,2.08c-0.513,0.761-0.908,1.689-1.12,2.699
		c-0.192,1.028-0.18,1.95,0,2.931C381.8,165.293,382.307,166.744,382.819,167.503z"/>
	<path style="fill:#48C397;" d="M417.727,170.845h32.17c4.143,0,7.501-3.357,7.501-7.501c0-4.143-3.357-7.501-7.501-7.501h-32.17
		c-4.143,0-7.501,3.357-7.501,7.501C410.227,167.488,413.584,170.845,417.727,170.845z"/>
</g>
<g>
	<path style="fill:#FF8031;" d="M67.307,159.184c-0.27-0.41-0.58-0.801-0.93-1.141c-0.35-0.35-0.73-0.66-1.14-0.939
		c-0.41-0.271-0.84-0.5-1.29-0.681c-0.46-0.19-0.93-0.34-1.41-0.43c-0.97-0.2-1.96-0.2-2.93,0c-0.48,0.09-0.95,0.24-1.4,0.43
		c-0.45,0.181-0.89,0.41-1.3,0.681c-0.41,0.279-0.79,0.59-1.14,0.939c-0.34,0.34-0.66,0.73-0.93,1.141
		c-0.27,0.399-0.5,0.84-0.69,1.29c-0.19,0.449-0.33,0.93-0.43,1.409c-0.09,0.48-0.14,0.971-0.14,1.46c0,0.49,0.05,0.98,0.14,1.471
		c0.1,0.48,0.24,0.949,0.43,1.399s0.42,0.891,0.69,1.29c0.27,0.42,0.59,0.8,0.93,1.141c0.35,0.35,0.73,0.659,1.14,0.939
		c0.41,0.271,0.85,0.5,1.3,0.69c0.45,0.18,0.92,0.33,1.4,0.43c0.49,0.09,0.98,0.14,1.47,0.14c1.97,0,3.9-0.8,5.3-2.199
		c0.35-0.341,0.66-0.721,0.93-1.141c0.27-0.399,0.51-0.84,0.69-1.29c0.19-0.45,0.33-0.92,0.43-1.399c0.1-0.49,0.15-0.98,0.15-1.471
		c0-0.489-0.05-0.98-0.15-1.46c-0.1-0.48-0.24-0.96-0.43-1.409C67.816,160.024,67.577,159.583,67.307,159.184z"/>
	<path style="fill:#FF8031;" d="M82.241,163.345c0,4.143,3.358,7.501,7.501,7.501h32.17c4.142,0,7.501-3.357,7.501-7.501
		c0-4.143-3.358-7.501-7.501-7.501h-32.17C85.599,155.844,82.241,159.202,82.241,163.345z"/>
</g>
<g>
	<path style="fill:#ABB0B7;" d="M212.618,91.863h58.838c4.143,0,7.501-3.357,7.501-7.501s-3.357-7.501-7.501-7.501h-58.838
		c-4.142,0-7.501,3.357-7.501,7.501C205.118,88.505,208.476,91.863,212.618,91.863z"/>
	<path style="fill:#ABB0B7;" d="M301.625,76.862h-0.166c-4.143,0-7.501,3.357-7.501,7.501s3.357,7.501,7.501,7.501h0.166
		c4.143,0,7.501-3.357,7.501-7.501C309.125,80.22,305.767,76.862,301.625,76.862z"/>
	<path style="fill:#ABB0B7;" d="M301.625,40.86h-58.838c-4.142,0-7.501,3.357-7.501,7.501s3.358,7.501,7.501,7.501h58.838
		c4.143,0,7.501-3.357,7.501-7.501S305.767,40.86,301.625,40.86z"/>
	<path style="fill:#ABB0B7;" d="M212.618,55.861h0.166c4.142,0,7.501-3.357,7.501-7.501s-3.358-7.501-7.501-7.501h-0.166
		c-4.142,0-7.501,3.357-7.501,7.501S208.476,55.861,212.618,55.861z"/>
</g>
<g>
	<path style="fill:#474D54;" d="M44.633,225.871l13.855-13.077h80.467c10.286,0,18.654-8.369,18.654-18.654v-63.593
		c0-9.563-7.78-17.342-17.341-17.342h-16.941c-4.142,0-7.501,3.357-7.501,7.501s3.358,7.501,7.501,7.501h16.941
		c1.268,0,2.34,1.072,2.34,2.341v63.593c0,2.015-1.639,3.653-3.653,3.653H58.149c-8.195,0-11.241,6.044-16.178,9.964v-77.21
		c0-1.268,1.071-2.341,2.34-2.341h44.014c4.142,0,7.501-3.357,7.501-7.501s-3.358-7.501-7.501-7.501H44.311
		c-9.562,0-17.341,7.78-17.341,17.342v87.707C26.97,227.487,38.023,232.113,44.633,225.871z"/>
	<path style="fill:#474D54;" d="M195.902,128.206h39.367l9.991,14.452c5.54,8.016,15.996,7.799,21.388,0l9.991-14.452h39.46
		c12.815,0,23.241-10.426,23.241-23.241V65.862c0-4.143-3.357-7.501-7.501-7.501c-4.143,0-7.501,3.357-7.501,7.501v39.104
		c0,4.543-3.696,8.24-8.24,8.24h-43.393c-2.463,0-4.769,1.209-6.169,3.235l-10.583,15.306l-10.581-15.306
		c-1.401-2.026-3.707-3.235-6.17-3.235h-43.3c-4.544,0-8.241-3.696-8.241-8.24V23.241c0-4.543,3.696-8.24,8.241-8.24h120.197
		c4.543,0,8.24,3.696,8.24,8.24v7.619c0,4.143,3.357,7.501,7.501,7.501c4.143,0,7.501-3.357,7.501-7.501v-7.619
		C339.34,10.426,328.914,0,316.099,0H195.902c-12.816,0-23.242,10.426-23.242,23.241v81.725
		C172.661,117.781,183.087,128.206,195.902,128.206z"/>
</g>
<g>
</g>
<g>
</g>
<g>
</g>
<g>
</g>
<g>
</g>
<g>
</g>
<g>
</g>
<g>
</g>
<g>
</g>
<g>
</g>
<g>
</g>
<g>
</g>
<g>
</g>
<g>
</g>
<g>
</g>
</svg>
