<?xml version="1.0" encoding="iso-8859-1"?>
<!-- Generator: Adobe Illustrator 19.0.0, SVG Export Plug-In . SVG Version: 6.00 Build 0)  -->
<svg version="1.1" id="Capa_1" xmlns="http://www.w3.org/2000/svg" xmlns:xlink="http://www.w3.org/1999/xlink" x="0px" y="0px"
	 viewBox="0 0 512.001 512.001" style="enable-background:new 0 0 512.001 512.001;" xml:space="preserve">
<path style="fill:#FFC850;" d="M484.957,282.364l-10.864-10.992c-2.232-2.258-2.232-5.892,0-8.151l12.013-12.155
	c2.248-2.274,2.248-5.934,0-8.208l-12.013-12.154c-2.232-2.259-2.232-5.893,0-8.152l11.658-11.793c2.445-2.473,2.445-6.452,0-8.926
	l-11.658-11.793c-2.233-2.258-2.232-5.893,0-8.152l11.739-11.873c2.4-2.427,2.4-6.333,0-8.761l-11.739-11.876
	c-2.232-2.258-2.232-5.892,0-8.152l10.297-10.417c1.711-1.731,0.485-4.668-1.95-4.668c-10.144,0-57.295,0-67.753,0v50.974
	c0,32.284,0,57.189,0,69.524c0,7.456-3.044,10.501-10.501,10.501c-36.734,0-73.589,0-110.528,0c-7.456,0-13.501,9.045-13.501,16.501
	s6.044,13.501,13.501,13.501c0.386,0,9.439,0,9.316,0c38.946,0,140.417,0,179.985,0
	C485.455,287.146,486.711,284.137,484.957,282.364z"/>
<g>
	<path style="fill:#FEA82F;" d="M310.161,270.608v-13.464c-0.115,0-17.29,0-16.501,0c-7.456,0-13.501,9.045-13.501,16.501
		s6.044,13.501,13.501,13.501c0.386,0,9.439,0,9.316,0h17.242C314.246,284.039,310.161,277.806,310.161,270.608z"/>
	<path style="fill:#FEA82F;" d="M404.187,231.143c-13.627,0-112.522,0-124.029,0c0,8.893,0,33.343,0,42.237h0.014
		c0.143-7.332,6.12-13.235,13.487-13.235c0.386,0,9.463,0,9.316,0c8.022,0,87.133,0,101.211,0c7.456,0,13.501-6.044,13.501-13.501
		C417.688,239.187,411.644,231.143,404.187,231.143z"/>
</g>
<path style="fill:#FF8031;" d="M310.161,231.143c-17.442,0-12.558,0-30.002,0c0,8.893,0,33.343,0,42.237h0.014
	c0.143-7.332,6.12-13.235,13.487-13.235c0.386,0,9.464,0,9.316,0h7.185V231.143z"/>
<path style="fill:#FFC850;" d="M407.17,72.142H239.371v161.001c23.6,0,140.24,0,164.816,0c7.456,0,13.501,6.044,13.501,13.501
	c0-12.265,0-37.24,0-69.524V82.661C417.688,76.876,412.955,72.142,407.17,72.142z"/>
<rect x="239.375" y="72.144" style="fill:#FEA82F;" width="35.489" height="161"/>
<path style="fill:#FF9052;" d="M332.241,117.379c9.957,20.173,9.587,20.648,11.81,20.971l21.318,3.098
	c2.48,0.36,3.47,3.408,1.676,5.157c-16.109,15.703-16.675,15.498-16.295,17.713l3.641,21.231c0.424,2.47-2.169,4.353-4.387,3.187
	c-19.876-10.451-19.882-11.076-21.881-10.025l-19.067,10.025c-2.218,1.166-4.81-0.717-4.387-3.187
	c3.802-22.173,4.381-22.339,2.772-23.908l-15.426-15.037c-1.794-1.749-0.804-4.796,1.676-5.157
	c22.223-3.229,22.594-2.726,23.594-4.751l9.534-19.317C327.928,115.132,331.132,115.132,332.241,117.379z"/>
<path style="fill:#FF8031;" d="M328.92,177.55c3.134-20.88,4.784-21.947,2.772-23.907c-16.266-15.901-15.458-14.966-15.846-15.556
	c-0.853,0.398,0.216,0.052-22.155,3.362c-2.48,0.36-3.47,3.408-1.676,5.157c14.809,15.051,16.77,14.944,16.295,17.713l-3.641,21.231
	c-0.424,2.47,2.169,4.353,4.387,3.187c20.032-10.478,19.005-10.116,19.84-10.295C328.862,178.157,328.867,177.858,328.92,177.55z"/>
<path style="fill:#E4EAF8;" d="M245.372,59.186c-8.376,6.121-18.255,6.392-27.002,0v421.693l0,0v10.12
	c0,7.456,6.044,13.501,13.501,13.501c7.456,0,13.501-6.044,13.501-13.501v-4.984l0,0V59.186z"/>
<circle style="fill:#FFC850;" cx="231.875" cy="39.821" r="32.322"/>
<path style="fill:#FEA82F;" d="M231.873,7.504C207.2,7.479,191.386,34.343,203.88,55.981c12.492,21.636,43.665,21.376,55.979-0.004
	C234.978,55.952,219.458,29.059,231.873,7.504z"/>
<path style="fill:#FFFFFF;" d="M288.7,347.748c-1.567-9.292-9.903-15.926-19.325-15.926h-20.4c-33.618,0-6.557,0-41.906,0
	c-4.536,0-6.783-5.46-3.601-8.694c32.788-33.321,2.202-71.372-14.723-44.192c-18.423,29.589-62.749,43.465-62.749,43.465
	c-5.207,3.53-10.132,7.433-14.591,11.973c-5.223,5.316-12.319,8.378-19.771,8.378H68.369v114.023h28.866
	c7.949,0,15.748,2.509,22.018,7.395c24.456,19.057,46.025,16.708,71.725,16.708h58.735c9.607,0,17.939-7.143,18.867-16.705
	c0.927-9.564-5.539-17.876-14.336-19.885v-0.465h3.844c9.607,0,17.939-7.143,18.866-16.705c1.067-11-7.647-20.35-18.439-20.35h2.085
	c9.607,0,17.939-7.143,18.866-16.705c1.066-11-7.647-20.35-18.44-20.35l9.263-0.095C281.614,369.617,290.668,359.411,288.7,347.748z
	"/>
<path style="fill:#E4EAF8;" d="M101.159,394.917c0-27.996,9.835-53.533,26.009-72.903c-0.757,0.258-1.17,0.388-1.17,0.388
	c-5.208,3.53-10.132,7.434-14.591,11.973c-5.223,5.316-12.319,8.378-19.772,8.378H68.369v114.023h28.866
	c16.183,0,21.472,8.329,33.03,14.594C112.257,451.625,101.159,424.658,101.159,394.917z"/>
<path style="fill:#6DC296;" d="M47.789,317.172c-13.023,0-23.58,10.557-23.58,23.58v115.673c0,13.023,10.557,23.58,23.58,23.58
	s23.58-10.557,23.58-23.58V340.752C71.369,327.729,60.813,317.172,47.789,317.172z"/>
<path style="fill:#5FA77E;" d="M47.789,400.087c-13.023,0-23.58-10.557-23.58-23.58v79.918c0,13.024,10.557,23.58,23.58,23.58
	s23.58-10.557,23.58-23.58v-79.918C71.369,389.531,60.813,400.087,47.789,400.087z"/>
<path style="fill:#474D54;" d="M480.621,267.296l10.829-10.957c5.111-5.17,5.111-13.584,0-18.753l-10.829-10.957l10.473-10.595
	c5.309-5.369,5.309-14.105,0.001-19.472l-10.475-10.596l10.555-10.675c5.263-5.323,5.264-13.984,0.002-19.308l-10.556-10.679
	l9.113-9.22c6.382-6.457,1.8-17.441-7.283-17.441h-57.252V82.661c0-9.936-8.083-18.019-18.02-18.019H315.17
	c-4.143,0-7.5,3.358-7.5,7.5c0,4.142,3.357,7.5,7.5,7.5h92.008c1.636,0,3.019,1.382,3.019,3.018v43.485v100.37
	c-6.61-1.972-7.952-0.201-130.029-0.873h-27.287v-146h27.287c4.143,0,7.5-3.358,7.5-7.5c0-4.142-3.357-7.5-7.5-7.5h-17.183
	C283.686,38.752,265.261,0,231.88,0c-21.957,0-39.821,17.864-39.821,39.821c0,14.253,7.532,26.775,18.82,33.812v190.662
	c-9.112-4.597-20.606-1.985-28.492,10.678c-16.7,26.822-58.211,40.141-58.622,40.271c-3.697,1.156-14.138,10.248-17.701,13.875
	c-8.8,8.959-18.453,5.288-27.684,6.133c-2.605-14.522-15.323-25.58-30.583-25.58c-17.138,0-31.08,13.943-31.08,31.08v17.021
	c0,4.143,3.357,7.5,7.5,7.5s7.5-3.357,7.5-7.5v-17.021c0-8.866,7.213-16.079,16.079-16.079s16.079,7.213,16.079,16.079v115.673
	c0,8.867-7.213,16.08-16.079,16.08s-16.079-7.213-16.079-16.08v-63.65c0-4.143-3.357-7.5-7.5-7.5s-7.5,3.357-7.5,7.5v63.65
	c0,17.138,13.942,31.081,31.08,31.081c14.427,0,26.587-9.882,30.074-23.23c13.969,0.902,25.68-2.838,36.78,5.812
	c15.356,11.967,33.721,18.292,53.106,18.292h43.122V491c0,11.58,9.422,21.001,21.001,21.001s21.001-9.422,21.001-21.001v-2.807
	c19.786-2.282,29.753-24.354,18.749-40.481c14.375-8.352,17.163-27.559,6.299-39.727c10.195-8.637,11.92-23.269,4.834-34.034
	c23.87-12.985,14.73-49.627-13.381-49.627h-16.502v-83.678h19.786c0.001,7.058-0.005,32.315,0.007,32.869
	c-0.126,11.552,9.327,21.134,20.994,21.134h106.527c4.143,0,7.5-3.357,7.5-7.5s-3.357-7.5-7.5-7.5H293.67
	c-3.296,0-5.979-2.672-5.998-5.964c0.139-3.729,2.988-6.036,5.998-6.036h110.528c11.76,0,21.001-9.655,21.001-21.001V133.646h45.856
	l-2.284,2.311c-5.095,5.155-5.095,13.543,0,18.696l10.856,10.983l-10.856,10.981c-5.096,5.155-5.096,13.544,0,18.698l10.856,10.983
	L468.77,217.28c-5.095,5.154-5.095,13.542,0,18.696l10.857,10.986l-10.857,10.986c-5.096,5.155-5.095,13.543,0,18.696l2.966,3.001
	H435.2c-4.143,0-7.5,3.357-7.5,7.5s3.357,7.5,7.5,7.5h47.772c9.135,0,13.761-11.052,7.331-17.556L480.621,267.296z M237.88,490.999
	c0,3.309-2.691,6-6,6s-6-2.691-6-6v-2.619h12.001V490.999z M269.383,339.323c10.169,0,15.741,11.365,9.455,18.8
	c-4.906,5.803-11.421,3.453-17.88,4.09c-4.127,0.043-7.444,3.412-7.423,7.539c0.021,4.127,3.373,7.461,7.5,7.461
	c6.265,0,11.623,5.433,10.975,12.126c-0.54,5.567-5.548,9.929-11.401,9.929h-2.085c-4.143,0-7.5,3.357-7.5,7.5s3.357,7.5,7.5,7.5
	c6.275,0,11.623,5.445,10.974,12.127c-0.54,5.566-5.547,9.928-11.401,9.928h-3.843c-4.143,0-7.5,3.357-7.5,7.5
	c0.035,0.1-0.314,6.374,5.83,7.776c5.403,1.234,9.076,6.328,8.541,11.851c-0.54,5.567-5.548,9.929-11.401,9.929
	c-8.001,0-23.329,0-31.343,0h-50.622c-16.013,0-31.189-5.229-43.886-15.124c-16.229-12.646-33.027-7.964-44.993-8.98v-99.022
	c6.786-0.841,23.767,3.751,37.887-10.622c3.561-3.625,7.687-7.045,12.591-10.435c7.368-2.473,47.553-17.044,65.766-46.296
	c2.413-3.876,5.129-5.959,7.454-5.707c7.224,0.775,15.225,20.683-4.444,40.673c-7.832,7.956-2.234,21.455,8.946,21.455
	C214.212,339.323,262.883,339.323,269.383,339.323z M225.88,324.322V79.194c3.804,0.577,8.167,0.581,12.001,0
	c0,6.241,0,237.237,0,245.128H225.88z M221.832,62.509c-8.693-3.865-14.773-12.577-14.773-22.687
	c0-13.686,11.135-24.821,24.821-24.821s24.82,11.135,24.82,24.821C256.7,57.645,238.272,69.804,221.832,62.509z M404.196,252.644
	c-109.033,0.793-109.744-1.143-116.528,0.884v-12.885h116.528c3.309,0,6,2.691,6,6S407.506,252.644,404.196,252.644z"/>
<g>
</g>
<g>
</g>
<g>
</g>
<g>
</g>
<g>
</g>
<g>
</g>
<g>
</g>
<g>
</g>
<g>
</g>
<g>
</g>
<g>
</g>
<g>
</g>
<g>
</g>
<g>
</g>
<g>
</g>
</svg>
