<?xml version="1.0" encoding="iso-8859-1"?>
<!-- Generator: Adobe Illustrator 19.0.0, SVG Export Plug-In . SVG Version: 6.00 Build 0)  -->
<svg version="1.1" id="Capa_1" xmlns="http://www.w3.org/2000/svg" xmlns:xlink="http://www.w3.org/1999/xlink" x="0px" y="0px"
	 viewBox="0 0 512 512" style="enable-background:new 0 0 512 512;" xml:space="preserve">
<path style="fill:#E4EAF8;" d="M348.615,184.078l-39.733-49.33c0,0-21.004,3.114-67.012,9.115
	c-46.008,6.001-54.624,56.472-54.624,56.472c-8.366,30.981-11.66,54.263,1.609,60.816c12.434,6.141,21.443-4.986,21.443-4.986
	c4.914-6.15,9.763-14.355,14.27-23.184l49.29-24.2c0,0,16.417,40.205,35.024,58.813c18.607,18.607,31.006,0,31.006,0
	C380.395,233.796,348.615,184.078,348.615,184.078z"/>
<g>
	<path style="fill:#C3C8D1;" d="M337.85,255.082c-18.607-18.607-35.024-58.813-35.024-58.813l-28.373,13.932
		c3.098,7.289,17.898,40.861,34.429,57.392c18.607,18.607,31.006,0,31.006,0c2.407-2.008,4.551-4.075,6.47-6.181
		C343.7,260.113,340.858,258.089,337.85,255.082z"/>
	<path style="fill:#C3C8D1;" d="M211.213,205.221c0,0,8.616-50.471,54.624-56.472c21.838-2.849,38.032-5.045,49.031-6.568
		l-5.986-7.432c0,0-21.004,3.114-67.012,9.115c-46.008,6.001-54.624,56.472-54.624,56.472c-8.366,30.981-11.66,54.263,1.609,60.816
		c7.55,3.729,13.833,1.091,17.606-1.556C201.206,249.137,204.643,229.556,211.213,205.221z"/>
</g>
<path style="fill:#FFFFFF;" d="M200.204,146.563l15.251,3.855c24.652,3.434,66.606-4.143,82.699-7.377
	c4.222-0.848,8.567,0.662,11.354,3.944c9.231,10.866,22.81,30.354,29.611,35.693c91.616,23.079,58.199,14.864,96.815,24.282
	c0,0-14.47-45.409-27.673-56.448c-26.161-21.869-51.23-61.526-79.265-61.526c-40.863,0-136.219,24.245-136.219,46.903
	C192.777,140.081,194.732,143.988,200.204,146.563z"/>
<path style="fill:#E4EAF8;" d="M323.576,120.645c-3.55-4.18-9.083-6.103-14.459-5.022c-82.892,16.661-108.528,8.552-108.628,8.557
	c-4.886,3.863-7.712,7.809-7.712,11.71c0,4.191,1.955,8.098,7.428,10.674l15.251,3.855c24.652,3.435,66.606-4.143,82.698-7.376
	c4.222-0.849,8.567,0.662,11.354,3.944c9.231,10.866,22.81,30.354,29.611,35.693l45.318,11.455
	C372.298,182.029,334.522,133.531,323.576,120.645z"/>
<path style="fill:#ABFFDB;" d="M104.864,110.089c-2.107-6.738-8.422-11.663-15.831-11.663c-11.37,0-58.829,0-64.936,0
	c-9.133,0-16.579,7.473-16.579,16.58c0,70.842-0.279,66.564,0.748,69.852c2.107,6.738,8.422,11.663,15.831,11.663
	c6.146,0,57.669,0,64.936,0c7.409,0,13.723-4.925,15.831-11.663c1.222-3.907,0.556-5.81,0.748-17.583
	C105.357,113.006,106.199,114.357,104.864,110.089z"/>
<path style="fill:#92E0C0;" d="M38.818,184.857c-0.998-3.193-0.748,1.199-0.748-69.852c0-9.1,7.44-16.58,16.579-16.58
	c-18.913,0-11.64,0-30.552,0c-9.133,0-16.579,7.473-16.579,16.58c0,70.843-0.279,66.564,0.748,69.852
	c2.107,6.738,8.422,11.663,15.831,11.663c18.911,0,11.637,0,30.552,0C47.24,196.52,40.925,191.595,38.818,184.857z"/>
<path style="fill:#FFFFFF;" d="M157.783,190.794l-13.271-3.165c-31.935-7.614-44.464-27.618-53.903-35.36
	c-2.795-2.729-1.791-6.75,1.974-7.914c12.025-2.624,32.567-14.743,64.502-7.128l13.271,3.165
	C170.06,141.429,157.987,189.834,157.783,190.794z"/>
<path style="fill:#C2C7D0;" d="M109.636,139.006c-6.953,2.095-12.591,4.376-17.053,5.349c-3.766,1.165-4.769,5.186-1.974,7.914
	c9.439,7.741,21.968,27.746,53.903,35.36l13.271,3.165c0.242-1.142,3.993-16.074,6.239-25.111
	C156.319,162.634,134.547,163.364,109.636,139.006z"/>
<path style="fill:#666666;" d="M124.119,135.685c-0.002,0-0.005,0.001-0.007,0.001c-13.965,2.087-24.204,7.049-31.459,8.652
	c-3.439,0.742-5.077,4.971-2.044,7.931c1.31,1.069,2.896,2.605,4.091,3.807c4.918,4.936,10.979,11.78,19.822,18.083L124.119,135.685
	z"/>
<path style="fill:#C2C7D0;" d="M109.639,139.008c-6.568,1.977-12.937,4.462-17.055,5.347c-4.037,1.248-4.643,5.675-1.921,7.959
	c5.934,4.885,12.28,13.591,23.858,21.845l6.365-25.514C116.516,145.446,112.83,142.128,109.639,139.008z"/>
<path style="fill:#FFC850;" d="M504.056,251.065c-2.38,9.76-12.222,15.742-21.981,13.361c-1.434-0.35-10.318-2.511-19.331-4.709
	l8.752-35.339l19.2,4.706C500.454,231.463,506.436,241.305,504.056,251.065z"/>
<path style="fill:#FEA82F;" d="M487.864,246.824c-1.639-0.4-10.59-2.577-20.68-5.037l-4.44,17.93
	c9.013,2.198,17.896,4.359,19.331,4.709c12.136,2.96,23.659-6.948,22.392-19.497C499.509,247.424,493.677,248.242,487.864,246.824z"
	/>
<path style="fill:#92E0C0;" d="M467.463,213.65c-100.574-24.529-133.189-33.43-294.161-73.887c-2.411-0.588-4.845,0.89-5.433,3.303
	l-10.725,43.973c-0.733,3.005,1.109,6.035,4.114,6.768l292.605,73.507c5.227,1.274,10.497-1.929,11.771-7.155l8.619-35.337
	C475.463,219.861,472.424,214.859,467.463,213.65z"/>
<path style="fill:#48C397;" d="M463.687,241.053c-312.38-78.482-300.637-75.512-301.256-75.691l-5.287,21.676
	c-0.733,3.005,1.109,6.035,4.114,6.768l292.605,73.507c5.227,1.274,10.497-1.929,11.771-7.155l4.841-19.848
	C468.442,241.311,466.061,241.632,463.687,241.053z"/>
<path style="fill:#ABFFDB;" d="M467.464,213.65c-2.218-0.541-18.023-4.396-19.965-4.869l-13.084,53.647l19.449,4.886
	c5.227,1.274,10.497-1.928,11.771-7.155l8.62-35.337C475.463,219.861,472.423,214.86,467.464,213.65z"/>
<path style="fill:#92E0C0;" d="M470.475,240.311c-5.583,2.745-8.765-0.461-29.458-4.953l-6.602,27.07
	c1.928,0.484,17.804,4.473,19.449,4.886c2.771,0.675,5.547,0.083,7.74-1.391c4.922-3.31,4.058-8,7.148-18.544L470.475,240.311z"/>
<path style="fill:#FFFFFF;" d="M349.297,241.044c-5.8,9.095-9.76,19.028-14.296,23.544c0,0-10.492,12.167-19.25,3.41l-25.807-34.044
	c-1.725-4.198-22.94-75.061-60.217-78.729c-1.522-0.143-3.344-0.092-3.242-0.092c-5.091,0.202-10.716,2.306-13.197,6.631
	c-2.419,4.054-0.384,7.922,7.007,46.873c3.264,16.995,6.283,34.668,6.283,44.525c0,16.429,28.756,63.41,42.227,84.517
	c4.445,6.964,6.81,15.048,6.81,23.31v31.874h124.635v-49.189c0-3.103,0.606-6.172,1.754-9.055
	c10.847-27.245,19.668-52.37,25.015-74.049L349.297,241.044z"/>
<g>
	<path style="fill:#E4EAF8;" d="M349.297,241.044c-2.639,4.139-4.896,8.445-7,12.341c-0.089,0.165-0.179,0.332-0.268,0.496
		c-0.262,0.484-0.52,0.954-0.778,1.422c-0.099,0.181-0.2,0.365-0.299,0.543c-0.269,0.485-0.536,0.954-0.803,1.419
		c-1.722,3.007-3.393,5.575-5.147,7.321c0,0-6.416,7.44-13.402,6.495c0.002,0.001,26.353,19.212,45.45-6.495
		c3.38-3.365,6.44-9.737,10.179-16.527L349.297,241.044z"/>
	<path style="fill:#E4EAF8;" d="M258.625,253.162c0-23.356-15.665-83.537-14.044-89.641c0.294-1.026,0.744-1.751,1.054-2.221
		c-11.026-7.263-19.25-6.166-19.15-6.166c-7.034,0.28-14.497,4.465-14.199,10.6c0.463,10.076,14.291,65.737,14.291,87.429
		c0,16.429,28.756,63.41,42.227,84.517c4.445,6.964,6.81,15.048,6.81,23.31v31.874h32.048V360.99c0-8.262-2.365-16.346-6.81-23.31
		C287.381,316.573,258.625,269.591,258.625,253.162z"/>
</g>
<path style="fill:#6DC296;" d="M400.227,380.863c-8.636,0-90.393,0-103.395,0H269.42c-11.641,0-21.077,9.436-21.077,21.077
	c0,11.641,9.436,21.077,21.077,21.077h27.412c12.916,0,94.721,0,103.395,0c11.641,0,21.077-9.437,21.077-21.077
	C421.304,390.298,411.867,380.863,400.227,380.863z"/>
<path style="fill:#5FA77E;" d="M331.617,401.939c0-11.641,9.437-21.077,21.077-21.077h-55.862H269.42
	c-11.641,0-21.077,9.437-21.077,21.077c0,11.64,9.437,21.077,21.077,21.077c16.376,0,53.664,0,83.274,0
	C341.054,423.016,331.617,413.581,331.617,401.939z"/>
<path style="fill:#FFFFFF;" d="M28.795,141.497c-3.228,2.598-3.737,7.319-1.14,10.548l14.65,18.2
	c2.932,3.641,8.44,3.739,11.502,0.221l31.449-36.137c2.72-3.126,2.391-7.863-0.733-10.583c-3.125-2.718-7.862-2.392-10.583,0.733
	l-25.567,29.376l-9.031-11.22C36.744,139.409,32.023,138.899,28.795,141.497z"/>
<g>
	<path style="fill:#474D54;" d="M342.775,174.869c0.002,0,0.005,0.001,0.007,0.001C342.78,174.87,342.778,174.869,342.775,174.869z"
		/>
	<path style="fill:#474D54;" d="M492.454,221.796l-10.841-2.644c-0.975-4.546-3.807-8.556-7.868-10.949
		c3.462-16.62-6.836-33.067-23.446-37.116l-22.777-5.556c-4.427-8.671-9.419-16.555-14.466-20.775
		c-7.015-5.863-14.095-13.216-21.335-20.867c-2.848-3.01-7.594-3.14-10.605-0.292c-3.01,2.848-3.141,7.595-0.292,10.605
		c24.008,25.371,21.535,19.629,26.443,26.389l-51.855-12.647c-9.471-2.302-16.9,8.171-11.59,16.345l3.784,5.822
		c3.569,5.489,12.021,4.076,13.578-2.311l0.69-2.837l55.226,13.468c2.54,5.516,4.97,11.397,7.091,16.948
		c-68.121-17.162-79.737-20.088-81.35-20.495c0.002,0-0.014-0.003-0.06-0.015c0.004,0.001,0.007,0.002,0.01,0.003
		c-0.014-0.004-0.029-0.007-0.041-0.011c0.008,0.002,0.016,0.004,0.024,0.006c-0.026-0.007-0.061-0.016-0.106-0.027
		c0.021,0.005,0.044,0.011,0.068,0.017c-0.035-0.009-0.061-0.015-0.08-0.02c-0.007-0.002-0.015-0.004-0.023-0.006l0,0
		c-0.035-0.009-0.027-0.007,0,0c-4.228-3.881-11.532-13.027-17.502-20.504c-14.76-18.482-16.78-21.168-22.087-19.981
		c-0.567,0.126-56.775,12.606-86.177,8.693l-14.059-3.554c-2.549-1.369-2.549-2.7-2.549-3.601c0-3.324,11.607-13.754,47.488-24.777
		c28.026-8.611,61.429-14.625,81.231-14.625c8.011,0,16.758,4.288,27.526,13.495c3.148,2.693,7.884,2.32,10.576-0.826
		c2.692-3.149,2.322-7.884-0.826-10.576c-13.64-11.663-25.485-17.096-37.276-17.096c-33.128,0-142.037,21.129-143.681,53.579
		c-8.372-1.731-11.558-3.984-16.673-2.367c-7.074-0.883-26.319-9.957-55.528-2.591v-15.099c0-13.278-10.803-24.081-24.08-24.081
		H74.051c-4.144,0-7.501,3.358-7.501,7.501c0,4.144,3.358,7.501,7.501,7.501h14.965c5.006,0,9.078,4.073,9.078,9.079v19.784
		c-1.958,0.676-5.181,1.783-7.206,2.234c-8.966,2.027-12.842,13.348-5.634,20.552c14.696,14.686,9.262,9.427,12.84,12.918v9.447
		c0,5.006-4.072,9.078-9.078,9.078H24.08c-5.006,0-9.078-4.072-9.078-9.078v-64.936c0-5.006,4.072-9.079,9.078-9.079h14.965
		c4.144,0,7.501-3.358,7.501-7.501c0-4.144-3.358-7.501-7.501-7.501H24.08C10.803,90.925,0,101.727,0,115.006v64.936
		c0,13.277,10.803,24.08,24.08,24.08h64.936c12.373,0,22.592-9.382,23.928-21.404c17.566,11.596,33.103,12.911,40.605,15.244
		c4.101,3.915,7.228,3.091,24.499,7.901c-6.687,26.321-10.615,53.183,7.468,62.113c11.56,5.71,23.903,1.274,30.625-7.028
		c1.047-1.311,2.11-2.748,3.184-4.27c2.642,18.544,24.563,56.03,43.139,85.136c7.925,12.421,4.985,23.076,5.632,31.68
		c-15.154,0.686-27.272,13.225-27.272,28.544c0,15.759,12.82,28.579,28.579,28.579h27.432c4.144,0,7.49-3.358,7.49-7.501
		s-3.368-7.501-7.511-7.501h-27.411c-7.485,0-13.576-6.091-13.576-13.576c0-7.484,6.091-13.574,13.576-13.574H400.21
		c7.485,0,13.575,6.09,13.575,13.574c0,7.485-6.09,13.576-13.575,13.576h-68.367c-4.144,0-7.501,3.358-7.501,7.501
		s3.358,7.501,7.501,7.501h68.367c15.758,0,28.578-12.82,28.578-28.579c0-13.153-8.936-24.253-21.054-27.565
		c0.358-30.446-0.867-31.729,1.222-36.98c10.725-26.938,18.462-49.322,23.544-68.126c18.83,5.135,21.298,6.467,26.518,5.585
		c0.177-0.064,5.866-0.67,10.255-5.823c10.405,2.361,19.203,6.507,30.439-0.321C519.223,256.844,514.536,227.181,492.454,221.796z
		 M109.508,160.644c-4.24-4.047-7.093-7.295-10.191-10.43c3.997-1.293,9.036-3.199,13.852-4.576L109.508,160.644z M150.694,181.723
		c-3.318-1.048-15.061-2.517-28.241-10.842l6.918-28.363c15.505-1.32,26.535,2.765,30.061,3.379L150.694,181.723z M164.862,186.982
		l9.56-39.194l33.502,8.469c-4.918,6.473-3.864,9.151,2.719,42.225C194.11,194.329,175.077,189.548,164.862,186.982z
		 M204.475,251.415c-0.979,1.142-5.834,6.214-12.315,3.011c-8.813-4.352-3.504-29.606,0.427-45.008l21.213,5.329
		c1.212,6.469,2.189,12.07,2.964,16.966C212.426,239.997,208.297,246.618,204.475,251.415z M456.994,193.165
		c1.985,3.267,2.763,7.031,2.269,10.768l-17.558-4.282c-1.342-3.883-3.533-9.957-6.311-16.757
		C443.18,185.509,451.753,184.544,456.994,193.165z M302.092,149.897c4.134,4.692,9.725,11.831,15.085,18.502l-49.678-12.557
		C282.458,153.81,295.598,151.245,302.092,149.897z M395.017,331.846c-3.703,9.304-1.724,13.979-2.285,41.517H283.098
		c-0.672-7.674,2.832-22.762-7.987-39.717c-39.07-61.22-41.048-77.783-41.048-80.482c0-19.413-10.061-61.56-14.274-87.447h-0.004
		c-0.002-0.034-0.007-0.074-0.009-0.105h0.004l-0.008-0.101c1.413-2.313,5.874-3.058,8.773-2.855
		c9.587,0.703,18.644,8.598,24.985,15.829c19.924,23.054,28.603,57.602,30.42,60.001c27.328,36.008,25.792,34.126,26.482,34.816
		c9.058,9.053,21.583,5.823,30.027-3.582c4.977-5.069,8.531-13.538,13.454-21.882l64.116,17.482
		C413.103,283.558,405.54,305.417,395.017,331.846z M298.386,232.697l40.589,11.068c-5.268,9.491-5.972,11.643-9.641,15.89
		c-1.456,1.644-4.505,3.952-6.442,4.011C320.698,263.681,321.028,261.627,298.386,232.697z M466.998,222.695
		c-0.009,0.255-8.636,35.956-9.064,36.51c-1.001,1.31-1.637,1.083-7.021-0.454l0,0l0,0l0,0l-159.495-43.505
		c-6.075-15.156-14.118-31.301-24.339-44.036c69.387,17.584,113.061,28.306,198.59,49.728l0,0l0,0
		C466.488,221.138,467.027,221.889,466.998,222.695z M491.917,255.888c-5.691,3.461-10.377,0.158-17.294-0.995l5.065-20.769
		c6.716,2.174,12.35,1.389,15.812,7.078C496.983,243.643,496.966,252.819,491.917,255.888z"/>
	<path style="fill:#474D54;" d="M342.657,174.839c0.004,0.001,0.008,0.002,0.012,0.003c-0.013-0.003-0.026-0.007-0.035-0.009l0,0
		C342.64,174.835,342.648,174.837,342.657,174.839z"/>
</g>
<g>
</g>
<g>
</g>
<g>
</g>
<g>
</g>
<g>
</g>
<g>
</g>
<g>
</g>
<g>
</g>
<g>
</g>
<g>
</g>
<g>
</g>
<g>
</g>
<g>
</g>
<g>
</g>
<g>
</g>
</svg>
