<?xml version="1.0" encoding="iso-8859-1"?>
<!-- Generator: Adobe Illustrator 19.0.0, SVG Export Plug-In . SVG Version: 6.00 Build 0)  -->
<svg version="1.1" id="Capa_1" xmlns="http://www.w3.org/2000/svg" xmlns:xlink="http://www.w3.org/1999/xlink" x="0px" y="0px"
	 viewBox="0 0 511.997 511.997" style="enable-background:new 0 0 511.997 511.997;" xml:space="preserve">
<path style="fill:#48C397;" d="M327.089,367.502h19.387c4.264,0,7.458-3.907,6.611-8.086l-7.244-42.724c-13.118,0-24.389,0-37.507,0
	l-7.258,42.795c-0.84,4.142,2.326,8.016,6.553,8.016H327.089"/>
<path style="fill:#FF9052;" d="M152.185,331.999h19.387c4.264,0,7.458-3.907,6.611-8.086l-7.244-42.724c-13.118,0-24.389,0-37.507,0
	l-7.258,42.795c-0.84,4.142,2.326,8.016,6.553,8.016H152.185"/>
<path style="fill:#ABFFDB;" d="M327.089,87.593c-56.123,0-101.62,52.404-101.62,117.048c0,57.263,35.703,104.914,82.866,115.051
	c6.267,0,22.855,0,37.507,0c47.163-10.137,82.866-57.787,82.866-115.051C428.709,139.997,383.212,87.593,327.089,87.593z"/>
<path style="fill:#92E0C0;" d="M268.259,247.634c-36.268-62.818-14.583-137.485,43.46-158.709
	c-48.829,8.535-86.248,57.091-86.248,115.716c0,57.263,35.703,104.914,82.866,115.051c6.267,0,22.855,0,37.507,0
	c8.847-1.901,17.289-5.122,25.169-9.48C332.018,310.936,291.52,287.923,268.259,247.634z"/>
<path style="fill:#FFC850;" d="M268.211,109.232C253.901,50.537,207.102,7.5,151.571,7.5C84.666,7.5,30.429,69.972,30.429,147.035
	c0,66.922,40.905,122.832,95.487,136.389c2.01,0.499,4.071,0.764,6.142,0.764h2.004c34.773-0.283,37.506,0.725,44.452-1.093
	c20.835-5.451,39.628-17.091,54.85-33.148C215.408,200.73,228.51,141.794,268.211,109.232z"/>
<path style="fill:#FEA82F;" d="M74.01,199.071c-40.622-70.36-20.926-157.204,45.247-186.542
	C68.041,28.818,30.428,82.863,30.428,147.036c0,66.922,40.905,122.832,95.487,136.389c2.01,0.499,4.071,0.764,6.142,0.764h2.004
	c34.773-0.283,37.506,0.725,44.453-1.092c8.557-2.239,16.761-5.537,24.522-9.741C154.597,277.059,103.042,249.356,74.01,199.071z"/>
<path style="fill:#FF9052;" d="M155.37,104.685l12.904,26.145c0.596,1.208,1.748,2.045,3.081,2.238l28.853,4.192
	c3.356,0.488,4.696,4.612,2.268,6.979l-20.878,20.351c-0.964,0.94-1.404,2.294-1.177,3.622l4.928,28.736
	c0.573,3.343-2.935,5.892-5.937,4.314l-25.807-13.568c-1.192-0.627-2.616-0.627-3.808,0l-25.807,13.568
	c-3.002,1.578-6.51-0.971-5.937-4.314l4.928-28.736c0.228-1.327-0.212-2.682-1.177-3.622l-20.878-20.351
	c-2.429-2.367-1.088-6.492,2.268-6.979l28.853-4.192c1.333-0.194,2.485-1.031,3.081-2.238l12.903-26.145
	C149.532,101.644,153.869,101.644,155.37,104.685z"/>
<path style="fill:#FF8031;" d="M151.316,159.215c0.228-1.328-0.212-2.682-1.177-3.622l-20.878-20.351
	c-0.494-0.481-0.825-1.037-1.021-1.619l-25.046,3.639c-3.356,0.488-4.696,4.612-2.268,6.979
	c20.092,20.419,22.696,20.231,22.055,23.973l-4.928,28.736c-0.573,3.343,2.935,5.892,5.937,4.313l22.426-11.791
	C146.116,188.006,146.323,188.964,151.316,159.215z"/>
<path style="fill:#48C397;" d="M330.276,169.116l10.824,21.931c0.5,1.013,1.466,1.715,2.584,1.878l24.203,3.517
	c2.815,0.409,3.939,3.869,1.902,5.855c-18.271,17.81-18.933,17.588-18.5,20.11l4.134,24.105c0.481,2.804-2.462,4.942-4.98,3.618
	l-21.647-11.381c-1-0.526-2.195-0.526-3.195,0l-21.648,11.381c-2.518,1.324-5.461-0.814-4.98-3.618l4.134-24.105
	c0.191-1.113-0.178-2.25-0.987-3.038l-17.514-17.071c-2.037-1.986-0.913-5.446,1.902-5.855l24.203-3.517
	c1.118-0.163,2.085-0.865,2.584-1.878l10.824-21.931C325.379,166.565,329.017,166.565,330.276,169.116z"/>
<path style="fill:#5FA77E;" d="M329.133,215.283c0.191-1.113-0.178-2.25-0.987-3.038l-17.513-17.071
	c-0.618-0.602-0.941-1.34-1.018-2.088l-23.105,3.357c-2.815,0.409-3.939,3.869-1.902,5.854l17.513,17.072
	c0.809,0.788,1.178,1.924,0.987,3.038l-4.134,24.105c-0.481,2.804,2.462,4.942,4.98,3.619l21.106-11.097L329.133,215.283z"/>
<g>
	<path style="fill:#474D54;" d="M200.089,129.839l-27.08-3.934l-12.11-24.537c-4.25-8.616-16.542-8.612-20.791-0.001l-12.11,24.538
		l-27.081,3.934c-9.501,1.382-13.301,13.066-6.423,19.774l19.595,19.1l-4.625,26.971c-1.625,9.467,8.323,16.689,16.82,12.221
		l24.22-12.734c23.999,12.161,24.73,14.078,29.626,14.078c6.957,0,12.665-6.282,11.415-13.564l-4.625-26.971l19.596-19.101
		C213.391,142.908,209.593,131.221,200.089,129.839z M175.166,159.222c-2.733,2.663-3.979,6.499-3.334,10.261l3.761,21.931
		c-31.116-15.649-19.057-15.65-50.177,0l3.762-21.931c0.645-3.761-0.602-7.597-3.334-10.261l-15.934-15.53l22.022-3.199
		c3.776-0.551,7.038-2.923,8.726-6.342l9.848-19.951l9.848,19.953c1.689,3.42,4.95,5.789,8.729,6.34l22.019,3.199L175.166,159.222z"
		/>
	<path style="fill:#474D54;" d="M482.871,496.999c-20.944,0-25.502-10.802-32.364-31.502c-7.665-23.118-17.205-51.891-67.108-51.891
		c-30.733,0-44.95-18.896-48.581-38.603c6.913-0.702,15.292,2.354,21.491-5.229c5.849-7.153,1.904-14.35,1.532-19.537
		c8.094-2.657,6.11-14.624-2.34-14.624h-0.326l-1.897-10.402c13.634-4.042,26.643-11.158,37.974-20.842
		c3.148-2.69,3.52-7.425,0.828-10.575c-2.691-3.148-7.426-3.521-10.575-0.828c-11.338,9.689-24.009,16.155-37.672,19.226h-35.878
		c-70.126-15.757-98.698-111.833-56.17-175.007c17.002-25.292,43.758-42.092,74.108-42.092c76.543,0,120.605,100.969,76.826,172.806
		c-2.155,3.537-1.036,8.152,2.501,10.309c3.535,2.156,8.151,1.035,10.309-2.501c12.747-20.916,19.484-45.491,19.484-71.066
		c0-96.383-91.891-155.354-163.696-107.819c-4.165-13.132-9.942-25.49-17.248-36.847c-2.241-3.484-6.884-4.491-10.366-2.25
		c-3.483,2.241-4.491,6.882-2.25,10.366c7.548,11.732,13.299,24.661,17.125,38.496c-38.099,34.133-51.085,92.045-35.013,141.414
		c-14.866,14.566-32.622,24.439-51.645,28.686h-43.09c-19.116-4.268-37.086-14.302-52.016-29.052
		c-2.948-2.912-7.696-2.883-10.607,0.063c-2.911,2.947-2.883,7.695,0.063,10.607c16.379,16.182,36.077,27.365,57.132,32.502
		l-1.697,9.302h-0.108c-4.143,0-7.5,3.357-7.5,7.5c0,3.248,2.067,6.004,4.955,7.048c-0.374,5.125-4.337,12.501,1.494,19.633
		c6.278,7.681,15.048,4.455,23.147,5.207c2.776,35.381,27.354,73.087,75.234,73.087c51.672,0,56.386,28.233,67.174,58.802
		c1.087,3.081,3.981,5.006,7.072,5.006c5.147,0,8.801-5.104,7.072-9.999c-10.398-29.461-17.784-68.81-81.319-68.81
		c-34.928,0-57.108-25.692-60.177-58.087c7.623-0.729,16.379,2.447,22.654-5.229c5.848-7.154,1.905-14.35,1.532-19.537
		c8.096-2.659,6.108-14.624-2.341-14.624h-0.326l-1.747-9.583c18.576-4.736,35.949-14.155,50.957-27.55
		c14.057,30.248,38.768,53.352,69.025,62.253l-1.894,10.383h-0.109c-8.386,0-10.406,11.709-2.545,14.549l-1.444,7.918
		c-1.725,8.775,4.998,16.923,13.921,16.923h13.186c4.557,31.165,27.907,53.604,63.779,53.604c39.072,0,45.467,19.283,52.869,41.611
		c6.493,19.584,13.854,41.782,46.604,41.782c4.143,0,7.5-3.357,7.5-7.5S487.014,496.999,482.871,496.999z M138.49,291.69h24.996
		l1.535,8.421h-28.067L138.49,291.69z M132.507,324.499l1.712-9.388h33.538l1.712,9.388H132.507z M313.395,327.193h24.995
		l1.535,8.421h-28.067L313.395,327.193z M307.411,360.002l1.712-9.389h33.539l1.712,9.389H307.411z"/>
	<path style="fill:#474D54;" d="M367.769,189.02l-22.087-3.209l-9.877-20.014c-4.008-8.123-15.603-8.119-19.608,0l-9.877,20.014
		l-22.088,3.209c-4.147,0.603-7.529,3.453-8.825,7.439c-1.296,3.986-0.236,8.282,2.766,11.21l15.982,15.578l-3.771,21.995
		c-1.178,6.855,4.191,12.795,10.765,12.795c4.575,0,5.611-1.953,24.854-11.653l19.754,10.385
		c8.016,4.218,17.396-2.598,15.864-11.524l-3.772-21.997l15.983-15.579C380.316,201.344,376.731,190.323,367.769,189.02z
		 M345.845,213.998c-2.576,2.511-3.752,6.127-3.145,9.678l2.741,15.981c-23.806-11.842-15.142-11.81-38.88,0l2.741-15.984
		c0.606-3.547-0.569-7.163-3.145-9.675l-11.612-11.318l16.045-2.331c3.562-0.517,6.64-2.752,8.233-5.98L326,179.828l7.177,14.542
		c1.593,3.227,4.67,5.462,8.23,5.979l16.047,2.332L345.845,213.998z"/>
	<path style="fill:#474D54;" d="M36.733,147.035c0-110.252,109.514-170.905,183.275-104.316c3.074,2.774,7.816,2.534,10.594-0.542
		c2.775-3.074,2.533-7.817-0.542-10.594C207.171,10.922,179.616,0,150.374,0C47.686,0-13.49,131.634,43.409,228.763
		c1.396,2.383,3.903,3.71,6.479,3.71c5.722,0,9.414-6.259,6.465-11.293C43.518,199.269,36.733,173.631,36.733,147.035z"/>
</g>
<g>
</g>
<g>
</g>
<g>
</g>
<g>
</g>
<g>
</g>
<g>
</g>
<g>
</g>
<g>
</g>
<g>
</g>
<g>
</g>
<g>
</g>
<g>
</g>
<g>
</g>
<g>
</g>
<g>
</g>
</svg>
