<?xml version="1.0" encoding="iso-8859-1"?>
<!-- Generator: Adobe Illustrator 19.0.0, SVG Export Plug-In . SVG Version: 6.00 Build 0)  -->
<svg version="1.1" id="Capa_1" xmlns="http://www.w3.org/2000/svg" xmlns:xlink="http://www.w3.org/1999/xlink" x="0px" y="0px"
	 viewBox="0 0 512 512" style="enable-background:new 0 0 512 512;" xml:space="preserve">
<path style="fill:#48C397;" d="M198.404,84.905v131.171c0,5.683,6.43,8.984,11.049,5.672l40.492-29.042
	c3.62-2.596,8.491-2.596,12.112,0l40.351,28.941c4.677,3.355,11.19,0.012,11.19-5.744V85.094c0-4.325-3.506-7.83-7.83-7.83h-99.72
	C201.825,77.264,198.404,80.685,198.404,84.905z"/>
<path style="fill:#FFB70D;stroke:#FFC850;stroke-miterlimit:10;" d="M345.46,84.742v131.335c0,5.683,6.43,8.984,11.049,5.672
	l40.492-29.042c3.619-2.596,8.491-2.596,12.112,0l40.351,28.941c4.677,3.355,11.19,0.012,11.19-5.744V84.463
	c0-3.976-3.223-7.199-7.199-7.199H352.939C348.808,77.264,345.46,80.612,345.46,84.742z"/>
<path style="fill:#FF9052;" d="M159.007,77.264h-0.102H58.985h-0.102c-4.161,0-7.534,3.373-7.534,7.534V84.9
	c0,15.888,0,117.758,0,131.176c0,3.651,2.656,6.307,5.778,6.87l0.021-0.094c5.334,1.004,4.797-1.761,45.743-30.146
	c3.62-2.596,8.491-2.596,12.112,0c40.987,28.414,40.399,31.151,45.742,30.146l0.021,0.094c3.122-0.563,5.778-3.219,5.778-6.87
	c0-13.418,0-115.092,0-131.176v-0.102C166.541,80.637,163.168,77.264,159.007,77.264z"/>
<path style="fill:#5FA77E;" d="M256.001,84.905c0-4.22,3.421-7.641,7.641-7.641h-57.596c-4.22,0-7.641,3.421-7.641,7.641v131.171
	c0,5.684,6.429,8.984,11.049,5.672c41.482-28.936,40.645-30.989,46.548-30.989V84.905L256.001,84.905z"/>
<path style="fill:#F2A306;stroke:#FEA82F;stroke-miterlimit:10;" d="M403.057,84.742c0-4.13,3.348-7.478,7.478-7.478h-57.597
	c-4.13,0-7.478,3.348-7.478,7.478v131.334c0,5.684,6.429,8.984,11.049,5.672c41.605-29.022,40.664-30.989,46.548-30.989V84.742
	H403.057z"/>
<path style="fill:#FF8031;" d="M108.945,84.9v-0.102c0-4.161,3.373-7.534,7.534-7.534H58.985h-0.102
	c-4.161,0-7.534,3.373-7.534,7.534V84.9c0,15.888,0,117.758,0,131.176c0,3.651,2.656,6.307,5.778,6.87l0.021-0.094
	c1.775,0.334,3.701,0.006,5.391-1.205c41.351-28.842,40.504-30.888,46.407-30.888L108.945,84.9L108.945,84.9z"/>
<path style="fill:#FFFFFF;" d="M111.218,105.158l7.993,16.196c0.369,0.748,1.083,1.267,1.909,1.387l17.873,2.597
	c2.079,0.302,2.909,2.857,1.405,4.323l-12.933,12.607c-0.597,0.582-0.87,1.421-0.729,2.243l3.053,17.801
	c0.355,2.071-1.818,3.65-3.678,2.672c-17.495-9.198-16.734-9.252-18.345-8.404l-15.986,8.404c-1.86,0.978-4.033-0.601-3.678-2.672
	c3.337-19.46,3.613-18.788,2.324-20.044l-12.933-12.607c-1.504-1.466-0.674-4.021,1.405-4.323l17.873-2.597
	c0.826-0.12,1.539-0.638,1.909-1.387l7.993-16.196C107.602,103.274,110.288,103.274,111.218,105.158z"/>
<path style="fill:#E4EAF8;" d="M108.353,139.53c0.141-0.822-0.132-1.661-0.729-2.244l-12.933-12.606
	c-0.454-0.442-0.672-0.984-0.731-1.532l-15.063,2.189c-2.079,0.302-2.909,2.857-1.405,4.323l12.933,12.607
	c1.684,1.64,0.325,2.399-2.324,20.044c-0.355,2.071,1.818,3.649,3.678,2.672l13.492-7.092
	C105.244,157.297,105.158,158.329,108.353,139.53z"/>
<path style="fill:#ABFFDB;" d="M276.045,77.264h-40.088V202.74l13.988-10.033c3.62-2.596,8.491-2.596,12.112,0l13.989,10.033V77.264
	z"/>
<path style="fill:#92E0C0;" d="M256.001,190.76V84.905c0-4.22,3.421-7.641,7.641-7.641h-27.686V202.74
	C249.849,192.967,251.273,190.76,256.001,190.76z"/>
<g>
	<path style="fill:#FFB70D;stroke:#FFC850;stroke-miterlimit:10;" d="M59.293,213.174L31.005,340.758
		c-1.23,5.549,4.332,10.164,9.559,7.929L86.382,329.1c4.096-1.751,8.852-0.696,11.824,2.622l33.13,36.989
		c3.84,4.288,10.922,2.434,12.168-3.186l28.637-129.152c0.759-3.424-1.401-6.815-4.825-7.575l-98.323-21.801
		C64.608,206.025,60.266,208.791,59.293,213.174z"/>
	<path style="fill:#F2A306;stroke:#FEA82F;stroke-miterlimit:10;" d="M92.534,328.478c25.686-115.306,23.845-108.828,24.869-110.746
		l-48.413-10.735c-4.384-0.972-8.725,1.794-9.698,6.177L31.005,340.758c-1.23,5.549,4.332,10.164,9.559,7.929
		C87.318,329.386,86.901,327.333,92.534,328.478z"/>
</g>
<path style="fill:#FFFFFF;" d="M203.032,244.241l-28.459,128.351c-1.23,5.549,4.332,10.164,9.559,7.929l45.818-19.588
	c4.096-1.751,8.852-0.696,11.825,2.622l33.13,36.989c3.84,4.288,10.922,2.434,12.168-3.186l28.352-127.865
	c0.917-4.135-1.692-8.23-5.827-9.147l-97.803-21.686C207.833,237.782,203.91,240.281,203.032,244.241z"/>
<path style="fill:#E4EAF8;" d="M235.947,360.282l24.571-110.818l-48.726-10.804c-3.96-0.878-7.882,1.62-8.76,5.581l-28.459,128.351
	c-1.23,5.549,4.332,10.164,9.559,7.929C231.042,361.124,230.438,359.249,235.947,360.282z"/>
<path style="fill:#48C397;" d="M346.44,276.802l-28.298,127.623c-1.23,5.549,4.332,10.164,9.559,7.929l45.819-19.588
	c4.096-1.751,8.852-0.696,11.824,2.622l33.13,36.989c3.84,4.288,10.922,2.434,12.169-3.186l28.456-128.336
	c0.859-3.875-1.585-7.712-5.46-8.572l-97.547-21.629C351.727,269.687,347.407,272.44,346.44,276.802z"/>
<path style="fill:#5FA77E;" d="M379.35,392.085l24.094-108.664c0.166-0.75,0.438-1.449,0.786-2.093l-48.141-10.674
	c-4.362-0.967-8.682,1.785-9.65,6.146l-28.298,127.624c-1.23,5.549,4.332,10.164,9.559,7.929
	C374.811,392.839,373.981,391.169,379.35,392.085z"/>
<g>
	<path style="fill:#FFB70D;stroke:#FFC850;stroke-miterlimit:10;" d="M256.088,279.377l4.242,17.555
		c0.196,0.811,0.778,1.473,1.557,1.772l16.866,6.458c1.962,0.751,2.211,3.426,0.421,4.526l-15.386,9.459
		c-0.711,0.437-1.161,1.195-1.204,2.029l-0.93,18.036c-0.108,2.098-2.575,3.161-4.175,1.799
		c-15.049-12.814-14.295-12.7-16.052-12.228l-17.441,4.689c-2.029,0.545-3.802-1.472-3.001-3.414
		c7.536-18.272,7.661-17.519,6.668-19.045l-9.85-15.139c-1.146-1.761,0.225-4.071,2.32-3.909c19.685,1.52,19.042,1.857,20.173,0.457
		l11.354-14.045C252.974,276.745,255.594,277.335,256.088,279.377z"/>
	<path style="fill:#F2A306;stroke:#FEA82F;stroke-miterlimit:10;" d="M246.125,312.364c0.897-2.175-0.651-2.332-10.068-17.488
		c-0.356-0.547-0.468-1.146-0.392-1.709l-15.539-1.2c-2.095-0.162-3.465,2.148-2.32,3.909c9.374,15.088,10.965,15.312,10.068,17.488
		l-6.887,16.696c-0.801,1.942,0.973,3.959,3.001,3.414l15.135-4.068C239.197,329.118,240.427,326.196,246.125,312.364z"/>
</g>
<path style="fill:#ABFFDB;" d="M424.209,285.758l-39.137-8.677l-27.58,122.539l16.029-6.852c4.096-1.751,8.852-0.696,11.825,2.621
	l11.34,12.662L424.209,285.758z"/>
<path style="fill:#92E0C0;" d="M403.443,283.421c0.166-0.75,0.438-1.449,0.786-2.093l-12.712-2.818l-6.446-1.429l-27.58,122.539
	c15.892-6.753,17.641-8.257,21.858-7.534L403.443,283.421z"/>
<path style="fill:#FFFFFF;" d="M137.148,222.11l-39.137-8.678L70.443,335.914l15.939-6.814c4.096-1.751,8.852-0.696,11.825,2.622
	l11.406,12.734L137.148,222.11z"/>
<path style="fill:#E4EAF8;" d="M117.404,217.732l-19.393-4.3L70.443,335.914c17.303-7.435,18.167-8.234,22.091-7.437
	C118.221,213.171,116.379,219.65,117.404,217.732z"/>
<path style="fill:#FFFFFF;" d="M405.33,105.158c8.746,17.724,8.139,17.326,9.902,17.582l17.873,2.597
	c2.079,0.302,2.909,2.857,1.405,4.323c-14.153,13.797-13.97,13.057-13.662,14.85l3.053,17.801c0.355,2.071-1.818,3.65-3.678,2.672
	c-17.495-9.198-16.734-9.252-18.345-8.404l-15.986,8.404c-1.859,0.978-4.033-0.601-3.678-2.672
	c3.337-19.46,3.613-18.788,2.324-20.044l-12.933-12.607c-1.504-1.466-0.674-4.021,1.405-4.323l17.873-2.597
	c0.826-0.12,1.539-0.638,1.908-1.387l7.992-16.196C401.714,103.274,404.4,103.274,405.33,105.158z"/>
<path style="fill:#E4EAF8;" d="M402.465,139.53c0.141-0.822-0.132-1.661-0.729-2.244l-12.933-12.606
	c-0.454-0.442-0.672-0.984-0.731-1.532l-15.063,2.189c-2.079,0.302-2.909,2.857-1.405,4.323
	c12.453,12.656,14.06,12.532,13.662,14.851l-3.053,17.8c-0.355,2.071,1.818,3.649,3.678,2.672l13.492-7.092
	C399.356,157.297,399.27,158.329,402.465,139.53z"/>
<path style="fill:#474D54;" d="M506.121,308.239l-39.354-8.725c0.101-6.818-4.593-13.019-11.507-14.553
	c-10.175-2.256-87.625-19.429-97.548-21.629c-6.757-1.496-13.474,1.66-16.809,7.323l-17.835-3.955
	c-0.47-6.394-5.054-12.172-11.849-13.677l-97.803-21.687c-6.619-1.473-13.196,1.723-16.273,7.442l-17.363-3.85
	c-0.026-5.125-2.916-9.832-7.433-12.195c3.141-5.926,1.101-3.653,1.694-123.971h16.862v117.312c0,11.782,13.346,18.633,22.92,11.768
	c7.533-5.403,33.239-23.839,40.492-29.042c1.008-0.725,2.361-0.723,3.369,0l13.988,10.033l0,0l26.362,18.908
	c9.631,6.906,23.061,0.017,23.061-11.841V98.764h16.861v117.312c0,8.171,6.657,14.49,14.489,14.49
	c8.082,0,8.705-3.966,48.923-31.765c1.008-0.723,2.362-0.723,3.37,0l40.351,28.94c9.629,6.91,23.061,0.018,23.061-11.839v-70.89
	c0-4.143-3.357-7.5-7.5-7.5c-4.143,0-7.5,3.357-7.5,7.5v70.051l-39.67-28.452c-6.235-4.472-14.616-4.472-20.853,0l-39.669,28.452
	c-0.002-13.267-0.018-109.252-0.021-130.299h100.215v25.246c0,4.143,3.357,7.5,7.5,7.5c4.143,0,7.5-3.357,7.5-7.5V98.764h36.345
	c4.143,0,7.5-3.357,7.5-7.5c0-4.143-3.357-7.5-7.5-7.5h-36.38c-0.369-7.779-6.795-14-14.665-14H352.937
	c-7.929,0-14.422,6.197-14.93,14h-16.978c-0.678-7.831-7.26-14.001-15.265-14.001h-99.72c-7.963,0-14.497,6.184-15.084,14.001
	h-16.978c-0.585-7.816-7.116-14.001-15.08-14.001H58.882c-7.941,0-14.448,6.192-14.983,14.001H7.503c-4.142,0-7.5,3.357-7.5,7.5
	c0,4.143,3.358,7.5,7.5,7.5h36.345V205.74l-34.722-7.698c-4.046-0.897-8.05,1.655-8.946,5.699c-0.896,4.044,1.655,8.049,5.699,8.945
	l38.963,8.639c0.816,2.089,2.107,3.947,3.753,5.444L23.681,339.135c-2.549,11.5,8.995,21.082,19.83,16.45
	c48.859-20.843,45.763-19.661,46.51-19.778c2.967-0.464,1.503,0.455,35.728,37.908c7.908,8.831,22.511,5.007,25.078-6.566
	l26.052-117.497l16.462,3.65l-26.09,117.666c-2.55,11.504,8.994,21.08,19.83,16.45l45.82-19.588c1.14-0.49,2.461-0.193,3.287,0.729
	l33.129,36.987c7.879,8.798,22.504,5.045,25.078-6.565l5.234-23.608c0.896-4.044-1.655-8.049-5.699-8.945
	c-4.041-0.892-8.048,1.655-8.945,5.699l-5.053,22.788l-32.569-36.363c-5.122-5.718-13.306-7.534-20.36-4.514l-44.887,19.189
	l28.207-127.21c101.342,22.565,97.858,21.507,97.78,21.854l-15.524,70.009c-0.896,4.044,1.655,8.05,5.698,8.947
	c4.051,0.894,8.05-1.655,8.947-5.698l13.225-59.641l16.462,3.65L310.82,402.802c-2.55,11.502,8.994,21.082,19.829,16.451
	l45.819-19.588c1.142-0.486,2.463-0.193,3.289,0.729c30.6,34.166,22.976,25.653,33.129,36.989c7.909,8.83,22.511,5.007,25.078-6.566
	l25.851-116.59l39.059,8.66c4.048,0.896,8.049-1.659,8.945-5.699C512.717,313.141,510.165,309.136,506.121,308.239z M283.545,84.763
	c22.776,0.15,22.552-0.313,22.552,0.331v129.97l-22.552-16.175V84.763z M206.046,84.763h22.411v32.248c0,4.143,3.358,7.5,7.5,7.5
	s7.5-3.357,7.5-7.5V84.764h25.086V188.13c-0.71-0.293-8.853-8.322-19.968-3.244c-2.421,1.106-3.484,2.134-5.119,3.244v-36.116
	c0-4.143-3.358-7.5-7.5-7.5s-7.5,3.357-7.5,7.5v46.876l-22.552,16.175C205.97,79.107,205.765,84.763,206.046,84.763z M58.882,84.763
	C163.063,84.827,159.04,84.628,159.04,84.9v130.162l-39.669-28.451c-3.118-2.236-6.772-3.354-10.427-3.354
	c-9.331,0-12.363,5.766-30.928,18.058c-6.954-1.518-12.561-3.764-19.165,0.434L58.882,84.763z M130.295,212.907
	c-0.147-0.033-4.973-1.103-32.618-7.231l9.583-6.873c1.008-0.723,2.362-0.723,3.369,0L130.295,212.907z M136.363,363.082
	l-18.585-20.75l-12.288-13.721c-0.819-0.641-5.34-7.85-15.024-7.85c-0.581,0.06-3.433-0.098-7.032,1.442l-2.453,1.048l-17.013,7.273
	l-25.422,10.869c30.09-134.298,27.613-127.317,28.822-127.074l97.201,21.552L136.363,363.082z M451.707,299.538L423.5,426.749l0,0
	c0,0-29.979-33.459-30.939-34.544c-0.748-0.583-5.278-7.777-14.96-7.777c-4.8,0-8.138,2.025-9.574,2.529l0,0l-42.345,18.103
	c30.066-134.338,27.653-127.356,28.783-127.082L451.707,299.538"/>
<g>
</g>
<g>
</g>
<g>
</g>
<g>
</g>
<g>
</g>
<g>
</g>
<g>
</g>
<g>
</g>
<g>
</g>
<g>
</g>
<g>
</g>
<g>
</g>
<g>
</g>
<g>
</g>
<g>
</g>
</svg>
