<?xml version="1.0" encoding="iso-8859-1"?>
<!-- Generator: Adobe Illustrator 19.0.0, SVG Export Plug-In . SVG Version: 6.00 Build 0)  -->
<svg version="1.1" id="Capa_1" xmlns="http://www.w3.org/2000/svg" xmlns:xlink="http://www.w3.org/1999/xlink" x="0px" y="0px"
	 viewBox="0 0 512 512" style="enable-background:new 0 0 512 512;" xml:space="preserve">
<g>
	<path style="fill:#FFFFFF;" d="M10.325,225.595c15.378-29.319,57.702-0.876,81.025,22.663c1.949,1.967,5.298,0.612,5.298-2.157
		c0-31.95,0-137.48,0-134.282c0-11.146,8.455-20.714,19.572-21.514c12.38-0.89,22.699,8.89,22.699,21.079c0-1.417,0-19.004,0-18.106
		c0-11.537,9.046-21.308,20.578-21.605c11.928-0.307,21.694,9.271,21.694,21.129c0,10.403,0,8.129,0,18.581
		c0-12.322,10.545-22.181,23.101-21.046c10.948,0.989,19.171,10.49,19.171,21.482v24.014c0-12.321,10.543-22.179,23.098-21.047
		c10.949,0.987,19.172,10.488,19.172,21.481v165.928c0,17.682-5.828,34.002-15.669,47.145c-9.26,12.367-7.135,25.352-7.431,27.854
		v31.176H107.456v-40.247c0-4.581-2.052-8.908-5.571-11.842c-8.212-6.845-22.943-21.472-26.307-41.807
		c-0.782-4.729-2.386-9.298-4.643-13.527c-14.667-27.474-46.072-46.961-46.866-47.534C9.373,242.812,3.517,238.574,10.325,225.595z"
		/>
	<path style="fill:#FFFFFF;" d="M293.569,255.336c12.7-24.211,47.652-0.725,66.914,18.716c1.609,1.624,4.375,0.505,4.375-1.781
		c0-26.385,0-113.537,0-110.895c0-9.205,6.983-17.107,16.164-17.767c10.224-0.735,18.746,7.341,18.746,17.408
		c0-1.17,0-15.695,0-14.953c0-9.528,7.469-17.597,16.994-17.842c9.851-0.254,17.916,7.656,17.916,17.449c0,8.591,0,6.713,0,15.345
		c0-10.176,8.708-18.318,19.078-17.381c9.042,0.817,15.832,8.662,15.832,17.741v22.917c0-10.175,8.707-18.317,19.076-17.381
		c9.042,0.815,15.834,8.661,15.834,17.74v133.946c0,14.603-4.813,28.081-12.94,38.934c-7.646,10.213-5.892,20.937-6.137,23.002
		v27.837H373.784v-35.328c0-3.783-1.694-7.357-4.6-9.78c-6.782-5.653-18.948-17.732-21.725-34.526
		c-0.646-3.906-1.97-7.678-3.835-11.171c-12.113-22.688-38.047-38.782-38.704-39.255
		C292.782,269.555,287.947,266.055,293.569,255.336z"/>
</g>
<g>
	<path style="fill:#E4EAF8;" d="M254.097,343.39c-54.828,36.634-128.124,29.635-175.116-17.027
		c5.793,14.173,16.394,24.492,22.903,29.919c3.519,2.933,5.571,7.26,5.571,11.843v40.247h135.18v-31.176
		c0.296-2.501-1.828-15.487,7.431-27.854C251.501,347.427,252.839,345.436,254.097,343.39z"/>
	<path style="fill:#E4EAF8;" d="M493.103,355.374c-47.07,20.356-103.156,13.445-144.313-20.996
		c4.204,13.86,14.397,23.887,20.392,28.885c2.906,2.422,4.6,5.996,4.6,9.78v35.328H485.42v-27.836
		c0.245-2.065-1.51-12.79,6.137-23.003C492.088,356.824,492.602,356.104,493.103,355.374z"/>
</g>
<path style="fill:#6DC296;" d="M242.589,396.37c-17.8,0-120.532,0-136.424,0c-12.141,0-21.982,9.842-21.982,21.982
	c0,12.141,9.842,21.982,21.982,21.982c26.268,0,103.589,0,136.424,0c12.141,0,21.982-9.842,21.982-21.982
	C264.572,406.212,254.73,396.37,242.589,396.37z"/>
<path style="fill:#5FA77E;" d="M167.722,418.353c0-12.141,9.842-21.982,21.982-21.982c-16.066,0-66.237,0-83.539,0
	c-12.141,0-21.982,9.842-21.982,21.982c0,12.141,9.842,21.982,21.982,21.982c17.328,0,67.486,0,83.539,0
	C177.564,440.335,167.722,430.493,167.722,418.353z"/>
<path style="fill:#FF9052;" d="M499.409,418.353c0-12.141-9.842-21.982-21.982-21.982c-14.918,0-51.681,0-66.832,0h-28.589
	c-12.141,0-21.982,9.842-21.982,21.982c0,12.141,9.842,21.982,21.982,21.982h28.589c15.257,0,51.979,0,66.832,0
	C489.567,440.335,499.409,430.493,499.409,418.353z"/>
<path style="fill:#FF8031;" d="M429.716,418.353c0-12.141,9.842-21.982,21.982-21.982c-6.515,0-29.793,0-41.103,0h-28.589
	c-12.141,0-21.982,9.842-21.982,21.982c0,12.141,9.842,21.982,21.982,21.982h28.589c6.635,0,30.463,0,41.103,0
	C439.557,440.335,429.716,430.493,429.716,418.353z"/>
<g>
	<path style="fill:#474D54;" d="M504.499,216.798c4.143,0,7.5-3.357,7.5-7.5v-24.646c0-17.776-18.062-30.54-34.909-23.233v-0.042
		c0-18.272-18.983-31.026-35.917-22.772c-6.894-23.519-40.426-24.052-47.798,0.051c-16.784-8.269-36.017,4.164-36.017,22.721v99.485
		c-9.892-8.576-20.382-15.39-30.291-19.603l-0.242-0.103c-16.802-7.673-32.463-3.474-39.898,10.697
		c-7.89,15.044-0.387,23.433,14.203,32.945c14.256,9.299,36.186,28.578,38.927,45.166c3.138,18.962,16.586,32.613,24.323,39.063
		c3.272,2.725,1.336,5.281,1.902,24.404c-24.942,15.793-13.669,54.404,15.723,54.404h95.42c29.57,0,40.655-38.94,15.495-54.55
		c0.034-17.822-1.025-23.688,4.642-31.257c9.444-12.614,14.436-27.632,14.436-43.429v-74.298c0-4.143-3.357-7.5-7.5-7.5
		c-4.143,0-7.5,3.357-7.5,7.5v74.298c0,12.531-3.957,24.439-11.443,34.439c-6.754,9.022-7.634,17.5-7.634,27.499v8.335
		c-1.055,0-34.228,0-96.636,0v-15.827c0-6.011-2.66-11.677-7.299-15.541c-6.137-5.115-16.783-15.814-19.128-29.987
		c-3.532-21.382-27.466-43.499-45.532-55.283l-0.129-0.084c-4.826-3.482-8.982-6.489-10.213-8.5
		c-0.21-0.344-0.702-1.148,1.228-4.826c5.091-9.707,15.95-6.046,20.385-4.02c0.125,0.058,0.327,0.145,0.603,0.262
		c6.395,2.719,19.312,9.487,33.957,24.269c6.304,6.361,17.203,1.923,17.203-7.061V161.377c0-8.991,10.335-13.607,16.733-7.648
		c2.048,1.905,3.176,4.494,3.176,7.289v95.314c0,4.143,3.357,7.5,7.5,7.5s7.5-3.357,7.5-7.5c0-25.457,0-86.667,0-110.267
		c0-9.004,10.506-13.758,16.902-7.521c4.785,4.665,2.354,9.89,3.007,22.475v95.314c0,4.143,3.357,7.5,7.5,7.5
		c4.143,0,7.5-3.357,7.5-7.5v-95.314c0-5.82,4.967-10.456,10.902-9.911c5.051,0.456,9.008,4.967,9.008,10.271
		c0,12.397,0,86.174,0,94.954c0,4.143,3.357,7.5,7.5,7.5c4.143,0,7.5-3.357,7.5-7.5v-72.037c0-2.829,1.151-5.44,3.242-7.351
		c6.431-5.88,16.666-1.227,16.666,7.709v24.646C496.999,213.441,500.356,216.798,504.499,216.798z M381.987,403.872h95.459
		c7.976,0.011,14.463,6.501,14.463,14.481c0,7.984-6.496,14.481-14.482,14.481h-95.42c-7.984,0-14.481-6.496-14.481-14.481
		C367.525,410.373,374.012,403.883,381.987,403.872z"/>
	<path style="fill:#474D54;" d="M230.944,110.672c-0.846-21.49-23.984-34.975-42.921-24.088
		c-2.804-12.755-14.424-22.788-28.717-22.407c-13.13,0.338-24.17,9.907-27.115,22.441c-18.893-11.063-43.042,2.694-43.042,25.201
		v123.973c-21.595-19.47-38.726-25.666-39.211-25.931c-19.514-8.915-37.673-4.104-46.253,12.25
		c-9.835,18.747,1.564,26.974,15.999,37.389c0.075,0.054,0.296,0.206,0.658,0.442c17.65,11.506,44.418,35.107,47.838,55.756
		c3.714,22.456,19.703,38.675,28.904,46.345c1.826,1.522,2.873,3.738,2.873,6.081v21.41c-13.284,2.859-23.272,14.692-23.272,28.818
		c0,16.257,13.227,29.482,29.483,29.482h15.253c4.143,0,7.5-3.357,7.5-7.5s-3.357-7.5-7.5-7.5h-15.253
		c-7.985,0-14.482-6.496-14.482-14.481s6.496-14.481,14.482-14.481c15.349,0,120.718,0,136.424,0
		c7.984,0,14.481,6.496,14.481,14.481s-6.496,14.481-14.481,14.481h-86.169c-4.143,0-7.5,3.357-7.5,7.5s3.357,7.5,7.5,7.5h86.169
		c16.257,0,29.482-13.226,29.482-29.482c0-13.649-9.324-25.156-21.936-28.5v-12.348c0.236-3.598-1.439-13.819,5.935-23.668
		c5.959-7.959,10.46-16.819,13.378-26.333c1.214-3.961-1.012-8.155-4.972-9.371c-3.963-1.211-8.154,1.011-9.371,4.972
		c-8.038,26.221-19.971,21.75-19.971,54.091v11.675H114.957v-20.746c0-6.807-3.014-13.224-8.269-17.604
		c-7.601-6.335-20.787-19.603-23.709-37.272c-4.363-26.35-32.628-50.84-54.628-65.993c-15.171-10.951-14.951-11.374-11.383-18.178
		c5.689-10.844,16.404-9.953,27.434-5.27c7.851,3.338,23.699,11.64,41.62,29.728c3.04,3.068,7.582,3.991,11.576,2.35
		c3.979-1.638,6.551-5.478,6.551-9.785V111.82c0-7.359,5.539-13.524,12.61-14.034c7.975-0.567,14.661,5.683,14.661,13.599v115.414
		c0,4.143,3.357,7.5,7.5,7.5s7.5-3.357,7.5-7.5c0-19.981,0-117.204,0-133.52c0-7.59,5.953-13.919,13.272-14.107
		c8.003-0.15,14,6.215,14,13.632c0,16.936,0.001,117.364,0.001,133.995c0,4.143,3.357,7.5,7.5,7.5c4.143,0,7.5-3.357,7.5-7.5
		V111.365c0.005-3.869,1.581-7.438,4.441-10.051c8.816-8.051,22.829-1.672,22.829,10.506c0,11.709,0,102.726,0,114.979
		c0,4.143,3.357,7.5,7.5,7.5c4.143,0,7.5-3.357,7.5-7.5v-90.963c0-3.876,1.577-7.452,4.441-10.07
		c8.861-8.097,22.828-1.581,22.828,10.504v154.034c0,4.143,3.357,7.5,7.5,7.5c4.143,0,7.5-3.357,7.5-7.5V136.269
		C273.237,114.737,250.429,100.127,230.944,110.672z"/>
</g>
<g>
</g>
<g>
</g>
<g>
</g>
<g>
</g>
<g>
</g>
<g>
</g>
<g>
</g>
<g>
</g>
<g>
</g>
<g>
</g>
<g>
</g>
<g>
</g>
<g>
</g>
<g>
</g>
<g>
</g>
</svg>
