<?xml version="1.0" encoding="iso-8859-1"?>
<!-- Generator: Adobe Illustrator 19.0.0, SVG Export Plug-In . SVG Version: 6.00 Build 0)  -->
<svg version="1.1" id="Capa_1" xmlns="http://www.w3.org/2000/svg" xmlns:xlink="http://www.w3.org/1999/xlink" x="0px" y="0px"
	 viewBox="0 0 512 512" style="enable-background:new 0 0 512 512;" xml:space="preserve">
<path style="fill:#FFFFFF;" d="M455.74,63.879c-18.372,0-382.117,0-400.507,0c-14.878,0-26.984,12.105-26.984,26.984
	c0,29.922,0,246.081,0,273.669c0,14.878,12.106,26.984,26.984,26.984c19.335,0,382.621,0,400.507,0
	c14.878,0,26.984-12.105,26.984-26.984c0-36.419,0-245.484,0-273.669C482.723,75.985,470.617,63.879,455.74,63.879z"/>
<path style="fill:#E4EAF8;" d="M56.281,364.532c0-36.419,0-245.484,0-273.669c0-14.878,12.106-26.984,26.984-26.984
	c-15.278,0-25.347,0-28.033,0c-14.878,0-26.984,12.105-26.984,26.984c0,29.922,0,246.081,0,273.669
	c0,14.878,12.106,26.984,26.984,26.984c2.804,0,12.858,0,28.033,0C68.387,391.516,56.281,379.41,56.281,364.532z"/>
<path style="fill:#ABFFDB;" d="M447.557,91.913c-89.682,0-294.858,0-384.141,0l0,0c-3.926,0-7.133,3.18-7.133,7.133
	c0,12.361,0,248.412,0,257.303c0,2.708,1.51,5.064,3.733,6.272c2.464,1.339-23.975,0.861,387.541,0.861
	c3.93,0,7.133-3.184,7.133-7.133c0-9.889,0-244.479,0-257.303C454.691,95.094,451.484,91.913,447.557,91.913z"/>
<path style="fill:#92E0C0;" d="M86.283,356.349c0-25.603,0-231.569,0-257.303c0-3.95,3.203-7.133,7.133-7.133
	c-32.481,0-31.261-0.302-33.402,0.861c-2.223,1.208-3.733,3.564-3.733,6.272c0,12.361,0,248.412,0,257.303
	c0,3.944,3.198,7.133,7.133,7.133c1.975,0,12.945,0,30.002,0c-1.231,0-2.389-0.312-3.4-0.861
	C87.793,361.413,86.283,359.058,86.283,356.349z"/>
<path style="fill:#E4EAF8;" d="M504.5,401.186c0-5.383-4.344-9.748-9.704-9.748H17.204c-5.359,0-9.704,4.364-9.704,9.748
	c0,25.921,20.918,46.934,46.722,46.934h403.554C483.581,448.12,504.5,427.107,504.5,401.186z"/>
<path style="fill:#C2C7D0;" d="M64.004,401.186c0-5.383,4.344-9.748,9.704-9.748H17.204c-5.359,0-9.704,4.364-9.704,9.748
	c0,25.921,20.918,46.934,46.722,46.934h56.503C84.922,448.12,64.004,427.107,64.004,401.186z"/>
<g>
	<path style="fill:#FFFFFF;" d="M161.054,391.439v15.945c0,6.817,5.552,12.396,12.34,12.396h165.213
		c6.786,0,12.34-5.578,12.34-12.396v-15.945H161.054z"/>
	<path style="fill:#FFFFFF;" d="M191.056,407.384v-15.945h-30.002v15.945c0,6.817,5.552,12.396,12.34,12.396h30.002
		C196.608,419.779,191.056,414.201,191.056,407.384z"/>
</g>
<circle style="fill:#FFC850;" cx="183.071" cy="227.694" r="92.396"/>
<path style="fill:#FEA82F;" d="M129.033,258.895c-22.96-39.768-12.992-89.506,21.437-117.66
	c-53.255,20.15-75.977,83.2-47.42,132.661c25.515,44.193,82.024,59.335,126.217,33.82c4.424-2.554,8.552-5.424,12.382-8.556
	C200.052,314.899,151.993,298.663,129.033,258.895z"/>
<path style="fill:#FFC850;" d="M334.126,294.826H320.36c-7.456,0-13.501-6.044-13.501-13.501s6.044-13.501,13.501-13.501h13.766
	c7.456,0,13.501,6.044,13.501,13.501S341.583,294.826,334.126,294.826z"/>
<path style="fill:#FF9052;" d="M334.126,187.571H320.36c-7.456,0-13.501-6.044-13.501-13.501s6.044-13.501,13.501-13.501h13.766
	c7.456,0,13.501,6.044,13.501,13.501C347.627,181.527,341.583,187.571,334.126,187.571z"/>
<path style="fill:#48C397;" d="M334.126,241.199H320.36c-7.456,0-13.501-6.044-13.501-13.501c0-7.456,6.044-13.501,13.501-13.501
	h13.766c7.456,0,13.501,6.044,13.501,13.501C347.627,235.154,341.583,241.199,334.126,241.199z"/>
<path style="fill:#FEA82F;" d="M327.244,281.325c0-6.312,4.338-11.598,10.192-13.075c-1.061-0.268-2.165-0.426-3.309-0.426H320.36
	c-7.456,0-13.501,6.044-13.501,13.501s6.044,13.501,13.501,13.501h13.766c1.144,0,2.248-0.158,3.309-0.425
	C331.582,292.923,327.244,287.637,327.244,281.325z"/>
<path style="fill:#FF8031;" d="M327.244,174.071c0-6.312,4.338-11.598,10.192-13.075c-1.061-0.268-2.165-0.426-3.309-0.426H320.36
	c-7.456,0-13.501,6.044-13.501,13.501s6.044,13.501,13.501,13.501h13.766c1.144,0,2.248-0.158,3.309-0.425
	C331.582,185.667,327.244,180.383,327.244,174.071z"/>
<path style="fill:#5FA77E;" d="M327.244,227.698c0-6.312,4.338-11.598,10.192-13.075c-1.061-0.268-2.165-0.426-3.309-0.426H320.36
	c-7.456,0-13.501,6.044-13.501,13.501c0,7.456,6.044,13.501,13.501,13.501h13.766c1.144,0,2.248-0.158,3.309-0.425
	C331.582,239.296,327.244,234.01,327.244,227.698z"/>
<path style="fill:#FF9052;" d="M90.671,227.698c0,51.029,41.368,92.397,92.397,92.397V135.301
	C132.039,135.301,90.671,176.668,90.671,227.698z"/>
<path style="fill:#FF8031;" d="M150.47,141.235c-72.935,27.596-81.582,129.142-11.839,167.487
	c13.194,7.219,28.407,11.373,44.437,11.373v-18.749C112.399,280.65,92.726,188.454,150.47,141.235z"/>
<path style="fill:#48C397;" d="M260.449,177.197c-16.497-25.226-44.99-41.897-77.38-41.897l0,0v92.397L260.449,177.197z"/>
<g>
	<path style="fill:#FFFFFF;" d="M319.846,302.326h13.766c11.58,0,21.001-9.422,21.001-21.001s-9.422-21.001-21.001-21.001h-13.766
		c-11.58,0-21.001,9.422-21.001,21.001S308.267,302.326,319.846,302.326z M319.846,275.325h13.766c3.309,0,6,2.691,6,6
		c0,3.309-2.691,6-6,6h-13.766c-3.309,0-6-2.691-6-6C313.846,278.016,316.538,275.325,319.846,275.325z"/>
	<path style="fill:#FFFFFF;" d="M319.846,195.072h13.766c11.58,0,21.001-9.422,21.001-21.001s-9.422-21.001-21.001-21.001h-13.766
		c-11.58,0-21.001,9.422-21.001,21.001S308.267,195.072,319.846,195.072z M319.846,168.07h13.766c3.309,0,6,2.691,6,6s-2.691,6-6,6
		h-13.766c-3.309,0-6-2.691-6-6S316.538,168.07,319.846,168.07z"/>
	<path style="fill:#FFFFFF;" d="M319.846,248.699h13.766c11.58,0,21.001-9.422,21.001-21.001s-9.422-21.001-21.001-21.001h-13.766
		c-11.58,0-21.001,9.422-21.001,21.001S308.267,248.699,319.846,248.699z M319.846,221.697h13.766c3.309,0,6,2.691,6,6s-2.691,6-6,6
		h-13.766c-3.309,0-6-2.691-6-6S316.538,221.697,319.846,221.697z"/>
</g>
<g>
	<path style="fill:#474D54;" d="M376.379,181.571h37.336c4.143,0,7.5-3.357,7.5-7.5c0-4.143-3.357-7.5-7.5-7.5h-37.336
		c-4.143,0-7.5,3.357-7.5,7.5C368.878,178.214,372.237,181.571,376.379,181.571z"/>
	<path style="fill:#474D54;" d="M376.379,235.198h37.336c4.143,0,7.5-3.357,7.5-7.5c0-4.143-3.357-7.5-7.5-7.5h-37.336
		c-4.143,0-7.5,3.357-7.5,7.5C368.878,231.841,372.237,235.198,376.379,235.198z"/>
	<path style="fill:#474D54;" d="M376.379,288.826h37.336c4.143,0,7.5-3.357,7.5-7.5c0-4.143-3.357-7.5-7.5-7.5h-37.336
		c-4.143,0-7.5,3.357-7.5,7.5C368.878,285.468,372.237,288.826,376.379,288.826z"/>
	<path style="fill:#474D54;" d="M494.796,383.938h-10.57c3.781-5.532,5.997-12.215,5.997-19.406v-172.96c0-4.143-3.357-7.5-7.5-7.5
		s-7.5,3.357-7.5,7.5v172.96c0,10.236-7.938,18.634-17.979,19.406H350.946c-8.369,0-289.203,0-297.218,0
		c-10.041-0.772-17.98-9.171-17.98-19.406V90.863c0-10.743,8.741-19.482,19.483-19.482h400.507c10.743,0,19.482,8.74,19.482,19.482
		v65.706c0,4.143,3.357,7.5,7.5,7.5s7.5-3.357,7.5-7.5V90.863c0-19.014-15.47-34.483-34.483-34.483H55.232
		c-19.015,0-34.484,15.47-34.484,34.483v273.67c0,7.191,2.216,13.874,5.997,19.406h-9.541C7.718,383.938,0,391.676,0,401.186
		c0,30.015,24.324,54.434,54.223,54.434h323.324c4.143,0,7.5-3.357,7.5-7.5s-3.357-7.5-7.5-7.5H54.223
		c-21.627,0-39.222-17.689-39.222-39.433c0-1.239,0.988-2.247,2.203-2.247c84.365,0.116,51.587,0.05,136.349,0.076v8.368
		c0,10.971,8.9,19.896,19.84,19.896h165.213c10.94,0,19.84-8.926,19.84-19.896v-8.368c105.898-0.033,35.053,0.059,136.349-0.076
		c1.215,0,2.203,1.008,2.203,2.247c0,21.743-17.595,39.433-39.221,39.433h-45.23c-4.143,0-7.5,3.357-7.5,7.5s3.357,7.5,7.5,7.5
		h45.23c29.898,0,54.222-24.419,54.222-54.434C512,391.676,504.282,383.938,494.796,383.938z M343.446,407.384
		c0,2.653-2.216,4.895-4.839,4.895H173.393c-2.623,0-4.839-2.241-4.839-4.895v-8.368h174.892V407.384z"/>
</g>
<g>
</g>
<g>
</g>
<g>
</g>
<g>
</g>
<g>
</g>
<g>
</g>
<g>
</g>
<g>
</g>
<g>
</g>
<g>
</g>
<g>
</g>
<g>
</g>
<g>
</g>
<g>
</g>
<g>
</g>
</svg>
