<?xml version="1.0" encoding="iso-8859-1"?>
<!-- Generator: Adobe Illustrator 19.0.0, SVG Export Plug-In . SVG Version: 6.00 Build 0)  -->
<svg version="1.1" id="Capa_1" xmlns="http://www.w3.org/2000/svg" xmlns:xlink="http://www.w3.org/1999/xlink" x="0px" y="0px"
	 viewBox="0 0 511.999 511.999" style="enable-background:new 0 0 511.999 511.999;" xml:space="preserve">
<path style="fill:#ABFFDB;" d="M341.07,387.662h-42.356c-6.892,0-11.531-4.639-11.531-11.531v-54.041
	c-2.988-0.827,14.852,4.106-54.627-15.103c-4.271-1.203-7.222-5.099-7.222-9.537v-32.318c-24.955,12.563-55.583,13.528-81.082,1.747
	l0.012,30.079c0.002,4.725-3.144,8.873-7.696,10.144l-75.872,21.188c-13.248,4.948-24.45,15.836-26.017,31.082L12.689,481.059
	c-2.201,12.178,7.158,23.379,19.532,23.379c34.543,0,272.285,0,305.473,0c11.558,0,20.369-10.346,18.53-21.756L341.07,387.662z"/>
<path style="fill:#92E0C0;" d="M42.683,481.061c24.4-143.515,21.511-137.827,26.934-146.219c3.441-5.326,8.013-9.56,13.27-12.748
	l-22.191,6.197c-8.56,3.196-16.019,8.724-21.074,16.548c-2.813,4.354-4.413,9.376-4.943,14.534L12.689,481.06
	c-2.201,12.178,7.158,23.379,19.532,23.379h29.994C49.841,504.44,40.482,493.239,42.683,481.061z"/>
<path style="fill:#48C397;" d="M266.238,316.474c-11.568-3.257-21.9-6.168-33.682-9.485c-4.271-1.203-7.222-5.099-7.222-9.537
	v-27.319c-24.955,12.563-55.583,13.528-81.082,1.747l0.012,25.08c0.002,4.725-3.144,8.873-7.696,10.144l-33.917,9.472
	C137.322,377.479,231.655,377.404,266.238,316.474z"/>
<path style="fill:#E4EAF8;" d="M239.879,309.05l-7.322-2.063c-4.271-1.203-7.222-5.099-7.222-9.537v-32.318
	c-24.955,12.563-55.583,13.528-81.082,1.747l0.012,30.079c0.002,4.725-3.144,8.873-7.696,10.144l-7.499,2.095
	C157.028,345.744,211.991,345.712,239.879,309.05z"/>
<path style="fill:#C3C8D1;" d="M174.151,274.779c-10.303-0.925-20.453-3.535-29.897-7.898l0.012,30.079
	c0.002,4.725-3.144,8.873-7.696,10.144l-7.499,2.094c10.761,14.067,26.755,23.917,45.079,26.627L174.151,274.779L174.151,274.779z"
	/>
<g>
	<path style="fill:#48C397;" d="M356.224,482.684l-0.979-6.072h-69.061v27.828h51.509
		C349.251,504.44,358.063,494.095,356.224,482.684z"/>
	<path style="fill:#48C397;" d="M13.493,476.612l-0.804,4.449c-2.201,12.178,7.158,23.379,19.532,23.379h48.003v-27.828H13.493z"/>
</g>
<path style="fill:#5FA77E;" d="M43.426,476.613H13.493c-0.616,3.917-1.727,7.047-0.725,11.946
	c1.828,8.972,9.741,15.882,19.453,15.882h29.992c-12.374-0.001-21.731-11.201-19.53-23.379L43.426,476.613z"/>
<g>
	<path style="fill:#DDDDDD;" d="M87.722,504.44v-75.508c0-4.142-3.357-7.499-7.499-7.499s-7.499,3.356-7.499,7.499v75.508H87.722z"
		/>
	<path style="fill:#DDDDDD;" d="M293.683,504.44v-75.508c0-4.142-3.357-7.499-7.499-7.499s-7.499,3.356-7.499,7.499v75.508H293.683z
		"/>
</g>
<path style="fill:#FEA82F;" d="M322.546,237.187c-1.25-9.646-14.604-18.015-16.043-54.171c0.002-2.056,0.014-45.254,0-47.315
	c0-76.729-60.472-132.283-128.529-127.888c-61.22,3.918-113.596,56.259-113.596,127.888v1.61
	c-1.021,39.202,4.867,63.116-13.643,93.133c-1.332,2.16-2.104,4.451-2.4,6.743h0.146c-1.225,9.456,5.747,18.894,15.897,18.894
	c52.419,0,193.993,0,242.125,0c10.15,0,17.122-9.439,15.897-18.894L322.546,237.187L322.546,237.187z"/>
<path style="fill:#FF8031;" d="M113.82,237.187h-0.146c1.25-9.646,14.604-18.015,16.043-54.171
	c0.049-25.585-0.323-46.402,0.283-55.939c2.801-54.922,39.191-100.518,88.109-114.827C143.186-9.669,64.379,47.524,64.379,135.701
	v1.61c-1.021,39.202,4.867,63.116-13.643,93.133c-1.332,2.16-2.104,4.451-2.4,6.743h0.146c-1.225,9.456,5.747,18.894,15.897,18.894
	c9.458,0,55.948,0,65.339,0C119.567,256.081,112.597,246.642,113.82,237.187z"/>
<g>
	<path style="fill:#E4EAF8;" d="M99.844,143.208H97.84c-14.742,0-26.694,10.007-26.694,22.352c0,12.347,11.952,22.354,26.694,22.354
		h2.004V143.208z"/>
	<path style="fill:#E4EAF8;" d="M272.877,143.158h-2.009c0,14.616,0,34.529,0,44.806h2.009c14.776,0,26.755-10.03,26.755-22.404
		S287.653,143.158,272.877,143.158z"/>
</g>
<g>
	<path style="fill:#C3C8D1;" d="M73.771,155.885c-8.447,14.706,4.318,32.03,24.069,32.03h2.004v-19.353
		C99.587,168.499,81.79,169.848,73.771,155.885z"/>
	<path style="fill:#C3C8D1;" d="M270.868,168.611c0,7.545,0,14.519,0,19.353h2.009c19.848,0,32.558-17.381,24.136-32.08
		C288.942,169.974,271.2,168.531,270.868,168.611z"/>
</g>
<path style="fill:#FFFFFF;" d="M99.788,140.997v58.93c0,29.747,16.761,57.126,43.509,70.146
	c64.295,31.298,127.693-14.688,127.693-75.5c0-1.438,0-71.392,0-68.954c0-5.125-5.873-7.981-9.936-4.86
	c-7.423,5.703-19.259,12.644-36.347,16.796c-5.716,1.389-10.4-2.292-10.4-8.174v-10.8c0-2.667-2.918-4.301-5.19-2.902
	c-16.255,10.004-59.822,32.775-103.716,20.997C102.567,135.916,99.788,138.064,99.788,140.997z"/>
<g>
	<path style="fill:#E4EAF8;" d="M129.838,194.573c0-0.993,0-34.669,0-54.605c-8.016-0.094-16.222-1.087-24.439-3.291
		c-2.832-0.76-5.611,1.388-5.611,4.32v58.93c0,29.747,16.762,57.126,43.509,70.146c19.726,9.602,39.364,11.92,57.117,8.776
		C160.305,271.747,129.838,236.727,129.838,194.573z"/>
	<path style="fill:#E4EAF8;" d="M378.967,383.663v114.731c0,3.339,2.706,6.046,6.046,6.046h16.166c3.101,0,5.616-2.515,5.616-5.616
		V383.663H378.967z"/>
</g>
<path style="fill:#C2C7D0;" d="M392.88,498.394V383.663h-13.914v114.731c0,3.338,2.706,6.046,6.046,6.046h13.914
	C395.586,504.44,392.88,501.733,392.88,498.394z"/>
<path style="fill:#E4EAF8;" d="M487.104,237.187H298.656c-6.892,0-12.531,5.639-12.531,12.531c0,28.305,0,99.254,0,126.415
	c0,6.892,5.639,12.531,12.531,12.531h188.447c6.892,0,12.531-5.639,12.531-12.531c0-37.685,0-90.863,0-126.415
	C499.634,242.825,493.996,237.187,487.104,237.187z"/>
<path style="fill:#C2C7D0;" d="M317.142,376.132c0-15.481,0-110.386,0-126.415c0-6.892,5.639-12.531,12.531-12.531h-31.016
	c-6.892,0-12.531,5.639-12.531,12.531c0,28.305,0,99.254,0,126.415c0,6.892,5.639,12.531,12.531,12.531h31.016
	C322.78,388.662,317.142,383.024,317.142,376.132z"/>
<circle style="fill:#48C397;" cx="392.875" cy="312.93" r="75.736"/>
<path style="fill:#5FA77E;" d="M353.265,335.796c-18.346-31.778-11.043-71.32,15.48-94.67
	c-45.476,15.341-65.308,68.354-41.455,109.667c23.901,41.399,79.74,50.59,115.702,18.932
	C409.509,381.02,371.612,367.574,353.265,335.796z"/>
<path style="fill:#FFFFFF;" d="M395.682,274.872l9.855,19.968c0.455,0.923,1.335,1.562,2.354,1.71l22.037,3.202
	c2.564,0.373,3.587,3.522,1.732,5.331c-16.645,16.226-17.238,16.018-16.845,18.309l3.764,21.947c0.438,2.553-2.242,4.5-4.535,3.294
	c-20.575-10.817-20.56-11.444-22.619-10.362l-19.71,10.362c-2.293,1.206-4.973-0.742-4.535-3.294
	c3.926-22.895,4.534-23.087,2.865-24.713l-15.946-15.543c-1.855-1.809-0.832-4.958,1.732-5.331l22.036-3.202
	c1.018-0.148,1.898-0.787,2.354-1.71l9.855-19.968C391.223,272.549,394.537,272.549,395.682,274.872z"/>
<g>
	<path style="fill:#474D54;" d="M136.728,275.073c0-0.011,0-0.024,0-0.039C136.728,275.049,136.728,275.063,136.728,275.073z"/>
	<path style="fill:#474D54;" d="M151.736,296.906c0,0.028,0,0.057,0,0.079C151.736,296.966,151.736,296.942,151.736,296.906z"/>
	<path style="fill:#474D54;" d="M499.664,332.102c4.142,0,7.499-3.356,7.499-7.499v-74.826c0-11.044-8.984-20.029-20.028-20.029
		H328.943c-0.471-1.09-1.019-2.152-1.652-3.179c-17.841-28.93-11.156-51.974-12.633-92.742
		c-0.032-31.922-11.031-62.819-30.978-87.012c-2.634-3.195-7.361-3.648-10.557-1.016c-3.194,2.635-3.649,7.361-1.016,10.557
		c17.768,21.549,27.554,49.111,27.554,77.609c0,1.356,0.21,4.045,0.227,12.508c-5.148-5.347-12.403-9.096-20.639-10.266v-10.588
		c0-11.182-12.957-17.695-22.004-10.744c-14.221,10.928-33.67,15.997-34.486,15.488c-0.405-0.385-0.082-3.177-0.193-11.72
		c0-8.518-9.36-13.757-16.619-9.289c-47.38,29.159-84.209,23.801-97.843,20.141c-5.783-1.551-11.584,1.388-13.959,6.577
		c-8.566,0.969-16.143,4.717-21.506,10.175v-10.484c0-93.884,98.286-153.251,174.734-101.884c3.436,2.311,8.096,1.396,10.406-2.043
		c2.31-3.437,1.396-8.096-2.043-10.406C170.044-36.153,57.642,29.165,57.642,135.761v47.518c0,15.402-4.165,29.967-12.382,43.289
		c-9.863,15.992,1.312,37.072,19.88,37.072h56.117c4.682,4.25,9.865,7.983,15.47,11.107v0.09c0,0.017,0,0.037,0,0.06
		c0-0.012,0-0.023,0-0.035c0,0.044,0,0.082,0,0.113v0.014c0,0.969,0.003,5.423,0.01,22.037c0.001,1.354-0.91,2.553-2.214,2.916
		c-81.133,22.659-76.014,21.213-76.479,21.387c-15.808,5.904-28.844,19.023-30.821,37.042L5.281,479.789
		c-3.034,16.793,9.879,32.211,26.912,32.211h87.159c4.142,0,7.499-3.356,7.499-7.499s-3.356-7.499-7.499-7.499H87.695
		c-0.002-40.866,0-18.713-0.001-68.009c0-4.142-3.356-7.499-7.499-7.499s-7.499,3.356-7.499,7.499v40.181H22.44
		c21.912-121.294,20.017-114.887,23.454-120.204c3.901-6.039,9.814-10.696,17.113-13.484l36.187-10.106l15.287-4.269l11.871-3.315
		c30.559,34.996,85.387,35.324,116.199-0.134l11.834,3.332l15.259,4.297l9.016,2.54v48.362c0,11.044,8.984,20.029,20.028,20.029
		h35.97l11.758,72.953h-52.76v-40.181c0-4.142-3.356-7.499-7.499-7.499s-7.499,3.356-7.499,7.499v68.009H154.346
		c-4.142,0-7.499,3.356-7.499,7.499s3.356,7.499,7.499,7.499h183.32c16.182,0,28.504-14.494,25.933-30.447
		c-0.813-5.043-12.995-80.634-13.752-85.331h21.652v102.233c0,7.469,6.076,13.544,13.544,13.544h16.166
		c7.231,0,13.115-5.883,13.115-13.113V396.222h72.811c11.044,0,20.028-8.985,20.028-20.029v-16.612c0-4.142-3.356-7.499-7.499-7.499
		s-7.499,3.356-7.499,7.499v16.612c0,2.728-2.305,5.032-5.031,5.032H298.687c-2.727,0-5.031-2.305-5.031-5.032V249.778
		c0-2.728,2.305-5.032,5.031-5.032h188.447c2.727,0,5.031,2.305,5.031,5.032v74.826
		C492.165,328.744,495.522,332.102,499.664,332.102z M72.697,484.171v12.831H32.193c-7.022,0-12.606-5.833-12.328-12.831H72.697z
		 M386.495,396.222h12.831v100.781h-12.831V396.222z M337.666,497.002h-44.011v-12.831h55.162
		C349.778,491.002,344.461,497.002,337.666,497.002z M279.25,151.433c18.144,4.214,18.139,24.162,0,28.376V151.433z M93.052,151.433
		v28.376C74.911,175.595,74.914,155.648,93.052,151.433z M65.141,248.643c-6.594,0-10.941-7.998-7.115-14.202
		c9.396-15.237,14.289-31.874,14.585-49.473c5.136,5.241,12.309,8.914,20.442,10.069c0.337,2.422-2.69,27.585,15.145,53.606H65.141z
		 M108.049,199.987v-55.059c40.432,9.17,79.57-7.949,99.52-19.138c0.25,1.552-1.523,10.51,5.921,16.362
		c3.762,2.956,8.771,3.959,13.749,2.751c17.111-4.158,29.314-11.016,37.014-16.554v66.284c0,28.121-14.833,54.025-39.911,68.136
		c-4.958,0.645-34.378,21.35-77.001,0.621C123.473,251.772,108.049,226.884,108.049,199.987z M142.396,312.817
		c5.752-3.179,9.343-9.306,9.34-15.8c0-0.105,0-0.158,0-0.181c0,0.004,0,0.009,0,0.014c0-0.653-0.002-3.498-0.006-13.933
		c20.775,6.745,45.927,6.639,66.078-0.677c0.078,15.23-0.476,17.706,1.408,22.096c2.512,5.854,7.224,8.14,7.377,8.292
		C202.991,334.574,166.131,334.682,142.396,312.817z M278.659,312.25c-18.598-5.241-25.672-7.231-44.096-12.42
		c-1.034-0.292-1.756-1.245-1.756-2.319v-22.298c5.571-3.237,10.86-7.054,15.898-11.605c0.755,0.06-1.501,0.015,29.953,0.031V312.25
		z M286.955,233.578c-4.994,3.627-7.938,9.238-8.265,15.065h-16.642c10.978-15.388,17.111-33.973,17.195-53.605
		c8.219-1.166,15.462-4.902,20.609-10.232c0.739,14.989,3.438,29.434,11.941,44.941C300.88,230.342,294.764,227.915,286.955,233.578
		z"/>
</g>
<path style="fill:#E4EAF8;" d="M389.177,339.128l3.764-21.947c0.49-2.858-1.417-2.631-16.845-18.309
	c-0.561-0.546-0.854-1.215-0.926-1.893l-19.338,2.81c-2.564,0.373-3.587,3.522-1.732,5.331l15.946,15.543
	c0.736,0.718,1.073,1.753,0.899,2.766l-3.764,21.947c-0.438,2.553,2.242,4.5,4.535,3.294l17.424-9.16
	C389.146,339.385,389.155,339.258,389.177,339.128z"/>
<g>
</g>
<g>
</g>
<g>
</g>
<g>
</g>
<g>
</g>
<g>
</g>
<g>
</g>
<g>
</g>
<g>
</g>
<g>
</g>
<g>
</g>
<g>
</g>
<g>
</g>
<g>
</g>
<g>
</g>
</svg>
