<?xml version="1.0" encoding="iso-8859-1"?>
<!-- Generator: Adobe Illustrator 19.0.0, SVG Export Plug-In . SVG Version: 6.00 Build 0)  -->
<svg version="1.1" id="Capa_1" xmlns="http://www.w3.org/2000/svg" xmlns:xlink="http://www.w3.org/1999/xlink" x="0px" y="0px"
	 viewBox="0 0 512 512" style="enable-background:new 0 0 512 512;" xml:space="preserve">
<path style="fill:#FFFFFF;" d="M455.672,63.908c-18.369,0-382.06,0-400.448,0c-14.876,0-26.98,12.103-26.98,26.98
	c0,18.593,0,258.808,0,273.628c0,14.876,12.104,26.98,26.98,26.98c19.332,0,382.564,0,400.448,0c14.876,0,26.98-12.103,26.98-26.98
	V235.057c0-11.961,0-122.092,0-144.169C482.652,76.011,470.548,63.908,455.672,63.908z"/>
<path style="fill:#E4EAF8;" d="M56.273,364.516c0-59.797,0-224.283,0-273.628c0-14.876,12.104-26.98,26.98-26.98
	c-15.276,0-25.343,0-28.029,0c-14.876,0-26.98,12.103-26.98,26.98c0,18.593,0,258.808,0,273.628c0,14.876,12.104,26.98,26.98,26.98
	c2.804,0,12.856,0,28.029,0C68.377,391.495,56.273,379.391,56.273,364.516z"/>
<path style="fill:#FF9052;" d="M447.49,91.936c-89.669,0-294.814,0-384.084,0l0,0c-3.926,0-7.132,3.18-7.132,7.132
	c0,25.729,0,231.667,0,257.264c0,2.708,1.51,5.064,3.733,6.271c2.464,1.339-23.972,0.861,387.484,0.861
	c3.93,0,7.132-3.184,7.132-7.132V235.131c0-15.25,0-117.92,0-136.061C454.622,95.117,451.417,91.936,447.49,91.936z"/>
<path style="fill:#FF8031;" d="M86.27,356.333V235.131c0-15.25,0-117.92,0-136.061c0-2.708,1.51-5.064,3.733-6.271
	c1.011-0.549,2.169-0.861,3.4-0.861c-15.892,0-26.651,0-29.997,0c-3.926,0-7.132,3.18-7.132,7.132c0,25.729,0,231.667,0,257.264
	c0,3.944,3.198,7.132,7.132,7.132c1.975,0,12.943,0,29.997,0C89.473,363.466,86.27,360.282,86.27,356.333z"/>
<path style="fill:#E4EAF8;" d="M504.425,401.164c0-5.383-4.344-9.746-9.702-9.746H17.201c-5.359,0-9.702,4.364-9.702,9.746
	c0,25.917,20.915,46.927,46.715,46.927h403.495C483.51,448.091,504.425,427.081,504.425,401.164z"/>
<path style="fill:#C2C7D0;" d="M63.994,401.164c0-5.383,4.344-9.746,9.702-9.746H17.201c-5.359,0-9.702,4.364-9.702,9.746
	c0,25.917,20.915,46.927,46.715,46.927h56.495C84.91,448.091,63.994,427.081,63.994,401.164z"/>
<g>
	<path style="fill:#FFFFFF;" d="M161.03,391.418v15.943c0,6.816,5.552,12.394,12.338,12.394h165.188
		c6.785,0,12.338-5.578,12.338-12.394v-15.943H161.03z"/>
	<path style="fill:#FFFFFF;" d="M191.027,407.362v-15.943H161.03v15.943c0,6.816,5.552,12.394,12.338,12.394h29.997
		C196.579,419.755,191.027,414.177,191.027,407.362z"/>
</g>
<circle style="fill:#FEA82F;" cx="101.681" cy="136.298" r="15.666"/>
<path style="fill:#FF8031;" d="M101.688,120.648c-11.945-0.017-19.638,12.981-13.574,23.486c6.066,10.508,21.17,10.337,27.126-0.012
	C103.192,144.103,95.667,131.112,101.688,120.648z"/>
<path style="fill:#FFFFFF;" d="M358.817,141.581c0.021,7.81,0.249,94.099,0.291,110.038c0.009,3.273,3.925,4.949,6.298,2.697
	c16.953-15.191,17.75-19.02,23.366-19.035l63.69-0.145l38.081-0.101c7.728-0.02,13.977-6.302,13.957-14.031
	c-0.034-12.846-0.157-59.383-0.211-79.784c-0.018-6.79-5.589-12.332-12.379-12.314l-120.779,0.295
	C364.341,129.22,358.8,134.791,358.817,141.581z"/>
<path style="fill:#E4EAF8;" d="M388.815,141.581c-0.018-6.79,5.523-12.361,12.314-12.379l92.102-0.225
	c-1.305-0.137,6.484-0.061-122.099,0.225c-6.79,0.018-12.332,5.589-12.314,12.379c0.026,9.951,0.263,99.419,0.291,110.038
	c0.009,3.272,3.925,4.949,6.298,2.697c17.087-15.312,17.757-19.02,23.366-19.035h0.29
	C389.024,220.502,388.912,178.22,388.815,141.581z"/>
<path style="fill:#FEA82F;" d="M321.934,182.368c-3.799-73.512-110.347-84.942-130.313-14.004c-1.1,3.923-1.819,7.585-2.18,12.138
	c-0.233,2.882-0.259,17.608-0.246,26.455h132.836C322.035,184.011,322.033,184.302,321.934,182.368z"/>
<path style="fill:#FF8031;" d="M234.695,168.364c6.679-23.731,23.052-38.231,42.021-44.285
	c-32.878-10.268-73.526,3.175-85.097,44.285c-1.1,3.923-1.819,7.585-2.18,12.138c-0.233,2.882-0.259,17.608-0.246,26.455h43.074
	C232.235,183.281,231.91,178.295,234.695,168.364z"/>
<path style="fill:#ABFFDB;" d="M175.233,307.237c-0.463,4.425-7.691,45.48-9.589,56.229c56.213,0,125.62,0,181.564,0l-7.811-49.37
	c-1.335-6.624-2.098-17.639-15.035-22.973c-1.208-0.497-3.958-1.241-3.903-1.225c-56.741-19.656-4.522-1.567-29.617-10.232
	l-12.57-7.632v-14.671c-13.487,6.658-30.039,7.169-43.821,0.926l0.009,13.745l-12.925,7.765l-6.659,2.246h-0.015l0.002,0.004
	c-0.102,0.035-27.401,9.516-25.569,8.713C182.144,293.382,176.081,299.146,175.233,307.237z"/>
<path style="fill:#92E0C0;" d="M174.923,309.461c-1.493,9.805-7.558,44.256-9.279,54.004c7.978,0,16.23,0,24.664,0
	c10.962-73.172,9.392-69.136,12.33-73.595c1.369-2.078,3.064-3.849,4.996-5.313c-19.982,6.914-16.856,5.721-18.354,6.216
	c-0.001,0-0.001,0-0.001,0s-0.001-0.001,0-0.002c0.002-0.002,0.008-0.005,0.014-0.008c-2.292,0.839-4.459,1.989-6.403,3.465
	C176.861,298.802,175.916,303.006,174.923,309.461z"/>
<path style="fill:#E4EAF8;" d="M255.612,292.24l25.522-18.465l0,0l-2.863-1.738v-14.671c-13.487,6.658-30.039,7.17-43.821,0.926
	l0.009,13.745l-2.894,1.738L255.612,292.24z"/>
<path style="fill:#C3C8D1;" d="M255.612,292.239v-29.575c-7.262,0.055-14.532-1.37-21.161-4.373l0.009,13.745l-2.894,1.738
	L255.612,292.239z"/>
<g>
	<path style="fill:#FF8031;" d="M234.459,272.036l21.152,20.204l-18.88,12.886c-2.756,1.881-6.579,0.621-7.619-2.509l-7.577-22.816
		L234.459,272.036z"/>
	<path style="fill:#FF8031;" d="M278.272,272.036l-22.66,20.204l18.88,12.886c2.756,1.881,6.579,0.621,7.619-2.509l8.729-22.948
		L278.272,272.036z"/>
</g>
<path style="fill:#FF9052;" d="M235.478,363.466c13.379,0,26.888,0,40.266,0l-11.624-42.675c-5.951,0-11.066,0-17.018,0
	L235.478,363.466z"/>
<path style="fill:#FEA82F;" d="M255.612,292.24l-15.852,10.818l7.342,17.733c5.951,0,11.066,0,17.018,0l7.342-17.733L255.612,292.24
	z"/>
<path style="fill:#FF8031;" d="M252.509,363.466l11.618-42.651l-0.006-0.024h-8.509l0,0h-8.509l-11.625,42.675
	C241.137,363.466,246.824,363.466,252.509,363.466z"/>
<path style="fill:#FF9052;" d="M253.04,293.995l-13.279,9.062l7.342,17.733c5.951,0,11.066,0,17.018,0l0.007-0.016L253.04,293.995z"
	/>
<g>
	<path style="fill:#E4EAF8;" d="M209.141,199.379c-11.529-4.03-24.92,3.464-24.92,14.396c0,10.929,13.389,18.425,24.92,14.396
		V199.379z"/>
	<path style="fill:#E4EAF8;" d="M302.105,199.379c11.529-4.03,24.92,3.464,24.92,14.396c0,10.929-13.39,18.425-24.92,14.396V199.379
		z"/>
</g>
<g>
	<path style="fill:#C3C8D1;" d="M185.995,207.16c-7.23,12.701,8.346,26.183,23.146,21.01v-13.228
		C200.14,218.087,190.009,214.211,185.995,207.16z"/>
	<path style="fill:#C3C8D1;" d="M302.105,214.943v13.228c14.802,5.173,30.376-8.31,23.146-21.01
		C321.238,214.211,311.106,218.087,302.105,214.943z"/>
</g>
<path style="fill:#FFFFFF;" d="M301.676,182.346c1.23,0.116,2.176,1.117,2.176,2.329c0,39.823,0.026,34-0.068,35.852
	c-2.76,53.394-80.15,61.697-94.652,10.171c-0.799-2.85-1.321-5.51-1.584-8.816c-0.27-3.345-0.158-21.498-0.158-21.44
	c0-9.274,8.392-16.35,17.752-15.025c14.742,2.087,36.258,1.276,55.033-14.462c1.929-1.617,4.857-1.095,6.089,1.081
	C288.592,176.144,293.217,181.546,301.676,182.346z"/>
<path style="fill:#E4EAF8;" d="M232.338,220.526c-0.094-1.829-0.069,3.823-0.068-34.405c-2.508-0.141-4.896-0.389-7.126-0.705
	c-9.359-1.325-17.752,5.751-17.752,15.025c0-0.058-0.112,18.096,0.158,21.44c2.398,30.167,30.561,49.285,60.513,41.785
	C249.471,259.013,233.561,244.209,232.338,220.526z"/>
<path style="fill:#474D54;" d="M101.68,113.137c-12.772,0-23.164,10.392-23.164,23.164c0,12.773,10.392,23.165,23.164,23.165
	c12.773,0,23.165-10.392,23.165-23.165C124.845,123.528,114.454,113.137,101.68,113.137z M101.68,144.467
	c-4.503,0-8.165-3.664-8.165-8.166s3.663-8.165,8.165-8.165s8.166,3.663,8.166,8.165S106.183,144.467,101.68,144.467z"/>
<g>
	<path style="fill:#ABB0B7;" d="M442.702,193.049h-48.197c-4.143,0-7.499,3.357-7.499,7.499s3.357,7.499,7.499,7.499h48.197
		c4.143,0,7.499-3.357,7.499-7.499S446.845,193.049,442.702,193.049z"/>
	<path style="fill:#ABB0B7;" d="M467.415,193.049h-0.136c-4.143,0-7.499,3.357-7.499,7.499s3.357,7.499,7.499,7.499h0.136
		c4.143,0,7.499-3.357,7.499-7.499S471.558,193.049,467.415,193.049z"/>
	<path style="fill:#ABB0B7;" d="M467.415,157.053h-48.198c-4.143,0-7.499,3.357-7.499,7.499s3.357,7.499,7.499,7.499h48.198
		c4.143,0,7.499-3.357,7.499-7.499S471.558,157.053,467.415,157.053z"/>
	<path style="fill:#ABB0B7;" d="M394.505,172.051h0.136c4.143,0,7.499-3.357,7.499-7.499s-3.357-7.499-7.499-7.499h-0.136
		c-4.143,0-7.499,3.357-7.499,7.499S390.363,172.051,394.505,172.051z"/>
</g>
<g>
	<path style="fill:#474D54;" d="M187.542,283.561C188.014,283.384,187.412,283.597,187.542,283.561L187.542,283.561z"/>
	<path style="fill:#474D54;" d="M494.723,383.919h-10.567c3.781-5.532,5.996-12.213,5.996-19.403V242.536l0.412-0.001
		c11.852-0.031,21.468-9.698,21.436-21.55l-0.211-79.783c-0.028-10.846-8.828-19.794-19.896-19.794l-1.741,0.004V90.888
		c0-19.011-15.468-34.478-34.479-34.478h-37.068c-4.143,0-7.499,3.357-7.499,7.499s3.357,7.499,7.499,7.499h37.068
		c10.741,0,19.48,8.738,19.48,19.479v30.561l-11.163,0.027l-27.356,0.082c-68.234,0.243-66.048-0.141-69.414,0.538
		c-7.187,1.45-12.99,6.84-15.064,13.734c-1.832,6.034-0.318,8.212-0.547,115.811c0.025,9.732,11.776,14.931,18.96,8.115
		c18.673-17.602,17.591-16.974,18.22-16.977l46.387-0.105v-0.085h34.33l5.646-0.013v121.939c0,10.234-7.938,18.631-17.977,19.403
		H53.72c-10.039-0.772-17.977-9.169-17.977-19.403V90.888c0-10.741,8.739-19.479,19.48-19.479h328.383
		c4.143,0,7.499-3.357,7.499-7.499s-3.357-7.499-7.499-7.499H55.224c-19.012,0-34.479,15.468-34.479,34.478v273.628
		c0,7.19,2.216,13.872,5.996,19.403h-9.54C7.716,383.919,0,391.655,0,401.164c0,30.01,24.32,54.426,54.214,54.426h29.968
		c4.143,0,7.499-3.357,7.499-7.499s-3.357-7.499-7.499-7.499H54.214c-21.623,0-39.216-17.687-39.216-39.428
		c0-1.239,0.988-2.247,2.202-2.247c13.495,0.008,87.081,0.048,120.834,0.067l0,0h228.193v0.006
		c94.513-0.026,29.821,0.058,128.494-0.074c1.215,0,2.203,1.008,2.203,2.247c0,21.74-17.592,39.428-39.217,39.428H119.18
		c-4.143,0-7.499,3.357-7.499,7.499s3.357,7.499,7.499,7.499h338.53c29.894,0,54.215-24.416,54.215-54.426
		C511.924,391.655,504.207,383.919,494.723,383.919z M388.752,227.782c-9.917,0.026-13.498,8.062-22.168,15.08
		c0.241-106.61-1.819-102.817,1.896-105.334c0.789-0.534,1.711-0.823,2.672-0.825c0.759-0.002,120.953-0.296,120.792-0.296
		c2.646,0,4.842,2.189,4.848,4.835l0.211,79.783c0.01,3.582-2.896,6.502-6.477,6.512L388.752,227.782z"/>
</g>
<g>
</g>
<g>
</g>
<g>
</g>
<g>
</g>
<g>
</g>
<g>
</g>
<g>
</g>
<g>
</g>
<g>
</g>
<g>
</g>
<g>
</g>
<g>
</g>
<g>
</g>
<g>
</g>
<g>
</g>
</svg>
