<?xml version="1.0" encoding="iso-8859-1"?>
<!-- Generator: Adobe Illustrator 19.0.0, SVG Export Plug-In . SVG Version: 6.00 Build 0)  -->
<svg version="1.1" id="Capa_1" xmlns="http://www.w3.org/2000/svg" xmlns:xlink="http://www.w3.org/1999/xlink" x="0px" y="0px"
	 viewBox="0 0 512.002 512.002" style="enable-background:new 0 0 512.002 512.002;" xml:space="preserve">
<path style="fill:#FFC850;" d="M341.048,387.713h-42.36c-6.892,0-11.532-4.64-11.532-11.532v-54.045
	c-2.989-0.827,14.853,4.107-54.631-15.104c-4.272-1.203-7.222-5.099-7.222-9.538v-32.321c-24.957,12.564-55.588,13.53-81.09,1.747
	l0.012,30.082c0.002,4.726-3.145,8.874-7.696,10.145l-75.879,21.19c-8.561,3.198-16.02,8.725-21.076,16.549
	c-4.923,7.619-2.299,1.536-26.936,136.233c-2.201,12.179,7.158,23.381,19.534,23.381c45.184,0,267.552,0,305.499,0
	c11.559,0,20.371-10.346,18.532-21.758L341.048,387.713z"/>
<path style="fill:#FEA82F;" d="M42.635,481.12l21.993-131.696c1.234-12.006,8.218-21.224,18.216-27.283l-22.193,6.197
	c-13.251,4.947-24.453,15.84-26.02,31.085L12.638,481.12c-2.201,12.179,7.158,23.381,19.534,23.381h29.997
	C49.793,504.501,40.434,493.299,42.635,481.12z"/>
<path style="fill:#FF9052;" d="M266.21,316.517c-11.569-3.258-21.902-6.168-33.685-9.486c-4.272-1.203-7.222-5.099-7.222-9.538
	v-27.321c-24.957,12.564-55.588,13.53-81.09,1.747l0.012,25.082c0.002,4.726-3.145,8.874-7.696,10.145l-33.92,9.473
	C137.282,377.529,231.623,377.454,266.21,316.517z"/>
<path style="fill:#E4EAF8;" d="M239.848,309.094l-7.322-2.063c-4.272-1.203-7.222-5.099-7.222-9.538v-32.321
	c-24.957,12.564-55.588,13.53-81.09,1.747l0.012,30.082c0.002,4.726-3.145,8.874-7.696,10.145l-7.499,2.095
	C156.99,345.791,211.956,345.759,239.848,309.094z"/>
<path style="fill:#C3C8D1;" d="M174.114,274.82c-10.304-0.925-20.455-3.536-29.9-7.899l0.012,30.082
	c0.002,4.726-3.145,8.874-7.696,10.145l-7.499,2.094c10.762,14.069,26.757,23.92,45.083,26.629L174.114,274.82L174.114,274.82z"/>
<g>
	<path style="fill:#FF9052;" d="M356.203,482.743l-0.979-6.072h-69.067v27.83h51.514
		C349.23,504.501,358.042,494.154,356.203,482.743z"/>
	<path style="fill:#FF9052;" d="M13.442,476.671l-0.804,4.45c-2.201,12.179,7.158,23.381,19.534,23.381h48.007v-27.83H13.442z"/>
</g>
<path style="fill:#FF8031;" d="M43.378,476.671H13.442c-0.456,2.9-3.714,12.863,4.101,21.392c3.709,4.054,8.933,6.437,14.629,6.437
	h29.995c-12.375-0.001-21.733-11.202-19.532-23.381L43.378,476.671z"/>
<path style="fill:#FEA82F;" d="M296.59,114.794C290.105-13.171,108.214-33.068,74.131,90.418
	c-4.703,17.095-4.228,23.251-4.143,83.565h226.769C296.764,134.042,296.759,118.163,296.59,114.794z"/>
<path style="fill:#FF8031;" d="M128.108,90.418c12.521-45.365,44.99-71.379,81.384-79.793
	C155.375-1.667,92.735,23.015,74.131,90.418c-4.703,17.095-4.228,23.251-4.143,83.565h53.976
	C123.881,114.097,123.354,107.7,128.108,90.418z"/>
<path style="fill:#E4EAF8;" d="M379.006,383.713v114.741c0,3.34,2.707,6.046,6.046,6.046h16.167c3.102,0,5.616-2.515,5.616-5.616
	V383.713H379.006z"/>
<path style="fill:#C2C7D0;" d="M392.92,498.455V383.713h-13.916v114.741c0,3.339,2.707,6.046,6.046,6.046h13.916
	C395.628,504.501,392.92,501.793,392.92,498.455z"/>
<g>
	<path style="fill:#E4EAF8;" d="M95.128,155.024c-19.028-6.781-39.684,5.83-39.684,24.227c0,18.393,20.654,31.009,39.684,24.227
		V155.024z"/>
	<path style="fill:#E4EAF8;" d="M271.714,155.057c19.002-6.771,39.629,5.821,39.629,24.193c0,18.367-20.625,30.966-39.629,24.193
		V155.057z"/>
</g>
<g>
	<path style="fill:#C3C8D1;" d="M58.125,168.256c-10.947,21.141,12.531,43.943,37.003,35.222v-21.99
		C80.218,186.803,64.313,180.207,58.125,168.256z"/>
	<path style="fill:#C3C8D1;" d="M271.714,181.455v21.99c19.004,6.772,39.629-5.826,39.629-24.193c0-3.984-0.972-7.694-2.685-10.996
		C302.472,180.181,286.597,186.76,271.714,181.455z"/>
</g>
<path style="fill:#FFFFFF;" d="M268.613,123.757c2.276,0.22,4.027,2.108,4.027,4.395c0,75.142,0.049,64.156-0.126,67.65
	c-5.106,100.753-148.317,116.419-175.152,19.193c-1.479-5.376-2.445-10.396-2.931-16.635c-0.499-6.31-0.292-40.567-0.292-40.457
	c0-17.499,15.53-30.851,32.851-28.35c27.278,3.938,67.095,2.408,101.837-27.29c3.57-3.052,8.988-2.066,11.268,2.04
	C244.4,112.056,252.96,122.248,268.613,123.757z"/>
<g>
	<path style="fill:#E4EAF8;" d="M127.359,214.996c-3.761-13.676-3.407-16.45-3.232-85.707
		c-16.131-0.734-29.988,12.086-29.988,28.614c0-0.11-0.208,34.146,0.292,40.457c0.486,6.239,1.452,11.259,2.931,16.635
		c13.932,50.475,59.225,70.511,100.28,64.024C166.529,274.042,137.924,253.274,127.359,214.996z"/>
	<path style="fill:#E4EAF8;" d="M487.153,237.225H298.689c-6.892,0-12.532,5.639-12.532,12.532c0,22.131,0,93.698,0,126.426
		c0,6.892,5.639,12.532,12.532,12.532h188.464c6.892,0,12.532-5.639,12.532-12.532c0-39.249,0-86.587,0-126.426
		C499.683,242.863,494.045,237.225,487.153,237.225z"/>
</g>
<path style="fill:#C2C7D0;" d="M317.176,376.181c0-42.754,0-88.718,0-126.426c0-6.892,5.639-12.532,12.532-12.532h-31.019
	c-6.892,0-12.532,5.639-12.532,12.532c0,22.131,0,93.698,0,126.426c0,6.892,5.639,12.532,12.532,12.532h31.019
	C322.816,388.713,317.176,383.075,317.176,376.181z"/>
<circle style="fill:#FEA82F;" cx="392.92" cy="312.968" r="75.742"/>
<path style="fill:#FF8031;" d="M353.302,335.842c-18.348-31.781-11.044-71.327,15.481-94.678
	c-45.48,15.342-65.313,68.36-41.459,109.677c23.904,41.403,79.747,50.595,115.712,18.934
	C409.551,381.07,371.651,367.623,353.302,335.842z"/>
<path style="fill:#FFFFFF;" d="M395.723,274.913l9.856,19.97c0.455,0.923,1.335,1.562,2.354,1.71l22.039,3.203
	c2.564,0.373,3.588,3.523,1.732,5.331c-16.646,16.227-17.239,16.019-16.846,18.311l3.765,21.949
	c0.438,2.554-2.242,4.501-4.536,3.295l-19.712-10.363c-0.911-0.479-1.999-0.479-2.909,0l-19.712,10.363
	c-2.293,1.206-4.973-0.742-4.536-3.295l3.765-21.949c0.174-1.014-0.162-2.049-0.899-2.767l-15.947-15.544
	c-1.855-1.809-0.832-4.958,1.732-5.331l22.038-3.203c1.018-0.148,1.898-0.787,2.354-1.71l9.856-19.97
	C391.265,272.59,394.577,272.59,395.723,274.913z"/>
<path style="fill:#E4EAF8;" d="M389.217,339.137l3.765-21.949c0.49-2.859-1.417-2.631-16.846-18.311
	c-0.561-0.546-0.854-1.215-0.926-1.893l-19.34,2.811c-2.564,0.373-3.588,3.523-1.732,5.331l15.947,15.544
	c0.736,0.718,1.073,1.753,0.899,2.767l-3.765,21.949c-0.438,2.554,2.242,4.501,4.536,3.295l17.425-9.161
	C389.186,339.394,389.195,339.267,389.217,339.137z"/>
<path style="fill:#474D54;" d="M499.683,332.08c4.143,0,7.499-3.357,7.499-7.499v-74.824c0-11.045-8.985-20.03-20.03-20.03H298.689
	c-11.045,0-20.03,8.985-20.03,20.03v62.478c-46.275-13.04-45.856-12.067-45.856-14.739v-22.859
	c21.678-12.208,39.427-33.045,45.289-62.775c20.891,2.752,40.75-12.072,40.75-32.608c0-10.304-5.084-20.084-14.585-26.504
	c0.006-29.997,4.599-70.242-25.58-107.964c-2.587-3.233-7.306-3.76-10.541-1.171c-3.234,2.588-3.759,7.307-1.171,10.541
	c25.866,32.331,22.298,66.3,22.295,92.665c-3-0.487-6.059-0.615-9.118-0.377l-0.002-18.29c0-6.166-4.646-11.265-10.806-11.858
	v-0.001c-12.229-1.18-19.085-9.151-22.682-15.63c-4.581-8.248-15.523-10.234-22.697-4.101
	c-32.601,27.866-70.141,29.283-95.894,25.567c-17.508-2.53-34.155,7.882-39.613,24.494c-3.67-0.46-7.361-0.386-10.964,0.202
	c0.017-25.593-0.895-37.068,3.876-54.413c20.85-75.545,103.81-96.321,160.829-60.322c3.504,2.212,8.133,1.164,10.345-2.338
	c2.211-3.503,1.164-8.134-2.338-10.345C186.405-20.861,90.964,1.243,66.9,88.429c-5.342,19.427-4.438,30.969-4.415,64.347
	c-9.578,6.497-14.542,16.302-14.542,26.476c0,20.466,19.812,35.452,40.908,32.584c6.211,28,22.431,51.487,47.864,64.783l0.01,20.389
	c0,1.359-0.915,2.556-2.214,2.918c-50.039,13.97-76.248,21.3-76.485,21.389c-10.477,3.913-19.036,10.657-24.751,19.505
	c-5.614,8.687-3.639,4.068-28.017,138.969c-2.028,11.219,3.1,22.401,12.713,28.246c6.958,4.231,13.237,3.833,14.201,3.968h79.361
	c4.142,0,7.499-3.357,7.499-7.499s-3.358-7.499-7.499-7.499H87.678v-68.018c0-4.143-3.358-7.499-7.499-7.499
	s-7.499,3.357-7.499,7.499v40.185H22.418c22.074-120.676,19.703-114.407,23.456-120.214c3.902-6.039,9.815-10.697,17.115-13.486
	l33.839-9.45l17.638-4.926l11.872-3.316c30.564,35.002,85.398,35.324,116.209-0.134l11.835,3.333l15.26,4.298l9.017,2.54v48.366
	c0,11.045,8.985,20.031,20.03,20.031h35.973l11.759,72.959h-52.764v-40.186c0-4.143-3.358-7.499-7.499-7.499
	c-4.143,0-7.499,3.357-7.499,7.499v68.015H148.856c-4.142,0-7.499,3.357-7.499,7.499s3.358,7.499,7.499,7.499h188.815
	c16.183,0,28.506-14.496,25.936-30.45c-0.716-4.444-13.023-80.801-13.754-85.338h21.654v102.242c0,7.469,6.076,13.546,13.546,13.546
	h16.167c7.231,0,13.116-5.883,13.116-13.115V396.212h72.817c11.045,0,20.03-8.986,20.03-20.031v-16.604
	c0-4.143-3.357-7.499-7.499-7.499s-7.499,3.357-7.499,7.499v16.604c0,2.729-2.305,5.032-5.031,5.032H298.689
	c-2.728,0-5.031-2.305-5.031-5.032V249.756c0-2.774,2.258-5.031,5.031-5.031h188.464c2.727,0,5.031,2.305,5.031,5.031v74.824
	C492.184,328.722,495.542,332.08,499.683,332.08z M280.146,161.497c20.543-2.613,32.333,20.133,16.075,31.6
	c-4.653,3.281-10.407,4.635-16.075,3.908V161.497z M62.943,179.252c0-11.509,12.037-19.241,23.682-17.755
	c-0.009,12.659-0.066-3.166,0.017,35.508C74.928,198.494,62.943,190.701,62.943,179.252z M72.68,484.17v12.832
	c-39.788-0.788-47.871,3.451-52.105-8.119c-0.544-1.488-0.802-2.964-0.732-4.713H72.68z M104.592,213.008
	c-3.443-12.522-2.957-16.384-2.954-55.104c0-12.934,11.491-22.772,24.279-20.929c28.789,4.154,70.828,2.506,107.68-28.924
	c7.076,12.678,18.2,20.698,31.542,22.821c0,0.095,0.006,49.324,0.006,51.989v0.033v-0.033c0-0.012,0-0.024,0-0.038
	c-0.002,13.519-0.017,10.51-0.123,12.6C260.351,287.622,129.15,301.976,104.592,213.008z M142.384,312.8
	c5.662-3.116,9.344-9.225,9.34-15.801l-0.007-14.103c21.235,6.898,44.74,6.441,66.086-1.331c0.02,15.846-0.845,19.804,2.859,25.445
	c2.275,3.472,4.729,4.714,5.925,5.599C202.984,334.561,166.123,334.669,142.384,312.8z M386.505,396.212h12.832v100.79h-12.832
	V396.212z M337.671,497.002h-44.014V484.17h55.167C349.767,490.892,344.571,497.002,337.671,497.002z"/>
<g>
</g>
<g>
</g>
<g>
</g>
<g>
</g>
<g>
</g>
<g>
</g>
<g>
</g>
<g>
</g>
<g>
</g>
<g>
</g>
<g>
</g>
<g>
</g>
<g>
</g>
<g>
</g>
<g>
</g>
</svg>
