<?xml version="1.0" encoding="iso-8859-1"?>
<!-- Generator: Adobe Illustrator 19.0.0, SVG Export Plug-In . SVG Version: 6.00 Build 0)  -->
<svg version="1.1" id="Capa_1" xmlns="http://www.w3.org/2000/svg" xmlns:xlink="http://www.w3.org/1999/xlink" x="0px" y="0px"
	 viewBox="0 0 512 512" style="enable-background:new 0 0 512 512;" xml:space="preserve">
<path style="fill:#FFC850;" d="M33.464,209.918c0,10.449,0,80.617,0,92.165l88.059,3c0-11.93,0-87.561,0-98.165L33.464,209.918z"/>
<path style="fill:#FEA82F;" d="M64.743,208.852l-31.279,1.066c0,10.449,0,80.617,0,92.165l31.279,1.066V208.852z"/>
<path style="fill:#FFFFFF;" d="M33.464,239.178c0,11.541,0,20.884,0,33.645l88.059,1.095c0-21.483,0-29.978,0-35.835L33.464,239.178
	z"/>
<path style="fill:#E4EAF8;" d="M64.743,238.789l-31.279,0.389c0,11.541,0,20.884,0,33.645l31.279,0.389V238.789z"/>
<path style="fill:#FEA82F;" d="M21.016,197.031c-7.456,0-13.501,6.044-13.501,13.501v90.936c0,7.456,6.044,13.501,13.501,13.501
	s13.501-6.044,13.501-13.501v-90.936C34.517,203.077,28.474,197.031,21.016,197.031z"/>
<path style="fill:#FF8031;" d="M21.016,256c-7.456,0-13.501-6.044-13.501-13.501v58.969c0,7.456,6.044,13.501,13.501,13.501
	s13.501-6.044,13.501-13.501v-58.969C34.517,249.956,28.474,256,21.016,256z"/>
<path style="fill:#ABFFDB;" d="M120.522,206.918c0,11.935,0,86.202,0,98.165l267.309,81.804c0-7.383,0-254.39,0-261.774
	L120.522,206.918z"/>
<path style="fill:#E4EAF8;" d="M202.743,400.388h-52.67c-7.456,0-13.501-6.044-13.501-13.501c0-7.456,6.044-13.501,13.501-13.501
	h52.67c7.456,0,13.501,6.044,13.501,13.501C216.244,394.344,210.2,400.388,202.743,400.388z"/>
<path style="fill:#C2C7D0;" d="M176.607,386.887c0-7.456,6.044-13.501,13.501-13.501h-40.034c-7.456,0-13.501,6.044-13.501,13.501
	c0,7.456,6.044,13.501,13.501,13.501h40.034C182.651,400.388,176.607,394.344,176.607,386.887z"/>
<path style="fill:#FEA82F;" d="M441.973,256c0-15.541-13.599-28.139-29.139-28.139v56.277
	C428.374,284.139,441.973,271.541,441.973,256z"/>
<path style="fill:#FF8031;" d="M412.834,260.137v24.001c20.553,0,35.762-21.248,26.267-40.139
	C434.306,253.537,424.081,260.137,412.834,260.137z"/>
<path style="fill:#EFEFEF;" d="M413.834,120.861V391.14c0,7.456-6.044,13.501-13.501,13.501l0,0
	c-7.456,0-13.501-6.044-13.501-13.501V120.861c0-7.456,6.044-13.501,13.501-13.501l0,0
	C407.79,107.36,413.834,113.404,413.834,120.861z"/>
<path style="fill:#DDDDDD;" d="M400.333,345.811c-7.456,0-13.501-6.044-13.501-13.501v58.83c0,7.456,6.044,13.501,13.501,13.501
	c7.456,0,13.501-6.044,13.501-13.501v-58.83C413.834,339.767,407.79,345.811,400.333,345.811z"/>
<path style="fill:#92E0C0;" d="M189.637,256c0-28.74,8.845-55.45,23.948-77.562l-93.064,28.48c0,26.608,0,82.501,0,98.165
	l93.064,28.48C198.482,311.45,189.637,284.74,189.637,256z"/>
<path style="fill:#474D54;" d="M421.319,221.162v-30.085c0-4.142-3.357-7.5-7.5-7.5s-7.5,3.358-7.5,7.5
	c0,43.842,0,156.917,0,200.063c0,3.309-2.691,6-6,6c-3.309,0-6-2.691-6-6c0-13.214,0-257.19,0-270.28c0-3.309,2.691-6,6-6
	c3.309,0,6,2.691,6,6v35.215c0,4.142,3.357,7.5,7.5,7.5s7.5-3.358,7.5-7.5V120.86c0-11.581-9.422-21.001-21.001-21.001
	c-11.138,0-20.253,8.722-20.935,19.691l-260.128,79.906l-78.98,2.755c-3.229-7.45-10.65-12.679-19.273-12.679
	C9.422,189.532,0,198.953,0,210.533v90.936c0,11.58,9.422,21.001,21.001,21.001c8.624,0,16.044-5.229,19.273-12.68l72.732,2.536
	v62.56c0,10.048,7.64,18.341,17.415,19.386c2.998,7.942,10.657,13.616,19.635,13.616h52.67c8.955,0,16.596-5.643,19.611-13.552
	c10.281-0.532,18.488-9.04,18.488-19.45v-24.999l76.076,23.368c3.957,1.218,8.156-1.008,9.372-4.967
	c1.217-3.959-1.007-8.155-4.967-9.372c-41.353-12.703-156.309-48.015-193.299-59.377c0-19.368,0-68.813,0-87.081l251.308-77.196
	v241.473l-24.546-7.539c-3.958-1.218-8.155,1.008-9.372,4.967c-1.217,3.959,1.007,8.156,4.967,9.372l29.017,8.914
	c0.681,10.97,9.797,19.692,20.935,19.692c11.58,0,21.001-9.422,21.001-21.001V290.838c16.061-3.455,28.14-17.759,28.14-34.838
	S437.379,224.617,421.319,221.162z M27.002,301.468c0,3.309-2.691,6-6,6s-6-2.691-6-6v-90.936c0-3.309,2.691-6,6-6s6,2.691,6,6
	C27.002,225.266,27.002,290.543,27.002,301.468z M113.007,297.317l-71.004-2.477 M42.003,294.839v-77.678l71.004-2.477v82.632
	 M202.727,392.887h-52.67c-3.309,0-6-2.691-6-6c0-3.309,2.691-6,6-6h52.67c3.309,0,6,2.691,6,6
	C208.728,390.196,206.035,392.887,202.727,392.887z M225.826,345.28v29.606c0,2.105-1.535,3.929-3.523,4.389
	c-3.061-7.855-10.777-13.39-19.574-13.39c-55.465,0.041-55.361-0.606-60.675,1.594c-5.131,2.123-9.308,6.283-11.44,11.473
	c-1.523-0.73-2.604-2.299-2.604-4.065v-59.653L225.826,345.28z M421.319,275.228v-38.456
	C438.796,243.612,438.805,268.385,421.319,275.228z"/>
<g>
	<path style="fill:#FF8031;" d="M504.5,248.5h-35.374c-4.143,0-7.5,3.358-7.5,7.5c0,4.143,3.357,7.5,7.5,7.5H504.5
		c4.143,0,7.5-3.357,7.5-7.5C512,251.858,508.642,248.5,504.5,248.5z"/>
	<path style="fill:#FF8031;" d="M456.903,192.064l25.186-25.186c2.929-2.929,2.929-7.678,0-10.608c-2.93-2.929-7.678-2.929-10.608,0
		l-25.186,25.186c-2.929,2.929-2.929,7.678,0,10.608C449.225,194.993,453.973,194.993,456.903,192.064z"/>
	<path style="fill:#FF8031;" d="M468.267,224.727l34.031-10.511c3.958-1.222,6.176-5.421,4.953-9.38
		c-1.223-3.957-5.422-6.175-9.38-4.953l-34.031,10.511C454.446,213.295,458.684,227.689,468.267,224.727z"/>
	<path style="fill:#FF8031;" d="M502.299,297.664l-34.031-10.511c-3.96-1.221-8.158,0.996-9.38,4.953
		c-1.223,3.957,0.995,8.156,4.953,9.38l34.031,10.511c3.966,1.224,8.16-1.003,9.38-4.953
		C508.475,303.085,506.258,298.886,502.299,297.664z"/>
	<path style="fill:#FF8031;" d="M456.903,319.936c-2.93-2.928-7.678-2.928-10.608,0c-2.929,2.93-2.929,7.678,0,10.609l25.186,25.186
		c2.931,2.929,7.678,2.928,10.608,0c2.929-2.93,2.929-7.678,0-10.608L456.903,319.936z"/>
</g>
<g>
</g>
<g>
</g>
<g>
</g>
<g>
</g>
<g>
</g>
<g>
</g>
<g>
</g>
<g>
</g>
<g>
</g>
<g>
</g>
<g>
</g>
<g>
</g>
<g>
</g>
<g>
</g>
<g>
</g>
</svg>
