<?xml version="1.0" encoding="iso-8859-1"?>
<!-- Generator: Adobe Illustrator 19.0.0, SVG Export Plug-In . SVG Version: 6.00 Build 0)  -->
<svg version="1.1" id="Capa_1" xmlns="http://www.w3.org/2000/svg" xmlns:xlink="http://www.w3.org/1999/xlink" x="0px" y="0px"
	 viewBox="0 0 512.003 512.003" style="enable-background:new 0 0 512.003 512.003;" xml:space="preserve">
<path style="fill:#ABFFDB;" d="M198.76,504.402c14.348,0,25.279-12.854,22.975-27.015l-5.669-34.833
	c-1.635-8.273-2.569-22.029-18.412-28.689c-1.479-0.621-4.847-1.55-4.779-1.529c-69.49-24.547-5.537-1.957-36.273-12.777
	l-15.394-9.532v-18.32c-16.517,8.315-36.789,8.954-53.666,1.156l0.011,17.164l-15.829,9.698l-8.156,2.805h-0.018l0.003,0.005
	c-0.105,0.037-33.467,11.847-31.313,10.881c-8.769,3.275-16.184,10.483-17.22,20.573c-0.361,3.51-4.066,24.575-7.317,42.759
	c-2.578,14.417,8.508,27.656,23.154,27.656H198.76V504.402z"/>
<path style="fill:#92E0C0;" d="M25.861,476.747c8.654-55.065,5.489-56.997,12.546-65.377c-6.396,2.208-6.252,2.084-6.17,2.047
	c-5.666,2.116-10.602,5.774-13.949,10.952c-1.863,2.883-2.921,6.206-3.272,9.62c-0.361,3.51-4.066,24.575-7.317,42.759
	c-2.578,14.417,8.508,27.656,23.154,27.656h18.161C34.369,504.402,23.285,491.164,25.861,476.747z"/>
<path style="fill:#E4EAF8;" d="M113.457,415.259l31.256-23.061l0,0l-3.506-2.171v-18.32c-16.517,8.315-36.789,8.954-53.666,1.156
	l0.011,17.164l-3.543,2.171L113.457,415.259z"/>
<path style="fill:#C3C8D1;" d="M113.456,415.259v-36.92c-8.894,0.069-17.797-1.725-25.915-5.475l0.011,17.164l-3.543,2.171
	L113.456,415.259z"/>
<g>
	<path style="fill:#FF8031;" d="M87.552,390.028l25.905,25.231L90.335,431.35c-3.374,2.349-8.058,0.775-9.332-3.134l-9.28-28.493
		L87.552,390.028z"/>
	<path style="fill:#FF8031;" d="M141.207,390.028l-27.751,25.231l23.123,16.092c3.374,2.349,8.058,0.775,9.332-3.134l10.69-28.659
		L141.207,390.028z"/>
</g>
<path style="fill:#FF9052;" d="M123.891,450.881l-20.887-0.049l-14.268,53.613c15.709,0,33.732,0,49.441,0L123.891,450.881z"/>
<polygon style="fill:#FF8031;" points="123.891,450.881 103.003,450.832 88.736,504.445 110.309,504.445 124.116,451.725 "/>
<path style="fill:#FEA82F;" d="M113.457,415.259l-19.412,13.51l8.992,22.146c7.289,0,13.552,0,20.841,0l8.993-22.146
	L113.457,415.259z"/>
<path style="fill:#FF9052;" d="M110.315,417.445l-16.271,11.323l8.992,22.146c7.289,0,13.552,0,20.841,0l0.013-0.033
	L110.315,417.445z"/>
<path style="fill:#FEA82F;" d="M194.889,278.369c-4.646-91.671-134.948-105.925-159.364-17.462
	c-3.57,12.983-3.008,20.115-2.968,48.126h162.452C195.013,280.42,195.01,280.783,194.889,278.369z"/>
<path style="fill:#FF8031;" d="M88.986,276.043c2.351-30.166,20.881-58.758,52.32-69.785
	C90.294,188.82,37.174,220.66,32.858,276.043c-0.284,3.594-0.317,21.959-0.301,32.99h56.128
	C88.669,298.001,88.702,279.637,88.986,276.043z"/>
<g>
	<path style="fill:#E4EAF8;" d="M56.951,299.584c-14.1-5.024-30.475,4.32-30.475,17.952c0,13.629,16.375,22.978,30.475,17.952
		V299.584z"/>
	<path style="fill:#E4EAF8;" d="M170.641,299.584c14.1-5.024,30.476,4.32,30.476,17.952c0,13.629-16.375,22.978-30.476,17.952
		V299.584z"/>
</g>
<g>
	<path style="fill:#C3C8D1;" d="M28.524,309.519c-1.303,2.415-2.049,5.117-2.049,8.018c0,13.629,16.375,22.978,30.475,17.952
		v-16.034C45.848,323.412,33.344,318.455,28.524,309.519z"/>
	<path style="fill:#C3C8D1;" d="M170.641,319.455v16.034c14.102,5.025,30.476-4.323,30.476-17.952c0-2.9-0.747-5.603-2.049-8.018
		C194.247,318.455,181.743,323.412,170.641,319.455z"/>
</g>
<path style="fill:#FFFFFF;" d="M170.116,278.343c1.504,0.145,2.662,1.393,2.662,2.905c0,49.66,0.032,42.399-0.083,44.708
	c-3.374,66.585-98.019,76.938-115.754,12.684c-0.977-3.553-1.616-6.871-1.937-10.993c-0.33-4.17-0.193-26.81-0.193-26.737
	c0-11.565,10.263-20.388,21.71-18.736c18.027,2.603,44.341,1.592,67.302-18.035c2.36-2.017,5.94-1.366,7.447,1.348
	C154.113,270.61,159.77,277.345,170.116,278.343z"/>
<path style="fill:#E4EAF8;" d="M88.957,327.646c-0.267-3.374-0.228-33.227-0.204-44.457c-4.365-0.093-8.481-0.474-12.233-1.016
	c-11.446-1.652-21.71,7.171-21.71,18.736c0-0.073-0.137,22.567,0.193,26.737c2.988,38.335,38.555,62.014,75.341,51.755
	C105.788,372.417,90.78,351.028,88.957,327.646z"/>
<path style="fill:#ABFFDB;" d="M481.453,310.473c14.348,0,25.279-12.854,22.975-27.015l-5.669-34.833
	c-1.635-8.273-2.569-22.029-18.412-28.689c-1.479-0.621-4.847-1.55-4.779-1.529c-69.49-24.547-5.537-1.957-36.273-12.777
	l-15.394-9.532v-18.32c-16.517,8.315-36.789,8.954-53.666,1.156l0.011,17.164l-15.829,9.698l-8.156,2.805h-0.018l0.003,0.005
	c-0.105,0.037-33.467,11.847-31.313,10.881c-5.666,2.116-10.602,5.774-13.949,10.952c-3.413,5.283-1.82,3.324-10.588,52.378
	c-2.578,14.417,8.508,27.656,23.154,27.656L481.453,310.473L481.453,310.473z"/>
<path style="fill:#92E0C0;" d="M308.555,282.817c8.506-58.377,6.344-58.013,12.546-65.377c-6.396,2.208-6.252,2.084-6.17,2.047
	c-8.769,3.275-16.184,10.483-17.22,20.573c-0.361,3.51-4.066,24.575-7.317,42.759c-2.578,14.417,8.508,27.656,23.154,27.656h18.161
	C317.063,310.473,305.978,297.234,308.555,282.817z"/>
<path style="fill:#E4EAF8;" d="M396.151,221.329l31.256-23.061l0,0l-3.506-2.171v-18.32c-16.517,8.315-36.789,8.954-53.666,1.156
	l0.011,17.164l-3.543,2.171L396.151,221.329z"/>
<path style="fill:#C3C8D1;" d="M396.15,221.328v-36.92c-8.894,0.069-17.797-1.725-25.915-5.475l0.011,17.164l-3.543,2.171
	L396.15,221.328z"/>
<g>
	<path style="fill:#48C397;" d="M370.246,196.098l25.905,25.231l-23.123,16.092c-3.375,2.349-8.058,0.775-9.332-3.134l-9.28-28.493
		L370.246,196.098z"/>
	<path style="fill:#48C397;" d="M423.901,196.098l-27.751,25.231l23.123,16.092c3.374,2.349,8.058,0.775,9.332-3.134l10.69-28.659
		L423.901,196.098z"/>
	<path style="fill:#48C397;" d="M406.584,256.952l-20.887-0.049l-14.267,53.613c15.709,0,33.732,0,49.441,0L406.584,256.952z"/>
</g>
<polygon style="fill:#5FA77E;" points="406.584,256.952 385.696,256.903 371.429,310.516 393.002,310.516 406.809,257.795 "/>
<path style="fill:#92E0C0;" d="M396.151,221.329l-19.412,13.51l8.992,22.146c7.289,0,13.552,0,20.841,0l8.993-22.146
	L396.151,221.329z"/>
<path style="fill:#48C397;" d="M393.008,223.516l-16.271,11.323l8.992,22.146c7.289,0,13.552,0,20.841,0l0.013-0.033
	L393.008,223.516z"/>
<path style="fill:#FEA82F;" d="M477.582,84.44C472.936-7.232,342.634-21.485,318.217,66.977c-3.57,12.983-3.008,20.115-2.968,48.126
	h162.452C477.706,86.49,477.703,86.853,477.582,84.44z"/>
<path style="fill:#FF8031;" d="M374.346,66.977C382.31,38.124,401.541,20.205,424,12.328c-40.497-13.844-91.429,2.65-105.782,54.649
	c-3.57,12.983-3.007,20.115-2.968,48.126h56.128C371.334,83.764,371.13,78.671,374.346,66.977z"/>
<g>
	<path style="fill:#E4EAF8;" d="M339.644,105.654c-14.1-5.024-30.475,4.32-30.475,17.952c0,13.629,16.375,22.978,30.475,17.952
		V105.654z"/>
	<path style="fill:#E4EAF8;" d="M453.334,105.654c14.1-5.024,30.476,4.32,30.476,17.952c0,13.629-16.375,22.978-30.476,17.952
		V105.654z"/>
</g>
<g>
	<path style="fill:#C3C8D1;" d="M311.217,115.589c-8.524,15.804,10.408,32.391,28.427,25.97v-16.034
		C328.542,129.481,316.038,124.526,311.217,115.589z"/>
	<path style="fill:#C3C8D1;" d="M453.334,125.524v16.034c18.025,6.423,36.946-10.174,28.427-25.97
		C476.941,124.526,464.436,129.481,453.334,125.524z"/>
</g>
<path style="fill:#FFFFFF;" d="M452.809,84.414c1.504,0.145,2.662,1.393,2.662,2.905c0,49.66,0.032,42.399-0.084,44.708
	c-3.375,66.585-98.019,76.938-115.754,12.684c-0.977-3.553-1.616-6.87-1.937-10.993c-0.33-4.17-0.193-26.81-0.193-26.737
	c0-11.565,10.263-20.388,21.71-18.736c18.027,2.602,44.341,1.592,67.302-18.035c2.36-2.017,5.94-1.366,7.447,1.348
	C436.807,76.679,442.464,83.415,452.809,84.414z"/>
<path style="fill:#E4EAF8;" d="M373.587,144.71c-0.977-3.553-1.616-6.871-1.937-10.993c-0.267-3.374-0.228-33.227-0.204-44.457
	c-4.365-0.093-8.481-0.474-12.233-1.016c-11.446-1.652-21.71,7.171-21.71,18.736c0-0.073-0.137,22.567,0.193,26.737
	c0.321,4.123,0.96,7.441,1.937,10.993c10.022,36.315,44.609,48.792,73.404,40.762C395.293,180.424,379.768,167.103,373.587,144.71z"
	/>
<g>
	<path style="fill:#474D54;" d="M194.868,405.2c-0.033-0.011-0.057-0.02-0.071-0.025C194.81,405.179,194.833,405.188,194.868,405.2z
		"/>
	<path style="fill:#474D54;" d="M195.453,405.406c-0.021-0.007-0.046-0.016-0.077-0.027c0.002,0.001,0.004,0.001,0.006,0.002
		C195.405,405.389,195.429,405.398,195.453,405.406z"/>
	<path style="fill:#474D54;" d="M195.177,405.309c0.034,0.012,0.072,0.025,0.11,0.039
		C195.252,405.335,195.215,405.322,195.177,405.309z"/>
	<path style="fill:#474D54;" d="M223.187,438.925c-1.614-9.043-4.314-24.177-22.417-31.786c-1.461-0.613-4.256-1.458-5.267-1.715
		c0,0,0,0-0.001,0c0,0-0.001,0-0.006-0.002c-0.016-0.005-0.029-0.01-0.044-0.015c0.012,0.004,0.022,0.008,0.03,0.011
		c-0.019-0.007-0.051-0.018-0.101-0.036c-0.003-0.001-0.007-0.002-0.01-0.004c-0.051-0.018-0.119-0.042-0.207-0.073
		c0.004,0.001,0.007,0.002,0.011,0.004c-0.148-0.052-0.247-0.087-0.309-0.109c0.046,0.016,0.106,0.037,0.172,0.061
		c-1.691-0.597-8.781-3.102-33.304-11.762l-0.001,0.003c-3.504-1.125,0.112,0.108-12.75-7.436v-6.484
		c12.575-7.44,23.064-19.206,28.096-35.398c16.722,1.987,32.616-9.953,32.616-26.615c0-6.644-2.58-12.863-7.203-17.702
		c0.006-0.101,0.155-20.779-0.143-22.502c-0.632-11.102-3.034-21.6-7.141-31.207c-1.629-3.809-6.03-5.581-9.844-3.947
		c-3.808,1.628-5.575,6.035-3.947,9.844c6.871,16.073,6.101,29.705,6.1,39.44c-2.369-0.533-4.797-0.783-7.24-0.746l-0.001-9.478
		c0-5.392-4.058-9.85-9.44-10.369c0,0-0.001,0-0.002-0.001c-5.607-0.54-9.985-3.58-13.015-9.035
		c-3.817-6.877-12.927-8.496-18.877-3.41c-20.827,17.802-44.87,18.696-61.378,16.319c-11.929-1.723-23.615,4.798-28.276,16.07
		c-3.122-0.25-6.247-0.026-9.272,0.656c0.026-11.24-0.232-17.935,2.698-28.582c16.03-58.078,82.458-67.511,119.689-36.43
		c3.18,2.653,7.908,2.228,10.562-0.951c2.654-3.181,2.229-7.909-0.951-10.562c-53.353-44.533-140.734-15.716-146.672,60.498
		c-0.372,4.706-0.371,23.264-0.301,24.421c-17.341,18.198-1.126,47.674,25.691,44.262c5.758,17.65,16.714,29.635,29.65,36.791
		l0.004,5.096l-11.524,7.061c-0.103,0.035-38.744,13.436-38.847,13.475c-7.441,2.778-13.53,7.583-17.609,13.896
		c-4.301,6.656-2.811,5.6-11.848,56.123c-3.297,18.425,10.862,35.389,29.625,35.389c15.735,0,83.53,0.033,168.458,0
		c19.136,0,33.696-17.154,30.626-36.015C222.344,433.458,224.104,444.035,223.187,438.925z M180.283,305.734
		c3.357-0.091,6.648,0.851,9.386,2.781c10.374,7.317,3.461,21.268-9.386,20.889C180.283,329.105,180.283,326.322,180.283,305.734z
		 M32.865,317.57c0-7.131,7.175-12.009,14.395-11.835c-0.018,6.624-0.005,2.601,0.021,23.669
		C40.067,329.613,32.865,324.688,32.865,317.57z M62.279,319.274v-18.279c0.022-0.102-0.38-4.947,3.94-8.688
		c2.527-2.189,5.886-3.167,9.206-2.689c18.96,2.735,46.394,1.755,70.906-17.813c4.655,6.958,11.219,11.577,18.949,13.358
		c0.006,44.766,0.021,38.515-0.074,40.449C161.972,389.431,62.852,393.637,62.279,319.274z M113.945,405.149l-18.556-18.073v-0.108
		c12.552,3.369,26.029,3.104,38.599-0.752v0.71L113.945,405.149z M123.956,431.672l-4.827,11.889h-10.721l-4.827-11.889
		c3.156-2.197,4.799-3.34,10.187-7.091L123.956,431.672z M102.028,414.479c-0.002,0.001-0.003,0.002-0.005,0.003
		c-0.055,0.038-1.363,0.949-14.116,9.824l-6.863-21.074c0.1-0.062,6.178-3.784,5.793-3.548L102.028,414.479z M142.347,399.595
		l5.342,3.307l-8,21.445l-13.915-9.685L142.347,399.595z M83.329,496.989H58.004v-22.706c0-4.142-3.356-7.499-7.499-7.499
		s-7.499,3.357-7.499,7.499v22.706h-12.82c-9.405,0-16.516-8.501-14.861-17.749c9.066-50.68,7.398-47.089,9.682-50.625
		c4.633-7.168,7.103-6.616,42.307-19.115l6.908,21.213c2.304,7.072,9.65,10.755,16.421,8.959l4.825,11.884L83.329,496.989z
		 M98.852,496.989l10.266-38.43h9.3l10.265,38.43H98.852z M198.644,496.989h-14.09v-22.706c0-4.142-3.356-7.499-7.499-7.499
		s-7.499,3.357-7.499,7.499v22.706h-25.349l-12.137-45.436l4.825-11.882c6.623,1.757,13.964-1.743,16.361-8.78l8.063-21.613
		c10.673,3.741-5.546-1.994,29.279,10.319c0.608,0.215,3.26,0.906,4.365,1.37c13.074,5.495,12.167,12.852,19.506,57.415
		C216.057,488.14,208.516,496.989,198.644,496.989z"/>
	<path style="fill:#474D54;" d="M195.287,405.348c0.029,0.01,0.057,0.02,0.082,0.029
		C195.341,405.367,195.313,405.357,195.287,405.348z"/>
	<path style="fill:#474D54;" d="M194.797,405.175C194.781,405.169,194.783,405.17,194.797,405.175L194.797,405.175z"/>
	<path style="fill:#474D54;" d="M102.022,414.484c0,0,0.001-0.001,0.002-0.001C102.027,414.48,102.026,414.481,102.022,414.484z"/>
	<path style="fill:#474D54;" d="M102.022,414.484C101.955,414.531,102.006,414.495,102.022,414.484L102.022,414.484z"/>
	<polygon style="fill:#474D54;" points="195.376,405.379 195.369,405.377 195.372,405.378 	"/>
</g>
<path style="fill:#FF8031;" d="M419.167,338.042c-1.012-3.955-4.999-6.374-8.977-5.441l-28.001,6.566
	c-4.032,0.945-6.535,4.98-5.589,9.013c0.946,4.033,4.987,6.537,9.013,5.589l10.166-2.384
	c-31.241,47.804-84.415,76.938-142.192,76.938c-4.142,0-7.499,3.356-7.499,7.499s3.356,7.499,7.499,7.499
	c63.267,0,121.459-32.098,155.367-84.693l2.574,10.054c0.867,3.389,3.915,5.642,7.26,5.642c4.881,0,8.487-4.605,7.27-9.36
	L419.167,338.042z"/>
<path style="fill:#5FA77E;" d="M94.151,178.094c1.489,3.842,5.818,5.786,9.702,4.282l27.197-10.54
	c3.861-1.497,5.779-5.84,4.282-9.702c-1.496-3.859-5.837-5.777-9.702-4.282l-10.887,4.219
	c33.682-53.649,93.905-83.884,157.119-78.988c4.145,0.326,7.737-2.769,8.057-6.896c0.32-4.129-2.768-7.736-6.896-8.057
	c-69.11-5.359-135.109,27.908-171.668,87.049l-3.262-8.416c-1.496-3.86-5.837-5.778-9.702-4.282
	c-3.861,1.497-5.779,5.84-4.282,9.702L94.151,178.094z"/>
<g>
	<path style="fill:#474D54;" d="M482.602,213.004C483.345,213.233,482.284,212.847,482.602,213.004L482.602,213.004z"/>
	<path style="fill:#474D54;" d="M510.381,274.745c-0.665-4.087-4.515-6.867-8.605-6.197c-4.088,0.665-6.862,4.518-6.197,8.605
		l1.188,7.3c1.589,9.758-5.952,18.606-15.824,18.606h-14.09v-22.707c0-4.142-3.356-7.499-7.499-7.499
		c-4.142,0-7.499,3.357-7.499,7.499v22.707h-25.348l-12.138-45.436l4.824-11.882c6.624,1.758,13.965-1.744,16.362-8.781
		l8.062-21.612c1.49,0.522,1.579,0.559,1.875,0.654l0.001,0.001c0.579,0.181,27.302,9.629,27.403,9.665
		c0.453,0.162,3.326,0.933,4.365,1.37c8.673,3.645,11.165,9.854,12.566,16.019c0.919,4.038,4.936,6.568,8.975,5.65
		s6.568-4.936,5.65-8.975c-1.892-8.322-6.166-20.125-21.389-26.525c-0.249-0.104-0.389-0.167-0.461-0.202
		c-1.315-0.405-8.284-2.74-38.567-13.436l-0.001,0.002c-3.558-1.158,0.444,0.304-12.749-7.435v-6.485
		c12.574-7.44,23.063-19.206,28.095-35.398c26.733,3.171,42.734-26.188,25.413-44.317c0.047-0.825,0.019-19.864,0.011-20.727
		C484.102,8.447,388.7-26.581,335.391,23.035c-3.032,2.822-3.203,7.566-0.381,10.598c2.821,3.033,7.566,3.204,10.598,0.381
		c40.33-37.53,120.608-18.044,124.098,50.822c0.125,2.511,0.113-3.198,0.111,12.727c-2.369-0.532-4.798-0.783-7.24-0.746
		l-0.001-9.48c0-5.391-4.058-9.849-9.439-10.368c-0.978-0.351-8.06-0.108-13.018-9.038c-3.824-6.886-12.938-8.485-18.877-3.408
		c-20.828,17.805-44.875,18.702-61.378,16.319c-11.93-1.733-23.618,4.805-28.275,16.07c-3.123-0.25-6.248-0.026-9.273,0.656
		c0.031-13.391-0.304-22.05,5.448-36.844c1.502-3.859-0.409-8.206-4.269-9.708c-3.86-1.499-8.207,0.411-9.708,4.269
		c-3.311,8.51-5.43,17.082-6.145,26.256c-0.374,4.713-0.372,23.273-0.302,24.422c-17.341,18.198-1.124,47.675,25.691,44.263
		c5.759,17.651,16.715,29.636,29.651,36.792l0.004,5.095c-17.877,10.951-8.196,5.333-19.224,9.711
		c-36.892,13.072-29.137,10.068-31.149,10.824c-11.4,4.258-20.699,13.795-22.037,26.808c-0.126,1.229-1.102,7.898-7.419,43.211
		c-3.296,18.426,10.862,35.39,29.625,35.39c15.89,0,83.383,0.033,168.457,0c9.117,0,17.731-3.982,23.638-10.927
		C516.413,293.212,510.395,278.204,510.381,274.745z M462.581,111.804c12.872-0.407,19.746,13.585,9.384,20.89
		c-2.738,1.932-6.044,2.885-9.384,2.78V111.804z M320.194,114.585c2.749-1.939,6.066-2.882,9.365-2.781
		c-0.01,3.454,0.02,23.569,0.021,23.669C316.77,135.867,309.801,121.912,320.194,114.585z M421.987,230.419
		c-2.725-1.897-13.249-9.221-13.915-9.685l16.573-15.068c0.101,0.063,5.442,3.369,5.341,3.307L421.987,230.419z M396.244,211.22
		l-18.556-18.074v-0.107c12.554,3.369,26.028,3.106,38.599-0.752v0.711L396.244,211.22z M406.253,237.743l-4.828,11.889h-10.719
		l-4.828-11.889l10.187-7.09L406.253,237.743z M384.326,220.549c-0.694,0.483-11.61,8.081-14.12,9.828l-6.863-21.074l5.793-3.549
		L384.326,220.549z M344.746,133.159c-0.254-3.203-0.169-18.393-0.169-26.153c0-7.165,6.375-12.298,13.145-11.319
		c18.96,2.738,46.395,1.758,70.907-17.813c4.654,6.957,11.219,11.577,18.948,13.358c0.007,43.928,0.02,38.586-0.073,40.449
		c-1.66,32.743-30.145,52.92-60.905,47.898C362.365,175.487,346.536,156.14,344.746,133.159z M365.626,303.059h-25.324v-22.707
		c0-4.142-3.356-7.499-7.499-7.499s-7.499,3.357-7.499,7.499v22.707c-8.684-0.795-17.716,2.577-24.398-5.407
		c-2.875-3.434-4.07-7.934-3.282-12.343c7.098-39.677,7.457-43.171,7.575-44.318c0.712-6.93,6.261-12.285,12.779-14.387
		c5.05-1.619,31.733-11.069,31.632-11.034l6.908,21.212c2.295,7.044,9.619,10.764,16.421,8.96l4.825,11.882L365.626,303.059z
		 M381.15,303.059l10.266-38.43h9.3l10.266,38.43H381.15z"/>
</g>
<g>
</g>
<g>
</g>
<g>
</g>
<g>
</g>
<g>
</g>
<g>
</g>
<g>
</g>
<g>
</g>
<g>
</g>
<g>
</g>
<g>
</g>
<g>
</g>
<g>
</g>
<g>
</g>
<g>
</g>
</svg>
