<?xml version="1.0" encoding="iso-8859-1"?>
<!-- Generator: Adobe Illustrator 19.0.0, SVG Export Plug-In . SVG Version: 6.00 Build 0)  -->
<svg version="1.1" id="Capa_1" xmlns="http://www.w3.org/2000/svg" xmlns:xlink="http://www.w3.org/1999/xlink" x="0px" y="0px"
	 viewBox="0 0 512 512" style="enable-background:new 0 0 512 512;" xml:space="preserve">
<path style="fill:#AFB5BC;" d="M504.5,320.297V36.855c0-12.31-9.979-22.289-22.288-22.289H29.789
	C17.48,14.566,7.5,24.546,7.5,36.855v283.443L504.5,320.297L504.5,320.297z"/>
<path style="fill:#FFFFFF;" d="M477.122,96.698V49.542c0-4.189-3.409-7.598-7.598-7.598H42.477c-4.189,0-7.598,3.409-7.598,7.598
	v47.155l0,0V282.65c0,4.008,3.409,7.269,7.598,7.269h427.047c4.189,0,7.599-3.261,7.599-7.269L477.122,96.698L477.122,96.698z"/>
<path style="fill:#E4EAF8;" d="M66.899,282.651V96.698l0,0V49.542c0-4.189,3.409-7.598,7.598-7.598H42.476
	c-4.189,0-7.598,3.409-7.598,7.598v47.155l0,0V282.65c0,4.008,3.409,7.269,7.598,7.269h32.022
	C70.308,289.921,66.899,286.659,66.899,282.651z"/>
<path style="fill:#969A9F;" d="M57.166,14.566H29.789C17.48,14.566,7.5,24.546,7.5,36.855v283.442h27.377V36.855
	C34.878,24.546,44.857,14.566,57.166,14.566z"/>
<polygon style="fill:#AFB5BC;" points="313.003,471.057 198.996,471.057 203.774,397.552 308.226,397.552 "/>
<polygon style="fill:#969A9F;" points="203.774,397.552 198.996,471.057 228.998,471.057 233.776,397.552 "/>
<path style="fill:#E4EAF8;" d="M327.852,497.434H184.148c-7.559,0-13.689-6.128-13.689-13.689l0,0
	c0-7.56,6.128-13.689,13.689-13.689h143.704c7.559,0,13.689,6.128,13.689,13.689l0,0
	C341.54,491.305,335.411,497.434,327.852,497.434z"/>
<path style="fill:#C2C7D0;" d="M216.386,483.745c0-7.56,6.128-13.689,13.689-13.689h-45.927c-7.559,0-13.689,6.128-13.689,13.689
	s6.128,13.689,13.689,13.689h45.927C222.514,497.434,216.386,491.305,216.386,483.745z"/>
<path style="fill:#E4EAF8;" d="M7.5,317.297v58.966c0,12.31,9.98,22.289,22.289,22.289h452.42c12.31,0,22.289-9.98,22.289-22.289
	v-58.966H7.5z"/>
<path style="fill:#C2C7D0;" d="M34.878,376.263v-58.966H7.5v58.966c0,12.31,9.98,22.289,22.289,22.289h27.377
	C44.857,398.552,34.878,388.574,34.878,376.263z"/>
<circle style="fill:#FFFFFF;" cx="253.255" cy="357.672" r="14.327"/>
<g>
	<path style="fill:#E4EAF8;" d="M253.255,357.675c-2.65-4.589-2.459-10.031,0.006-14.316c-2.437-0.004-4.907,0.602-7.169,1.908
		c-6.852,3.956-9.2,12.718-5.244,19.57c3.956,6.852,12.718,9.2,19.57,5.244c2.262-1.306,4.022-3.142,5.237-5.255
		C260.712,364.82,255.905,362.265,253.255,357.675z"/>
	<path style="fill:#E4EAF8;" d="M191.066,105.312c-24.594,0-77.733,0-106.104,0c-3.475,0-6.318,2.843-6.318,6.318v37.514
		c-0.012,81.627-0.354,75.474,0.943,77.588c2.888,4.666,5.817,3.022,92.053,3.022c30.301,0,25.605,3.94,25.745-28.167v-52.443
		v-37.514C197.384,108.156,194.541,105.312,191.066,105.312z"/>
</g>
<path style="fill:#C2C7D0;" d="M108.651,223.446c0-12.029,0-100.42,0-111.814c0-3.475,2.843-6.318,6.318-6.318
	c-8.924,0-20.407,0-30.008,0c-3.475,0-6.318,2.843-6.318,6.318v37.514c0.023,79.804-0.894,76.516,2.306,79.163
	c2.536,2.094,1.569,1.447,34.02,1.447C113.003,229.756,108.655,226.879,108.651,223.446z"/>
<path style="fill:#91DFBF;" d="M156.405,191.582h-36.784c-6.415,0-11.616,5.2-11.616,11.617v26.782h60.016v-26.782
	C168.021,196.783,162.821,191.582,156.405,191.582z"/>
<path style="fill:#48C397;" d="M149.629,191.582h-30.008c-6.415,0-11.616,5.2-11.616,11.617v26.782h30.008v-26.782
	C138.013,196.783,143.213,191.582,149.629,191.582z"/>
<circle style="fill:#FFC850;" cx="138.008" cy="154.409" r="19.427"/>
<path style="fill:#FEA82F;" d="M138.012,154.406c-3.593-6.224-3.335-13.602,0.008-19.413c-3.305-0.005-6.654,0.816-9.723,2.587
	c-9.293,5.365-12.476,17.247-7.11,26.54c5.365,9.293,17.247,12.477,26.539,7.111c3.068-1.771,5.453-4.261,7.102-7.126
	C148.124,164.096,141.606,160.631,138.012,154.406z"/>
<circle style="fill:#ABFFDB;" cx="208.443" cy="113.227" r="37.579"/>
<path style="fill:#92E0C0;" d="M204.2,75.881c-26.766,3.023-41.872,32.637-28.307,56.13c13.575,23.512,46.78,25.197,62.764,3.55
	C206.07,139.242,184.724,102.255,204.2,75.881z"/>
<path style="fill:#474D54;" d="M275.082,357.675c0-12.035-9.792-21.826-21.826-21.826c-12.036,0-21.827,9.792-21.827,21.826
	c0,12.036,9.792,21.827,21.827,21.827C265.29,379.502,275.082,369.71,275.082,357.675z M246.429,357.675
	c0-3.764,3.063-6.825,6.826-6.825c3.763,0,6.825,3.062,6.825,6.825c0,3.763-3.062,6.826-6.825,6.826
	S246.429,361.439,246.429,357.675z"/>
<g>
	<path style="fill:#92E0C0;" d="M426.247,103.359H282.601c-4.143,0-7.5,3.357-7.5,7.5s3.357,7.5,7.5,7.5h143.646
		c4.143,0,7.5-3.357,7.5-7.5S430.389,103.359,426.247,103.359z"/>
	<path style="fill:#92E0C0;" d="M426.247,131.598H282.601c-4.143,0-7.5,3.357-7.5,7.5c0,4.143,3.357,7.5,7.5,7.5h143.646
		c4.143,0,7.5-3.357,7.5-7.5C433.747,134.955,430.389,131.598,426.247,131.598z"/>
	<path style="fill:#92E0C0;" d="M426.247,159.836H249.431c-4.143,0-7.5,3.357-7.5,7.5c0,4.143,3.357,7.5,7.5,7.5h176.816
		c4.143,0,7.5-3.357,7.5-7.5C433.747,163.193,430.389,159.836,426.247,159.836z"/>
	<path style="fill:#92E0C0;" d="M426.247,188.572H249.431c-4.143,0-7.5,3.357-7.5,7.5c0,4.143,3.357,7.5,7.5,7.5h176.816
		c4.143,0,7.5-3.357,7.5-7.5C433.747,191.93,430.389,188.572,426.247,188.572z"/>
	<path style="fill:#92E0C0;" d="M426.247,216.708H249.431c-4.143,0-7.5,3.357-7.5,7.5c0,4.143,3.357,7.5,7.5,7.5h176.816
		c4.143,0,7.5-3.357,7.5-7.5C433.747,220.065,430.389,216.708,426.247,216.708z"/>
</g>
<path style="fill:#ABB0B7;" d="M178.19,248.721h-76.02c-4.143,0-7.5,3.357-7.5,7.5c0,4.143,3.357,7.5,7.5,7.5h76.02
	c4.143,0,7.5-3.357,7.5-7.5C185.69,252.078,182.332,248.721,178.19,248.721z"/>
<path style="fill:#FFFFFF;" d="M227.378,98.74c-3.124-2.719-7.861-2.392-10.582,0.733l-9.477,10.889l-1.536-1.908
	c-2.599-3.227-7.319-3.737-10.547-1.14s-3.736,7.319-1.14,10.547c6.021,6.591,7.32,11.577,12.855,11.685
	c2.175,0.044,4.319-0.874,5.801-2.575l15.358-17.647C230.831,106.196,230.502,101.459,227.378,98.74z"/>
<g>
	<path style="fill:#474D54;" d="M504.5,238.604c-4.143,0-7.5,3.357-7.5,7.5v130.158c0,8.154-6.634,14.789-14.788,14.789H98.312
		c-4.143,0-7.5,3.357-7.5,7.5c0,4.143,3.357,7.5,7.5,7.5h97.444l-3.775,56.503h-7.832c-11.684,0-21.189,9.506-21.189,21.189
		c0,11.684,9.506,21.189,21.189,21.189h143.704c11.684,0,21.189-9.506,21.189-21.189c0-11.684-9.506-21.189-21.189-21.189h-7.833
		l-3.775-56.503h165.967c16.426,0,29.789-13.364,29.789-29.79V246.105C512,241.962,508.642,238.604,504.5,238.604z M210.79,406.053
		h90.419l3.775,56.503h-97.971L210.79,406.053z M327.852,477.557c3.412,0,6.188,2.775,6.188,6.188c0,3.413-2.775,6.188-6.188,6.188
		H184.148c-3.412,0-6.188-2.775-6.188-6.188c0-3.413,2.775-6.188,6.188-6.188H327.852z"/>
	<path style="fill:#474D54;" d="M482.211,7.065H29.789C13.363,7.065,0,20.429,0,36.855v339.408c0,16.426,13.363,29.79,29.789,29.79
		H63.31c4.143,0,7.5-3.357,7.5-7.5c0-4.143-3.357-7.5-7.5-7.5H29.789c-8.153,0-14.788-6.634-14.788-14.789V36.855
		c0-8.153,6.634-14.788,14.788-14.788h452.422c8.153,0,14.788,6.634,14.788,14.788v174.248c0,4.143,3.357,7.5,7.5,7.5
		s7.5-3.357,7.5-7.5V36.855C512,20.429,498.636,7.065,482.211,7.065z"/>
</g>
<g>
</g>
<g>
</g>
<g>
</g>
<g>
</g>
<g>
</g>
<g>
</g>
<g>
</g>
<g>
</g>
<g>
</g>
<g>
</g>
<g>
</g>
<g>
</g>
<g>
</g>
<g>
</g>
<g>
</g>
</svg>
