<?xml version="1.0" encoding="iso-8859-1"?>
<!-- Generator: Adobe Illustrator 19.0.0, SVG Export Plug-In . SVG Version: 6.00 Build 0)  -->
<svg version="1.1" id="Capa_1" xmlns="http://www.w3.org/2000/svg" xmlns:xlink="http://www.w3.org/1999/xlink" x="0px" y="0px"
	 viewBox="0 0 511.998 511.998" style="enable-background:new 0 0 511.998 511.998;" xml:space="preserve">
<path style="fill:#DBD0BD;" d="M440.907,172.075c-14.933,0-35.251,0-51.066,0h-2V469.17h0.203c0,20.665,17.603,36.044,35.825,35.273
	c18.333,0.776,35.824-14.693,35.824-35.273c0-51.032,0-213.588,0-278.31C459.692,180.485,451.282,172.075,440.907,172.075z"/>
<path style="fill:#FFFFFF;" d="M389.84,94.813c0-9.918-4.94-18.43-11.953-25.443l-51.654-51.654
	c-5.882-5.882-12.859-10.186-21.177-10.186H71.293c-10.374,0.001-18.784,8.411-18.784,18.786c0,0.11-0.203,442.704-0.203,442.855
	c0,19.509,15.815,35.324,35.324,35.324c5.551,0,328.284,0,337.738,0c-19.509,0-35.325-15.815-35.325-35.324h-0.203
	C389.84,420.898,389.84,139.778,389.84,94.813z"/>
<path style="fill:#E4EAF8;" d="M440.907,172.075c-14.933,0-35.251,0-51.066,0c0,13.77,0,283.325,0,297.095h0.203
	c0,19.277,15.472,35.044,34.825,35.312c19.278-0.269,34.824-15.97,34.824-35.312c0-35.242,0-153.439,0-192.034v-86.275
	C459.692,180.485,451.282,172.075,440.907,172.075z"/>
<path style="fill:#C2C7D0;" d="M420.636,469.17h-0.203c0-32.85,0-261.874,0-297.095H389.84c0,13.77,0,283.325,0,297.095h0.203
	c0,25.346,26.548,43.395,50.12,31.592C428.587,494.962,420.636,482.999,420.636,469.17z"/>
<path style="fill:#E4EAF8;" d="M87.607,469.17c0-0.151,0.202-442.745,0.202-442.855c0-10.375,8.41-18.785,18.784-18.785H71.293
	c-10.375,0-18.784,8.411-18.784,18.785c0,0.11-0.202,442.704-0.202,442.855c0,19.509,15.815,35.324,35.324,35.324h35.302
	C103.422,504.494,87.607,488.679,87.607,469.17z"/>
<path style="fill:#AFB5BC;" d="M341.069,43.521c-8.779,0-224.764,0-239.788,0c-7.54,0-13.651,6.112-13.651,13.651
	c0,263.957-0.154,247.123,0.277,249.234c1.273,6.221,6.777,10.9,13.374,10.9c11.31,0,228.244,0,239.788,0
	c7.538,0,13.651-6.11,13.651-13.651c0-10.386,0-224.101,0-246.483C354.72,49.632,348.608,43.521,341.069,43.521z"/>
<path style="fill:#969A9F;" d="M117.907,306.406c-0.431-2.111-0.277,14.733-0.277-249.234c0-7.539,6.112-13.651,13.651-13.651
	c-11.142,0-18.751,0-30,0c-7.54,0-13.651,6.112-13.651,13.651c0,23.382,0,215.777,0,246.483c0,7.523,6.095,13.651,13.651,13.651
	c3.764,0,26.268,0,30,0C124.684,317.306,119.18,312.626,117.907,306.406z"/>
<path style="fill:#FEA82F;" d="M290.902,134.269c-4.203-82.79-122.077-95.663-144.165-15.771c-3.23,11.724-2.72,18.166-2.684,43.463
	H291.01C291.015,136.12,291.012,136.447,290.902,134.269z"/>
<path style="fill:#FF8031;" d="M194.391,118.498c7.389-26.727,25.502-43.056,46.489-49.875
	c-46.017-14.63-92.714,14.352-96.554,63.544c-0.257,3.246-0.287,19.831-0.272,29.794h47.654
	C191.666,133.659,191.481,129.058,194.391,118.498z"/>
<path style="fill:#ABFFDB;" d="M315.612,317.306l-5.39-34.681c-1.477-7.46-2.32-19.866-16.633-25.873
	c-1.336-0.56-4.378-1.397-4.317-1.379c-62.772-22.137-5.002-1.765-32.767-11.523l-13.906-8.596v-16.522
	c-14.92,7.499-33.233,8.075-48.479,1.043l0.01,15.479L179.832,244l-7.368,2.529h-0.016l0.003,0.005
	c-0.106,0.037-30.23,10.685-28.287,9.813c-7.959,2.967-14.623,9.488-15.556,18.553c-0.34,3.307-3.978,24.791-7,42.406
	L315.612,317.306L315.612,317.306z"/>
<path style="fill:#92E0C0;" d="M148.354,317.306c8.847-60.456,7.504-57.225,10.57-61.964c1.514-2.339,3.389-4.334,5.527-5.983
	c-20.648,7.274-20.402,7.04-20.288,6.989c-7.959,2.968-14.623,9.489-15.556,18.553c-0.34,3.307-3.978,24.791-7,42.406
	L148.354,317.306L148.354,317.306z"/>
<path style="fill:#E4EAF8;" d="M217.531,258.009l28.235-20.797l0,0l-3.167-1.958v-16.522c-14.92,7.499-33.233,8.075-48.479,1.043
	l0.01,15.48l-3.201,1.958L217.531,258.009z"/>
<path style="fill:#C3C8D1;" d="M217.531,258.008V224.7c-8.034,0.062-16.077-1.542-23.411-4.925l0.01,15.48l-3.201,1.958
	L217.531,258.008z"/>
<g>
	<path style="fill:#FF8031;" d="M194.13,235.255l23.401,22.755l-20.888,14.512c-3.048,2.118-7.279,0.699-8.429-2.826l-8.383-25.696
		L194.13,235.255z"/>
	<path style="fill:#FF8031;" d="M242.599,235.255l-25.069,22.755l20.888,14.512c3.048,2.118,7.279,0.699,8.429-2.826l9.657-25.845
		L242.599,235.255z"/>
</g>
<path style="fill:#FF9052;" d="M226.945,290.164c-6.585,0-12.242,0-18.827,0l-7.263,27.142h33.352L226.945,290.164z"/>
<path style="fill:#FEA82F;" d="M217.531,258.009l-17.536,12.184l8.123,19.971c6.585,0,12.242,0,18.827,0l8.123-19.971
	L217.531,258.009z"/>
<path style="fill:#FF8031;" d="M226.952,290.191l-0.007-0.027c-6.585,0-12.242,0-18.827,0l-7.263,27.142h18.841L226.952,290.191z"/>
<path style="fill:#FF9052;" d="M214.685,259.986l-14.69,10.206l8.123,19.971c6.585,0,12.242,0,18.827,0l0.007-0.018L214.685,259.986
	z"/>
<g>
	<path style="fill:#E4EAF8;" d="M166.121,153.427c-12.755-4.538-27.569,3.901-27.569,16.213c0,12.309,14.813,20.752,27.569,16.213
		V153.427z"/>
	<path style="fill:#E4EAF8;" d="M268.968,153.427c12.755-4.538,27.569,3.901,27.569,16.213c0,12.309-14.813,20.752-27.569,16.213
		V153.427z"/>
</g>
<g>
	<path style="fill:#C3C8D1;" d="M140.514,162.191c-7.967,14.246,9.157,29.515,25.607,23.663v-14.898
		C156.164,174.498,144.955,170.131,140.514,162.191z"/>
	<path style="fill:#C3C8D1;" d="M268.968,170.955v14.898c12.757,4.538,27.569-3.904,27.569-16.213c0-2.702-0.714-5.217-1.963-7.449
		C290.133,170.131,278.925,174.498,268.968,170.955z"/>
</g>
<path style="fill:#FFFFFF;" d="M268.492,134.245c1.361,0.131,2.408,1.258,2.408,2.623c0,44.849,0.029,38.292-0.076,40.377
	c-3.053,60.133-88.67,69.484-104.713,11.455c-0.884-3.209-1.461-6.205-1.752-9.929c-0.299-3.766-0.174-24.212-0.174-24.147
	c0-10.445,9.285-18.413,19.639-16.921c16.308,2.35,40.112,1.437,60.882-16.288c2.134-1.821,5.373-1.233,6.736,1.218
	C254.016,127.26,259.134,133.343,268.492,134.245z"/>
<g>
	<path style="fill:#E4EAF8;" d="M191.783,177.244c-0.104-2.06-0.076,4.305-0.076-38.748c-2.775-0.159-5.416-0.438-7.884-0.794
		c-10.355-1.492-19.639,6.477-19.639,16.921c0-0.066-0.124,20.38,0.174,24.147c2.657,34.026,33.854,55.493,66.944,47.06
		C210.738,220.588,193.137,203.917,191.783,177.244z"/>
	<path style="fill:#E4EAF8;" d="M386.471,79.323L386.471,79.323c-4.827-9.679-2.359-5.726-59.238-62.607
		c-1.14-0.934-3.355-3.602-9.186-6.361l0,0c-8.515-3.876-15.065-2.552-19.296-2.826c0,0,19.296,2.107,19.296,22.726
		c0.004,12.089-0.008,28.346,0.011,29.644c0.125,10.668,8.799,19.424,19.617,19.424h28.76c4.13,0.081,23.406,1.594,23.406,22.87
		C389.52,97.279,391.095,89.481,386.471,79.323z"/>
</g>
<path style="fill:#FF9052;" d="M129.169,75.315V43.521h-27.888c-7.539,0-13.651,6.112-13.651,13.651v29.072h30.61
	C124.276,86.244,129.169,81.351,129.169,75.315z"/>
<path style="fill:#FF8031;" d="M101.281,43.521c-7.54,0-13.651,6.112-13.651,13.651v29.073h30c0-0.199,0-7.292,0-6.921V57.172
	c0-6.819,5.005-12.454,11.54-13.471v-0.18H101.281z"/>
<g>
	<path style="fill:#92E0C0;" d="M125.442,405.976v-29.11c16.845,29.82,16.068,31.364,19.436,32.535
		c4.043,1.408,10.959,0.653,10.959-3.425v-54.452c0-1.426-0.7-2.453-2.098-3.082c-3.899-1.747-11.259-1.169-11.259,3.082v29.11
		c-15.594-29.518-15.819-32.315-20.634-32.963c-3.91-0.517-9.761-0.023-9.761,3.938v54.366
		C112.085,411.386,125.442,411.499,125.442,405.976z"/>
	<path style="fill:#92E0C0;" d="M201.382,359.143c5.315,0,5.445-11.644,0-11.644c-30.977,0.318-31.374-0.762-34.504,1.027
		c-3.216,1.837-1.194,0.293-1.798,57.448c0,2.92,3.15,4.109,5.822,4.109c30.863-0.574,31.92,1.371,33.562-1.841
		c1.393-2.721,1.144-5.947-0.085-8.048c-1.784-3.043-3.117-1.225-25.942-1.755v-14.556h12.843c3.94,0,5.081-5.476,2.996-8.689
		c-1.705-2.629-3.844-1.166-15.839-1.584v-14.47h22.945V359.143z"/>
	<path style="fill:#92E0C0;" d="M241.536,406.147l4.452-20.291c4.843,21.033,4.033,20.731,5.565,22.261
		c3.807,3.814,14.522,3.323,16.353-1.97c18.357-56.471,18.191-53.31,16.396-55.394c-2.898-3.346-10.816-4.923-12.114-0.771
		l-13.014,43.922c-7.443-29.455-5.71-29.941-9.076-31.55c-3.538-1.689-9.636-0.969-10.53,2.611l-6.764,28.938
		c-13.846-45.54-12.409-44.793-14.598-45.848c-3.01-1.45-8.285,0.098-10.531,2.696c-2.447,2.834-0.005,2.369,16.396,55.394
		C225.942,412.255,240.205,411.926,241.536,406.147z"/>
	<path style="fill:#92E0C0;" d="M310.327,398.655c-11.499,2.304-14.263-9.055-19.777-5.309c-2.178,1.48-3.553,4.383-3.553,6.464
		c0,8.093,17.029,13.721,29.195,9.889c8.046-2.532,12.843-8.695,12.843-17.765c0-17.581-17.571-19.443-25.129-24.915
		c-2.518-1.82-2.849-4.89-0.043-7.149c2.419-1.944,8.32-1.86,10.959-1.07c1.592,0.478,2.565,0.861,5.18,2.227
		c5.724,2.99,10.134-7.02,5.48-10.488c-2.832-2.107-6.948-2.983-10.445-3.296c-9.595-0.862-19.76,0.848-24.572,9.289
		c-2.684,4.715-2.514,12.253,0.086,16.567c5.974,9.916,16.114,9.781,23.117,15.882c2.408,2.103,2.426,5.253,1.284,6.935
		C314.465,396.63,312.139,398.294,310.327,398.655z"/>
</g>
<g>
	<path style="fill:#ABB0B7;" d="M336.118,427.347H102.345c-4.143,0-7.5,3.357-7.5,7.5c0,4.143,3.357,7.5,7.5,7.5h233.772
		c4.143,0,7.5-3.357,7.5-7.5C343.617,430.704,340.26,427.347,336.118,427.347z"/>
	<path style="fill:#ABB0B7;" d="M336.118,457.946H102.345c-4.143,0-7.5,3.357-7.5,7.5c0,4.143,3.357,7.5,7.5,7.5h233.772
		c4.143,0,7.5-3.357,7.5-7.5C343.617,461.303,340.26,457.946,336.118,457.946z"/>
</g>
<g>
	<path style="fill:#474D54;" d="M284.584,260.818c-0.064-0.023-0.13-0.046-0.196-0.069
		C284.53,260.799,284.55,260.806,284.584,260.818z"/>
	<path style="fill:#474D54;" d="M282.724,260.162c0.155,0.055,0.278,0.098,0.347,0.122c-0.028-0.01-0.05-0.018-0.11-0.039
		C282.876,260.216,282.798,260.188,282.724,260.162z"/>
	<path style="fill:#474D54;" d="M283.072,260.285C283.132,260.306,283.13,260.306,283.072,260.285L283.072,260.285z"/>
	<path style="fill:#474D54;" d="M285.269,261.059c-0.053-0.019-0.108-0.038-0.165-0.058
		C285.126,261.009,285.246,261.052,285.269,261.059z"/>
	<path style="fill:#474D54;" d="M459.692,228.513c4.143,0,7.5-3.357,7.5-7.5v-30.152c0-14.494-11.791-26.286-26.285-26.286h-43.566
		c0-74.323,0.249-71.924-0.6-77.071c-1.499-9.205-5.631-17.301-12.549-24.437c-55.791-55.79-51.676-51.787-53.866-53.688
		c-5.424-4.659-11.933-7.685-18.927-8.826c-4.546-0.746,15.211-0.521-240.107-0.521c-14.493,0-26.284,11.792-26.284,26.284
		c0,0.11-0.202,442.705-0.202,442.855c0,23.613,19.211,42.824,42.824,42.824h230.987c4.143,0,7.5-3.357,7.5-7.5s-3.357-7.5-7.5-7.5
		H87.63c-16.441,0-29.425-14.276-27.664-30.805c0.065-0.607,0.033-151.866,0.042-439.875c0-6.222,5.062-11.284,11.284-11.285H298.22
		c2.733,0.438,12.327,2.863,12.327,15.226v20.766c0,0.093,0,0.185,0,0.276v5.335l-0.037,0.125c-0.027,4.744,0.111,7.4,1.654,12.111
		c3.863,10.739,14.115,17.955,25.511,17.955h24.545c1.921,0.221,20.121-2.393,20.121,15.37c0,353.473-1.11,364.183,0.978,375.062
		c0.414,1.231,1.595,10.488,9.521,19.739h-39.223c-4.143,0-7.5,3.357-7.5,7.5s3.357,7.5,7.5,7.5
		c76.653-0.029,71.684,0.062,72.699-0.066c22.659-1.03,40.875-19.928,40.875-42.763V256.012c0-4.143-3.357-7.5-7.5-7.5
		c-4.143,0-7.5,3.357-7.5,7.5V469.17c0,15.09-12.248,27.544-27.324,27.811c-15.073-0.267-27.324-12.717-27.324-27.811
		c0-0.162-0.203-289.493-0.203-289.596h43.566c6.223,0,11.285,5.063,11.285,11.286v30.152
		C452.192,225.156,455.549,228.513,459.692,228.513z M337.675,71.824c-5.527,0-10.269-3.773-11.681-8.931
		c-0.585-2.15-0.438-1.968-0.447-19.372c-0.079-12.075,0.202-14.28-0.314-18.198l47.078,47.078
		C366.841,71.434,363.047,71.824,337.675,71.824z"/>
</g>
<g>
</g>
<g>
</g>
<g>
</g>
<g>
</g>
<g>
</g>
<g>
</g>
<g>
</g>
<g>
</g>
<g>
</g>
<g>
</g>
<g>
</g>
<g>
</g>
<g>
</g>
<g>
</g>
<g>
</g>
</svg>
