<?xml version="1.0" encoding="iso-8859-1"?>
<!-- Generator: Adobe Illustrator 19.0.0, SVG Export Plug-In . SVG Version: 6.00 Build 0)  -->
<svg version="1.1" id="Capa_1" xmlns="http://www.w3.org/2000/svg" xmlns:xlink="http://www.w3.org/1999/xlink" x="0px" y="0px"
	 viewBox="0 0 512 512" style="enable-background:new 0 0 512 512;" xml:space="preserve">
<path style="fill:#AFB5BC;" d="M504.5,320.297V36.855c0-12.31-9.98-22.289-22.288-22.289H29.789C17.48,14.566,7.5,24.546,7.5,36.855
	v283.443L504.5,320.297L504.5,320.297z"/>
<path style="fill:#FFFFFF;" d="M477.122,96.698V49.542c0-4.189-3.409-7.598-7.598-7.598H42.477c-4.189,0-7.598,3.409-7.598,7.598
	v47.155l0,0V282.65c0,4.008,3.409,7.269,7.598,7.269h427.047c4.189,0,7.599-3.261,7.599-7.269L477.122,96.698L477.122,96.698z"/>
<g>
	<path style="fill:#E4EAF8;" d="M66.899,282.651V96.698l0,0V49.542c0-4.189,3.409-7.598,7.598-7.598H42.476
		c-4.189,0-7.598,3.409-7.598,7.598v47.155l0,0V282.65c0,4.008,3.409,7.269,7.598,7.269h32.022
		C70.308,289.921,66.899,286.659,66.899,282.651z"/>
	<path style="fill:#E4EAF8;" d="M172.753,200.71H66.899V80.303c0-3.704,3.031-6.734,6.734-6.734h92.385
		c3.704,0,6.734,3.03,6.734,6.734V200.71H172.753z"/>
</g>
<path style="fill:#FEA82F;" d="M139.43,159.878h-39.207c-6.838,0-12.381,5.543-12.381,12.381v28.545h63.968v-28.545
	C151.81,165.421,146.268,159.878,139.43,159.878z"/>
<circle style="fill:#FFC850;" cx="119.827" cy="120.257" r="20.707"/>
<path style="fill:#FEA82F;" d="M119.835,99.562c-15.789-0.023-25.959,17.159-17.942,31.045c5.718,9.905,18.382,13.298,28.287,7.579
	c3.27-1.888,5.813-4.542,7.57-7.595C121.823,130.569,111.876,113.395,119.835,99.562z"/>
<path style="fill:#FF9052;" d="M66.899,223.997c0,3.704,3.031,6.735,6.735,6.735h92.385c3.704,0,6.735-3.031,6.735-6.735V200.71
	H66.899V223.997z"/>
<path style="fill:#FF8031;" d="M66.899,200.71v23.286c0,3.704,3.031,6.735,6.735,6.735c6.212,0,14.163,0,23.21,0h14.973V200.71
	C96.877,200.71,81.842,200.71,66.899,200.71z"/>
<path style="fill:#E4EAF8;" d="M308.638,200.71H202.783V80.303c0-3.704,3.031-6.734,6.735-6.734h92.386
	c3.704,0,6.734,3.03,6.734,6.734V200.71H308.638z"/>
<path style="fill:#91DFBF;" d="M275.314,159.878h-39.207c-6.838,0-12.381,5.543-12.381,12.381v28.545h63.968v-28.545
	C287.694,165.421,282.152,159.878,275.314,159.878z"/>
<path style="fill:#48C397;" d="M202.782,223.997c0,3.704,3.031,6.735,6.735,6.735h92.385c3.704,0,6.735-3.031,6.735-6.735V200.71
	H202.782V223.997z"/>
<path style="fill:#5FA77E;" d="M202.782,200.71v23.286c0,3.704,3.031,6.735,6.735,6.735c6.212,0,14.163,0,23.21,0h14.973V200.71
	C235.933,200.71,210.591,200.71,202.782,200.71z"/>
<path style="fill:#E4EAF8;" d="M444.522,200.71H338.667V80.303c0-3.704,3.03-6.734,6.734-6.734h92.385
	c3.704,0,6.734,3.03,6.734,6.734V200.71H444.522z"/>
<g>
	<path style="fill:#C2C7D0;" d="M103.635,73.567H73.633c-3.704,0-6.734,3.031-6.734,6.735V200.71h30.002V80.303
		C96.901,76.599,99.931,73.567,103.635,73.567z"/>
	<path style="fill:#C2C7D0;" d="M239.52,73.567h-30.002c-3.704,0-6.734,3.031-6.734,6.735V200.71h30.002V80.303
		C232.784,76.599,235.815,73.567,239.52,73.567z"/>
	<path style="fill:#C2C7D0;" d="M375.403,73.567h-30.002c-3.704,0-6.734,3.031-6.734,6.735V200.71h30.002V80.303
		C368.668,76.599,371.699,73.567,375.403,73.567z"/>
</g>
<path style="fill:#AFB5BC;" d="M411.198,159.878h-39.207c-6.838,0-12.381,5.543-12.381,12.381v28.545h63.968v-28.545
	C423.578,165.421,418.035,159.878,411.198,159.878z"/>
<path style="fill:#FF9052;" d="M130.225,159.878h-30.002c-6.838,0-12.381,5.543-12.381,12.381v28.545h30.002v-28.545
	C117.844,165.421,123.386,159.878,130.225,159.878z"/>
<path style="fill:#48C397;" d="M266.109,159.878h-30.002c-6.838,0-12.381,5.543-12.381,12.381v28.545h30.002v-28.545
	C253.728,165.421,259.271,159.878,266.109,159.878z"/>
<g>
	<path style="fill:#969A9F;" d="M401.992,159.878h-30.002c-6.838,0-12.381,5.543-12.381,12.381v28.545h30.002v-28.545
		C389.612,165.421,395.154,159.878,401.992,159.878z"/>
	<path style="fill:#969A9F;" d="M338.667,223.997c0,3.704,3.031,6.735,6.735,6.735h92.385c3.704,0,6.735-3.031,6.735-6.735V200.71
		H338.667V223.997z"/>
</g>
<path style="fill:#818487;" d="M338.667,200.71v23.286c0,3.704,3.031,6.735,6.735,6.735c13.868,0,24.107,0,38.183,0V200.71
	C368.644,200.71,353.609,200.71,338.667,200.71z"/>
<path style="fill:#969A9F;" d="M57.166,14.566H29.789C17.48,14.566,7.5,24.546,7.5,36.855v283.442h27.377V36.855
	C34.878,24.546,44.857,14.566,57.166,14.566z"/>
<polygon style="fill:#AFB5BC;" points="313.003,471.057 198.996,471.057 203.774,397.552 308.226,397.552 "/>
<polygon style="fill:#969A9F;" points="203.774,397.552 198.996,471.057 228.998,471.057 233.776,397.552 "/>
<path style="fill:#E4EAF8;" d="M327.852,497.434H184.148c-7.559,0-13.689-6.128-13.689-13.689l0,0
	c0-7.56,6.128-13.689,13.689-13.689h143.704c7.559,0,13.689,6.128,13.689,13.689l0,0
	C341.54,491.305,335.411,497.434,327.852,497.434z"/>
<path style="fill:#C2C7D0;" d="M216.386,483.745c0-7.56,6.128-13.689,13.689-13.689h-45.927c-7.559,0-13.689,6.128-13.689,13.689
	s6.128,13.689,13.689,13.689h45.927C222.514,497.434,216.386,491.305,216.386,483.745z"/>
<path style="fill:#E4EAF8;" d="M7.5,317.297v58.966c0,12.31,9.98,22.289,22.289,22.289h452.42c12.31,0,22.289-9.979,22.289-22.289
	v-58.966H7.5z"/>
<path style="fill:#C2C7D0;" d="M34.878,376.264v-58.966H7.5v58.966c0,12.31,9.98,22.289,22.289,22.289h27.377
	C44.857,398.552,34.878,388.574,34.878,376.264z"/>
<circle style="fill:#FFFFFF;" cx="253.255" cy="357.672" r="14.327"/>
<path style="fill:#E4EAF8;" d="M253.255,357.675c-2.65-4.589-2.459-10.031,0.006-14.316c-2.437-0.004-4.907,0.602-7.169,1.908
	c-6.852,3.956-9.2,12.718-5.244,19.57c3.955,6.852,12.718,9.2,19.57,5.244c2.262-1.306,4.022-3.142,5.237-5.255
	C260.712,364.82,255.905,362.265,253.255,357.675z"/>
<circle style="fill:#FFC850;" cx="255.705" cy="120.257" r="20.707"/>
<path style="fill:#FEA82F;" d="M255.709,120.254c-3.83-6.634-3.555-14.498,0.009-20.691c-3.523-0.005-7.092,0.87-10.363,2.758
	c-9.905,5.718-13.297,18.383-7.578,28.287c5.718,9.904,18.382,13.298,28.287,7.579c3.27-1.888,5.813-4.542,7.57-7.595
	C266.487,130.582,259.54,126.888,255.709,120.254z"/>
<circle style="fill:#FFC850;" cx="391.594" cy="120.257" r="20.707"/>
<path style="fill:#FEA82F;" d="M391.603,99.562c-15.789-0.023-25.959,17.159-17.942,31.045c8.02,13.89,27.985,13.665,35.857-0.016
	C393.592,130.569,383.643,113.395,391.603,99.562z"/>
<g>
	<path style="fill:#474D54;" d="M275.082,357.675c0-12.035-9.792-21.826-21.827-21.826c-12.036,0-21.827,9.792-21.827,21.826
		c0,12.036,9.792,21.827,21.827,21.827C265.29,379.503,275.082,369.711,275.082,357.675z M246.429,357.675
		c0-3.764,3.062-6.825,6.826-6.825c3.764,0,6.826,3.062,6.826,6.825c0,3.763-3.062,6.826-6.826,6.826
		C249.491,364.502,246.429,361.439,246.429,357.675z"/>
	<path style="fill:#474D54;" d="M164.769,208.211c-0.017,0-0.031,0-0.039,0C164.738,208.211,164.752,208.211,164.769,208.211z"/>
	<path style="fill:#474D54;" d="M164.812,208.211c-0.017,0-0.031,0-0.043,0C164.782,208.211,164.796,208.211,164.812,208.211z"/>
	<path style="fill:#474D54;" d="M165.214,208.21c-0.013,0-0.025,0-0.037,0c0.034,0,0.062,0,0.075,0
		C165.244,208.21,165.231,208.21,165.214,208.21z"/>
	<path style="fill:#474D54;" d="M164.946,208.211c-0.01,0-0.019,0-0.029,0c0.051,0,0.106,0,0.157,0
		C165.038,208.211,164.995,208.211,164.946,208.211z"/>
	<path style="fill:#474D54;" d="M300.696,208.211c-0.017,0-0.031,0-0.043,0C300.665,208.211,300.679,208.211,300.696,208.211z"/>
	<path style="fill:#474D54;" d="M300.653,208.211c-0.017,0-0.031,0-0.039,0C300.621,208.211,300.635,208.211,300.653,208.211z"/>
	<path style="fill:#474D54;" d="M300.83,208.211c-0.01,0-0.02,0-0.029,0c0.052,0,0.106,0,0.157,0
		C300.922,208.211,300.879,208.211,300.83,208.211z"/>
	<path style="fill:#474D54;" d="M301.097,208.21c-0.013,0-0.024,0-0.037,0c0.034,0,0.061,0,0.075,0
		C301.128,208.21,301.114,208.21,301.097,208.21z"/>
</g>
<path style="fill:#48C397;" d="M296.222,251.439h-81.025c-4.142,0-7.5,3.357-7.5,7.5c0,4.143,3.358,7.5,7.5,7.5h81.025
	c4.143,0,7.5-3.357,7.5-7.5C303.722,254.796,300.365,251.439,296.222,251.439z"/>
<path style="fill:#FF8031;" d="M160.34,251.439H79.314c-4.142,0-7.5,3.357-7.5,7.5c0,4.143,3.358,7.5,7.5,7.5h81.026
	c4.142,0,7.5-3.357,7.5-7.5C167.84,254.796,164.482,251.439,160.34,251.439z"/>
<path style="fill:#969A9F;" d="M432.106,251.439h-81.025c-4.143,0-7.5,3.357-7.5,7.5c0,4.143,3.357,7.5,7.5,7.5h81.026
	c4.143,0,7.5-3.357,7.5-7.5C439.608,254.796,436.249,251.439,432.106,251.439z"/>
<g>
	<path style="fill:#474D54;" d="M436.712,208.211c-0.01,0-0.019,0-0.028,0c0.051,0,0.105,0,0.156,0
		C436.804,208.211,436.761,208.211,436.712,208.211z"/>
	<path style="fill:#474D54;" d="M436.98,208.21c-0.013,0-0.024,0-0.037,0c0.034,0,0.061,0,0.074,0
		C437.01,208.21,436.997,208.21,436.98,208.21z"/>
	<path style="fill:#474D54;" d="M436.536,208.211c-0.017,0-0.031,0-0.039,0C436.504,208.211,436.518,208.211,436.536,208.211z"/>
	<path style="fill:#474D54;" d="M436.578,208.211c-0.017,0-0.031,0-0.043,0C436.548,208.211,436.562,208.211,436.578,208.211z"/>
	<path style="fill:#474D54;" d="M482.211,7.065H29.79C13.364,7.065,0,20.429,0,36.855v339.408c0,16.426,13.364,29.79,29.79,29.79
		h32.023c4.142,0,7.5-3.357,7.5-7.5c0-4.143-3.358-7.5-7.5-7.5H29.79c-8.154,0-14.789-6.634-14.789-14.789V36.855
		c0-8.153,6.634-14.788,14.789-14.788h452.421c8.154,0,14.788,6.634,14.788,14.788v201.644c0,4.143,3.357,7.5,7.5,7.5
		s7.5-3.357,7.5-7.5V36.855C512,20.429,498.636,7.065,482.211,7.065z"/>
	<path style="fill:#474D54;" d="M504.5,266c-4.143,0-7.5,3.357-7.5,7.5v102.762c0,8.154-6.634,14.789-14.788,14.789H96.815
		c-4.142,0-7.5,3.357-7.5,7.5c0,4.143,3.358,7.5,7.5,7.5h98.941l-3.775,56.503h-7.832c-11.684,0-21.189,9.506-21.189,21.189
		c0,11.684,9.506,21.189,21.189,21.189h143.704c11.684,0,21.189-9.506,21.189-21.189c0-11.684-9.506-21.189-21.189-21.189h-7.832
		l-3.775-56.503h165.967c16.426,0,29.789-13.364,29.789-29.79V273.501C512,269.358,508.642,266,504.5,266z M210.79,406.053h90.419
		l3.775,56.503h-97.97L210.79,406.053z M327.852,477.557c3.412,0,6.188,2.775,6.188,6.188c0,3.413-2.775,6.188-6.188,6.188H184.148
		c-3.412,0-6.188-2.775-6.188-6.188c0-3.413,2.776-6.188,6.188-6.188H327.852z"/>
</g>
<g>
</g>
<g>
</g>
<g>
</g>
<g>
</g>
<g>
</g>
<g>
</g>
<g>
</g>
<g>
</g>
<g>
</g>
<g>
</g>
<g>
</g>
<g>
</g>
<g>
</g>
<g>
</g>
<g>
</g>
</svg>
