<?xml version="1.0" encoding="iso-8859-1"?>
<!-- Generator: Adobe Illustrator 19.0.0, SVG Export Plug-In . SVG Version: 6.00 Build 0)  -->
<svg version="1.1" id="Capa_1" xmlns="http://www.w3.org/2000/svg" xmlns:xlink="http://www.w3.org/1999/xlink" x="0px" y="0px"
	 viewBox="0 0 512 512" style="enable-background:new 0 0 512 512;" xml:space="preserve">
<path style="fill:#FFC850;" d="M207.853,20.479c-45.983,26.549-61.793,85.556-35.246,131.538
	c26.549,45.983,85.556,61.793,131.539,35.246c45.982-26.548,61.793-85.555,35.245-131.538
	C312.843,9.743,253.835-6.069,207.853,20.479z"/>
<path style="fill:#FEA82F;" d="M198.586,137.018c-23.997-41.564-13.381-93.769,22.842-123.025
	c-55.318,21.315-78.267,87.02-48.821,138.023c29.517,51.125,97.942,63.888,143.943,26.733
	C273.102,195.492,222.583,178.583,198.586,137.018z"/>
<g>
	<path style="fill:#AFB5BC;" d="M167.795,271.562c-4.261,0-8.459-1.976-11.145-5.694c-4.44-6.149-3.054-14.733,3.096-19.172
		l7.79-5.624c6.147-4.438,14.733-3.056,19.172,3.096c4.44,6.149,3.054,14.733-3.096,19.172l-7.79,5.624
		C173.392,270.717,170.58,271.562,167.795,271.562z"/>
	<path style="fill:#AFB5BC;" d="M344.203,271.562c4.261,0,8.459-1.976,11.145-5.694c4.44-6.149,3.054-14.733-3.096-19.172
		l-7.79-5.624c-6.147-4.438-14.733-3.056-19.172,3.096c-4.44,6.149-3.054,14.733,3.096,19.172l7.79,5.624
		C338.605,270.717,341.418,271.562,344.203,271.562z"/>
</g>
<g>
	<path style="fill:#E4EAF8;" d="M156.891,370.825v-23.101c0-9.821-7.961-17.783-17.782-17.783c-9.821,0-17.783,7.962-17.783,17.783
		v23.101H156.891z"/>
	<path style="fill:#E4EAF8;" d="M355.107,370.825v-23.101c0-9.821,7.962-17.783,17.782-17.783c9.821,0,17.783,7.962,17.783,17.783
		v23.101H355.107z"/>
	<path style="fill:#E4EAF8;" d="M238.216,370.825v-23.101c0-9.821,7.962-17.783,17.782-17.783c9.821,0,17.783,7.962,17.783,17.783
		v23.101H238.216z"/>
</g>
<g>
	<path style="fill:#C2C7D0;" d="M148,332.34c-11.733-6.795-26.675,1.615-26.675,15.385v23.102h17.783v-23.102
		C139.108,341.146,142.689,335.416,148,332.34z"/>
	<path style="fill:#C2C7D0;" d="M381.781,332.34c-11.733-6.795-26.675,1.615-26.675,15.385v23.102h17.783v-23.102
		C372.89,341.146,376.472,335.416,381.781,332.34z"/>
	<path style="fill:#C2C7D0;" d="M264.891,332.34c-11.733-6.795-26.675,1.615-26.675,15.385v23.102H256v-23.102
		C255.999,341.146,259.58,335.416,264.891,332.34z"/>
</g>
<path style="fill:#AFB5BC;" d="M255.999,264.994c-7.584,0-13.733-6.147-13.733-13.733v-13.223c0-7.584,6.147-13.733,13.733-13.733
	c7.584,0,13.733,6.147,13.733,13.733v13.224C269.731,258.847,263.583,264.994,255.999,264.994z"/>
<path style="fill:#FFFFFF;" d="M260.027,47.762l14.166,28.701c0.654,1.326,1.919,2.245,3.383,2.458l31.674,4.603
	c3.685,0.535,5.156,5.064,2.49,7.662l-22.92,22.341c-1.059,1.032-1.542,2.519-1.292,3.977l5.411,31.546
	c0.629,3.67-3.223,6.468-6.518,4.736l-28.33-14.895c-1.309-0.688-2.873-0.688-4.181,0l-28.33,14.896
	c-3.296,1.733-7.147-1.066-6.518-4.736l5.41-31.546c0.25-1.457-0.233-2.945-1.292-3.977l-22.92-22.341
	c-2.667-2.599-1.195-7.127,2.49-7.662l31.674-4.603c1.464-0.213,2.729-1.132,3.383-2.458l14.166-28.701
	C253.619,44.423,258.379,44.423,260.027,47.762z"/>
<path style="fill:#E4EAF8;" d="M247.39,140.052c4.697-31.289,7.105-32.611,4.119-35.523c-23.614-23.391-23.66-22.237-24.177-24.577
	l-24.585,3.573c-3.685,0.535-5.156,5.064-2.49,7.662c22.191,22.553,24.917,22.207,24.212,26.318l-5.41,31.546
	c-0.629,3.67,3.223,6.468,6.518,4.736l21.979-11.555C247.335,141.566,247.257,140.831,247.39,140.052z"/>
<path style="fill:#FFFFFF;" d="M320.426,418.756c-6.93,0-181.651,0-188.929,0l8.576,70.88c1.057,8.491,8.274,14.866,16.831,14.866
	h198.148c8.58,0,15.818-6.391,16.877-14.907l8.571-70.84H320.426z"/>
<path style="fill:#E4EAF8;" d="M170.115,489.637l-8.576-70.88h-30.041l8.576,70.88c1.057,8.491,8.274,14.866,16.83,14.866h30.041
	C178.389,504.501,171.171,498.128,170.115,489.637z"/>
<path style="fill:#6DC296;" d="M409.069,365.826c-17.224,0-288.521,0-306.139,0c-4.066,0-7.136,3.685-6.402,7.683l7.176,39.132
	c0.862,4.7,4.958,8.113,9.736,8.113c8.651,0,198.346,0,206.987,0h78.134c4.779,0,8.874-3.414,9.736-8.113l7.176-39.132
	C416.205,369.511,413.134,365.826,409.069,365.826z"/>
<path style="fill:#5FA77E;" d="M153.824,412.642l-7.176-39.132c-0.733-3.999,2.338-7.683,6.402-7.683h-50.12
	c-4.066,0-7.136,3.685-6.402,7.683l7.176,39.132c0.862,4.7,4.958,8.113,9.736,8.113h50.121
	C158.783,420.756,154.686,417.342,153.824,412.642z"/>
<g>
	<path style="fill:#969A9F;" d="M169.419,240.349c-1.999,0.952-2.419,1.548-9.77,6.768c-6.044,4.364-7.406,12.802-3.043,18.846
		c2.64,3.656,6.767,5.599,10.955,5.599c2.738,0,5.503-0.831,7.891-2.556l7.657-5.528c0.564-0.407,1.074-0.861,1.556-1.334
		C170.917,268.682,158.692,250.898,169.419,240.349z"/>
	<path style="fill:#969A9F;" d="M255.766,250.108c-7.135,0-12.963-5.539-13.451-12.551c-0.089,1.087-0.029,0.436-0.048,14.051
		c0,7.455,6.043,13.499,13.499,13.499c7.455,0,13.499-6.043,13.499-13.499v-12.999c0-0.355-0.019-0.705-0.048-1.052
		C268.728,244.568,262.901,250.108,255.766,250.108z"/>
	<path style="fill:#969A9F;" d="M333.105,263.453c4.188,0,8.315-1.942,10.955-5.598c3.955-5.478,3.193-12.91-1.48-17.505
		c0.727,0.346,1.436,0.752,2.113,1.24l7.657,5.529c6.044,4.364,7.406,12.802,3.043,18.846c-2.64,3.656-6.767,5.599-10.955,5.599
		c-2.738,0-5.503-0.831-7.891-2.556l-7.657-5.528c-0.564-0.407-1.074-0.861-1.556-1.334
		C329.172,263.018,331.144,263.453,333.105,263.453z"/>
</g>
<path style="fill:#ABB0B7;" d="M209.178,455.328c-4.143,0-7.499,3.357-7.499,7.499c0,4.143,3.357,7.499,7.499,7.499h93.64
	c4.143,0,7.499-3.357,7.499-7.499c0-4.143-3.357-7.499-7.499-7.499H209.178z"/>
<g>
	<path style="fill:#474D54;" d="M409.069,358.327h-10.896v-10.603c0-11.33-7.492-20.943-17.782-24.146v-37.973
		c0-14.564-12.685-19.285-15.691-22.237c2.247-8.292-0.667-17.417-8.056-22.754c-5.267-3.007-11.506-11.329-23.602-9.37
		c-18.475,2.98-24.463,27.041-9.046,38.174c5.828,3.574,10.38,9.643,20.208,9.643c4.212,0,8.281-1.264,11.717-3.531
		c4.597,3.906,9.471,5.081,9.471,10.075v37.973c-10.291,3.203-17.783,12.816-17.783,24.146v10.603h-66.326v-10.603
		c0-11.33-7.492-20.944-17.783-24.146v-52.477c8.012-3.04,13.733-10.774,13.733-19.838v-13.225c0-11.708-9.524-21.232-21.231-21.232
		c-11.707,0-21.231,9.524-21.231,21.232v13.224c0,9.064,5.719,16.797,13.731,19.837v52.478
		c-10.29,3.203-17.782,12.816-17.782,24.146v10.603h-14.321c-4.143,0-7.499,3.357-7.499,7.499s3.357,7.499,7.499,7.499
		c19.734,0,167.469,0,191.486,0l-6.962,37.966c-0.209,1.139-1.201,1.966-2.36,1.966c-10.825,0-257.824,0-285.12,0
		c-1.159,0-2.151-0.827-2.36-1.967l-6.962-37.965c22.882,0,52.669,0,77.282,0c4.143,0,7.499-3.357,7.499-7.499
		s-3.357-7.499-7.499-7.499h-17.008v-10.603c0-11.33-7.492-20.943-17.782-24.146v-37.973c0-4.994,4.843-6.142,9.47-10.075
		c3.436,2.268,7.505,3.531,11.717,3.531c9.821,0,14.39-6.076,20.207-9.644c15.419-11.134,9.428-35.194-9.046-38.173
		c-12.045-1.951-18.491,6.454-23.601,9.37c-7.392,5.337-10.303,14.463-8.057,22.754c-2.972,2.918-15.69,7.715-15.69,22.237v37.973
		c-10.291,3.203-17.783,12.816-17.783,24.146v10.603H102.93c-8.757,0-15.355,7.94-13.779,16.535l7.176,39.131
		c1.515,8.264,8.711,14.262,17.112,14.262h11.435l7.758,62.307C134.155,502.783,144.59,512,156.906,512h148.287
		c4.143,0,7.499-3.357,7.499-7.499c0-4.143-3.357-7.499-7.499-7.499H156.905c-4.765,0-8.801-3.565-9.39-8.293l-7.526-60.454H372.01
		l-7.521,60.413c-0.592,4.752-4.648,8.334-9.436,8.334h-14.864c-4.143,0-7.499,3.357-7.499,7.499c0,4.143,3.357,7.499,7.499,7.499
		h14.864c12.339,0,22.794-9.234,24.319-21.479l7.752-62.266h11.436c8.401,0,15.599-5.997,17.112-14.261l7.176-39.132
		C424.427,366.251,417.809,358.327,409.069,358.327z M344.203,264.062c-3.251,0-4.241-1.971-11.428-6.804
		c-4.831-3.489-2.439-11.289,3.661-11.289c3.25,0,4.255,1.986,11.427,6.806c1.35,0.975,2.239,2.416,2.504,4.06
		C350.963,260.529,348.155,264.062,344.203,264.062z M249.766,238.039c0-3.438,2.796-6.233,6.232-6.233
		c3.438,0,6.232,2.797,6.232,6.233v13.224c0,3.438-2.796,6.232-6.232,6.232c-3.437,0-6.232-2.796-6.232-6.232L249.766,238.039
		L249.766,238.039z M266.283,358.327h-20.567v-10.603c0-5.67,4.613-10.283,10.283-10.283c5.67,0,10.284,4.613,10.284,10.283V358.327
		z M383.173,358.327h-20.567v-10.603c0-5.67,4.614-10.283,10.284-10.283s10.283,4.613,10.283,10.283V358.327z M164.135,252.775
		c6.725-4.375,8.378-7.371,12.433-6.725c5.465,0.883,7.13,7.976,2.654,11.207c-7.178,4.829-8.173,6.805-11.427,6.805
		c-3.449,0-5.166-2.671-5.065-2.586l-0.003-0.004C160.716,258.681,161.341,254.792,164.135,252.775z M128.824,347.724
		c0-5.67,4.614-10.283,10.284-10.283c5.67,0,10.283,4.613,10.283,10.283v10.603h-20.567V347.724z"/>
	<path style="fill:#474D54;" d="M255.999,207.662c87.411,0,135.027-101.645,80.807-168.855c-2.603-3.224-7.323-3.73-10.546-1.128
		c-3.224,2.601-3.729,7.321-1.129,10.545c46.387,57.501,5.633,144.44-69.133,144.44c-48.96,0-88.793-39.832-88.793-88.794
		c0-68.526,74.67-111.014,133.388-76.754c3.575,2.089,8.169,0.882,10.256-2.698c2.088-3.577,0.88-8.169-2.698-10.256
		c-68.648-40.059-155.945,9.586-155.945,89.708C152.208,161.102,198.768,207.662,255.999,207.662z"/>
</g>
<g>
</g>
<g>
</g>
<g>
</g>
<g>
</g>
<g>
</g>
<g>
</g>
<g>
</g>
<g>
</g>
<g>
</g>
<g>
</g>
<g>
</g>
<g>
</g>
<g>
</g>
<g>
</g>
<g>
</g>
</svg>
