<?xml version="1.0" encoding="iso-8859-1"?>
<!-- Generator: Adobe Illustrator 19.0.0, SVG Export Plug-In . SVG Version: 6.00 Build 0)  -->
<svg version="1.1" id="Capa_1" xmlns="http://www.w3.org/2000/svg" xmlns:xlink="http://www.w3.org/1999/xlink" x="0px" y="0px"
	 viewBox="0 0 512 512" style="enable-background:new 0 0 512 512;" xml:space="preserve">
<path style="fill:#ABFFDB;" d="M460.344,201.897c-0.87-167.828,4.026-164.135-9.058-179.972
	c-7.281-8.813-18.269-14.425-30.48-14.425C257.434,7.571,265.701,7.317,261.919,7.704c-19.772,2.024-35.511,18.848-35.511,39.333
	c0.142,176.157-2.07,159.966,6.189,176.013v-0.001c13.087,20.514,35.254,18.226,35.88,18.386h149.798
	c0.53-0.135,22.86,2.021,35.88-18.386v0.001C457.955,216.621,460.344,210.22,460.344,201.897z"/>
<path style="fill:#91DFBF;" d="M262.594,223.05L262.594,223.05c-4.023-6.804-6.189-13.15-6.189-21.154
	c0.863-166.47-3.674-163.05,7.881-178.477c7.318-9.769,18.89-15.92,31.656-15.92c-30.842,0.065-30.527-0.153-34.024,0.205
	c-19.982,2.046-35.511,19.049-35.511,39.333c0.043,173.708-2.025,160.864,6.189,176.013l0,0
	c13.087,20.514,35.254,18.226,35.88,18.385h27.466C281.965,241.435,269.629,234.077,262.594,223.05z"/>
<g>
	<path style="fill:#FFFFFF;" d="M325.121,176.424c-0.086,0-0.172-0.001-0.259-0.003c-3.996-0.076-7.751-1.919-10.257-5.031
		L282.7,131.754c-4.674-5.807-3.757-14.304,2.052-18.979c5.807-4.673,14.304-3.756,18.98,2.052l21.792,27.073l57.901-66.532
		c4.892-5.623,13.42-6.217,19.044-1.321c5.623,4.894,6.215,13.42,1.321,19.044l-68.487,78.697
		C332.738,174.736,329.022,176.424,325.121,176.424z"/>
	<path style="fill:#FFFFFF;" d="M292.475,380.233c7.492-7.492,7.492-19.641,0-27.133c-7.492-7.492-19.64-7.492-27.133,0l5.526-5.526
		c7.492-7.492,7.492-19.641,0-27.133c-7.492-7.492-19.641-7.492-27.133,0l5.201-5.201c7.355-7.355,7.901-19.34,0.813-26.953
		c-7.442-7.992-19.957-8.162-27.615-0.51l63.932-63.932c7.908-7.908,7.469-21.005-1.319-28.337
		c-7.662-6.392-19.038-5.572-26.093,1.483l-84.692,84.692c-1.723,1.723-4.658,0.482-4.644-1.954
		c0.177-29.792-5.146-43.27-5.72-44.948c-2.605-7.606-11.37-15.825-23.476-13.237c-9.445,1.816-15.804,10.727-14.457,20.25
		c2.679,18.952,2.368,38.124-2.812,56.868c-3.602,13.035-9.726,14.266-14.227,31.089c-2.414,9.022-2.601,16.863-2.228,22.607
		c0.414,6.374-1.867,12.629-6.383,17.145l-17.944,17.943c5.933,2.902,1.157,0.078,82.125,80.441
		c1.931,1.931,3.423,4.133,4.484,6.481l18.3-18.3c5.378-5.378,12.387-8.732,19.906-9.875c13.652-2.075,26.819-8.112,37.647-18.107
		C245.717,427.071,242.651,430.021,292.475,380.233z"/>
</g>
<path style="fill:#EAB883;" d="M132.176,225.248c-2.695,2.187-4.705,5.117-5.786,8.423
	C128.216,230.789,130.145,227.979,132.176,225.248z"/>
<path style="fill:#E4EAF8;" d="M107.717,333.63c-1.534,7.389-1.636,13.828-1.318,18.732c0.414,6.374-1.867,12.629-6.383,17.145
	L82.073,387.45c5.93,2.901,1.021-0.057,82.125,80.441c1.931,1.931,3.423,4.133,4.484,6.481l18.3-18.3
	c10.93-10.93,20.28-8.486,33.803-13.456C163.951,433.629,118.728,389.764,107.717,333.63z"/>
<path style="fill:#6DC296;" d="M165.196,497.973c8.583-8.583,8.583-22.498,0-31.082l-76.237-76.237
	c-8.583-8.583-22.498-8.583-31.082,0c-8.583,8.583-8.583,22.498,0,31.082l76.237,76.237
	C142.698,506.557,156.613,506.557,165.196,497.973z"/>
<path style="fill:#5FA77E;" d="M132.319,434.014l-43.361-43.361c-8.583-8.583-22.498-8.583-31.082,0
	c-8.583,8.583-8.583,22.498,0,31.082l43.36,43.36C97.027,446.456,113.657,429.798,132.319,434.014z"/>
<g>
	<path style="fill:#474D54;" d="M460.445,186.423c-4.143,0-7.499,3.357-7.499,7.499v7.975c0,17.667-14.372,32.039-32.039,32.039
		H286.683c2.127-2.794,12.494-9.212,12.603-23.463c0.19-24.117-28.96-35.654-45.832-18.784l-18.376,18.376
		c-1.895-7.098-0.703-1.042-1.07-120.888c0-4.143-3.357-7.499-7.499-7.499c-4.143,0-7.499,3.357-7.499,7.499
		c1.349,112.192-3.237,116.193,4.419,132.539l-46.716,46.716c-0.627-14.416-2.643-26.893-5.844-35.865l-0.074-0.211
		c-3.864-11.28-16.412-21.461-32.065-18.157c-13.343,2.606-22.293,15.174-20.389,28.651c2.577,18.18,2.199,36.399-2.615,53.82
		c-3.079,11.143-9.496,13.411-14.242,31.146c-5.955,22.258,1.5,28.222-6.669,36.389l-13.561,13.561
		c-9.864-2.665-20.849-0.142-28.578,7.585c-11.492,11.493-11.493,30.194,0,41.688l76.238,76.236
		c21.016,21.02,56.55,1.043,49.473-27.9c11.579-10.227,15.578-19.615,29.73-21.764c15.559-2.365,29.905-9.249,41.497-19.91
		c0.765-0.649,1.027-0.917,5.699-5.592c2.928-2.93,2.927-7.678-0.003-10.605c-2.931-2.93-7.679-2.927-10.605,0.003
		c-11.163,11.167-22.077,18.728-38.843,21.276c-19.95,3.032-26.989,16.208-35.082,22.986c-0.259-0.264,3.269,3.268-76.159-76.161
		c5.675-7.167,20.585-14.889,19.362-33.73c-0.441-6.812,0.229-13.603,1.989-20.186c4.182-15.623,10.159-16.36,14.211-31.029
		c5.445-19.71,5.848-39.91,3.008-59.916c-0.788-5.574,2.923-10.774,8.447-11.836c0.051-0.01,0.102-0.021,0.152-0.031
		c8.113-1.729,13.395,4.191,14.814,8.333l0.139,0.395c3.394,9.508,5.279,24.846,5.177,42.079
		c-0.055,9.108,10.977,13.765,17.446,7.302l84.693-84.692c7.322-7.322,19.753-2.847,20.217,7.454
		c0.137,3.053-0.941,6.323-3.412,8.793c-7.407,7.407-55.748,55.748-63.931,63.931c-2.928,2.929-2.929,7.676-0.001,10.604
		c2.929,2.93,7.676,2.932,10.604,0.004c2.264-2.262,5.236-3.45,8.476-3.419c10.451,0.191,15.185,12.814,7.724,20.274l-5.201,5.202
		c-2.929,2.929-2.929,7.677,0.001,10.605c2.93,2.928,7.676,2.929,10.605-0.001c2.207-2.208,5.142-3.424,8.264-3.424
		c3.121,0,6.056,1.216,8.263,3.425c2.208,2.207,3.424,5.142,3.424,8.264s-1.216,6.056-3.424,8.263l-5.526,5.526
		c-1.464,1.465-2.196,3.385-2.196,5.303s0.732,3.839,2.196,5.303c2.93,2.928,7.677,2.928,10.606,0c4.565-4.567,11.96-4.568,16.526,0
		c4.557,4.556,4.557,11.971,0.004,16.524l-17.823,17.814c-2.93,2.929-2.93,7.677-0.001,10.605s7.677,2.93,10.605,0.001
		l17.822-17.813c15.456-15.458,6.613-41.774-14.54-45.206c0.495-2.046,0.749-4.165,0.749-6.322c0-7.127-2.776-13.828-7.815-18.868
		c-4.024-4.025-9.108-6.605-14.622-7.482c3.39-13.747-4.466-27.192-17.141-31.549l27.174-27.174h149.222
		c25.936,0,47.038-21.102,47.038-47.038v-7.975C467.944,189.78,464.587,186.423,460.445,186.423z M159.995,472.194
		c9.191,9.184,2.51,24.718-10.238,24.718c-3.867,0-7.502-1.506-10.237-4.242l-76.238-76.236c-9.13-9.13-2.576-24.711,10.238-24.711
		c2.404,0,4.817,0.598,7.034,1.83C84.783,395.903,83.724,396.595,159.995,472.194z"/>
	<path style="fill:#474D54;" d="M420.906,0H266.047c-25.936,0-47.038,21.102-47.038,47.038v7.143c0,4.143,3.357,7.499,7.499,7.499
		c4.143,0,7.499-3.357,7.499-7.499v-7.143c0-17.667,14.372-32.039,32.039-32.039h154.859c17.667,0,32.039,14.372,32.039,32.039
		v111.888c0,4.143,3.357,7.499,7.499,7.499c4.143,0,7.499-3.357,7.499-7.499V47.038C467.944,21.102,446.844,0,420.906,0z"/>
</g>
<g>
</g>
<g>
</g>
<g>
</g>
<g>
</g>
<g>
</g>
<g>
</g>
<g>
</g>
<g>
</g>
<g>
</g>
<g>
</g>
<g>
</g>
<g>
</g>
<g>
</g>
<g>
</g>
<g>
</g>
</svg>
