<?xml version="1.0" encoding="iso-8859-1"?>
<!-- Generator: Adobe Illustrator 19.0.0, SVG Export Plug-In . SVG Version: 6.00 Build 0)  -->
<svg version="1.1" id="Capa_1" xmlns="http://www.w3.org/2000/svg" xmlns:xlink="http://www.w3.org/1999/xlink" x="0px" y="0px"
	 viewBox="0 0 512.001 512.001" style="enable-background:new 0 0 512.001 512.001;" xml:space="preserve">
<path style="fill:#FFFFFF;" d="M387.539,49.461c-35.071,0-271.531,0-326.334,0c-8.766,0-15.873,7.107-15.873,15.873
	c0,454.172-1.09,425.328,1.916,430.861c5.586,10.282,16.326,8,17.696,8.307c101.286,0,217.577,0,318.856,0
	c1.355-0.303,12.123,1.953,17.696-8.307c3.526-6.491,1.916,8.049,1.916-430.861C403.412,56.568,396.305,49.461,387.539,49.461z"/>
<g>
	<path style="fill:#E4EAF8;" d="M75.647,488.629c0-1.425,0-3.901,0-3.778c0-72.05,0-306.963,0-419.518
		c0-8.766,7.107-15.873,15.873-15.873c-5.031,0-18.423,0-30.314,0c-8.766,0-15.873,7.107-15.873,15.873c0,6.813,0,437.783,0,423.296
		c0,8.737,7.077,15.873,15.873,15.873c1.425,0,3.882,0,3.739,0H91.52C82.731,504.501,75.647,497.373,75.647,488.629z"/>
	<path style="fill:#E4EAF8;" d="M174.632,86.845c-6.326,0-87.856,0-85.872,0c-2.537,0-4.613,2.076-4.613,4.613v92.986
		c0,2.537,2.076,4.613,4.613,4.613c3.497,0,6.503,0,10,0c31.037,0,45.186,0,75.873,0c2.537,0,4.613-2.076,4.613-4.613V91.457
		C179.245,88.92,177.169,86.845,174.632,86.845z"/>
	<path style="fill:#E4EAF8;" d="M174.632,225.573c-15.566,0-65.827,0-85.872,0c-2.537,0-4.613,2.076-4.613,4.613v92.986
		c0,2.537,2.076,4.613,4.613,4.613c16.308,0,68.964,0,85.872,0c2.537,0,4.613-2.076,4.613-4.613v-92.986
		C179.245,227.648,177.169,225.573,174.632,225.573z"/>
	<path style="fill:#E4EAF8;" d="M174.632,364.301c-9.149,0-72.999,0-85.872,0c-2.537,0-4.613,2.076-4.613,4.613V461.9
		c0,2.537,2.076,4.613,4.613,4.613c3.497,0,6.503,0,10,0c31.037,0,45.186,0,75.873,0c2.537,0,4.613-2.076,4.613-4.613v-92.986
		C179.245,366.377,177.169,364.301,174.632,364.301z"/>
</g>
<g>
	<path style="fill:#C2C7D0;" d="M114.146,184.443V91.457c0-2.537,2.076-4.613,4.613-4.613c-1.332,0-31.218,0-29.999,0
		c-2.537,0-4.613,2.076-4.613,4.613v92.986c0,2.537,2.076,4.613,4.613,4.613h5c8.827,0,20.102,0,25,0
		C116.222,189.056,114.146,186.98,114.146,184.443z"/>
	<path style="fill:#C2C7D0;" d="M114.146,323.172v-92.986c0-2.537,2.076-4.613,4.613-4.613c-11.422,0-24.034,0-29.999,0
		c-2.537,0-4.613,2.076-4.613,4.613v92.986c0,2.537,2.076,4.613,4.613,4.613c3.635,0,25.396,0,29.999,0
		C116.222,327.784,114.146,325.709,114.146,323.172z"/>
	<path style="fill:#C2C7D0;" d="M114.146,461.9v-92.986c0-2.537,2.076-4.613,4.613-4.613c-11.422,0-24.034,0-29.999,0
		c-2.537,0-4.613,2.076-4.613,4.613V461.9c0,2.537,2.076,4.613,4.613,4.613c3.635,0,25.396,0,29.999,0
		C116.222,466.512,114.146,464.437,114.146,461.9z"/>
</g>
<path style="fill:#FEA82F;" d="M147.456,156.231h-31.519c-5.497,0-9.953,4.456-9.953,9.954v22.948h51.425v-22.948
	C157.408,160.687,152.952,156.231,147.456,156.231z"/>
<circle style="fill:#FFC850;" cx="131.698" cy="121.629" r="16.647"/>
<path style="fill:#91DFBF;" d="M147.456,294.958h-31.519c-5.497,0-9.953,4.456-9.953,9.954v22.948h51.425v-22.948
	C157.408,299.415,152.952,294.958,147.456,294.958z"/>
<circle style="fill:#FFC850;" cx="131.698" cy="260.356" r="16.647"/>
<path style="fill:#AFB5BC;" d="M147.456,433.686h-31.519c-5.497,0-9.953,4.456-9.953,9.954v22.948h51.425V443.64
	C157.408,438.142,152.952,433.686,147.456,433.686z"/>
<path style="fill:#FF9052;" d="M141.649,156.231h-25.713c-5.497,0-9.953,4.456-9.953,9.954v22.948h25.712v-22.948
	C131.696,160.687,136.152,156.231,141.649,156.231z"/>
<path style="fill:#48C397;" d="M141.649,294.959h-25.713c-5.497,0-9.953,4.456-9.953,9.954v22.948h25.712v-22.948
	C131.696,299.415,136.152,294.959,141.649,294.959z"/>
<path style="fill:#969A9F;" d="M141.649,433.686h-25.713c-5.497,0-9.953,4.456-9.953,9.954v22.948h25.712V443.64
	C131.696,438.142,136.152,433.686,141.649,433.686z"/>
<circle style="fill:#FFC850;" cx="131.698" cy="399.083" r="16.647"/>
<g>
	<path style="fill:#FEA82F;" d="M131.702,104.995c-12.693-0.019-20.869,13.795-14.424,24.958
		c4.597,7.962,14.778,10.691,22.741,6.094c2.629-1.518,4.673-3.652,6.086-6.106C133.3,129.921,125.305,116.114,131.702,104.995z"/>
	<path style="fill:#FEA82F;" d="M131.702,243.723c-12.693-0.019-20.869,13.794-14.424,24.958
		c6.447,11.166,22.498,10.985,28.825-0.012C133.301,268.65,125.304,254.844,131.702,243.723z"/>
	<path style="fill:#FEA82F;" d="M131.702,382.451c-12.695-0.019-20.868,13.796-14.424,24.958
		c4.597,7.963,14.778,10.691,22.741,6.094c2.629-1.518,4.673-3.652,6.086-6.106C133.3,407.378,125.305,393.569,131.702,382.451z"/>
</g>
<path style="fill:#ABFFDB;" d="M464.359,62.351l-5.195-5.065c-7.526-7.334-3.105-16.281-3.006-19.976
	c0.786-4.583-2.349-8.92-6.969-9.591c-3.525-1.04-13.507,0.333-18.133-9.041l-3.217-6.518c-2.062-4.178-7.152-5.832-11.276-3.664
	c-3.463,1.23-10.712,8.199-19.965,3.334l-6.342-3.334c-4.067-2.137-9.189-0.565-11.275,3.664
	c-2.101,3.069-3.879,13.02-14.238,14.525l-7.111,1.034c-4.612,0.67-7.757,5-6.969,9.592c0.097,3.641,4.477,12.683-3.006,19.976
	l-5.195,5.065c-3.337,3.251-3.336,8.604,0,11.856l5.195,5.064c7.525,7.335,3.105,16.281,3.006,19.977
	c-0.788,4.593,2.358,8.922,6.969,9.592c3.518,1.038,13.506-0.333,18.133,9.041l3.217,6.518c1.47,2.978,4.437,4.619,7.435,4.619
	c3.199,0,4.673-1.623,10.183-4.29c9.314-4.897,16.399,2.067,19.965,3.334c4.117,2.164,9.21,0.522,11.276-3.663l3.217-6.518
	c4.652-9.428,14.536-7.98,18.133-9.041c4.611-0.67,7.757-4.999,6.969-9.592l-1.204-7.02c-1.778-10.372,7.087-15.01,9.405-18.02
	C467.695,70.954,467.695,65.602,464.359,62.351z"/>
<path style="fill:#91DFBF;" d="M375.888,88.904c-15.61-27.036-7.472-61.249,17.921-78.54l-3.552-1.867
	c-4.067-2.137-9.189-0.565-11.275,3.664c-2.101,3.069-3.879,13.02-14.238,14.525l-7.111,1.033c-4.612,0.67-7.757,5-6.969,9.592
	c0.097,3.641,4.476,12.683-3.006,19.976l-5.195,5.065c-3.337,3.251-3.336,8.604,0,11.856l5.195,5.064
	c7.525,7.335,3.105,16.281,3.006,19.977c-0.788,4.593,2.358,8.922,6.969,9.592c3.518,1.038,13.506-0.333,18.133,9.041l3.217,6.518
	c1.47,2.978,4.437,4.62,7.435,4.62c3.199,0,4.673-1.623,10.183-4.29c9.314-4.897,16.399,2.067,19.965,3.334
	c4.117,2.164,9.21,0.522,11.276-3.663l2.953-5.983C409.099,119.717,387.494,109.005,375.888,88.904z"/>
<g>
	<path style="fill:#FEA82F;" d="M213.395,117.026h102.351c4.143,0,7.5-3.357,7.5-7.5c0-4.143-3.357-7.5-7.5-7.5H213.395
		c-4.143,0-7.5,3.357-7.5,7.5C205.895,113.669,209.252,117.026,213.395,117.026z"/>
	<path style="fill:#FEA82F;" d="M213.395,148.524h102.351c4.143,0,7.5-3.357,7.5-7.5c0-4.143-3.357-7.5-7.5-7.5H213.395
		c-4.143,0-7.5,3.357-7.5,7.5C205.895,145.167,209.252,148.524,213.395,148.524z"/>
	<path style="fill:#FEA82F;" d="M213.395,180.022H354.66c4.143,0,7.5-3.357,7.5-7.5s-3.357-7.5-7.5-7.5H213.395
		c-4.143,0-7.5,3.357-7.5,7.5S209.252,180.022,213.395,180.022z"/>
</g>
<g>
	<path style="fill:#92E0C0;" d="M213.395,255.753H354.66c4.143,0,7.5-3.357,7.5-7.5s-3.357-7.5-7.5-7.5H213.395
		c-4.143,0-7.5,3.357-7.5,7.5S209.252,255.753,213.395,255.753z"/>
	<path style="fill:#92E0C0;" d="M213.395,287.251H354.66c4.143,0,7.5-3.357,7.5-7.5s-3.357-7.5-7.5-7.5H213.395
		c-4.143,0-7.5,3.357-7.5,7.5S209.252,287.251,213.395,287.251z"/>
	<path style="fill:#92E0C0;" d="M213.395,318.75H354.66c4.143,0,7.5-3.357,7.5-7.5c0-4.143-3.357-7.5-7.5-7.5H213.395
		c-4.143,0-7.5,3.357-7.5,7.5C205.895,315.393,209.252,318.75,213.395,318.75z"/>
</g>
<g>
	<path style="fill:#ABB0B7;" d="M213.395,394.481H354.66c4.143,0,7.5-3.357,7.5-7.5c0-4.143-3.357-7.5-7.5-7.5H213.395
		c-4.143,0-7.5,3.357-7.5,7.5C205.895,391.124,209.252,394.481,213.395,394.481z"/>
	<path style="fill:#ABB0B7;" d="M213.395,425.98H354.66c4.143,0,7.5-3.357,7.5-7.5s-3.357-7.5-7.5-7.5H213.395
		c-4.143,0-7.5,3.357-7.5,7.5S209.252,425.98,213.395,425.98z"/>
	<path style="fill:#ABB0B7;" d="M213.395,457.478H354.66c4.143,0,7.5-3.357,7.5-7.5c0-4.143-3.357-7.5-7.5-7.5H213.395
		c-4.143,0-7.5,3.357-7.5,7.5C205.895,454.121,209.252,457.478,213.395,457.478z"/>
</g>
<g>
	<path style="fill:#474D54;" d="M427.257,51.252c-3.124-2.719-7.862-2.392-10.581,0.733l-19.91,22.878l-6.396-7.947
		c-2.599-3.227-7.32-3.737-10.546-1.14c-3.227,2.598-3.736,7.318-1.14,10.546L390.7,91.248c2.936,3.644,8.439,3.737,11.5,0.221
		l25.791-29.636C430.71,58.708,430.381,53.971,427.257,51.252z"/>
	<path style="fill:#474D54;" d="M464.303,51.915c-2.737-2.667-2.359-5.548-1.413-9.976c1.234-5.76,1.307-10.45-2.222-15.307
		c-7.701-10.596-19.166-3.539-22.982-11.275c-2.471-3.884-3.675-11.679-12.491-14.543c-12.376-4.022-17.623,8.36-25.201,4.378
		c-3.967-1.549-9.775-7.231-18.575-4.371c-12.438,4.047-9.329,17.204-17.85,18.441c-4.372,1.13-12.167-0.121-17.609,7.37
		c-3.503,4.82-3.464,9.453-2.22,15.328h-223.74c-4.143,0-7.5,3.357-7.5,7.5s3.357,7.5,7.5,7.5h217.148
		c-0.874,1.09-4.88,4.656-4.774,11.556c0.135,9.072,7.074,12.655,9.95,16.122c6.206,6.051-4.103,14.636,3.635,25.283
		c3.513,4.834,7.944,6.216,13.83,6.839c4.572,0.485,7.469,1.025,9.152,4.437l3.217,6.517c2.949,5.975,9.258,9.5,16.069,8.677
		c2.904-0.349,5.073-1.449,7.586-2.837v355.075c0,4.617-3.756,8.373-8.373,8.373h-30.077c-4.143,0-7.5,3.357-7.5,7.5
		s3.357,7.5,7.5,7.5h30.077c12.888,0,23.373-10.485,23.373-23.373V133.621c10.646,6.03,19.98,1.539,23.655-5.906l3.217-6.519
		c3.749-7.596,15.353-0.773,22.982-11.276c5.424-7.464,1.846-14.611,1.582-18.963c-1.451-8.458,12.015-9.61,12.015-22.683
		C474.265,59.051,467.106,55.312,464.303,51.915z M447.467,93.494l1.203,7.019c0.531,3.035-16.609-1.811-24.435,14.047
		c-4.176,8.249-2.965,7.248-5.183,6.462c-0.279-0.118-1.068-0.575-1.645-0.908c-12.344-7.147-18.818-5.222-28.709,0.235
		c-2.036,1.125-2.467,1.367-2.908,0.969c-0.208-0.188-0.034,0.006-3.396-6.759c-7.233-14.656-22.999-11.664-24.3-13.455
		c-1.218-1.677,6.441-15.762-5.298-27.204l-5.196-5.065c-1.135-1.107,1.753-2.254,6.347-7.385
		c9.887-11.034,3.028-24.466,4.148-25.997c0.341-0.469,0.222-0.19,7.631-1.345c16.267-2.364,18.22-18.335,20.332-19.021
		c0.641-0.204,0.612,0.187,6.955,3.383c14.507,7.626,25.564-4.022,27.548-3.389c0.555,0.181,0.252,0.158,3.674,6.915
		c7.251,14.7,23.083,11.781,24.299,13.455c1.209,1.661-6.453,15.752,5.299,27.205l5.195,5.064l0.001,0.001
		C461.256,69.894,444.466,75.994,447.467,93.494z"/>
	<path style="fill:#474D54;" d="M322.365,497.001H61.109c-4.617,0-8.373-3.756-8.373-8.373V65.334c0-4.617,3.756-8.373,8.373-8.373
		h23.896c4.143,0,7.5-3.357,7.5-7.5s-3.357-7.5-7.5-7.5H61.109c-12.888,0-23.373,10.485-23.373,23.373v423.295
		c0,12.888,10.485,23.373,23.373,23.373h261.257c4.143,0,7.5-3.357,7.5-7.5S326.508,497.001,322.365,497.001z"/>
</g>
<g>
</g>
<g>
</g>
<g>
</g>
<g>
</g>
<g>
</g>
<g>
</g>
<g>
</g>
<g>
</g>
<g>
</g>
<g>
</g>
<g>
</g>
<g>
</g>
<g>
</g>
<g>
</g>
<g>
</g>
</svg>
