<?xml version="1.0" encoding="iso-8859-1"?>
<!-- Generator: Adobe Illustrator 19.0.0, SVG Export Plug-In . SVG Version: 6.00 Build 0)  -->
<svg version="1.1" id="Capa_1" xmlns="http://www.w3.org/2000/svg" xmlns:xlink="http://www.w3.org/1999/xlink" x="0px" y="0px"
	 viewBox="0 0 511.999 511.999" style="enable-background:new 0 0 511.999 511.999;" xml:space="preserve">
<path style="fill:#AFB5BC;" d="M367.558,7.5H144.44c-23.131,0-41.95,18.818-41.95,41.95c0,17.084,0,394.269,0,413.099
	c0,23.131,18.818,41.951,41.95,41.951h223.118c23.131,0,41.951-18.819,41.951-41.951c0-11.391,0-409.177,0-413.099
	C409.508,26.319,390.689,7.5,367.558,7.5z"/>
<path style="fill:#969A9F;" d="M129.654,462.549c0-11.391,0-409.178,0-413.099c0-23.131,18.819-41.95,41.95-41.95H144.44
	c-23.131,0-41.95,18.818-41.95,41.95c0,17.084,0,394.269,0,413.099c0,23.131,18.818,41.951,41.95,41.951h27.164
	C148.472,504.5,129.654,485.68,129.654,462.549z"/>
<path style="fill:#FFFFFF;" d="M367.558,34.502h-39.16c-4.636,0-8.395,3.758-8.395,8.395v7.356c0,6.6-5.4,12.001-12.001,12.001
	H203.996c-6.6,0-12.001-5.4-12.001-12.001v-7.46c0-4.579-3.712-8.292-8.29-8.292H144.44c-8.255,0-14.948,6.692-14.948,14.949
	c0,9.472,0,420.56,0,413.099c0,8.255,6.692,14.949,14.949,14.949h223.117c8.257,0,14.949-6.693,14.949-14.949
	c0-13.961,0-426.671,0-413.098C382.507,41.194,375.814,34.502,367.558,34.502z"/>
<path style="fill:#E4EAF8;" d="M159.406,462.549c0-11.391,0-409.177,0-413.098c0-8.256,6.692-14.949,14.949-14.949h-29.914
	c-8.255,0-14.948,6.692-14.948,14.949c0,3.838,0,401.731,0,413.098c0,8.255,6.692,14.949,14.949,14.949h29.914
	C166.099,477.498,159.406,470.805,159.406,462.549z"/>
<path style="fill:#ABFFDB;" d="M306.979,346.468h-101.96c-14.318,0-26.033-11.715-26.033-26.033v-101.96
	c0-14.318,11.715-26.033,26.033-26.033h101.96c14.318,0,26.033,11.715,26.033,26.033v101.96
	C333.012,334.754,321.297,346.468,306.979,346.468z"/>
<path style="fill:#91DFBF;" d="M208.988,320.436V218.475c0-14.318,11.715-26.033,26.033-26.033h-30.002
	c-14.318,0-26.033,11.715-26.033,26.033v101.96c0,14.318,11.715,26.033,26.033,26.033h30.002
	C220.703,346.468,208.988,334.753,208.988,320.436z"/>
<g>
	<path style="fill:#474D54;" d="M256.53,42.003c4.143,0,7.5-3.357,7.5-7.5s-3.357-7.5-7.5-7.5h-33.336c-4.143,0-7.5,3.357-7.5,7.5
		c0,4.143,3.357,7.5,7.5,7.5H256.53z"/>
	<path style="fill:#474D54;" d="M281.663,41.432c0.45,0.18,0.92,0.33,1.4,0.42c0.489,0.1,0.979,0.15,1.47,0.15
		s0.979-0.051,1.46-0.15c0.479-0.09,0.95-0.24,1.41-0.42c0.45-0.19,0.88-0.42,1.29-0.69c0.41-0.279,0.79-0.59,1.14-0.939
		c1.4-1.391,2.2-3.32,2.2-5.3c0-0.49-0.05-0.98-0.15-1.46c-0.1-0.48-0.24-0.961-0.43-1.41c-0.19-0.45-0.42-0.891-0.69-1.29
		c-0.27-0.41-0.58-0.8-0.93-1.141c-1.74-1.75-4.33-2.55-6.77-2.05c-0.48,0.09-0.95,0.24-1.4,0.42c-0.45,0.19-0.89,0.42-1.3,0.69
		c-0.41,0.28-0.79,0.59-1.141,0.939c-0.34,0.341-0.659,0.73-0.93,1.141c-0.27,0.399-0.5,0.84-0.689,1.29
		c-0.181,0.449-0.33,0.93-0.431,1.41c-0.09,0.479-0.14,0.97-0.14,1.46c0,1.979,0.8,3.909,2.189,5.3
		c0.351,0.35,0.73,0.66,1.141,0.939C280.773,41.011,281.213,41.24,281.663,41.432z"/>
</g>
<path style="fill:#FFFFFF;" d="M295.265,241.733c-3.124-2.719-7.862-2.392-10.582,0.733l-32.523,37.372l-12.273-15.247
	c-2.599-3.227-7.32-3.737-10.547-1.14c-3.227,2.598-3.736,7.319-1.14,10.547l17.892,22.227c2.928,3.636,8.435,3.742,11.501,0.221
	l38.405-44.132C298.719,249.189,298.39,244.452,295.265,241.733z"/>
<g>
	<path style="fill:#ABB0B7;" d="M217.556,414.305c-4.143,0-7.5,3.357-7.5,7.5s3.357,7.5,7.5,7.5h0.25c4.143,0,7.5-3.357,7.5-7.5
		s-3.357-7.5-7.5-7.5H217.556z"/>
	<path style="fill:#ABB0B7;" d="M248.229,421.806c0,4.143,3.357,7.5,7.5,7.5h0.542c4.143,0,7.5-3.357,7.5-7.5
		C263.771,411.807,248.229,411.793,248.229,421.806z"/>
	<path style="fill:#ABB0B7;" d="M294.193,429.306h0.25c4.143,0,7.5-3.357,7.5-7.5s-3.357-7.5-7.5-7.5h-0.25
		c-4.143,0-7.5,3.357-7.5,7.5S290.05,429.306,294.193,429.306z"/>
	<path style="fill:#ABB0B7;" d="M186.402,125.444h140.256c4.143,0,7.5-3.357,7.5-7.5s-3.357-7.5-7.5-7.5H186.402
		c-4.143,0-7.5,3.357-7.5,7.5S182.259,125.444,186.402,125.444z"/>
	<path style="fill:#ABB0B7;" d="M186.402,161.444h140.256c4.143,0,7.5-3.357,7.5-7.5c0-4.143-3.357-7.5-7.5-7.5H186.402
		c-4.143,0-7.5,3.357-7.5,7.5C178.901,158.087,182.259,161.444,186.402,161.444z"/>
</g>
<path style="fill:#474D54;" d="M409.508,411.806c4.143,0,7.5-3.357,7.5-7.5V49.45c0-27.267-22.183-49.45-49.451-49.45H144.44
	c-27.268,0-49.45,22.183-49.45,49.45v413.099c0,27.268,22.183,49.45,49.45,49.45h223.118c27.268,0,49.451-22.183,49.451-49.45
	v-23.241c0-4.143-3.357-7.5-7.5-7.5c-4.143,0-7.5,3.357-7.5,7.5v23.241c0,18.995-15.454,34.449-34.45,34.449H144.44
	c-18.995,0-34.449-15.454-34.449-34.449V49.45c0-18.995,15.454-34.449,34.449-34.449h223.118c18.996,0,34.45,15.454,34.45,34.449
	v354.855C402.008,408.449,405.366,411.806,409.508,411.806z"/>
<g>
</g>
<g>
</g>
<g>
</g>
<g>
</g>
<g>
</g>
<g>
</g>
<g>
</g>
<g>
</g>
<g>
</g>
<g>
</g>
<g>
</g>
<g>
</g>
<g>
</g>
<g>
</g>
<g>
</g>
</svg>
