<?xml version="1.0" encoding="iso-8859-1"?>
<!-- Generator: Adobe Illustrator 19.0.0, SVG Export Plug-In . SVG Version: 6.00 Build 0)  -->
<svg version="1.1" id="Capa_1" xmlns="http://www.w3.org/2000/svg" xmlns:xlink="http://www.w3.org/1999/xlink" x="0px" y="0px"
	 viewBox="0 0 511.999 511.999" style="enable-background:new 0 0 511.999 511.999;" xml:space="preserve">
<path style="fill:#FEA82F;" d="M371.853,27.811c-10.739,0-261.084,0-274.957,0c-18.118,0-32.942,14.824-32.942,32.942
	c0,3.482,0,320.931,0,334.744v63.326c0,18.118,14.823,32.942,32.942,32.942h7.544c29.024,0,235.342,0,267.414,0
	c18.118,0,32.942-14.824,32.942-32.942c0-12.063,0-387.456,0-398.07C404.796,42.634,389.971,27.811,371.853,27.811z"/>
<path style="fill:#FF8031;" d="M91.589,458.822v-63.326c0-13.813,0-331.262,0-334.744c0-18.118,14.823-32.942,32.942-32.942
	c-6.482,0-21.156,0-27.634,0c-18.118,0-32.942,14.824-32.942,32.942c0,3.482,0,320.931,0,334.744v63.326
	c0,18.118,14.823,32.942,32.942,32.942c6.479,0,21.155,0,27.634,0C106.413,491.765,91.589,476.941,91.589,458.822z"/>
<path style="fill:#FFFFFF;" d="M365.001,55.014c-19.111,0-180.07,0-185.435,0h-11.995c-68.901,0.089-66.253-0.943-70.683,2.056
	c-2.742,1.855-4.466,4.687-5.048,7.529c-0.406,1.967-0.238,388.488-0.163,389.112c0.706,6.028,5.614,8.819,5.211,8.547
	c4.793,3.244-8.069,2.056,192.129,2.056c25.36,0,54.493,0,75.983,0c6.597,0,11.995-5.398,11.995-11.995c0-12.306,0-361.17,0-385.309
	C376.996,60.411,371.599,55.014,365.001,55.014z"/>
<path style="fill:#E4EAF8;" d="M121.576,452.318c0.474-413.963-2.496-388.405,4.02-394.233c2.33-2.088,5.148-3.072,7.974-3.072
	c-31.687,0.084-30.286-0.19-32.397,0.245c-4.618,0.952-8.358,4.606-9.333,9.34c-0.62,3.003-0.063-13.569-0.253,387.72
	c0,7.213,6.267,10.593,5.301,9.939c4.032,2.73,3.536,2.033,36.681,2.056C126.794,464.313,121.576,458.71,121.576,452.318z"/>
<path style="fill:#ABFFDB;" d="M445.795,444.624l-4.671-4.554c-6.767-6.595-2.792-14.64-2.703-17.962
	c0.707-4.121-2.112-8.021-6.266-8.624c-3.17-0.935-12.146,0.3-16.305-8.129l-2.893-5.86c-1.854-3.756-6.431-5.244-10.139-3.295
	c-3.114,1.105-9.632,7.373-17.952,2.998l-5.703-2.998c-3.657-1.922-8.262-0.508-10.139,3.295
	c-1.889,2.76-3.488,11.708-12.802,13.061l-6.395,0.93c-4.147,0.603-6.975,4.496-6.266,8.625c0.088,3.274,4.025,11.405-2.703,17.962
	l-4.672,4.554c-3.001,2.924-3,7.738,0,10.66l4.671,4.554c6.766,6.595,2.792,14.64,2.703,17.963c-0.709,4.13,2.12,8.022,6.266,8.625
	c3.164,0.934,12.145-0.3,16.305,8.129c1.917,2.79,2.911,10.015,9.578,10.015c2.877,0,4.202-1.459,9.157-3.857
	c8.375-4.404,14.746,1.859,17.952,2.998c3.701,1.946,8.281,0.47,10.139-3.294l2.893-5.86c4.183-8.477,13.07-7.176,16.305-8.129
	c4.146-0.603,6.975-4.495,6.266-8.625l-1.083-6.312c-1.599-9.327,6.372-13.497,8.457-16.204
	C448.795,452.36,448.795,447.547,445.795,444.624z"/>
<path style="fill:#E4EAF8;" d="M289.019,7.605H179.567c-6.597,0-11.995,5.398-11.995,11.995c0,0.503,0,17.127,0,16.424
	c0,0.184,0,7.402,0,6.997c0,6.597,5.398,11.995,11.995,11.995h109.452c6.597,0,11.995-5.398,11.995-11.995c0-0.153,0-7.452,0-6.997
	c0-0.23,0-9.78,0-9.427v-6.997C301.014,13.002,295.616,7.605,289.019,7.605z"/>
<path style="fill:#C2C7D0;" d="M197.559,43.019c0-0.219,0-15.771,0-15.208c0-0.188,0-8.664,0-8.211
	c0-6.597,5.398-11.995,11.995-11.995h-29.987c-6.597,0-11.995,5.398-11.995,11.995c0,0.503,0,17.127,0,16.424
	c0,0.184,0,7.402,0,6.997c0,6.597,5.398,11.995,11.995,11.995h29.987C202.957,55.014,197.559,49.616,197.559,43.019z"/>
<path style="fill:#91DFBF;" d="M384.29,398.894l-5.128-2.696c-3.656-1.922-8.262-0.508-10.139,3.295
	c-1.889,2.76-3.488,11.708-12.802,13.061l-6.395,0.93c-4.147,0.603-6.975,4.496-6.266,8.625c0.088,3.274,4.025,11.404-2.703,17.962
	l-4.672,4.554c-3.001,2.924-3,7.737,0,10.66l4.671,4.554c6.766,6.596,2.792,14.64,2.703,17.963c-0.709,4.13,2.12,8.022,6.266,8.624
	c3.164,0.934,12.145-0.3,16.305,8.129c1.917,2.79,2.911,10.015,9.578,10.015c2.877,0,4.202-1.459,9.156-3.857
	c8.375-4.404,14.746,1.859,17.952,2.998c3.701,1.946,8.281,0.47,10.139-3.294l2.12-4.295
	C365.123,493.105,345.249,429.911,384.29,398.894z"/>
<path style="fill:#FFFFFF;" d="M413.011,433.969c-3.123-2.717-7.859-2.39-10.576,0.733l-17.312,19.892l-5.188-6.445
	c-2.598-3.226-7.317-3.735-10.541-1.139c-3.226,2.597-3.734,7.316-1.139,10.541l10.804,13.422c2.926,3.633,8.43,3.741,11.495,0.221
	l23.192-26.648C416.463,441.422,416.134,436.686,413.011,433.969z"/>
<g>
	<path style="fill:#ABB0B7;" d="M319.94,148.846H179.754c-4.141,0-7.497,3.357-7.497,7.497s3.356,7.497,7.497,7.497H319.94
		c4.141,0,7.497-3.357,7.497-7.497S324.081,148.846,319.94,148.846z"/>
	<path style="fill:#ABB0B7;" d="M319.94,184.828H179.754c-4.141,0-7.497,3.357-7.497,7.497s3.356,7.497,7.497,7.497H319.94
		c4.141,0,7.497-3.357,7.497-7.497S324.081,184.828,319.94,184.828z"/>
	<path style="fill:#ABB0B7;" d="M319.94,256.794H179.754c-4.141,0-7.497,3.357-7.497,7.497c0,4.141,3.356,7.497,7.497,7.497H319.94
		c4.141,0,7.497-3.356,7.497-7.497S324.081,256.794,319.94,256.794z"/>
	<path style="fill:#ABB0B7;" d="M319.94,220.811H179.754c-4.141,0-7.497,3.357-7.497,7.497s3.356,7.497,7.497,7.497H319.94
		c4.141,0,7.497-3.357,7.497-7.497S324.081,220.811,319.94,220.811z"/>
	<path style="fill:#ABB0B7;" d="M319.94,292.776H179.754c-4.141,0-7.497,3.355-7.497,7.497c0,4.141,3.356,7.497,7.497,7.497H319.94
		c4.141,0,7.497-3.355,7.497-7.497C327.437,296.131,324.081,292.776,319.94,292.776z"/>
	<path style="fill:#ABB0B7;" d="M319.94,364.741H179.754c-4.141,0-7.497,3.357-7.497,7.497c0,4.141,3.356,7.497,7.497,7.497H319.94
		c4.141,0,7.497-3.355,7.497-7.497C327.437,368.096,324.081,364.741,319.94,364.741z"/>
	<path style="fill:#ABB0B7;" d="M319.94,328.759H179.754c-4.141,0-7.497,3.356-7.497,7.497s3.356,7.497,7.497,7.497H319.94
		c4.141,0,7.497-3.355,7.497-7.497S324.081,328.759,319.94,328.759z"/>
	<path style="fill:#ABB0B7;" d="M144.611,162.577c2.904,1.963,6.924,1.6,9.456-0.93c1.435-1.437,2.198-3.394,2.198-5.308
		c0-3.472-2.395-6.588-6.037-7.347c-2.629-0.52-5.2,0.447-6.757,2.049c-1.65,1.651-2.55,4.087-2.059,6.767
		C141.841,159.881,143.031,161.528,144.611,162.577z"/>
	<path style="fill:#ABB0B7;" d="M142.531,196.482c3.432,5.041,10.975,4.168,13.153-1.289c0.403-0.952,0.58-1.955,0.58-2.869
		c0-2.362-1.119-4.721-3.339-6.237c-0.807-0.545-1.787-0.939-2.699-1.11c-2.428-0.507-5.061,0.304-6.757,2.049
		c-1.624,1.613-2.557,4.052-2.059,6.767C141.511,194.264,142.027,195.737,142.531,196.482z"/>
	<path style="fill:#ABB0B7;" d="M145.9,271.21c0.859,0.362,1.866,0.58,2.868,0.58c0.98,0,1.974-0.211,2.869-0.58
		c0.974-0.412,1.775-0.968,2.43-1.619c1.702-1.703,2.564-4.239,2.049-6.767c-0.154-0.825-0.552-1.853-1.11-2.699
		c-2.778-4.064-8.327-4.347-11.535-1.14c-0.737,0.739-1.24,1.521-1.629,2.439c-0.367,0.872-0.57,1.843-0.57,2.869
		c0,1.969,0.801,3.897,2.199,5.298C144.122,270.243,144.904,270.788,145.9,271.21z"/>
	<path style="fill:#ABB0B7;" d="M144.611,222.071c-1.631,1.087-2.769,2.742-3.199,4.768c-0.494,2.697,0.423,5.142,2.059,6.767
		c1.267,1.305,3.253,2.199,5.298,2.199c5.359,0,8.977-5.496,6.917-10.365C153.943,221.075,148.457,219.471,144.611,222.071z"/>
	<path style="fill:#ABB0B7;" d="M141.411,298.808c-0.496,2.648,0.404,5.111,2.059,6.767c2.903,2.903,7.655,2.933,10.596,0
		c2.89-2.89,2.962-7.637,0-10.605C149.886,290.792,142.64,292.884,141.411,298.808z"/>
	<path style="fill:#ABB0B7;" d="M143.47,366.937c-2.949,2.951-2.907,7.708,0,10.596c2.835,2.916,7.742,2.928,10.596,0
		c2.527-2.511,2.923-6.527,0.939-9.456C152.257,364.055,146.639,363.677,143.47,366.937z"/>
	<path style="fill:#ABB0B7;" d="M141.271,336.252c0,1.978,0.801,3.907,2.199,5.308c1.321,1.321,3.204,2.189,5.298,2.189
		c5.958,0,9.55-6.632,6.237-11.655C150.714,325.813,141.271,329.063,141.271,336.252z"/>
</g>
<path style="fill:#474D54;" d="M451.026,439.148l-4.673-4.556c-5.029-4.902,3.876-12.918-3.184-22.636
	c-2.289-3.151-5.629-5.24-9.447-5.922c-4.227-1.04-9.143-0.034-11.153-4.107c-2.29-3.738-3.261-9.864-10.278-12.929V173.704
	c0-4.14-3.356-7.497-7.497-7.497s-7.497,3.357-7.497,7.497v216.767c-3.384,1.923-5.876,3.595-8.946,1.981l-3.86-2.029V66.901
	c0-10.748-8.744-19.491-19.491-19.491h-57.037c0.869-3.657,0.419-5.46,0.545-12.21h63.344c14.031,0,25.446,11.415,25.446,25.446
	v78.336c0,4.14,3.355,7.497,7.497,7.497s7.497-3.357,7.497-7.497V60.645c0-22.298-18.141-40.439-40.439-40.439h-63.344v-0.715
	C308.507,8.744,299.763,0,289.016,0h-54.483c-4.141,0-7.497,3.357-7.497,7.497s3.356,7.497,7.497,7.497h54.483
	c2.438,0,4.498,2.06,4.498,4.498c0,8.107,0,15.317,0,23.421c0,2.438-2.06,4.498-4.498,4.498c-13.847,0-95.819,0-109.452,0
	c-2.438,0-4.498-2.06-4.498-4.498c0-8.102,0-15.313,0-23.421c0-2.438,2.06-4.498,4.498-4.498h19.984
	c4.141,0,7.497-3.357,7.497-7.497S203.69,0,199.549,0h-19.984c-10.747,0-19.491,8.744-19.491,19.491v0.715H96.895
	c-22.298,0-40.439,18.141-40.439,40.439v398.07c0,22.298,18.141,40.439,40.439,40.439h34.38c4.141,0,7.497-3.356,7.497-7.497
	s-3.356-7.497-7.497-7.497h-34.38c-14.031,0-25.446-11.415-25.446-25.446V60.645c0-14.031,11.415-25.446,25.446-25.446h63.178
	c0.125,6.674-0.329,8.532,0.545,12.21h-57.037c-10.715,0-19.491,8.735-19.491,19.491c0.036,403.529-0.092,385.406,0.102,387.293
	c1.012,9.887,9.39,17.508,19.389,17.508h233.43c-0.763,4.228-1.875,7.799-0.13,12.458H166.259c-4.141,0-7.497,3.356-7.497,7.497
	s3.356,7.497,7.497,7.497h193.832c1.13,1.464,3.842,12.804,15.616,12.804c4.739,0,7.367-1.974,12.644-4.719
	c6.193-3.26,11.148,7.691,22.545,3.984c8.258-2.682,9.572-10.176,11.673-13.459c3.141-6.365,13.511-0.271,20.601-10.032
	c5.103-7.024,1.772-13.861,1.554-17.62c-0.781-4.55,3.746-6.47,6.654-9.926C457.044,454.295,456.933,444.907,451.026,439.148z
	 M190.462,62.403h87.659V72.64c0,3.093-2.516,5.608-5.608,5.608h-76.444c-3.093,0-5.608-2.516-5.608-5.608L190.462,62.403
	L190.462,62.403z M338.077,413.07c-5.709,9.521,2.462,16.732-2.454,21.524l-4.67,4.553c-5.157,5.024-5.574,12.331-2.855,17.562
	c-240.354-0.033-225.259,0.419-227.007-0.767c-1.226-0.831-2.007-2.197-2.007-3.731c0.07-398.598-1.226-387.301,2.38-389.268
	c2.188-1.19,0.302-0.21,74.004-0.539v10.236c0,11.36,9.242,20.601,20.601,20.601h76.444c11.359,0,20.601-9.242,20.601-20.601V62.403
	H365c2.438,0,4.498,2.059,4.498,4.498v322.192c-9.79,4.435-7.693,14.965-14.356,15.934C350.51,406.053,342.869,405.1,338.077,413.07
	z M439.907,450.533c-2.274,2.444-12.213,8.976-9.962,22.114l1.129,6.251c-0.322,0.047-0.641,0.114-0.953,0.202
	c-3.362,0.647-15.122,0.125-20.998,12.029l-2.82,5.837c-0.289-0.153-0.589-0.286-0.896-0.399c-0.26-0.121-0.899-0.491-1.371-0.765
	c-15.333-8.875-22.261-1.493-28.318,1.135c-2.469-2.78-3.168-15.321-20.928-17.493c-2.631-0.319-0.814-0.045-3.843-0.485
	c0.054-0.317,0.088-0.639,0.102-0.96c0.415-3.287,4.53-14.386-4.961-23.637l-4.671-4.478l4.672-4.554
	c7.856-7.659,6.424-15.282,4.813-24.537l6.394-0.93c11.632-1.689,14.941-10.13,18.392-17.129l5.685,2.988
	c11.702,6.155,21.025-1.205,24.056-2.607c0.284-0.105,0.557-0.225,0.826-0.365l2.869,5.811
	c5.215,10.568,14.378,11.076,21.905,12.169c-0.055,0.319-0.089,0.642-0.103,0.965c-0.035,0.278-0.185,0.977-0.295,1.49
	c-0.978,4.572-3.013,14.087,5.256,22.143l4.633,4.518C440.303,450.062,440.098,450.292,439.907,450.533z"/>
<g>
</g>
<g>
</g>
<g>
</g>
<g>
</g>
<g>
</g>
<g>
</g>
<g>
</g>
<g>
</g>
<g>
</g>
<g>
</g>
<g>
</g>
<g>
</g>
<g>
</g>
<g>
</g>
<g>
</g>
</svg>
