<?xml version="1.0" encoding="iso-8859-1"?>
<!-- Generator: Adobe Illustrator 19.0.0, SVG Export Plug-In . SVG Version: 6.00 Build 0)  -->
<svg version="1.1" id="Capa_1" xmlns="http://www.w3.org/2000/svg" xmlns:xlink="http://www.w3.org/1999/xlink" x="0px" y="0px"
	 viewBox="0 0 512.001 512.001" style="enable-background:new 0 0 512.001 512.001;" xml:space="preserve">
<path style="fill:#FFFFFF;" d="M358.997,7.528H77.775c-9.574,0-17.335,7.761-17.335,17.335c0,100.048,0,479.637,0,462.304
	c0,9.574,7.761,17.335,17.335,17.335h352.323c9.284,0,17.165-5.918,20.136-14.178c0.04-0.108,0.082-0.215,0.119-0.324
	c0.142-0.415,0.268-0.837,0.384-1.264c0.061-0.221,0.118-0.444,0.172-0.668c0.088-0.371,0.172-0.743,0.241-1.122
	c0.058-0.316,0.102-0.636,0.146-0.956c0.043-0.315,0.092-0.627,0.121-0.945c0.053-0.573,0.081-1.154,0.088-1.74
	c0.001-0.074,0.011-0.147,0.011-0.222c0-0.014,0-0.028,0-0.043c0-6.631,0-380.428,0-380.267c0-10.823-5.299-20.202-12.952-27.855
	l-56.368-56.367C375.779,12.133,368.074,7.528,358.997,7.528z"/>
<path style="fill:#E4EAF8;" d="M90.472,487.165c0-139.813,0-310.86,0-462.304c0-9.573,7.761-17.334,17.335-17.334H77.775
	c-9.574,0-17.335,7.761-17.335,17.334c0,98.96,0,363.778,0,462.304c0,9.574,7.761,17.335,17.335,17.335h30.033
	C98.234,504.5,90.472,496.739,90.472,487.165z"/>
<g>
	<path style="fill:#6DC296;" d="M103.84,407.399c0,4.54,3.715,8.254,8.254,8.254h113.225c4.54,0,8.254-3.715,8.254-8.254v-31.539
		H103.84V407.399z"/>
	<path style="fill:#6DC296;" d="M275.583,407.399c0,4.54,3.715,8.254,8.254,8.254h113.225c4.54,0,8.254-3.715,8.254-8.254v-31.539
		H275.583V407.399z"/>
</g>
<path style="fill:#F9F6ED;" d="M447.841,85.87L447.841,85.87c-5.086-10.822-7.262-10.233-64.643-68.32
	c-3.6-3.207-4.34-4.087-10.024-6.941l0,0c-9.3-4.234-16.408-2.783-21.056-3.083c0,0,21.056,2.299,21.056,24.799
	c0,35.195-0.123,33.331,0.366,35.989c1.819,9.958,10.542,17.555,21.052,17.555h31.383c4.507,0.088,25.541,1.74,25.541,24.956
	C451.167,105.451,452.883,96.947,447.841,85.87z"/>
<path style="fill:#E4EAF8;" d="M402.173,64.409V36.527c-19.758-19.592-21.181-22.242-29-25.917l0,0
	c-9.3-4.234-16.408-2.783-21.056-3.083c0,0,21.056,2.299,21.056,24.799c0.011,35.36-0.207,33.688,0.607,37.11
	c2.278,9.428,10.698,16.434,20.812,16.434h29C411.679,85.87,402.173,76.14,402.173,64.409z"/>
<path style="fill:#FFC850;" d="M280.491,144.218c-23.41,13.516-53.453,5.466-66.969-17.944
	c-13.516-23.411-5.467-53.454,17.944-66.97s53.454-5.466,66.97,17.945C311.951,100.66,303.901,130.702,280.491,144.218z"/>
<g>
	<path style="fill:#FEA82F;" d="M237.14,112.638c-11.15-19.313-7.613-43.13,7.106-58.468c-4.38,1.077-8.684,2.768-12.782,5.134
		c-23.41,13.516-31.46,43.558-17.944,66.97c13.516,23.41,43.558,31.46,66.969,17.944c4.098-2.366,7.714-5.247,10.837-8.502
		C270.686,140.794,248.291,131.95,237.14,112.638z"/>
	<path style="fill:#FEA82F;" d="M245.103,82.922c-10.387,5.997-13.959,19.326-7.961,29.714c5.997,10.387,19.326,13.959,29.713,7.962
		c10.387-5.997,13.959-19.326,7.962-29.713C268.819,80.497,255.49,76.925,245.103,82.922z"/>
</g>
<path style="fill:#FF9052;" d="M255.984,80.019c-3.701-0.007-7.452,0.923-10.882,2.904c-10.387,5.997-13.959,19.326-7.961,29.714
	c5.997,10.387,19.326,13.959,29.713,7.962c3.43-1.98,6.111-4.763,7.956-7.972C258.096,112.594,247.619,94.575,255.984,80.019z"/>
<g>
	<path style="fill:#5FA77E;" d="M112.094,415.653h28.446v-39.793h-36.7v31.539C103.84,411.938,107.554,415.653,112.094,415.653z"/>
	<path style="fill:#5FA77E;" d="M283.837,415.653h28.446v-39.793h-36.7v31.539C275.583,411.938,279.298,415.653,283.837,415.653z"/>
</g>
<path style="fill:#E4EAF8;" d="M233.573,378.859H103.84V231.29c0-4.54,3.714-8.254,8.254-8.254h113.225
	c4.54,0,8.254,3.714,8.254,8.254L233.573,378.859L233.573,378.859z"/>
<path style="fill:#ABFFDB;" d="M192.732,328.816h-48.05c-8.381,0-15.173,6.793-15.173,15.174v34.984h78.398V343.99
	C207.906,335.61,201.113,328.816,192.732,328.816z"/>
<circle style="fill:#FFC850;" cx="168.702" cy="280.253" r="25.378"/>
<path style="fill:#E4EAF8;" d="M405.316,378.859H275.583V231.29c0-4.54,3.714-8.254,8.254-8.254h113.225
	c4.54,0,8.254,3.714,8.254,8.254L405.316,378.859L405.316,378.859z"/>
<g>
	<path style="fill:#C2C7D0;" d="M142.095,223.036h-30c-4.54,0-8.254,3.714-8.254,8.254v147.568h30V231.29
		C133.84,226.751,137.554,223.036,142.095,223.036z"/>
	<path style="fill:#C2C7D0;" d="M313.837,223.036h-30c-4.54,0-8.254,3.714-8.254,8.254v147.568h30V231.29
		C305.583,226.751,309.298,223.036,313.837,223.036z"/>
</g>
<path style="fill:#ABFFDB;" d="M364.476,328.816h-48.051c-8.381,0-15.173,6.793-15.173,15.174v34.984h78.398V343.99
	C379.649,335.61,372.857,328.816,364.476,328.816z"/>
<g>
	<path style="fill:#91DFBF;" d="M174.682,328.816h-30c-8.381,0-15.173,6.793-15.173,15.174v34.984h30V343.99
		C159.509,335.61,166.301,328.816,174.682,328.816z"/>
	<path style="fill:#91DFBF;" d="M346.424,328.816h-30c-8.381,0-15.173,6.793-15.173,15.174v34.984h30V343.99
		C331.251,335.61,338.043,328.816,346.424,328.816z"/>
</g>
<circle style="fill:#FFC850;" cx="340.443" cy="280.253" r="25.378"/>
<g>
	<path style="fill:#FEA82F;" d="M168.707,280.253c-4.696-8.134-4.372-17.783,0.001-25.375c-4.314-0.005-8.687,1.085-12.691,3.397
		c-12.138,7.008-16.297,22.529-9.288,34.667c7.008,12.138,22.529,16.298,34.667,9.29c4.005-2.312,7.134-5.554,9.287-9.293
		C181.921,292.93,173.403,288.387,168.707,280.253z"/>
	<path style="fill:#FEA82F;" d="M340.45,254.878c-19.373-0.02-31.79,21.072-21.98,38.064c9.809,16.989,34.285,16.785,43.955-0.003
		C342.888,292.919,330.704,271.8,340.45,254.878z"/>
</g>
<g>
	<path style="fill:#ABB0B7;" d="M301.258,439.464c-4.143,0-7.5,3.357-7.5,7.5c0,4.143,3.357,7.5,7.5,7.5h78.397
		c4.143,0,7.5-3.357,7.5-7.5c0-4.143-3.357-7.5-7.5-7.5H301.258z"/>
	<path style="fill:#ABB0B7;" d="M129.514,439.464c-4.143,0-7.5,3.357-7.5,7.5c0,4.143,3.357,7.5,7.5,7.5h78.397
		c4.143,0,7.5-3.357,7.5-7.5c0-4.143-3.357-7.5-7.5-7.5H129.514z"/>
	<path style="fill:#ABB0B7;" d="M161.213,170.175v26.768c0,4.143,3.357,7.5,7.5,7.5c4.143,0,7.5-3.357,7.5-7.5v-26.768
		c0-4.143-3.357-7.5-7.5-7.5C164.57,162.675,161.213,166.033,161.213,170.175z"/>
	<path style="fill:#ABB0B7;" d="M333.387,196.943v-26.768c0-4.143-3.357-7.5-7.5-7.5c-4.143,0-7.5,3.357-7.5,7.5v26.768
		c0,4.143,3.357,7.5,7.5,7.5C330.03,204.444,333.387,201.086,333.387,196.943z"/>
	<path style="fill:#ABB0B7;" d="M362.525,196.943v-26.768c0-4.143-3.357-7.5-7.5-7.5c-4.143,0-7.5,3.357-7.5,7.5v26.768
		c0,4.143,3.357,7.5,7.5,7.5C359.168,204.444,362.525,201.086,362.525,196.943z"/>
</g>
<g>
	<path style="fill:#FF8031;" d="M312.51,101.762c0-31.168-25.356-56.526-56.525-56.526s-56.525,25.357-56.525,56.526
		s25.356,56.525,56.525,56.525S312.51,132.93,312.51,101.762z M255.985,143.286c-22.896,0-41.524-18.628-41.524-41.524
		c0-22.897,18.628-41.525,41.524-41.525s41.524,18.628,41.524,41.525C297.51,124.659,278.882,143.286,255.985,143.286z"/>
	<path style="fill:#FF8031;" d="M255.985,72.508c-16.129,0-29.251,13.123-29.251,29.253c0,16.129,13.122,29.251,29.251,29.251
		c16.13,0,29.252-13.122,29.252-29.251C285.237,85.631,272.115,72.508,255.985,72.508z M255.985,116.013
		c-7.858,0-14.251-6.393-14.251-14.251c0-7.859,6.393-14.253,14.251-14.253c7.858,0,14.252,6.394,14.252,14.253
		C270.237,109.62,263.844,116.013,255.985,116.013z"/>
</g>
<g>
	<path style="fill:#474D54;" d="M131.083,15.028h220.49c8.495,1.525,14.106,7.391,14.106,17.299
		c0.005,35.504-0.512,35.178,1.725,41.904c4.119,11.448,15.047,19.14,27.194,19.14c28.873,0.268,34.913-1.302,42.123,2.816
		c4.913,2.807,7.301,7.596,7.301,14.64v318.637c0,4.143,3.357,7.5,7.5,7.5c4.143,0,7.5-3.357,7.5-7.5
		c0-287.943,0.003-326.6,0-326.702c-0.001-2.973-4.436-23.917-13.259-33.215c-6.007-6.336-59.289-59.173-59.418-59.302
		c-6.379-5.547-14.162-8.981-22.531-9.935c-3.817-0.439,9.965-0.284-232.731-0.284c-4.143,0-7.5,3.357-7.5,7.5
		S126.94,15.028,131.083,15.028z M434.472,79.437c-7.472-1.734-9.857-0.881-39.874-1.067c-6.109,0-11.712-4.081-13.413-10.271
		c-1.51-5.482,0.485-34.491-1.181-43.14C391.615,36.571,433.395,78.342,434.472,79.437z"/>
	<path style="fill:#474D54;" d="M459.023,464.464c0-4.143-3.357-7.5-7.5-7.5c-4.143,0-7.5,3.357-7.5,7.5
		c-0.01,20.725,0.272,20.001-0.839,23.319c-1.983,5.513-7.239,9.217-13.079,9.217H77.781c-5.423,0-9.834-4.412-9.834-9.835V24.861
		c0-5.423,4.411-9.834,9.834-9.834h18.302c4.143,0,7.5-3.357,7.5-7.5s-3.357-7.5-7.5-7.5H77.781
		c-13.693,0-24.834,11.141-24.834,24.834v462.305c0,13.694,11.141,24.835,24.834,24.835h352.323
		c12.146,0,23.075-7.691,27.215-19.194l0.141-0.391C459.957,485.094,458.683,480.142,459.023,464.464z"/>
</g>
<g>
</g>
<g>
</g>
<g>
</g>
<g>
</g>
<g>
</g>
<g>
</g>
<g>
</g>
<g>
</g>
<g>
</g>
<g>
</g>
<g>
</g>
<g>
</g>
<g>
</g>
<g>
</g>
<g>
</g>
</svg>
