<?xml version="1.0" encoding="iso-8859-1"?>
<!-- Generator: Adobe Illustrator 19.0.0, SVG Export Plug-In . SVG Version: 6.00 Build 0)  -->
<svg version="1.1" id="Capa_1" xmlns="http://www.w3.org/2000/svg" xmlns:xlink="http://www.w3.org/1999/xlink" x="0px" y="0px"
	 viewBox="0 0 511.999 511.999" style="enable-background:new 0 0 511.999 511.999;" xml:space="preserve">
<path style="fill:#AFB5BC;" d="M367.558,7.5H144.44c-23.131,0-41.95,18.818-41.95,41.95c0,17.084,0,394.269,0,413.099
	c0,23.131,18.818,41.951,41.95,41.951h223.118c23.131,0,41.951-18.819,41.951-41.951c0-11.391,0-409.177,0-413.099
	C409.508,26.319,390.689,7.5,367.558,7.5z"/>
<path style="fill:#969A9F;" d="M129.654,462.549c0-11.391,0-409.178,0-413.099c0-23.131,18.819-41.95,41.95-41.95H144.44
	c-23.131,0-41.95,18.818-41.95,41.95c0,17.084,0,394.269,0,413.099c0,23.131,18.818,41.951,41.95,41.951h27.164
	C148.472,504.5,129.654,485.68,129.654,462.549z"/>
<path style="fill:#FFFFFF;" d="M367.558,34.502h-39.16c-4.636,0-8.395,3.758-8.395,8.395v7.356c0,6.6-5.4,12.001-12.001,12.001
	H203.996c-6.6,0-12.001-5.4-12.001-12.001v-7.46c0-4.579-3.712-8.292-8.29-8.292H144.44c-8.255,0-14.948,6.692-14.948,14.949
	c0,9.472,0,420.56,0,413.099c0,8.255,6.692,14.949,14.949,14.949h223.117c8.257,0,14.949-6.693,14.949-14.949
	c0-13.961,0-426.671,0-413.098C382.507,41.194,375.814,34.502,367.558,34.502z"/>
<path style="fill:#E4EAF8;" d="M159.406,462.549c0-11.391,0-409.177,0-413.098c0-8.256,6.692-14.949,14.949-14.949h-29.914
	c-8.255,0-14.948,6.692-14.948,14.949c0,3.838,0,401.731,0,413.098c0,8.255,6.692,14.949,14.949,14.949h29.914
	C166.099,477.498,159.406,470.805,159.406,462.549z"/>
<path style="fill:#6DC296;" d="M255.469,236.128c-17.61,0-33.58-6.979-45.33-18.306v79.763c0,3.491,3.932,5.535,6.79,3.529
	l33.808-23.736c2.84-1.994,6.624-1.994,9.465,0l34.457,24.192c2.584,1.814,6.14-0.034,6.14-3.191v-80.557
	C289.049,229.149,273.079,236.128,255.469,236.128z"/>
<path style="fill:#5FA77E;" d="M255.469,236.128c-17.61,0-33.58-6.979-45.33-18.306v79.763c0,3.491,3.932,5.535,6.789,3.529
	l33.808-23.736c1.42-0.997,3.076-1.495,4.732-1.495V236.128z"/>
<path style="fill:#ABFFDB;" d="M273.797,233.504c-5.815,1.7-11.962,2.624-18.328,2.624c-6.366,0-12.513-0.924-18.328-2.624v53.419
	l13.596-9.546c2.84-1.994,6.624-1.994,9.465,0l13.596,9.546V233.504z"/>
<path style="fill:#91DFBF;" d="M255.469,236.128L255.469,236.128c-0.975,0-1.943-0.029-2.907-0.072
	c-0.311-0.014-0.619-0.032-0.929-0.051c-0.672-0.039-1.34-0.089-2.006-0.149c-0.336-0.03-0.672-0.056-1.006-0.091
	c-0.857-0.09-1.71-0.194-2.557-0.317c-0.46-0.066-0.915-0.148-1.372-0.224c-0.425-0.071-0.85-0.143-1.273-0.222
	c-0.536-0.1-1.069-0.206-1.6-0.32c-0.288-0.062-0.575-0.129-0.862-0.194c-1.286-0.292-2.56-0.617-3.816-0.984v53.419l10.638-7.468
	l2.958-2.077c0.177-0.125,0.368-0.218,0.553-0.327c0.664-0.392,1.363-0.688,2.089-0.878c0.686-0.18,1.386-0.29,2.09-0.29v-39.754
	H255.469z"/>
<circle style="fill:#FFC850;" cx="255.465" cy="171.79" r="65.334"/>
<path style="fill:#FEA82F;" d="M224.868,189.458c-15.46-26.778-9.796-59.938,11.799-80.236c-4.739,1.428-9.394,3.402-13.867,5.984
	c-31.25,18.042-41.958,58.003-23.915,89.252s58.003,41.958,89.252,23.915c4.472-2.582,8.509-5.626,12.116-9.017
	C271.878,227.911,240.328,216.237,224.868,189.458z"/>
<path style="fill:#FF9052;" d="M257.887,138.963l8.502,17.226c0.393,0.796,1.152,1.347,2.03,1.475l19.01,2.762
	c2.211,0.321,3.094,3.039,1.494,4.599l-13.756,13.409c-0.635,0.619-0.925,1.512-0.775,2.386l3.247,18.933
	c0.378,2.202-1.934,3.882-3.912,2.842l-17.003-8.94c-0.786-0.413-1.724-0.413-2.509,0l-17.003,8.94
	c-1.978,1.04-4.29-0.64-3.912-2.842l3.247-18.933c0.15-0.875-0.14-1.767-0.775-2.386l-13.756-13.409
	c-1.6-1.56-0.717-4.277,1.494-4.599l19.01-2.762c0.878-0.128,1.637-0.679,2.03-1.475l8.502-17.226
	C254.041,136.96,256.898,136.96,257.887,138.963z"/>
<path style="fill:#FF8031;" d="M254.1,193.273l3.247-18.933c0.15-0.875-0.14-1.767-0.775-2.386l-13.756-13.409
	c-0.26-0.253-0.448-0.539-0.581-0.837l-18.725,2.72c-2.211,0.322-3.094,3.039-1.494,4.599l13.756,13.409
	c0.635,0.619,0.925,1.512,0.775,2.386l-3.247,18.933c-0.378,2.203,1.934,3.882,3.912,2.842l16.851-8.86
	C254.063,193.586,254.072,193.431,254.1,193.273z"/>
<g>
	<path style="fill:#474D54;" d="M256.53,42.003c4.143,0,7.5-3.357,7.5-7.5s-3.357-7.5-7.5-7.5h-33.336c-4.143,0-7.5,3.357-7.5,7.5
		c0,4.143,3.357,7.5,7.5,7.5H256.53z"/>
	<path style="fill:#474D54;" d="M278.292,38.671c0.271,0.409,0.59,0.79,0.93,1.13c0.351,0.35,0.73,0.66,1.141,0.939
		c0.41,0.271,0.85,0.5,1.3,0.69c0.45,0.18,0.92,0.33,1.4,0.42c0.489,0.1,0.979,0.15,1.47,0.15s0.979-0.051,1.46-0.15
		c0.479-0.09,0.95-0.24,1.41-0.42c0.45-0.19,0.88-0.42,1.29-0.69c0.41-0.279,0.8-0.59,1.14-0.939c1.4-1.391,2.2-3.32,2.2-5.3
		c0-0.49-0.05-0.98-0.15-1.46c-0.1-0.48-0.239-0.961-0.43-1.41c-0.19-0.45-0.42-0.891-0.69-1.29c-0.27-0.41-0.58-0.8-0.93-1.141
		c-0.34-0.35-0.729-0.659-1.14-0.939c-0.41-0.271-0.84-0.5-1.29-0.69c-0.46-0.18-0.931-0.33-1.41-0.42c-0.96-0.2-1.96-0.2-2.93,0
		c-0.48,0.09-0.95,0.24-1.4,0.42c-0.45,0.19-0.89,0.42-1.3,0.69c-0.41,0.28-0.79,0.59-1.141,0.939
		c-0.34,0.341-0.659,0.73-0.93,1.141c-0.27,0.399-0.5,0.84-0.689,1.29c-0.19,0.449-0.33,0.93-0.431,1.41
		c-0.09,0.479-0.14,0.97-0.14,1.46c0,0.489,0.05,0.979,0.14,1.47c0.101,0.479,0.24,0.95,0.431,1.399
		C277.792,37.82,278.023,38.261,278.292,38.671z"/>
</g>
<g>
	<path style="fill:#ABB0B7;" d="M177.411,386.708h157.176c4.143,0,7.5-3.357,7.5-7.5c0-4.143-3.357-7.5-7.5-7.5H177.411
		c-4.143,0-7.5,3.357-7.5,7.5C169.911,383.351,173.269,386.708,177.411,386.708z"/>
	<path style="fill:#ABB0B7;" d="M177.383,422.524c165.105,0.659,156.817,0.628,157.228,0.628c4.128,0,7.482-3.338,7.499-7.47
		c0.017-4.143-3.328-7.514-7.47-7.53l-157.197-0.628c-4.223,0-7.514,3.389-7.53,7.47
		C169.897,419.135,173.241,422.507,177.383,422.524z"/>
	<path style="fill:#ABB0B7;" d="M169.913,343.208c0,4.143,3.357,7.5,7.5,7.5h157.174c4.143,0,7.5-3.357,7.5-7.5s-3.357-7.5-7.5-7.5
		H177.413C173.271,335.707,169.913,339.065,169.913,343.208z"/>
</g>
<path style="fill:#474D54;" d="M367.558,0H144.44c-27.268,0-49.45,22.183-49.45,49.45v52.288c0,4.143,3.357,7.5,7.5,7.5
	s7.5-3.357,7.5-7.5V49.45c0-18.995,15.454-34.449,34.449-34.449h223.118c18.996,0,34.45,15.454,34.45,34.449v413.099
	c0,18.995-15.454,34.449-34.45,34.449H144.44c-18.995,0-34.449-15.454-34.449-34.449V136.74c0-4.143-3.357-7.5-7.5-7.5
	s-7.5,3.357-7.5,7.5v325.809c0,27.268,22.183,49.45,49.45,49.45h223.118c27.268,0,49.451-22.183,49.451-49.45V49.45
	C417.009,22.183,394.825,0,367.558,0z"/>
<g>
</g>
<g>
</g>
<g>
</g>
<g>
</g>
<g>
</g>
<g>
</g>
<g>
</g>
<g>
</g>
<g>
</g>
<g>
</g>
<g>
</g>
<g>
</g>
<g>
</g>
<g>
</g>
<g>
</g>
</svg>
