<?xml version="1.0" encoding="iso-8859-1"?>
<!-- Generator: Adobe Illustrator 19.0.0, SVG Export Plug-In . SVG Version: 6.00 Build 0)  -->
<svg version="1.1" id="Capa_1" xmlns="http://www.w3.org/2000/svg" xmlns:xlink="http://www.w3.org/1999/xlink" x="0px" y="0px"
	 viewBox="0 0 512.002 512.002" style="enable-background:new 0 0 512.002 512.002;" xml:space="preserve">
<path style="fill:#AFB5BC;" d="M135.672,461.671l1.813,36.224c0.195,3.693,3.248,6.587,6.945,6.587c16.594,0,29.087,0,45.847,0
	c3.605,0,6.579-2.822,6.771-6.421l1.821-36.38C197.899,461.741,136.189,461.714,135.672,461.671z"/>
<path style="fill:#969A9F;" d="M167.556,497.896l-1.811-36.186c-0.1,0-29.495,0.01-30.072-0.038l1.813,36.224
	c0.195,3.693,3.248,6.587,6.945,6.587c4.269,0,25.815,0,30.07,0C170.803,504.483,167.751,501.589,167.556,497.896z"/>
<path style="fill:#E4EAF8;" d="M118.622,291.857l8.477,162.973c0.264,4.981,4.379,8.884,9.368,8.884c23.888,0,41.747,0,61.834,0
	c4.862,0,8.874-3.805,9.131-8.66l8.488-163.197C200.303,291.857,131.025,291.857,118.622,291.857z"/>
<path style="fill:#C2C7D0;" d="M158.696,454.831l-8.477-162.973c-11.844,0-19.851,0-31.599,0l8.477,162.973
	c0.264,4.981,4.379,8.884,9.367,8.884c11.58,0,19.874,0,31.599,0C163.077,463.715,158.961,459.812,158.696,454.831z"/>
<path style="fill:#AFB5BC;" d="M177.456,7.58h-20.37c-36.829,0-66.962,30.132-66.962,66.962v21.194
	c0,28.61,18.188,53.17,43.57,62.711h67.155c25.381-9.541,43.57-34.101,43.57-62.711V74.542
	C244.418,37.712,214.285,7.58,177.456,7.58z"/>
<path style="fill:#969A9F;" d="M120.194,95.735V74.541c0-35.197,27.526-64.257,62.113-66.766c-4.734-0.343-4.871-0.127-25.221-0.196
	c-36.829,0-66.962,30.133-66.962,66.961v21.194c0,28.61,18.188,53.17,43.57,62.711h30.07
	C138.382,148.905,120.194,124.346,120.194,95.735z"/>
<path style="fill:#ABFFDB;" d="M131.002,162.697h-63.99c-6.842,0-12.44,5.598-12.44,12.44v107.287c0,6.842,5.598,12.44,12.44,12.44
	h63.99C82.171,264.296,82.163,193.271,131.002,162.697z"/>
<path style="fill:#91DFBF;" d="M84.642,282.424V175.137c0-6.842,5.598-12.44,12.44-12.44h-30.07c-6.842,0-12.44,5.598-12.44,12.44
	v107.287c0,6.842,5.598,12.44,12.44,12.44h30.07C90.24,294.864,84.642,289.266,84.642,282.424z"/>
<path style="fill:#6DC296;" d="M100.697,259.582c-9.571,0-36.758,0-46.125,0v22.842c0,6.842,5.598,12.44,12.44,12.44h23.309h40.681
	C117.639,286.5,106.999,274.195,100.697,259.582z"/>
<path style="fill:#5FA77E;" d="M97.08,294.864c-6.841-0.001-12.438-5.598-12.438-12.44v-22.842h-30.07v22.842
	c0,6.842,5.598,12.44,12.44,12.44C77.214,294.864,88.272,294.864,97.08,294.864z"/>
<path style="fill:#6DC296;" d="M54.572,175.137v22.842c9.373,0,36.57,0,46.125,0c6.302-14.613,16.941-26.917,30.304-35.282H90.32
	H67.012C60.17,162.697,54.572,168.296,54.572,175.137z"/>
<path style="fill:#5FA77E;" d="M54.572,175.137v22.842h30.07v-22.842c0-6.841,5.597-12.439,12.438-12.44h-6.76
	c-21.116,0.709-25.566-1.811-31.21,2.85C56.343,167.834,54.572,171.289,54.572,175.137z"/>
<path style="fill:#ABFFDB;" d="M267.53,162.697h-61.985c48.831,30.569,48.837,101.594,0,132.167h61.985
	c6.842,0,12.44-5.598,12.44-12.44V175.137C279.97,168.296,274.372,162.697,267.53,162.697z"/>
<g>
	<path style="fill:#6DC296;" d="M279.97,282.424v-22.842c-10.409,0-32.765,0-44.122,0c-6.302,14.613-16.941,26.917-30.304,35.282
		c15.168,0,46.639,0,61.985,0C274.372,294.864,279.97,289.266,279.97,282.424z"/>
	<path style="fill:#6DC296;" d="M235.848,197.98c11.358,0,33.716,0,44.122,0v-22.842c0-6.842-5.598-12.44-12.44-12.44
		c-15.353,0-46.82,0-61.985,0C218.907,171.063,229.547,183.367,235.848,197.98z"/>
</g>
<circle style="fill:#FFC850;" cx="167.27" cy="228.783" r="77.922"/>
<g>
	<path style="fill:#FEA82F;" d="M125.14,253.106c-19.015-32.936-11.24-73.97,16.542-97.922
		c-46.416,16.194-66.231,70.411-41.896,112.561c24.393,42.249,81.271,52.033,118.428,19.998
		C183.579,299.825,144.156,286.042,125.14,253.106z"/>
	<path style="fill:#FEA82F;" d="M319.344,7.58h125.712c6.807,0,12.377,5.569,12.377,12.376c0,2.116,0,83.055,0,79.977
		c0,7.747-6.281,14.028-14.028,14.028c-7.306,0-111.839,0-106.657,0c-2.134,0-4.187,0.816-5.738,2.28l-17.734,16.739
		c-2.386,2.251-6.307,0.56-6.307-2.719c0-5.821,0-115.914,0-110.305C306.967,13.149,312.536,7.58,319.344,7.58z"/>
</g>
<g>
	<path style="fill:#FF9052;" d="M337.037,77.054V19.956c0-6.807,5.569-12.376,12.376-12.376h-30.07
		c-6.807,0-12.376,5.569-12.376,12.376c0,10.931,0,97.816,0,110.305c0,3.28,3.921,4.971,6.307,2.719
		c17.169-15.303,17.851-19.019,23.473-19.019h0.291C337.037,100.304,337.037,89.277,337.037,77.054z"/>
	<path style="fill:#FF9052;" d="M170.154,189.629c11.098,22.485,10.326,21.979,12.56,22.304l22.673,3.295
		c2.637,0.383,3.691,3.624,1.782,5.485c-17.956,17.503-17.721,16.563-17.331,18.838l3.873,22.581c0.45,2.627-2.306,4.63-4.666,3.39
		c-22.195-11.668-21.228-11.735-23.272-10.662l-20.279,10.662c-2.359,1.24-5.116-0.763-4.666-3.39
		c4.238-24.715,4.602-23.815,2.948-25.427l-16.406-15.992c-1.908-1.86-0.855-5.102,1.782-5.485
		c24.815-3.606,24.094-3.028,25.093-5.054l10.14-20.545C165.566,187.24,168.974,187.24,170.154,189.629z"/>
</g>
<path style="fill:#FF8031;" d="M165.553,254.635c3.341-22.255,5.084-23.345,2.948-25.427
	c-17.227-16.958-16.734-15.946-17.189-17.199l-22.159,3.22c-2.638,0.383-3.691,3.624-1.782,5.485l16.406,15.992
	c2.136,2.082,0.412,3.044-2.948,25.427c-0.45,2.627,2.306,4.63,4.666,3.39l20.023-10.527
	C165.525,254.876,165.532,254.757,165.553,254.635z"/>
<path style="fill:#474D54;" d="M267.53,155.18h-45.374c18.357-13.886,29.778-35.84,29.778-59.445V74.542
	c0-41.069-33.411-74.481-74.48-74.481c-11.686,1.258-39.341-5.494-66.609,16.211c-3.249,2.585-3.786,7.315-1.201,10.563
	c2.584,3.249,7.315,3.787,10.563,1.201c22.449-17.866,44.269-11.693,57.247-12.939c32.777,0,59.445,26.666,59.445,59.446v21.194
	c0,23.588-14.299,45.129-35.882,54.532c-20.936-9.03-45.715-9.395-67.496,0c-21.582-9.403-35.882-30.945-35.882-54.532
	c0.631-16.6-1.971-27.213,4.04-42.623c1.509-3.867-0.403-8.226-4.272-9.736c-3.868-1.51-8.226,0.404-9.736,4.272
	c-7.351,18.843-4.379,32.138-5.069,48.088c0,23.604,11.423,45.558,29.778,59.445H67.011c-11.005,0-19.958,8.953-19.958,19.957
	c0,13.472,0,93.728,0,107.287c0,11.005,8.953,19.958,19.958,19.958h44.481l8.1,152.846c0.322,6.075,3.829,11.25,8.845,13.966
	l1.542,29.1c0.407,7.686,6.755,13.707,14.452,13.707h45.847c7.604,0,13.875-5.948,14.277-13.542l1.545-29.169
	c5.011-2.659,8.519-7.8,8.839-13.839l4.612-87.023c0.221-4.146-2.963-7.685-7.11-7.904c-4.114-0.235-7.685,2.963-7.904,7.11
	c-5.377,89.777-3.355,88.364-6.134,88.55c-74.83,0.013-60.096,0.131-61.965,0.01c-3.38-0.056-0.726,4.306-9.805-152.257
	c25.7,13.922,56.409,13.472,81.279,0l-1.517,28.616c-0.221,4.146,2.963,7.685,7.11,7.904c4.144,0.233,7.684-2.964,7.904-7.11
	l1.641-30.965h44.482c11.005,0,19.958-8.953,19.958-19.958c0-13.472,0-93.728,0-107.287
	C287.488,164.133,278.536,155.18,267.53,155.18z M190.941,471.232l-1.362,25.734h-44.615l-1.362-25.734H190.941z M62.088,175.137
	c0-2.668,2.254-4.922,4.922-4.922h38.015c-5.72,6.052-10.474,12.877-14.169,20.247H62.088V175.137z M62.088,205.497h22.95
	c-4.316,15.351-4.235,31.506-0.001,46.568H62.088V205.497z M67.011,287.348c-2.668,0-4.922-2.254-4.922-4.922v-15.325h28.767
	c3.695,7.37,8.45,14.195,14.171,20.247H67.011z M197.772,292.233c-0.005,0.003-0.011,0.005-0.016,0.008
	c-44.249,21.347-95.729-8.4-100.532-56.321c-4.489-44.391,32.942-81.793,77.481-77.151
	C245.09,166.187,261.458,261.497,197.772,292.233z M272.453,282.424c0,2.668-2.254,4.922-4.922,4.922h-38.016
	c5.721-6.053,10.475-12.877,14.171-20.247h28.767V282.424z M272.453,252.065h-22.949c4.148-14.752,4.385-30.969,0-46.568h22.95
	v46.568H272.453z M272.453,190.462h-28.768c-3.695-7.37-8.449-14.195-14.169-20.247h38.015c2.668,0,4.922,2.254,4.922,4.922V190.462
	z"/>
<g>
	<path style="fill:#FF8031;" d="M396.568,71.728h-58.972c-4.153,0-7.518,3.365-7.518,7.518s3.365,7.518,7.518,7.518h58.972
		c4.153,0,7.518-3.365,7.518-7.518S400.719,71.728,396.568,71.728z"/>
	<path style="fill:#FF8031;" d="M426.802,86.763c4.153,0,7.518-3.365,7.518-7.518s-3.365-7.518-7.518-7.518h-0.166
		c-4.153,0-7.518,3.365-7.518,7.518s3.365,7.518,7.518,7.518H426.802z"/>
	<path style="fill:#FF8031;" d="M426.802,50.679c4.153,0,7.518-3.365,7.518-7.518s-3.365-7.518-7.518-7.518h-58.971
		c-4.153,0-7.518,3.365-7.518,7.518s3.365,7.518,7.518,7.518H426.802z"/>
	<path style="fill:#FF8031;" d="M337.594,50.679h0.166c4.153,0,7.518-3.365,7.518-7.518s-3.365-7.518-7.518-7.518h-0.166
		c-4.153,0-7.518,3.365-7.518,7.518S333.443,50.679,337.594,50.679z"/>
</g>
<path style="fill:#474D54;" d="M445.056,0.062H319.344c-10.97,0-19.894,8.924-19.894,19.894v110.305
	c0,9.849,11.812,14.955,18.984,8.187c18.765-17.596,17.681-16.97,18.313-16.97h57.12c4.153,0,7.518-3.365,7.518-7.518
	c0-4.153-3.365-7.518-7.518-7.518h-57.12c-4.068,0-7.939,1.538-10.898,4.331L314.484,121.5V19.956c0-2.634,2.225-4.859,4.859-4.859
	h125.712c2.633,0,4.858,2.225,4.858,4.859v79.977c0,3.589-2.921,6.51-6.51,6.51h-13.282c-4.153,0-7.518,3.365-7.518,7.518
	c0,4.153,3.365,7.518,7.518,7.518h13.282c11.881,0,21.545-9.666,21.545-21.545V19.956C464.948,8.986,456.024,0.062,445.056,0.062z"
	/>
<g>
</g>
<g>
</g>
<g>
</g>
<g>
</g>
<g>
</g>
<g>
</g>
<g>
</g>
<g>
</g>
<g>
</g>
<g>
</g>
<g>
</g>
<g>
</g>
<g>
</g>
<g>
</g>
<g>
</g>
</svg>
