<?xml version="1.0" encoding="iso-8859-1"?>
<!-- Generator: Adobe Illustrator 19.0.0, SVG Export Plug-In . SVG Version: 6.00 Build 0)  -->
<svg version="1.1" id="Capa_1" xmlns="http://www.w3.org/2000/svg" xmlns:xlink="http://www.w3.org/1999/xlink" x="0px" y="0px"
	 viewBox="0 0 511.999 511.999" style="enable-background:new 0 0 511.999 511.999;" xml:space="preserve">
<path style="fill:#AFB5BC;" d="M306.68,7.5H83.562c-23.131,0-41.95,18.818-41.95,41.95c0,17.084,0,394.269,0,413.099
	c0,23.131,18.819,41.951,41.95,41.951H306.68c23.131,0,41.951-18.819,41.951-41.951c0-11.391,0-409.177,0-413.099
	C348.63,26.319,329.811,7.5,306.68,7.5z"/>
<path style="fill:#969A9F;" d="M68.775,462.549c0-11.391,0-409.178,0-413.099c0-23.131,18.819-41.95,41.95-41.95H83.562
	c-23.131,0-41.95,18.818-41.95,41.95c0,17.084,0,394.269,0,413.099c0,23.131,18.819,41.951,41.95,41.951h27.164
	C87.594,504.5,68.775,485.68,68.775,462.549z"/>
<path style="fill:#FFFFFF;" d="M306.68,34.502h-39.16c-4.636,0-8.395,3.758-8.395,8.395v7.356c0,6.6-5.4,12.001-12.001,12.001
	H143.118c-6.6,0-12.001-5.4-12.001-12.001v-7.46c0-4.579-3.712-8.292-8.291-8.292H83.562c-8.256,0-14.949,6.692-14.949,14.948
	c0,9.472,0,420.56,0,413.098c0,8.255,6.692,14.949,14.949,14.949H306.68c8.257,0,14.949-6.693,14.949-14.949
	c0-13.961,0-426.671,0-413.098C321.628,41.194,314.936,34.502,306.68,34.502z"/>
<path style="fill:#E4EAF8;" d="M98.527,462.549c0-11.391,0-409.177,0-413.098c0-8.256,6.692-14.949,14.949-14.949H83.562
	c-8.256,0-14.949,6.692-14.949,14.949c0,3.838,0,401.731,0,413.098c0,8.255,6.692,14.949,14.949,14.949h29.914
	C105.22,477.498,98.527,470.805,98.527,462.549z"/>
<path style="fill:#FFFFFF;" d="M470.387,332.931V115.43c0-6.6-5.4-12.001-12.001-12.001H139.428c-6.6,0-12.001,5.4-12.001,12.001
	v217.501c0,6.6,5.4,12.001,12.001,12.001h318.958C464.987,344.932,470.387,339.532,470.387,332.931z"/>
<g>
	<path style="fill:#E4EAF8;" d="M276.286,285.499H164.187c-4.494,0-8.172-3.677-8.172-8.172V139.398
		c0-4.494,3.677-8.171,8.172-8.171h112.099c4.494,0,8.172,3.677,8.172,8.171v137.928
		C284.458,281.821,280.781,285.499,276.286,285.499z"/>
	<path style="fill:#E4EAF8;" d="M434.838,285.499H320.32c-3.829,0-6.962-3.133-6.962-6.962V138.188c0-3.829,3.133-6.962,6.962-6.962
		h114.518c3.829,0,6.962,3.133,6.962,6.962v140.349C441.801,282.366,438.668,285.499,434.838,285.499z"/>
</g>
<g>
	<path style="fill:#C2C7D0;" d="M185.466,277.327V139.398c0-4.494,3.677-8.171,8.172-8.171h-29.451
		c-4.494,0-8.172,3.677-8.172,8.171v137.928c0,4.494,3.677,8.172,8.172,8.172h29.451
		C189.143,285.499,185.466,281.821,185.466,277.327z"/>
	<path style="fill:#C2C7D0;" d="M342.809,278.537V138.188c0-3.829,3.133-6.962,6.962-6.962H320.32c-3.829,0-6.962,3.133-6.962,6.962
		v140.349c0,3.829,3.133,6.962,6.962,6.962h29.451C345.942,285.499,342.809,282.366,342.809,278.537z"/>
</g>
<path style="fill:#ABFFDB;" d="M244.023,235.954H196.45c-8.298,0-15.022,6.726-15.022,15.023v34.636h77.618v-34.636
	C259.046,242.68,252.32,235.954,244.023,235.954z"/>
<circle style="fill:#FFC850;" cx="220.233" cy="187.871" r="25.122"/>
<path style="fill:#ABFFDB;" d="M401.366,235.954h-47.573c-8.298,0-15.023,6.726-15.023,15.023v34.636h77.618v-34.636
	C416.388,242.68,409.664,235.954,401.366,235.954z"/>
<g>
	<path style="fill:#91DFBF;" d="M226.786,235.954h-30.335c-8.298,0-15.022,6.726-15.022,15.023v34.636h30.335v-34.636
		C211.763,242.68,218.488,235.954,226.786,235.954z"/>
	<path style="fill:#91DFBF;" d="M384.128,235.954h-30.335c-8.298,0-15.022,6.726-15.022,15.023v34.636h30.335v-34.636
		C369.105,242.68,375.831,235.954,384.128,235.954z"/>
</g>
<circle style="fill:#FFC850;" cx="377.583" cy="187.871" r="25.122"/>
<g>
	<path style="fill:#FEA82F;" d="M219.908,162.752c-4.163,0.05-8.372,1.132-12.236,3.362c-12.018,6.938-16.135,22.305-9.197,34.323
		c9.682,16.77,33.69,16.563,43.353,0.282C222.204,200.957,209.887,179.635,219.908,162.752z"/>
	<path style="fill:#FEA82F;" d="M377.085,188.159c-4.708-8.155-4.32-17.849,0.166-25.408c-4.163,0.05-8.372,1.132-12.236,3.362
		c-12.018,6.938-16.135,22.305-9.197,34.323c6.938,12.018,22.305,16.136,34.323,9.198c3.863-2.23,6.904-5.334,9.03-8.915
		C390.382,200.826,381.792,196.315,377.085,188.159z"/>
</g>
<path style="fill:#FFC850;" d="M458.387,428.2H139.428c-6.6,0-12.001-5.4-12.001-12.001v-29.878c0-6.6,5.4-12.001,12.001-12.001
	h318.958c6.6,0,12.001,5.4,12.001,12.001v29.878C470.387,422.8,464.987,428.2,458.387,428.2z"/>
<path style="fill:#E4EAF8;" d="M156.015,332.931V115.43c0-6.6,5.4-12.001,12.001-12.001h-28.588c-6.6,0-12.001,5.4-12.001,12.001
	v217.501c0,6.6,5.4,12.001,12.001,12.001h28.587C161.416,344.932,156.015,339.532,156.015,332.931z"/>
<path style="fill:#FEA82F;" d="M156.015,416.199v-29.877c0-6.6,5.4-12.001,12.001-12.001h-28.588c-6.6,0-12.001,5.4-12.001,12.001
	v29.877c0,6.6,5.4,12.001,12.001,12.001h28.587C161.416,428.2,156.015,422.8,156.015,416.199z"/>
<g>
	<path style="fill:#474D54;" d="M195.651,42.003c4.142,0,7.5-3.357,7.5-7.5s-3.358-7.5-7.5-7.5h-33.335c-4.142,0-7.5,3.357-7.5,7.5
		c0,4.143,3.358,7.5,7.5,7.5H195.651z"/>
	<path style="fill:#474D54;" d="M217.42,38.671c0.269,0.409,0.579,0.79,0.93,1.13c0.34,0.35,0.73,0.66,1.14,0.939
		c0.41,0.271,0.84,0.5,1.29,0.69c0.46,0.18,0.93,0.33,1.41,0.42c0.481,0.1,0.97,0.15,1.46,0.15c1.98,0,3.91-0.801,5.31-2.2
		c1.39-1.391,2.19-3.32,2.19-5.3c0-0.49-0.05-0.98-0.14-1.46c-0.1-0.48-0.24-0.961-0.43-1.41c-0.19-0.45-0.42-0.891-0.69-1.29
		c-0.27-0.41-0.59-0.8-0.93-1.141c-0.35-0.35-0.73-0.659-1.14-0.939c-0.41-0.271-0.85-0.5-1.3-0.69c-0.45-0.18-0.92-0.33-1.4-0.42
		c-0.97-0.2-1.97-0.2-2.93,0c-0.48,0.09-0.95,0.24-1.41,0.42c-0.45,0.19-0.88,0.42-1.29,0.69c-0.41,0.28-0.8,0.59-1.14,0.939
		c-0.35,0.341-0.66,0.73-0.93,1.141c-0.27,0.399-0.5,0.84-0.691,1.29c-0.19,0.449-0.33,0.93-0.43,1.41
		c-0.1,0.479-0.15,0.97-0.15,1.46c0,0.489,0.05,0.979,0.15,1.47c0.1,0.479,0.24,0.95,0.43,1.399
		C216.92,37.82,217.15,38.261,217.42,38.671z"/>
</g>
<g>
	<path style="fill:#ABB0B7;" d="M345.469,306.848c-4.143,0-7.5,3.357-7.5,7.5s3.357,7.5,7.5,7.5h64.221c4.143,0,7.5-3.357,7.5-7.5
		s-3.357-7.5-7.5-7.5H345.469z"/>
	<path style="fill:#ABB0B7;" d="M188.126,306.848c-4.142,0-7.5,3.357-7.5,7.5s3.358,7.5,7.5,7.5h64.221c4.142,0,7.5-3.357,7.5-7.5
		s-3.358-7.5-7.5-7.5H188.126z"/>
</g>
<path style="fill:#FF8031;" d="M449.301,401.26c0-4.143-3.357-7.5-7.5-7.5H156.015c-4.142,0-7.5,3.357-7.5,7.5s3.358,7.5,7.5,7.5
	h285.785C445.944,408.761,449.301,405.404,449.301,401.26z"/>
<g>
	<path style="fill:#474D54;" d="M470.387,177.874c4.143,0,7.5-3.357,7.5-7.5v-54.942c0-10.753-8.749-19.501-19.501-19.501H356.131
		V49.45C356.131,22.183,333.947,0,306.68,0H121.187c-4.142,0-7.5,3.357-7.5,7.5s3.358,7.5,7.5,7.5h185.493
		c18.996,0,34.45,15.454,34.45,34.449v46.479h-9.566h-2.435h-15.001h-20.431H139.428c-10.753,0-19.501,8.749-19.501,19.501
		c0,14.867,0,201.504,0,217.501c0,10.753,8.749,19.501,19.501,19.501h130.268h44.432h15.001h2.435h9.566v14.389h-9.566h-2.435
		h-15.001h-44.432H139.428c-10.753,0-19.501,8.749-19.501,19.501v29.877c0,10.753,8.749,19.501,19.501,19.501h165.936h8.764h15.001
		h2.435h9.566v26.85c0,18.995-15.454,34.449-34.45,34.449H83.562c-18.995,0-34.449-15.454-34.449-34.449V49.45
		c-0.001-18.995,15.454-34.449,34.449-34.449h2.623c4.142,0,7.5-3.357,7.5-7.5S90.327,0,86.185,0h-2.623
		C56.295,0,34.111,22.183,34.111,49.45v413.099c0,27.268,22.183,49.45,49.45,49.45h223.118c27.268,0,49.451-22.183,49.451-49.45
		v-26.85h29.072c4.143,0,7.5-3.357,7.5-7.5c0-4.143-3.357-7.5-7.5-7.5c-7.309,0-232.72,0-245.774,0c-2.439,0-4.5-2.061-4.5-4.5
		v-29.877c0-2.439,2.061-4.5,4.5-4.5c0.658,0,301.24,0,318.958,0c2.439,0,4.5,2.061,4.5,4.5v29.877c0,2.439-2.061,4.5-4.5,4.5
		h-38.182c-4.143,0-7.5,3.357-7.5,7.5c0,4.143,3.357,7.5,7.5,7.5h38.182c10.753,0,19.501-8.749,19.501-19.501v-29.877
		c0-10.753-8.749-19.501-19.501-19.501H356.13v-14.389h102.256c10.753,0,19.501-8.749,19.501-19.501V205.375
		c0-4.143-3.357-7.5-7.5-7.5s-7.5,3.357-7.5,7.5v127.556c0,2.439-2.061,4.5-4.5,4.5c-6.1,0-303.312,0-318.958,0
		c-2.439,0-4.5-2.061-4.5-4.5v-217.5c0-2.439,2.061-4.5,4.5-4.5h318.958c2.439,0,4.5,2.061,4.5,4.5v54.942
		C462.887,174.517,466.245,177.874,470.387,177.874z"/>
</g>
<g>
</g>
<g>
</g>
<g>
</g>
<g>
</g>
<g>
</g>
<g>
</g>
<g>
</g>
<g>
</g>
<g>
</g>
<g>
</g>
<g>
</g>
<g>
</g>
<g>
</g>
<g>
</g>
<g>
</g>
</svg>
