<?xml version="1.0" encoding="iso-8859-1"?>
<!-- Generator: Adobe Illustrator 19.0.0, SVG Export Plug-In . SVG Version: 6.00 Build 0)  -->
<svg version="1.1" id="Capa_1" xmlns="http://www.w3.org/2000/svg" xmlns:xlink="http://www.w3.org/1999/xlink" x="0px" y="0px"
	 viewBox="0 0 511.999 511.999" style="enable-background:new 0 0 511.999 511.999;" xml:space="preserve">
<path style="fill:#ABFFDB;" d="M131.759,40.793C12.903,109.415-27.82,261.394,40.801,380.25s220.601,159.579,339.457,90.957
	s159.579-220.601,90.957-339.457S250.615-27.829,131.759,40.793z M348.798,416.716c-88.761,51.246-202.259,20.834-253.505-67.927
	S74.458,146.53,163.22,95.284S365.479,74.45,416.725,163.21S437.559,365.47,348.798,416.716z"/>
<path style="fill:#92E0C0;" d="M65.974,365.717c-66.182-114.63-30.645-260.059,78.588-331.815
	C16.203,98.456-30.379,256.96,40.801,380.25c68.621,118.855,220.6,159.579,339.457,90.957c4.226-2.44,8.341-4.997,12.369-7.642
	C275.867,522.285,132.155,480.346,65.974,365.717z"/>
<path style="fill:#FFC850;" d="M396.568,134.829l47.656-41.082C398.655,40.932,331.238,7.5,256.008,7.5c0,20.141,0,41.506,0,62.921
	C312.19,70.42,362.537,95.388,396.568,134.829z"/>
<path style="fill:#E4EAF8;" d="M70.429,255.999c0-102.492,83.087-185.579,185.579-185.579V7.5
	C118.766,7.5,7.509,118.757,7.509,255.999c0,60.291,21.476,115.562,57.189,158.594l48.44-40.156
	C86.468,342.302,70.429,301.025,70.429,255.999z"/>
<path style="fill:#C2C7D0;" d="M144.561,33.902C0.458,106.373-36.363,292.819,64.699,414.594l22.073-18.298
	C-4.421,281.502,22.922,113.809,144.561,33.902z"/>
<g>
	<path style="fill:#FFFFFF;" d="M252.563,70.464l-57.944-55.315c-12.726,3.234-25.055,7.455-36.911,12.568l51.089,48.771
		C222.808,72.813,237.465,70.739,252.563,70.464z"/>
	<path style="fill:#FFFFFF;" d="M98.522,63.777l45.969,43.883c9.269-6.979,19.214-13.104,29.718-18.271l-47.684-45.52
		C116.722,49.865,107.367,56.521,98.522,63.777z"/>
</g>
<path style="fill:#EF7B7B;" d="M126.551,43.895c-10.204,6.223-19.191,12.647-28.022,19.889l4.538,4.332
	c7.803-8.009,16.227-15.545,25.231-22.553L126.551,43.895z"/>
<path style="fill:#FFFFFF;" d="M73.92,86.921c-7.702,8.292-14.848,17.105-21.371,26.39l46.211,44.115
	c6.064-9.653,12.989-18.708,20.672-27.057L73.92,86.921z"/>
<path style="fill:#E4EAF8;" d="M62.718,123.017c5.457-10.086,11.628-19.825,18.493-29.137l-7.287-6.956
	c-7.943,8.549-14.867,17.167-21.373,26.389L62.718,123.017z"/>
<path style="fill:#FFFFFF;" d="M34.158,143.95c-5.428,10.726-10.101,21.897-13.949,33.448l52.41,50.032
	c1.999-12.939,5.344-25.431,9.872-37.341L34.158,143.95z"/>
<path style="fill:#E4EAF8;" d="M20.268,177.455l17.054,16.28c2.466-12.567,5.89-24.933,10.253-36.977l-13.392-12.784
	C28.727,154.8,24.081,165.993,20.268,177.455z"/>
<path style="fill:#FFFFFF;" d="M71.151,272.444l-60.245-57.51c-2.411,14.494-3.522,28.861-3.369,43.614L88.4,335.74
	C79.119,316.271,73.126,294.935,71.151,272.444z"/>
<path style="fill:#E4EAF8;" d="M10.927,214.952c-2.445,14.551-3.541,28.929-3.39,43.594l29.181,27.856
	c-3.092-16.827-4.401-33.796-3.997-50.645L10.927,214.952z"/>
<path style="fill:#F48C8C;" d="M64.699,414.594l29.028-24.064l-79.171-75.579C23.607,352.142,41.018,386.06,64.699,414.594z"/>
<path style="fill:#E4EAF8;" d="M64.699,414.594c8.31-6.888,14.153-11.733,22.073-18.298c-8.84-11.128-16.262-22.379-22.83-34.199
	l-49.378-47.138C23.411,351.287,40.688,385.663,64.699,414.594z"/>
<path style="fill:#FF9052;" d="M444.224,93.747l-47.656,41.082c28.053,32.512,45.02,74.86,45.02,121.171h62.921
	C504.507,193.987,481.789,137.281,444.224,93.747L444.224,93.747z"/>
<path style="fill:#474D54;" d="M425.001,63.723c-3.109-2.734-7.849-2.432-10.586,0.679c-2.735,3.11-2.432,7.849,0.679,10.586
	c6.5,5.717,12.654,11.75,18.447,18.064l-36.303,31.296c-34.893-37.416-83.014-59.309-133.73-61.281V15.124
	c44.288,1.362,87.054,14.763,124.122,38.979c3.466,2.263,8.113,1.29,10.382-2.178c2.265-3.468,1.29-8.115-2.178-10.382
	C354.23,14.366,305.879,0,256.006,0C114.523,0,0.007,114.497,0.007,255.999c0,141.209,114.233,255.999,255.999,255.999
	c65.383,0,127.628-24.655,175.267-69.424c3.019-2.837,3.166-7.583,0.33-10.603c-2.838-3.021-7.585-3.165-10.603-0.33
	c-97.781,91.889-254.08,87.285-345.648-16.141l36.924-30.61c5.342,5.957,11.068,11.623,17.183,16.934
	c3.126,2.716,7.864,2.385,10.581-0.744c2.717-3.127,2.383-7.865-0.744-10.581C5.858,274.609,106.201,51.084,284.882,80.274
	c85.448,14.027,149.203,88.195,149.203,175.726c0,136.808-148.736,222.427-266.812,154.431c-3.59-2.068-8.176-0.833-10.243,2.756
	c-2.067,3.59-0.833,8.176,2.756,10.243c124.365,71.617,283.546-14.27,289.14-159.93h47.954
	c-1.578,52.616-19.744,101.98-52.804,143.187c-2.593,3.23-2.074,7.951,1.156,10.544c1.385,1.111,3.042,1.65,4.688,1.65
	c2.196,0,4.373-0.96,5.854-2.807C540.783,310.123,528.479,154.739,425.001,63.723z M36.45,156.508l37.31,35.616
	c-2.27,6.473-4.488,14.245-5.905,20.389l-38.99-37.221C31.123,168.941,33.659,162.661,36.45,156.508z M23.78,191.179l40.875,39.02
	c-1.033,7.709-1.63,15.342-1.708,24.046l-43.987-41.993C20.258,205.139,21.858,198.106,23.78,191.179z M16.356,230.505
	l47.592,45.433c1.108,10.808,3.113,21.435,5.997,31.816l-54.928-52.436C15.041,246.72,15.52,238.417,16.356,230.505z
	 M65.773,403.959c-14.307-18.38-26.586-39.761-35.497-63.63l52.173,49.806L65.773,403.959z M82.307,340.294
	c5.669,11.676,12.603,22.91,20.378,33.065l-8.61,7.137l-72.65-69.355c-2.642-11.227-4.483-22.66-5.494-34.212L82.307,340.294z
	 M79.782,177.135l-36.427-34.774c3.204-5.977,6.682-11.819,10.401-17.528l35.512,33.902
	C85.83,164.608,82.584,170.896,79.782,177.135z M97.453,145.811l-34.995-33.408c3.753-5.045,7.72-9.969,11.868-14.724l34.7,33.127
	C104.93,135.612,101.062,140.628,97.453,145.811z M119.254,119.831l-34.725-33.15c4.53-4.586,8.804-8.606,13.674-12.838
	l34.922,33.337C128.292,111.178,123.625,115.447,119.254,119.831z M145.141,97.912l-35.204-33.606
	c5.063-3.862,10.289-7.533,15.63-10.98l35.919,34.288C155.869,90.774,150.408,94.215,145.141,97.912z M175.685,80.431L138.862,45.28
	c5.938-3.313,11.466-6.085,17.245-8.72l38.202,36.469C188.368,75.038,181.895,77.581,175.685,80.431z M210.984,68.208
	l-39.686-37.885c6.957-2.613,14.039-4.905,21.173-6.852l42.522,40.592C227.174,64.914,218.873,66.327,210.984,68.208z
	 M248.506,56.224l-38.586-36.835c12.334-2.375,25.067-3.85,38.586-4.26V56.224z M448.94,248.499
	c-1.62-41.642-16.644-81.099-41.904-112.794l36.283-31.279c32.956,40.739,51.912,91.248,53.557,144.073L448.94,248.499
	L448.94,248.499z"/>
<g>
</g>
<g>
</g>
<g>
</g>
<g>
</g>
<g>
</g>
<g>
</g>
<g>
</g>
<g>
</g>
<g>
</g>
<g>
</g>
<g>
</g>
<g>
</g>
<g>
</g>
<g>
</g>
<g>
</g>
</svg>
