<?xml version="1.0" encoding="iso-8859-1"?>
<!-- Generator: Adobe Illustrator 19.0.0, SVG Export Plug-In . SVG Version: 6.00 Build 0)  -->
<svg version="1.1" id="Capa_1" xmlns="http://www.w3.org/2000/svg" xmlns:xlink="http://www.w3.org/1999/xlink" x="0px" y="0px"
	 viewBox="0 0 512 512" style="enable-background:new 0 0 512 512;" xml:space="preserve">
<path style="fill:#91DFBF;" d="M459.321,483.167V163.468c0-5.777-4.683-10.461-10.461-10.461h-33.083
	c-5.776,0-10.461,4.683-10.461,10.461v319.698H459.321z"/>
<path style="fill:#FF9052;" d="M224.166,483.167v-89.212c0-5.777-4.683-10.461-10.461-10.461h-33.083
	c-5.777,0-10.461,4.683-10.461,10.461v89.212C180.911,483.167,213.421,483.167,224.166,483.167z"/>
<path style="fill:#ABFFDB;" d="M341.744,483.167V253.099c0-5.777-4.683-10.461-10.461-10.461H298.2
	c-5.777,0-10.46,4.683-10.46,10.461v230.068H341.744z"/>
<path style="fill:#FEA82F;" d="M106.588,483.167V346.839c0-5.777-4.683-10.461-10.461-10.461H63.045
	c-5.776,0-10.46,4.683-10.46,10.461v136.328H106.588z"/>
<path style="fill:#48C397;" d="M442.779,153.009h-27.001c-5.776,0-10.46,4.683-10.46,10.46v319.697h27.001V163.469
	C432.318,157.692,437.001,153.009,442.779,153.009z"/>
<path style="fill:#FF8031;" d="M207.624,383.494h-27.001c-5.777,0-10.461,4.683-10.461,10.461v89.212c10.46,0,10.721,0,27.001,0
	v-89.212C197.163,388.177,201.846,383.494,207.624,383.494z"/>
<path style="fill:#91DFBF;" d="M325.201,242.639H298.2c-5.777,0-10.46,4.683-10.46,10.46v230.067h27.001V253.1
	C314.741,247.322,319.424,242.639,325.201,242.639z"/>
<path style="fill:#FF9052;" d="M90.045,336.378H63.045c-5.776,0-10.46,4.683-10.46,10.461v136.328h27.001V346.839
	C79.586,341.061,84.269,336.378,90.045,336.378z"/>
<path style="fill:#91DFBF;" d="M455.408,74.806h-46.176c-8.053,0-14.582,6.528-14.582,14.582v26.338c0,4.021,3.26,7.281,7.281,7.281
	h61.392c3.682,0,6.666-2.985,6.666-6.666V89.388C469.989,81.334,463.46,74.806,455.408,74.806z"/>
<path style="fill:#ABFFDB;" d="M337.829,164.436h-46.176c-8.053,0-14.582,6.528-14.582,14.582v26.338
	c0,4.021,3.26,7.281,7.281,7.281h61.392c3.682,0,6.666-2.985,6.666-6.666v-26.953C352.411,170.965,345.883,164.436,337.829,164.436z
	"/>
<path style="fill:#FF9052;" d="M220.252,305.291h-46.176c-8.053,0-14.582,6.528-14.582,14.582v26.338
	c0,4.021,3.26,7.281,7.281,7.281h61.392c3.682,0,6.666-2.985,6.666-6.666v-26.953C234.834,311.819,228.305,305.291,220.252,305.291z
	"/>
<path style="fill:#FEA82F;" d="M102.674,258.175H56.498c-8.053,0-14.582,6.528-14.582,14.582v26.338c0,4.021,3.26,7.281,7.281,7.281
	h61.392c3.682,0,6.666-2.985,6.666-6.666v-26.953C117.256,264.704,110.728,258.175,102.674,258.175z"/>
<path style="fill:#48C397;" d="M432.303,115.726V89.388c0-8.053,6.528-14.582,14.582-14.582h-37.654
	c-8.053,0-14.582,6.528-14.582,14.582v26.338c0,4.021,3.26,7.281,7.281,7.281h37.654
	C435.563,123.007,432.303,119.747,432.303,115.726z"/>
<path style="fill:#91DFBF;" d="M314.726,205.356v-26.338c0-8.053,6.528-14.582,14.582-14.582h-37.654
	c-8.053,0-14.582,6.528-14.582,14.582v26.338c0,4.021,3.26,7.281,7.281,7.281h37.654
	C317.986,212.637,314.726,209.377,314.726,205.356z"/>
<path style="fill:#FF8031;" d="M197.149,346.21v-26.338c0-8.053,6.528-14.582,14.582-14.582h-37.654
	c-8.053,0-14.582,6.528-14.582,14.582v26.338c0,4.021,3.26,7.281,7.281,7.281h37.654
	C200.408,353.492,197.149,350.232,197.149,346.21z"/>
<path style="fill:#FF9052;" d="M79.571,299.095v-26.338c0-8.053,6.528-14.582,14.582-14.582H56.498
	c-8.053,0-14.582,6.528-14.582,14.582v26.338c0,4.021,3.26,7.281,7.281,7.281h37.654C82.831,306.376,79.571,303.116,79.571,299.095z
	"/>
<circle style="fill:#FFC850;" cx="79.585" cy="211.51" r="24.388"/>
<path style="fill:#FEA82F;" d="M79.588,187.122c-18.62-0.018-30.549,20.252-21.122,36.579c9.427,16.327,32.948,16.131,42.241-0.002
	C81.929,223.679,70.22,203.384,79.588,187.122z"/>
<path style="fill:#AFB5BC;" d="M489.708,471.166c-9.682,0-456.716,0-467.416,0c-8.169,0-14.792,6.622-14.792,14.792l0,0
	c0,8.168,6.622,14.791,14.792,14.791c10.728,0,457.711,0,467.416,0c8.169,0,14.792-6.622,14.792-14.791l0,0
	C504.5,477.788,497.877,471.166,489.708,471.166z"/>
<path style="fill:#969A9F;" d="M60.452,485.957L60.452,485.957c0-8.17,6.622-14.792,14.792-14.792H22.292
	c-8.169,0-14.792,6.622-14.792,14.792l0,0c0,8.168,6.622,14.792,14.792,14.792h52.951C67.074,500.749,60.452,494.126,60.452,485.957
	z"/>
<circle style="fill:#FFC850;" cx="197.162" cy="258.623" r="24.388"/>
<path style="fill:#FEA82F;" d="M197.166,234.238c-18.62-0.018-30.549,20.252-21.122,36.579c6.734,11.665,21.65,15.662,33.315,8.928
	c3.848-2.222,6.855-5.337,8.925-8.93C199.507,270.796,187.798,250.5,197.166,234.238z"/>
<circle style="fill:#FFC850;" cx="314.739" cy="117.765" r="24.388"/>
<path style="fill:#FEA82F;" d="M314.743,93.383c-4.145-0.004-8.348,1.043-12.196,3.264c-11.665,6.734-15.662,21.65-8.927,33.315
	c9.427,16.327,32.948,16.131,42.241-0.002C317.085,129.941,305.376,109.645,314.743,93.383z"/>
<circle style="fill:#FFC850;" cx="432.316" cy="28.139" r="24.388"/>
<path style="fill:#FEA82F;" d="M432.321,3.753c-18.62-0.018-30.549,20.252-21.122,36.579s32.948,16.131,42.241-0.002
	C434.662,40.311,422.954,20.015,432.321,3.753z"/>
<path style="fill:#474D54;" d="M489.709,463.666h-22.887V260.14c0-4.143-3.357-7.5-7.5-7.5c-4.143,0-7.5,3.357-7.5,7.5v203.525
	h-39.002V163.468c0-1.632,1.328-2.959,2.96-2.959h33.082c1.632,0,2.96,1.327,2.96,2.959v61.67c0,4.143,3.357,7.5,7.5,7.5
	c4.143,0,7.5-3.357,7.5-7.5v-61.67c0-9.903-8.057-17.96-17.961-17.96h-33.082c-9.904,0-17.961,8.057-17.961,17.96v300.197h-48.573
	V253.099c0-9.903-8.057-17.96-17.961-17.96h-33.082c-9.904,0-17.961,8.057-17.961,17.96v210.567h-48.573v-69.711
	c0-9.904-8.057-17.961-17.961-17.961h-33.083c-9.903,0-17.96,8.057-17.96,17.961v69.711H114.09v-62.671c0-4.143-3.357-7.5-7.5-7.5
	s-7.5,3.357-7.5,7.5v62.671H60.087V346.839c0-1.632,1.327-2.96,2.959-2.96h33.083c1.632,0,2.96,1.328,2.96,2.96v19.154
	c0,4.143,3.357,7.5,7.5,7.5s7.5-3.357,7.5-7.5v-19.154c0-9.904-8.057-17.961-17.961-17.961H63.045
	c-9.903,0-17.96,8.057-17.96,17.961v116.827H22.291C10,463.666,0,473.665,0,485.957c0,12.292,10,22.292,22.291,22.292h365.525
	c4.143,0,7.5-3.357,7.5-7.5s-3.357-7.5-7.5-7.5H22.291c-4.02,0-7.29-3.271-7.29-7.291s3.271-7.29,7.29-7.29
	c57.833,0,417.283,0,467.417,0c4.02,0,7.29,3.271,7.29,7.29c0,4.021-3.271,7.291-7.29,7.291h-66.89c-4.143,0-7.5,3.357-7.5,7.5
	s3.357,7.5,7.5,7.5h66.89C502,508.249,512,498.249,512,485.957C512,473.665,502,463.666,489.709,463.666z M216.665,463.666h-39.002
	v-69.711c0-1.632,1.327-2.96,2.959-2.96h33.083c1.632,0,2.96,1.328,2.96,2.96V463.666z M334.243,463.666h-39.002V253.099
	c0-1.632,1.328-2.959,2.96-2.959h33.082c1.632,0,2.96,1.327,2.96,2.959V463.666z"/>
<g>
</g>
<g>
</g>
<g>
</g>
<g>
</g>
<g>
</g>
<g>
</g>
<g>
</g>
<g>
</g>
<g>
</g>
<g>
</g>
<g>
</g>
<g>
</g>
<g>
</g>
<g>
</g>
<g>
</g>
</svg>
