<?xml version="1.0" encoding="iso-8859-1"?>
<!-- Generator: Adobe Illustrator 19.0.0, SVG Export Plug-In . SVG Version: 6.00 Build 0)  -->
<svg version="1.1" id="Capa_1" xmlns="http://www.w3.org/2000/svg" xmlns:xlink="http://www.w3.org/1999/xlink" x="0px" y="0px"
	 viewBox="0 0 512 512" style="enable-background:new 0 0 512 512;" xml:space="preserve">
<path style="fill:#FEA82F;" d="M479.297,75.539H233.55c-13.861,0-25.203,11.341-25.203,25.203c0,6.059,0,157.884,0,151.709
	c0,21.935,17.782,39.717,39.717,39.717c14.233,0,206.253,0,195.793,0c4.345,0,8.526,1.661,11.686,4.644l36.113,34.086
	c4.857,4.584,12.843,1.141,12.843-5.538c0-7.798,0-229.57,0-224.62C504.5,86.879,493.158,75.539,479.297,75.539z"/>
<g>
	<path style="fill:#FF9052;" d="M238.349,252.45c0-14.153,0-130.941,0-151.709c0-13.861,11.341-25.203,25.203-25.203H233.55
		c-13.861,0-25.203,11.341-25.203,25.203c0,17.554,0,132.596,0,151.709c0,21.935,17.782,39.717,39.717,39.717h30.002
		C256.132,292.168,238.349,274.386,238.349,252.45z"/>
	<path style="fill:#FF9052;" d="M504.5,325.36v-14.434l-14.954-14.115c-3.16-2.982-7.34-4.644-11.686-4.644h-34.002
		c2.716,0,5.367,0.649,7.745,1.864c4.546,2.322,5.29,4.698,40.053,36.866C496.472,335.444,504.5,332.087,504.5,325.36z"/>
</g>
<path style="fill:#FFFFFF;" d="M272.54,178.992c-12.243,0-227.592,0-239.837,0c-13.861,0-25.203,11.341-25.203,25.203
	c0,22.026,0,199.029,0,224.62c0,6.679,7.985,10.123,12.843,5.538l36.113-34.086c3.16-2.982,7.34-4.644,11.686-4.644H278.45
	c13.861,0,25.203-11.341,25.203-25.203c0-18.746,0-142.931,0-160.314C303.652,192.922,289.723,178.992,272.54,178.992z"/>
<path style="fill:#E4EAF8;" d="M37.502,204.194c0-13.861,11.341-25.203,25.203-25.203H32.703c-13.861,0-25.203,11.341-25.203,25.203
	c0,22.026,0,199.029,0,224.62c0,6.679,7.985,10.123,12.843,5.538l17.159-16.197C37.502,408.765,37.502,213.619,37.502,204.194z"/>
<path style="fill:#ABFFDB;" d="M333.526,229.356l-6.983-6.808c-10.117-9.859-4.174-21.885-4.041-26.854
	c1.057-6.161-3.158-11.992-9.368-12.894c-4.738-1.397-18.157,0.448-24.375-12.154l-4.324-8.762
	c-2.771-5.616-9.614-7.839-15.158-4.925c-4.655,1.653-14.4,11.022-26.839,4.482l-8.527-4.482
	c-5.467-2.873-12.353-0.759-15.157,4.925c-2.824,4.126-5.214,17.503-19.14,19.526l-9.56,1.389
	c-6.199,0.901-10.427,6.721-9.368,12.894c0.131,4.894,6.017,17.05-4.04,26.854l-6.984,6.808c-4.486,4.37-4.484,11.567,0,15.937
	l6.983,6.807c10.116,9.861,4.174,21.886,4.041,26.855c-1.059,6.174,3.17,11.994,9.368,12.894
	c4.729,1.395,18.156-0.448,24.375,12.154l4.324,8.762c1.976,4.003,5.964,6.21,9.995,6.21c4.301,0,6.282-2.181,13.689-5.767
	c12.521-6.583,22.045,2.779,26.839,4.481c5.534,2.909,12.381,0.702,15.158-4.924l4.324-8.762
	c6.254-12.674,19.54-10.728,24.375-12.154c6.198-0.9,10.428-6.72,9.368-12.894l-1.618-9.437
	c-2.391-13.943,9.527-20.178,12.643-24.224C338.011,240.923,338.011,233.727,333.526,229.356z"/>
<path style="fill:#91DFBF;" d="M205.339,270.62c-22.719-39.35-9.026-90.002,31.227-112.265l-2.655-1.396
	c-5.467-2.873-12.353-0.759-15.157,4.925c-2.824,4.125-5.214,17.503-19.14,19.526l-9.56,1.389
	c-6.199,0.901-10.428,6.721-9.368,12.894c0.131,4.894,6.017,17.05-4.04,26.854l-6.984,6.808c-4.486,4.371-4.484,11.567,0,15.938
	l6.983,6.807c10.116,9.861,4.174,21.886,4.041,26.855c-1.059,6.174,3.17,11.994,9.368,12.894
	c4.729,1.395,18.156-0.448,24.375,12.154l4.324,8.762c1.976,4.003,5.964,6.209,9.995,6.209c4.301,0,6.282-2.181,13.689-5.767
	c12.521-6.583,22.045,2.779,26.839,4.481c5.534,2.909,12.381,0.702,15.158-4.924l0.911-1.846
	C254.022,314.491,222.107,299.663,205.339,270.62z"/>
<g>
	<path style="fill:#FF8031;" d="M389.863,125.965h-83.671c-4.143,0-7.5,3.357-7.5,7.5c0,4.143,3.357,7.5,7.5,7.5h83.671
		c4.143,0,7.5-3.357,7.5-7.5C397.363,129.322,394.005,125.965,389.863,125.965z"/>
	<path style="fill:#FF8031;" d="M450.7,140.966c4.143,0,7.5-3.357,7.5-7.5c0-4.143-3.357-7.5-7.5-7.5h-32.17
		c-4.143,0-7.5,3.357-7.5,7.5c0,4.143,3.357,7.5,7.5,7.5H450.7z"/>
	<path style="fill:#FF8031;" d="M330.693,169.465c0,4.143,3.357,7.5,7.5,7.5H450.7c4.143,0,7.5-3.357,7.5-7.5
		c0-4.143-3.357-7.5-7.5-7.5H338.193C334.05,161.965,330.693,165.323,330.693,169.465z"/>
	<path style="fill:#FF8031;" d="M368.195,248.967H450.7c4.143,0,7.5-3.357,7.5-7.5c0-4.143-3.357-7.5-7.5-7.5h-82.505
		c-4.143,0-7.5,3.357-7.5,7.5C360.695,245.61,364.052,248.967,368.195,248.967z"/>
</g>
<path style="fill:#ABB0B7;" d="M57.821,351.969h39.17c4.143,0,7.5-3.357,7.5-7.5s-3.357-7.5-7.5-7.5h-39.17
	c-4.143,0-7.5,3.357-7.5,7.5S53.678,351.969,57.821,351.969z"/>
<path style="fill:#FFFFFF;" d="M282.084,216.384c-3.124-2.718-7.862-2.391-10.582,0.733l-28.789,33.08l-10.533-13.085
	c-2.6-3.227-7.319-3.737-10.547-1.14c-3.227,2.597-3.736,7.319-1.14,10.547l16.151,20.064c2.933,3.642,8.439,3.738,11.501,0.221
	l34.671-39.839C285.538,223.841,285.208,219.103,282.084,216.384z"/>
<g>
	<path style="fill:#ABB0B7;" d="M118.158,344.469c0,4.143,3.357,7.5,7.5,7.5H252.52c4.143,0,7.5-3.357,7.5-7.5s-3.357-7.5-7.5-7.5
		H125.659C121.516,336.969,118.158,340.326,118.158,344.469z"/>
	<path style="fill:#ABB0B7;" d="M57.821,279.969h39.17c4.143,0,7.5-3.357,7.5-7.5s-3.357-7.5-7.5-7.5h-39.17
		c-4.143,0-7.5,3.357-7.5,7.5S53.678,279.969,57.821,279.969z"/>
	<path style="fill:#ABB0B7;" d="M146.357,264.968H125.66c-4.143,0-7.5,3.357-7.5,7.5s3.357,7.5,7.5,7.5h20.697
		c4.143,0,7.5-3.357,7.5-7.5S150.499,264.968,146.357,264.968z"/>
	<path style="fill:#ABB0B7;" d="M134.033,228.966H57.987c-4.143,0-7.5,3.357-7.5,7.5c0,4.143,3.357,7.5,7.5,7.5h76.047
		c4.143,0,7.5-3.357,7.5-7.5C141.534,232.323,138.176,228.966,134.033,228.966z"/>
	<path style="fill:#ABB0B7;" d="M162.994,300.968H57.987c-4.143,0-7.5,3.357-7.5,7.5c0,4.143,3.357,7.5,7.5,7.5h105.007
		c4.143,0,7.5-3.357,7.5-7.5C170.494,304.326,167.137,300.968,162.994,300.968z"/>
</g>
<g>
	<path style="fill:#FF8031;" d="M397.363,205.467c0-4.143-3.357-7.5-7.5-7.5h-31.994c-4.143,0-7.5,3.357-7.5,7.5
		c0,4.143,3.357,7.5,7.5,7.5h31.994C394.005,212.967,397.363,209.61,397.363,205.467z"/>
	<path style="fill:#FF8031;" d="M450.7,197.966h-32.17c-4.143,0-7.5,3.357-7.5,7.5c0,4.143,3.357,7.5,7.5,7.5h32.17
		c4.143,0,7.5-3.357,7.5-7.5C458.201,201.323,454.843,197.966,450.7,197.966z"/>
</g>
<g>
	<path style="fill:#474D54;" d="M479.298,68.038H294.662c-4.143,0-7.5,3.357-7.5,7.5s3.357,7.5,7.5,7.5h184.636
		c9.761,0,17.701,7.94,17.701,17.701v15.224c0,4.143,3.357,7.5,7.5,7.5s7.5-3.357,7.5-7.5V100.74
		C512,82.708,497.33,68.038,479.298,68.038z"/>
	<path style="fill:#474D54;" d="M504.5,143.466c-4.143,0-7.5,3.357-7.5,7.5l0.015,174.446c-0.24,0.285,0.844,0.859-36.321-34.054
		c-4.569-4.313-10.549-6.689-16.834-6.689h-114.08c1.514-7.219-2.516-15.435-1.524-20.715c1.549-8.325,12.514-11.211,15.43-21.554
		c3.786-13.457-7.559-20.431-9.6-22.971l-2.308-2.25c-9.79-9.541,4.477-21.032-5.171-34.316c-4.336-5.967-9.979-7.424-16.781-8.146
		c-15.011-1.593-12.886-6.128-18.665-16.149c-4.431-8.979-14.777-12.405-23.259-9.197c-0.005,0.002-0.01,0.005-0.015,0.007
		c-7.926,3.009-13.619,9.811-21.958,5.427c-7.505-3.74-9.398-5.486-13.784-6.297c-5.994-1.109-12.061,0.77-16.295,4.832v-52.597
		c0-9.761,7.94-17.701,17.702-17.701h26.109c4.143,0,7.5-3.357,7.5-7.5s-3.357-7.5-7.5-7.5H233.55
		c-18.032,0-32.703,14.67-32.703,32.702v70.75H32.702C14.67,171.493,0,186.163,0,204.195v122.773c0,4.143,3.357,7.5,7.5,7.5
		s7.5-3.357,7.5-7.5V204.194c0-9.762,7.94-17.702,17.701-17.702h141.811c-2.183,5.08-1.591,9.659-0.5,14.814
		c3.172,14.976-2.146,14.188-9.585,22.678c-3.008,2.69-5.63,7.845-5.631,13.34c0,11.093,8.486,15.213,12.613,20.148
		c9.027,8.799-2.398,18.904,3.333,31.2c8.079,17.335,26.625,5.812,32.961,18.651l4.323,8.761
		c5.391,10.927,16.622,10.363,16.722,10.393c5.813,0,8.57-2.151,17.179-6.628c11.734-6.165,17.889,9.543,32.665,6.154
		c12.769-2.937,14.323-15.764,16.891-18.679c0.199-0.403,0.396-0.757,0.667-1.195v64.292c0,9.761-7.94,17.701-17.702,17.701H68.142
		c-6.284,0-12.264,2.376-16.834,6.69l-36.141,34.132c-0.348,0.033-0.058,2.204-0.166-66.974c0-4.143-3.357-7.5-7.5-7.5
		s-7.5,3.357-7.5,7.5v66.844c0,13.265,15.848,20.093,25.492,10.993l36.113-34.086c5.219-4.929-2.194-1.659,216.844-2.599
		c18.032,0,32.703-14.67,32.703-32.702v-70.628c1.658-0.19,99.769-0.101,132.705-0.122c6.623,0,5.928,3.182,42.65,36.684
		c9.638,9.095,25.492,2.291,25.492-10.993V150.966C512,146.824,508.642,143.466,504.5,143.466z M313.563,260.722
		c-1.577,7.76,1.461,16.683,1.598,19.979c0.289,6.892-11.548,1.622-23.631,9.255c-11.344,7.194-11.813,19.993-15.95,21.337
		c-4.877,1.571-17.683-14.578-36.516-4.784c-8.706,4.527-8.995,4.966-10.315,4.966c-1.312,0-2.612-0.699-3.268-2.029l-4.324-8.762
		c-8.056-16.323-25.573-15.111-28.981-16.028c-1.059-0.312-2.386-0.205-3.459-1.685c-3.029-4.168,8.258-21.528-6.835-36.239
		c-0.275-0.268-7.135-6.956-6.984-6.809c-1.454-1.418-1.474-3.757,0.001-5.195l6.983-6.807c12.845-12.521,6.488-28.912,6.302-32.425
		c-0.01-0.358-0.045-0.715-0.105-1.067c-1.756-10.247,21.88,3.655,34.63-23.519c2.264-4.798,3.166-8.334,6.708-7.656
		c0.873,0.165,0.557,0.144,9.532,4.83c13.421,7.056,24.883,0.453,30.389-2.72c3.412-1.969,1.995-1.009,3.431-1.762
		c8.427-4.423,4.476,18.042,26.281,24.396c12.603,3.673,17.832-0.927,15.441,10.247c-1.323,6.186-4.075,19.059,6.818,29.677
		c5.367,5.874,8.759,6.912,7.988,10.232C328.372,242.124,316.354,247.23,313.563,260.722z"/>
</g>
<g>
</g>
<g>
</g>
<g>
</g>
<g>
</g>
<g>
</g>
<g>
</g>
<g>
</g>
<g>
</g>
<g>
</g>
<g>
</g>
<g>
</g>
<g>
</g>
<g>
</g>
<g>
</g>
<g>
</g>
</svg>
