<?xml version="1.0" encoding="iso-8859-1"?>
<!-- Generator: Adobe Illustrator 19.0.0, SVG Export Plug-In . SVG Version: 6.00 Build 0)  -->
<svg version="1.1" id="Capa_1" xmlns="http://www.w3.org/2000/svg" xmlns:xlink="http://www.w3.org/1999/xlink" x="0px" y="0px"
	 viewBox="0 0 512.002 512.002" style="enable-background:new 0 0 512.002 512.002;" xml:space="preserve">
<path style="fill:#FFFFFF;" d="M242.5,206.536c0,39.198,0,148.931,0,188.59h27.002c0-10.962,0-177.827,0-188.813
	C262.072,213.981,250.068,214.093,242.5,206.536z"/>
<path style="fill:#E4EAF8;" d="M256,212.128c-5.232,0.032-9.982-2.078-13.501-5.592c0,39.2,0,148.93,0,188.59H256
	C256,384.631,256,223.565,256,212.128z"/>
<g>
	<path style="fill:#DDDDDD;" d="M70.087,355.152c0,3.527,0,10.33,0,13.874c0,8.169,6.622,14.792,14.792,14.792
		c8.168,0,14.792-6.622,14.792-14.792c0-3.544,0-10.347,0-13.874L70.087,355.152L70.087,355.152z"/>
	<path style="fill:#DDDDDD;" d="M412.33,355.152c0,3.527,0,10.33,0,13.874c0,8.169,6.622,14.792,14.792,14.792
		c8.168,0,14.791-6.622,14.791-14.792c0-3.544,0-10.347,0-13.874L412.33,355.152L412.33,355.152z"/>
</g>
<g>
	<path style="fill:#CCCCCC;" d="M84.589,369.026c0-3.544,0-10.347,0-13.874H70.088c0,3.527,0,10.33,0,13.874
		c0,11.342,12.247,18.409,22.042,12.885C87.631,379.374,84.589,374.56,84.589,369.026z"/>
	<path style="fill:#CCCCCC;" d="M426.831,369.026c0-3.544,0-10.347,0-13.874H412.33c0,3.527,0,10.33,0,13.874
		c0,11.342,12.247,18.409,22.042,12.885C429.874,379.374,426.831,374.56,426.831,369.026z"/>
</g>
<g>
	<path style="fill:#FFFFFF;" d="M464.645,124.725c0-7.535-6.31-13.501-13.838-13.153c-48.736,2.252-82.115-18.601-99.283-33.198
		c-29.992-25.502-62.792-18.605-72.027-19.739c0.025,1.392,0.008,25.615,0.008,27.002c10.135,1.074,33.017-4.701,54.007,13.147
		c31.22,26.543,72.141,41.844,117.775,39.853C458.748,138.311,464.645,132.192,464.645,124.725L464.645,124.725z"/>
	<path style="fill:#FFFFFF;" d="M47.355,124.725c0-7.535,6.31-13.501,13.838-13.153c48.736,2.252,82.115-18.601,99.283-33.198
		c29.992-25.502,62.792-18.605,72.027-19.739c-0.025,1.392-0.008,25.615-0.008,27.002c-10.135,1.074-33.017-4.701-54.007,13.147
		c-31.22,26.543-72.141,41.844-117.775,39.853C53.252,138.311,47.355,132.192,47.355,124.725L47.355,124.725z"/>
</g>
<path style="fill:#CCCCCC;" d="M279.51,71.626c0.001-20.051,0.001-10.121,0.001-12.992h-0.013
	C279.518,59.653,279.506,67.618,279.51,71.626z"/>
<path style="fill:#E4EAF8;" d="M458.89,124.707c-47.62,1.988-90.357-13.287-122.986-39.853
	c-21.896-17.83-45.799-12.072-56.393-13.147c0,0.104-0.004,13.827-0.004,13.93c10.134,1.074,33.018-4.701,54.007,13.148
	c31.248,26.566,72.177,41.844,117.775,39.853c8.122-0.354,14.102-7.479,13.284-15.299
	C462.842,124.134,460.924,124.622,458.89,124.707z"/>
<path style="fill:#CCCCCC;" d="M232.49,71.62c0.004-5.229-0.01-11.726,0.012-12.986h-0.012
	C232.49,61.505,232.49,51.577,232.49,71.62z"/>
<path style="fill:#E4EAF8;" d="M232.49,71.705c-10.23,1.063-33.682-4.712-55.12,13.148c-31.908,26.578-73.687,41.843-120.21,39.853
	c-3.583-0.153-6.802-1.6-9.218-3.856c-2.581,8.38,3.551,17.384,12.769,17.786c45.545,1.988,86.486-13.252,117.775-39.853
	c21.008-17.864,43.789-12.064,54.007-13.148C232.495,85.532,232.49,71.809,232.49,71.705z"/>
<path style="fill:#48C397;" d="M337.919,462.311c-1.438-8.48-6.912-16.171-15.491-20.213c-6.809-3.247-12.728-8.655-16.571-15.57
	c-5.267-9.393-4.675-18.803-4.675-18.105c0.002-1.857-0.919-3.588-2.511-4.546c-8.813-5.305-18.684-9.03-29.234-10.75h-26.875
	c-10.55,1.72-20.422,5.444-29.234,10.75c-2.897,1.744-2.443,4.609-2.601,7.031c-0.867,13.531-9.06,25.419-21.156,31.191
	c-8.796,4.193-14.34,12.032-15.638,21.12c-0.713,5.034-0.826,9.183-0.826,13.7h165.785
	C338.893,471.652,338.764,467.827,337.919,462.311z"/>
<path style="fill:#5FA77E;" d="M236.245,426.395c7.1-12.883,2.226-19.579,7.11-22.519c8.37-5.039,17.703-8.629,27.658-10.453
	c-3.584-0.657,2.339-0.076-28.45-0.297c-10.55,1.72-20.422,5.444-29.234,10.75c-3.322,2-2.149,4.779-2.9,9.951
	c-1.661,11.859-9.338,22.81-20.985,28.338c-8.038,3.796-14.129,11.373-15.511,21.054c-0.711,5.023-0.826,9.174-0.826,13.7h30.027
	C203.134,435.748,223.392,449.748,236.245,426.395z"/>
<g>
	<path style="fill:#FEA82F;" d="M367.472,318.231c0,14.74,1.246,26.175,14.864,32.631c7.512,3.587,8.324,7.29,14.165,7.29h60.896
		c5.379,0,6.617-3.185,12.347-6.352c2.62-1.453,13.523-5.738,15.804-19.188c0.294-1.915,0.451-3.27,0.598-4.988
		c0.246-2.898,0.281-4.99,0.281-9.394H367.472V318.231z"/>
	<path style="fill:#FEA82F;" d="M144.528,318.231c0,12.703-0.367,25.781-14.749,32.572c-7.64,3.634-8.467,7.35-14.28,7.35H54.603
		c-5.871,0-6.67-3.721-14.28-7.35c-7.301-3.448-12.881-10.258-14.102-19.787c-0.618-4.7-0.647-8.061-0.647-12.785H144.528z"/>
</g>
<g>
	<path style="fill:#FF9052;" d="M412.223,350.803c-14.057-6.637-14.749-18.983-14.749-32.572h-30.002
		c0,14.538,1.168,26.174,14.864,32.631c7.507,3.586,8.28,7.29,14.166,7.29h30.002C420.646,358.153,419.793,354.399,412.223,350.803z
		"/>
	<path style="fill:#FF9052;" d="M70.325,350.803c-14.257-6.732-14.749-19.694-14.749-32.572H25.575
		c0,12.716,0.367,25.881,14.864,32.631c7.598,3.626,8.272,7.29,14.166,7.29h30.002C78.761,358.153,77.949,354.424,70.325,350.803z"
		/>
</g>
<path style="fill:#E4EAF8;" d="M242.669,95.723c-2.174,0-4.225-0.542-6.037-1.485v102.154c0,10.633,8.62,19.251,19.251,19.251
	c10.632,0,19.251-8.619,19.251-19.251V94.353C270.373,96.709,268.682,95.298,242.669,95.723z"/>
<path style="fill:#C2C7D0;" d="M255.882,196.393V95.723c-11.643-0.362-14.639,0.914-19.251-1.485v102.155
	c0,14.911,16.18,24.009,28.877,16.655C259.76,209.718,255.882,203.514,255.882,196.393z"/>
<path style="fill:#E4EAF8;" d="M269.501,48.713c0-9.9,0-19.068,0-27.71c0-7.456-6.044-13.501-13.501-13.501
	S242.5,13.547,242.5,21.003c0,9.279,0,17.003,0,27.71C242.6,48.712,268.461,48.7,269.501,48.713z"/>
<path style="fill:#DDDDDD;" d="M269.332,48.704c0.057,0,0.112,0.008,0.169,0.009v-0.009H269.332z"/>
<path style="fill:#C2C7D0;" d="M256,21.003c0-4.994,2.719-9.345,6.75-11.68c-8.908-5.16-20.251,1.226-20.251,11.68
	c0,9.279,0,17.003,0,27.71c1.345-0.014,9.896-0.006,13.501-0.009C256,38.529,256,30.508,256,21.003z"/>
<path style="fill:#E4EAF8;" d="M357.34,504.502H154.66c-8.17,0-14.791-6.622-14.791-14.791l0,0c0-8.169,6.622-14.791,14.791-14.791
	h202.678c8.169,0,14.791,6.622,14.791,14.791l0,0C372.131,497.879,365.508,504.502,357.34,504.502z"/>
<path style="fill:#C2C7D0;" d="M187.372,489.71L187.372,489.71c0-8.169,6.622-14.792,14.791-14.792H154.66
	c-8.169,0-14.791,6.622-14.791,14.792l0,0c0,8.168,6.622,14.792,14.791,14.792h47.503
	C193.995,504.502,187.372,497.879,187.372,489.71z"/>
<g>
	<path style="fill:#FFC850;" d="M489.708,291.649c-13.864,0-111.179,0-125.174,0c-8.169,0-14.792,6.622-14.792,14.792
		c0,8.168,6.622,14.791,14.792,14.791c13.996,0,111.306,0,125.174,0c8.169,0,14.791-6.622,14.791-14.791
		C504.5,298.271,497.877,291.649,489.708,291.649z"/>
	<path style="fill:#FFC850;" d="M22.292,291.649c13.864,0,111.179,0,125.174,0c8.17,0,14.792,6.622,14.792,14.792
		c0,8.168-6.622,14.791-14.792,14.791c-13.996,0-111.306,0-125.174,0c-8.169,0-14.792-6.622-14.792-14.791
		C7.5,298.271,14.123,291.649,22.292,291.649z"/>
</g>
<g>
	<path style="fill:#FEA82F;" d="M384.411,306.44c0-8.169,6.622-14.792,14.792-14.792c-8.397,0-26.469,0-34.669,0
		c-8.169,0-14.792,6.622-14.792,14.792c0,8.169,6.622,14.792,14.792,14.792c8.251,0,26.337,0,34.669,0
		C391.034,321.231,384.411,314.609,384.411,306.44z"/>
	<path style="fill:#FEA82F;" d="M42.17,306.44c0-8.169,6.622-14.792,14.791-14.792c-8.397,0-26.469,0-34.669,0
		c-8.169,0-14.792,6.622-14.792,14.792c0,8.169,6.622,14.792,14.792,14.792c8.25,0,26.337,0,34.669,0
		C48.791,321.231,42.17,314.609,42.17,306.44z"/>
</g>
<path style="fill:#48C397;" d="M269.332,98.723h-26.664c-7.247,0-13.178-5.93-13.178-13.178V58.882
	c0-7.247,5.93-13.178,13.178-13.178h26.664c7.247,0,13.178,5.93,13.178,13.178v26.664C282.51,92.794,276.58,98.723,269.332,98.723z"
	/>
<path style="fill:#5FA77E;" d="M256,85.545V58.882c0-7.247,5.93-13.178,13.178-13.178h-26.51c-7.248,0-13.178,5.93-13.178,13.178
	v26.664c0,7.247,5.93,13.178,13.178,13.178h26.51C261.93,98.723,256,92.794,256,85.545z"/>
<path style="fill:#474D54;" d="M489.708,284.148h-0.283l-53.446-137.991c5.151,0.198,9.819,0.226,15.637-0.027
	c11.512-0.502,20.529-9.905,20.529-21.405c0-12.048-10.133-21.189-21.684-20.645c-5.549,0.259-10.883,0.186-16.012-0.146v-1.463
	c0-4.143-3.357-7.5-7.5-7.5c-4.03,0-7.307,3.179-7.483,7.165c-30.375-5.358-51.722-19.816-63.082-29.476
	c-30.423-25.869-63.918-20.936-67.892-21.525c-2.112-5.202-6.277-9.349-11.49-11.44V21.003c0-11.58-9.422-21.001-21.001-21.001
	s-21.001,9.422-21.001,21.001v18.691c-5.212,2.091-9.378,6.237-11.489,11.44c-4.062,0.602-37.339-4.454-67.893,21.525
	c-11.363,9.661-32.693,24.119-63.082,29.476c-0.176-3.986-3.453-7.166-7.483-7.166c-4.142,0-7.5,3.357-7.5,7.5v1.462
	c-5.128,0.332-10.462,0.405-16.013,0.147c-5.628-0.255-11.219,1.822-15.297,5.717c-13.141,12.546-4.813,35.506,14.144,36.333
	c5.916,0.257,10.598,0.221,15.637,0.027L22.575,284.148h-0.283c-12.292,0-22.292,10-22.292,22.291
	c0,10.962,7.955,20.094,18.394,21.944c2.104,24.933,17.906,27.154,24.781,33.172c6.627,5.785,15.654,3.683,19.411,4.098v3.373
	c0,12.292,10.001,22.292,22.292,22.292s22.291-10.001,22.291-22.292v-3.373c3.816-0.414,13.115,1.701,19.757-4.098
	c1.634-1.43,3.687-2.834,5.954-3.918c10.148-4.826,16.679-14.127,18.181-23.885c0.191-1.144,0.463-3.226,0.652-5.431
	c10.266-1.99,18.042-11.043,18.042-21.881c0-12.272-9.967-22.256-22.23-22.29L93.502,144.662
	c41.116-5.552,71.004-24.146,89.844-40.164c17.001-14.457,35.803-10.81,40.106-11.361c1.232,3.108,3.194,5.843,5.677,8.002v95.254
	c0,6.309,2.201,12.112,5.868,16.691v113.894c0,4.143,3.357,7.5,7.5,7.5c4.143,0,7.5-3.357,7.5-7.5V222.495
	c3.95,0.887,8.162,0.842,12.001-0.05v163.181h-12.001V361.98c0-4.143-3.357-7.5-7.5-7.5c-4.143,0-7.5,3.357-7.5,7.5v25.042
	c-8.975,2.136-17.545,5.615-25.54,10.428c-3.66,2.204-6.143,6.32-6.143,11.029c-0.019,10.905-5.396,20.784-17.23,26.977
	c-10.286,4.918-18.098,14.719-19.699,27.649c-0.274,2.098-0.37,3.252-0.457,4.313H154.66c-12.292,0-22.292,10-22.292,22.291
	c0,12.292,10.001,22.292,22.292,22.292h134.688c4.143,0,7.5-3.357,7.5-7.5c0-4.143-3.357-7.5-7.5-7.5H154.66
	c-4.021,0-7.291-3.271-7.291-7.291s3.271-7.29,7.291-7.29c7.31,0,189.413,0,202.678,0c4.021,0,7.291,3.271,7.291,7.29
	c0,4.021-3.271,7.291-7.291,7.291h-32.988c-4.143,0-7.5,3.357-7.5,7.5c0,4.143,3.357,7.5,7.5,7.5h32.988
	c12.292,0,22.292-10.001,22.292-22.292c0-12.292-10.001-22.291-22.292-22.291H346.07c-0.154-1.884-0.428-4.392-0.756-6.36
	c-1.843-10.87-8.878-20.64-19.659-25.731c-9.316-4.448-15.998-13.619-16.865-24.428c-0.157-2.771,0.341-9.48-6.249-13.449
	c-7.993-4.812-16.564-8.291-25.539-10.428V212.784c3.525-4.531,5.632-10.219,5.632-16.391v-40.079c0-4.143-3.357-7.5-7.5-7.5
	s-7.5,3.357-7.5,7.5v40.079c0,7.288-6.464,12.332-12.918,11.692c-5.91-0.589-10.584-5.609-10.584-11.692v-90.169h23.501v15.088
	c0,4.143,3.357,7.5,7.5,7.5s7.5-3.357,7.5-7.5v-19.957c2.599-2.19,4.642-5.008,5.914-8.217c4.344,0.557,23.071-3.124,40.105,11.361
	c18.84,16.018,48.728,34.611,89.845,40.164L364.473,284.15c-12.264,0.034-22.229,10.019-22.229,22.289
	c0,10.839,7.776,19.891,18.042,21.881c0.125,1.461,0.41,4.095,0.67,5.546c1.686,9.944,8.08,18.976,18.147,23.762
	c1.961,0.938,4.087,2.278,5.97,3.926c6.79,5.928,16.929,3.603,19.757,4.098v3.373c0,12.292,10,22.292,22.291,22.292
	c12.292,0,22.292-10.001,22.292-22.292v-3.373c3.409-0.607,12.081,1.902,19.225-3.939c2.03-1.681,3.602-2.865,6.142-4.076
	c11.293-5.383,17.634-15.064,18.826-29.254c10.439-1.85,18.394-10.983,18.394-21.944C512,294.148,501.999,284.148,489.708,284.148z
	 M61.039,131.143c-3.467-0.15-6.183-2.97-6.183-6.418c0-3.273,2.772-5.83,5.989-5.659c5.852,0.27,11.315,0.217,16.705-0.098v12.119
	C72.185,131.358,66.76,131.393,61.039,131.143z M92.17,369.026c0,4.021-3.271,7.291-7.29,7.291c-4.021,0-7.291-3.271-7.291-7.291
	v-3.373H92.17V369.026z M119.46,348.319l-0.47,0.357c-1.359,1.05-2.122,1.976-3.491,1.976c-81.267,0-54.359,1.84-71.973-6.632
	c-6.408-3.025-9.246-8.315-10.027-15.288h103.105C135.086,342.396,127.405,342.366,119.46,348.319z M154.756,306.44
	c0,4.021-3.271,7.291-7.29,7.291c-14.671,0-110.78,0-125.174,0c-4.021,0-7.291-3.271-7.291-7.291s3.271-7.29,7.291-7.29
	c36.369,0,65.768,0,125.174,0C151.486,299.149,154.756,302.419,154.756,306.44z M131.439,284.148H38.663L85.051,164.38
	L131.439,284.148z M221.99,78.136c-3.638,0.521-26.783-3.414-48.361,14.934c-17.054,14.5-44.024,31.302-81.077,36.567v-12.296
	c35.153-5.568,59.806-22.219,72.782-33.253c25.47-21.658,53.464-17.48,56.655-17.953L221.99,78.136L221.99,78.136z M268.815,400.627
	c8.779,1.502,17.142,4.534,24.887,9.024c0.465,15.364,8.199,29.27,23.077,37.968c2.751,1.522,11.866,4.861,13.745,15.946
	c0.078,0.586,0.288,1.828,0.488,3.853H180.988c0.013-0.101,0.521-4.109,0.488-3.853c2.52-14.866,14.477-12.686,25.851-25.742
	c1.685-2.023,2.254-2.804,2.144-2.659c5.34-7.174,8.521-15.792,8.829-25.514c7.744-4.488,16.108-7.521,24.887-9.024L268.815,400.627
	L268.815,400.627z M249.999,21.003c0-3.309,2.691-6,6-6c3.309,0,6,2.691,6,6v17.2h-12.001L249.999,21.003L249.999,21.003z
	 M275.005,85.636c-0.1,0.357,0.155,3.335-3.197,4.993c-0.989,0.49-1.945,0.577-1.845,0.556c-0.595,0.07,1.096,0.024-27.295,0.037
	c-2.86,0-5.54-2.066-5.677-5.819c0.002-5.938-0.007-24.023,0.01-26.711c0.173-5.206,5.941-5.683,5.498-5.479
	c0.102,0,26.01-0.022,26.873-0.001c2.92,0.061,5.446,2.068,5.637,5.857C275.009,59.185,275.005,85.524,275.005,85.636z
	 M434.449,118.956c16.948,0.991,17.926-1.197,20.949,1.69c3.735,3.567,1.118,10.256-4.438,10.497
	c-5.425,0.237-10.849,0.23-16.512-0.058L434.449,118.956L434.449,118.956z M338.371,93.07
	c-21.483-18.267-44.923-14.441-48.36-14.934V66.135c3.376,0.5,31.224-3.672,56.654,17.953
	c12.978,11.034,37.631,27.698,72.782,33.264v12.285C382.395,124.372,355.426,107.57,338.371,93.07z M426.949,164.38l46.388,119.768
	H380.56L426.949,164.38z M434.412,369.026c0,4.021-3.271,7.291-7.291,7.291c-4.02,0-7.29-3.271-7.29-7.291v-3.373h14.582V369.026z
	 M463.408,346.869c-3.836,2.528-4.288,3.783-6.012,3.783c-81.06,0-53.735,2.007-71.973-6.632
	c-6.385-3.014-9.247-8.292-10.027-15.288h103.105C477.128,341.092,470.686,342.286,463.408,346.869z M489.708,313.731
	c-15.169,0-111.786,0-125.174,0c-4.02,0-7.29-3.271-7.29-7.291s3.271-7.29,7.29-7.29c90.589,0,67.351,0,125.174,0
	c4.02,0,7.291,3.271,7.291,7.29C496.999,310.46,493.728,313.731,489.708,313.731z"/>
<g>
</g>
<g>
</g>
<g>
</g>
<g>
</g>
<g>
</g>
<g>
</g>
<g>
</g>
<g>
</g>
<g>
</g>
<g>
</g>
<g>
</g>
<g>
</g>
<g>
</g>
<g>
</g>
<g>
</g>
</svg>
