<?xml version="1.0" encoding="iso-8859-1"?>
<!-- Generator: Adobe Illustrator 19.0.0, SVG Export Plug-In . SVG Version: 6.00 Build 0)  -->
<svg version="1.1" id="Capa_1" xmlns="http://www.w3.org/2000/svg" xmlns:xlink="http://www.w3.org/1999/xlink" x="0px" y="0px"
	 viewBox="0 0 512 512" style="enable-background:new 0 0 512 512;" xml:space="preserve">
<g>
	<path style="fill:#AFB5BC;" d="M356.733,473.728v18.012c0,6.604,5.404,12.008,12.008,12.008h67.044
		c6.604,0,12.008-5.404,12.008-12.008v-18.012H356.733z"/>
	<path style="fill:#AFB5BC;" d="M64.207,473.728v18.012c0,6.604,5.404,12.008,12.008,12.008h67.044
		c6.604,0,12.008-5.404,12.008-12.008v-18.012H64.207z"/>
</g>
<g>
	<path style="fill:#969A9F;" d="M386.753,491.74v-18.012h-30.02v18.012c0,6.604,5.404,12.008,12.008,12.008h30.02
		C392.156,503.748,386.753,498.344,386.753,491.74z"/>
	<path style="fill:#969A9F;" d="M94.227,491.74v-18.012h-30.02v18.012c0,6.604,5.404,12.008,12.008,12.008h30.02
		C99.63,503.748,94.227,498.344,94.227,491.74z"/>
</g>
<path style="fill:#FFC850;" d="M473.217,476.73H38.784c-17.203,0-31.28-14.075-31.28-31.28V130.922
	c0-17.203,14.075-31.28,31.28-31.28h434.432c17.203,0,31.28,14.075,31.28,31.28V445.45
	C504.495,462.655,490.42,476.73,473.217,476.73z"/>
<path style="fill:#FEA82F;" d="M37.525,445.45V130.922c0-17.203,14.075-31.28,31.28-31.28h-30.02
	c-17.203,0-31.28,14.075-31.28,31.28v314.529c0,17.203,14.075,31.28,31.28,31.28h30.02C51.601,476.73,37.525,462.655,37.525,445.45z
	"/>
<path style="fill:#FF9052;" d="M473.216,99.642H38.783c-17.203,0-31.279,14.075-31.279,31.28v98.387
	c0,17.203,14.075,31.279,31.279,31.279c13.482,0,421.568,0,434.432,0c17.203,0,31.28-14.075,31.28-31.279v-98.387
	C504.495,113.719,490.42,99.642,473.216,99.642z"/>
<path style="fill:#FF8031;" d="M37.525,229.309v-98.388c0-17.203,14.075-31.28,31.279-31.28h-30.02
	c-17.203,0-31.279,14.075-31.279,31.28v98.388c0,17.203,14.075,31.28,31.279,31.28h30.02
	C51.601,260.588,37.525,246.513,37.525,229.309z"/>
<path style="fill:#AFB5BC;" d="M355.065,42.775h-198.13c-7.461,0-13.509-6.048-13.509-13.509s6.048-13.509,13.509-13.509h198.13
	c7.461,0,13.509,6.048,13.509,13.509S362.526,42.775,355.065,42.775z"/>
<path style="fill:#969A9F;" d="M256,29.266c0-7.461,6.048-13.509,13.509-13.509H156.935c-7.461,0-13.509,6.048-13.509,13.509
	s6.048,13.509,13.509,13.509h112.574C262.048,42.775,256,36.727,256,29.266z"/>
<path style="fill:#FFFFFF;" d="M260.659,306.092l16.381,33.192c0.757,1.533,2.219,2.596,3.912,2.842l36.629,5.322
	c4.261,0.619,5.963,5.856,2.879,8.861l-26.505,25.836c-1.225,1.194-1.783,2.913-1.494,4.598l6.257,36.481
	c0.727,4.244-3.726,7.48-7.538,5.477l-32.762-17.224c-1.514-0.796-3.321-0.796-4.835,0L220.821,428.7
	c-3.812,2.003-8.265-1.233-7.538-5.477l6.257-36.481c0.289-1.685-0.27-3.405-1.494-4.598l-26.505-25.836
	c-3.083-3.006-1.382-8.242,2.879-8.861l36.629-5.322c1.692-0.246,3.155-1.309,3.912-2.842l16.381-33.192
	C253.248,302.23,258.754,302.23,260.659,306.092z"/>
<path style="fill:#E4EAF8;" d="M255.562,376.236c0.289-1.685-0.27-3.405-1.494-4.598l-26.505-25.836
	c-0.878-0.856-1.355-1.892-1.509-2.951l-31.634,4.596c-4.261,0.619-5.962,5.856-2.879,8.861l26.505,25.836
	c1.224,1.194,1.783,2.913,1.494,4.598l-6.257,36.481c-0.727,4.244,3.726,7.48,7.538,5.477l28.419-14.941
	C249.212,412.654,249.015,414.687,255.562,376.236z"/>
<g>
	<path style="fill:#FF9052;" d="M120.187,299.103c-21.303-0.141-21.206,0.318-23.958-0.412v21.327
		c0,7.461,6.048,13.509,13.509,13.509s13.509-6.048,13.509-13.509v-21.327C122.267,298.951,121.245,299.103,120.187,299.103z"/>
	<path style="fill:#FF9052;" d="M412.712,299.103c-21.303-0.141-21.206,0.318-23.958-0.412v21.327
		c0,7.461,6.048,13.509,13.509,13.509c7.461,0,13.509-6.048,13.509-13.509v-21.327C414.792,298.951,413.771,299.103,412.712,299.103
		z"/>
</g>
<g>
	<path style="fill:#FF8031;" d="M109.737,320.018v-20.915c-10.021-0.122-10.886,0.284-13.509-0.412v21.327
		c0,10.463,11.353,16.848,20.263,11.687C112.458,329.368,109.737,325.015,109.737,320.018z"/>
	<path style="fill:#FF8031;" d="M402.263,320.018v-20.915c-10.041-0.122-10.886,0.284-13.509-0.412v21.327
		c0,10.463,11.353,16.848,20.263,11.687C404.984,329.368,402.263,325.015,402.263,320.018z"/>
</g>
<g>
	<path style="fill:#FFFFFF;" d="M132.195,290.097v-30.02c0-6.604-5.404-12.008-12.008-12.008H99.288
		c-6.604,0-12.008,5.404-12.008,12.008v30.02c0,6.604,5.404,12.008,12.008,12.008h20.899
		C126.791,302.105,132.195,296.702,132.195,290.097z"/>
	<path style="fill:#FFFFFF;" d="M424.72,290.097v-30.02c0-6.604-5.404-12.008-12.008-12.008h-20.899
		c-6.604,0-12.008,5.404-12.008,12.008v30.02c0,6.604,5.404,12.008,12.008,12.008h20.899
		C419.316,302.105,424.72,296.702,424.72,290.097z"/>
</g>
<g>
	<path style="fill:#E4EAF8;" d="M109.737,290.097v-30.02c0-6.341,4.985-11.562,11.228-11.968c-1.268-0.082,1.539-0.015-21.678-0.04
		c-6.604,0-12.008,5.404-12.008,12.008v30.02c0,6.604,5.404,12.008,12.008,12.008c23.025-0.025,20.405,0.043,21.678-0.04
		C114.723,301.659,109.737,296.439,109.737,290.097z"/>
	<path style="fill:#E4EAF8;" d="M402.263,290.097v-30.02c0-6.341,4.985-11.562,11.228-11.968c-1.231-0.08,1.321-0.015-21.678-0.04
		c-6.604,0-12.008,5.404-12.008,12.008v30.02c0,6.604,5.404,12.008,12.008,12.008h20.899c0.263,0,0.52-0.023,0.779-0.04
		C407.248,301.659,402.263,296.439,402.263,290.097z"/>
</g>
<g>
	<path style="fill:#FF8031;" d="M292.022,189.667c-4.146,0-7.505,3.359-7.505,7.505v27.741c0,4.146,3.359,7.505,7.505,7.505
		s7.505-3.359,7.505-7.505v-27.741C299.527,193.027,296.167,189.667,292.022,189.667z"/>
	<path style="fill:#FF8031;" d="M256.001,189.667c-4.145,0-7.505,3.359-7.505,7.505v27.741c0,4.146,3.36,7.505,7.505,7.505
		c4.146,0,7.505-3.359,7.505-7.505v-27.741C263.506,193.027,260.147,189.667,256.001,189.667z"/>
	<path style="fill:#FF8031;" d="M219.978,189.667c-4.145,0-7.505,3.359-7.505,7.505v27.741c0,4.146,3.36,7.505,7.505,7.505
		c4.145,0,7.505-3.359,7.505-7.505v-27.741C227.483,193.027,224.123,189.667,219.978,189.667z"/>
</g>
<path style="fill:#474D54;" d="M496.99,229.309v30.61v66.102v76.834c0,4.146,3.359,7.505,7.505,7.505
	c4.146,0,7.505-3.359,7.505-7.505c0-7.623,0-264.444,0-271.935c0-21.386-17.398-38.784-38.784-38.784h-63.448V63.376
	c0-20.552-15.166-37.814-34.895-41.058c-2.878-8.177-10.659-14.065-19.808-14.065h-198.13c-9.149,0-16.93,5.888-19.808,14.065
	c-19.729,3.243-34.894,20.504-34.894,41.058v28.762c-2.257,0-61.345,0-63.449,0C17.403,92.137,0,109.531,0,130.922v98.387V445.45
	c0,21.386,17.398,38.784,38.784,38.784h7.774h10.145h15.01h76.05h15.01h186.455h15.01h76.05h15.01h15.218h2.7
	c21.386,0,38.784-17.398,38.784-38.784v-7.571c0-4.146-3.359-7.505-7.505-7.505c-4.146,0-7.505,3.359-7.505,7.505v7.571
	c0,13.11-10.665,23.775-23.775,23.775c-12.422,0-414.668,0-434.431,0c-13.11,0-23.775-10.665-23.775-23.775V304.497v-44.578v-30.61
	v-19.275v-79.113c0-13.054,10.611-23.775,23.775-23.775h98.972c4.145,0,7.505-3.359,7.505-7.505c0-4.146-3.36-7.505-7.505-7.505
	h-20.513V63.376c0-12.458,8.721-23.018,20.377-25.846c3.216,7.49,10.661,12.75,19.316,12.75h147.588
	c4.146,0,7.505-3.359,7.505-7.505s-3.359-7.505-7.505-7.505H156.935c-3.311,0-6.004-2.693-6.004-6.004s2.693-6.004,6.004-6.004
	h198.13c3.311,0,6.004,2.693,6.004,6.004c0,3.311-2.693,6.004-6.004,6.004h-15.519c-4.146,0-7.505,3.359-7.505,7.505
	s3.359,7.505,7.505,7.505h15.519c8.654,0,16.099-5.261,19.316-12.75c11.657,2.829,20.377,13.389,20.377,25.846v28.762
	c-26.41,0-195.306,0-221.979,0c-4.145,0-7.505,3.359-7.505,7.505s3.36,7.505,7.505,7.505c7.965,0,292.237,0,300.437,0
	c13.11,0,23.775,10.665,23.775,23.775v80.121v18.266H496.99z"/>
<g>
</g>
<g>
</g>
<g>
</g>
<g>
</g>
<g>
</g>
<g>
</g>
<g>
</g>
<g>
</g>
<g>
</g>
<g>
</g>
<g>
</g>
<g>
</g>
<g>
</g>
<g>
</g>
<g>
</g>
</svg>
