<?xml version="1.0" encoding="iso-8859-1"?>
<!-- Generator: Adobe Illustrator 19.0.0, SVG Export Plug-In . SVG Version: 6.00 Build 0)  -->
<svg version="1.1" id="Capa_1" xmlns="http://www.w3.org/2000/svg" xmlns:xlink="http://www.w3.org/1999/xlink" x="0px" y="0px"
	 viewBox="0 0 512 512" style="enable-background:new 0 0 512 512;" xml:space="preserve">
<path style="fill:#92E0C0;" d="M493.608,361.228c-1.75-8.854-2.749-23.577-19.707-30.705l-41.102-15.311l-19.309-10.201v-20.418
	c-17.678,8.899-39.374,9.583-57.437,1.237l0.011,19.18l-19.774,10.378l-39.426,14.653c-9.387,3.506-17.321,11.22-18.431,22.018
	c-9.933,55.241-9.58,52.33-12.927,72.47c-1.583,9.523,5.767,18.19,15.422,18.19h206.354c10.103,0,17.832-9.002,16.304-18.99
	C500.502,403.564,500.812,406.09,493.608,361.228z"/>
<path style="fill:#E4EAF8;" d="M417.901,307.34L417.901,307.34l-4.41-2.33v-20.418c-17.678,8.899-39.374,9.583-57.437,1.237
	l0.011,19.18l-4.352,2.284v0.046l32.077,24.674L417.901,307.34z"/>
<path style="fill:#C3C8D1;" d="M383.79,291.675c-9.518,0.073-19.048-1.83-27.736-5.845l0.011,19.18l-4.352,2.284v0.046
	l32.077,24.674V291.675z"/>
<path style="fill:#FEA82F;" d="M479.965,260.728c-13.6-22.055-8.69-39.739-9.738-68.387c0-48.013-36.203-87.184-81.658-89.398
	c-49.07-2.39-89.785,39.384-89.785,90.671v33.661c0,13.87-4.394,25.074-9.561,33.453c-4.835,7.841,0.629,18.161,9.561,18.161
	c1.408,0,19.508,0,41.804,0c13.041,0,115.919,0,129.639,0v-0.221l0.177,0.221C479.336,278.889,484.8,268.569,479.965,260.728z"/>
<path style="fill:#FF8031;" d="M344.449,260.728c5.167-8.379,9.561-19.583,9.561-33.453v-33.661
	c0-39.733,24.44-73.751,58.268-85.952c-7.491-2.677-15.445-4.316-23.71-4.719c-49.07-2.39-89.785,39.384-89.785,90.671v33.661
	c0,13.87-4.394,25.074-9.561,33.453c-4.835,7.841,0.629,18.161,9.561,18.161c1.408,0,19.508,0,41.804,0h13.423
	C345.078,278.889,339.613,268.569,344.449,260.728z"/>
<g>
	<path style="fill:#E4EAF8;" d="M446.562,197.976h-1.774c0,12.911,0,30.502,0,39.579h1.774c13.052,0,23.634-8.859,23.634-19.791
		C470.196,206.835,459.615,197.976,446.562,197.976z"/>
	<path style="fill:#E4EAF8;" d="M323.972,198.145h-1.758c-12.94,0-23.432,8.784-23.432,19.62c0,10.837,10.49,19.622,23.432,19.622
		h1.758V198.145z"/>
</g>
<g>
	<path style="fill:#C3C8D1;" d="M444.788,220.469c0,6.661,0,12.818,0,17.087h1.774c17.528,0,28.758-15.347,21.323-28.334
		C460.745,221.696,445.085,220.398,444.788,220.469z"/>
	<path style="fill:#C3C8D1;" d="M301.116,209.222c-7.468,12.908,3.726,28.165,21.099,28.165h1.759v-17.087
		C323.743,220.245,308.178,221.429,301.116,209.222z"/>
</g>
<path style="fill:#48C397;" d="M411.9,350.395l1.591-45.386l-29.701,27.004C409.129,349.233,408.584,350.206,411.9,350.395z"/>
<path style="fill:#AFB5BC;" d="M503.586,423.729c-3.084-20.164-2.774-17.639-9.977-62.501c-1.75-8.854-2.749-23.577-19.707-30.705
	c-3.947-1.47-37.338-13.909-41.103-15.312c-2.781-1.469-19.137-10.11-19.309-10.201l-4.828,137.709h78.619
	C497.386,442.719,505.113,433.716,503.586,423.729z"/>
<path style="fill:#48C397;" d="M359.042,349.237l24.748-17.223l-27.725-27.004l0.988,45.16
	C357.74,349.978,358.413,349.675,359.042,349.237z"/>
<path style="fill:#AFB5BC;" d="M336.29,315.389l-27.991,10.403c-9.965,3.729-15.989,5.2-21.744,10.502
	c-4.69,4.316-7.469,9.424-8.122,15.767c-10.979,60.757-10.38,57.142-12.927,72.47c-1.583,9.523,5.767,18.19,15.422,18.19h78.149
	l-3.012-137.709L336.29,315.389z"/>
<g>
	<path style="fill:#969A9F;" d="M290.964,424.53C290.88,424.992,290.898,424.893,290.964,424.53
		c14.305-92.623,11.878-91.915,22.918-100.813c-14.814,5.505-33.552,9.909-35.449,28.343c-2.958,16.236-10.208,56.108-12.927,72.47
		c-1.583,9.523,5.767,18.189,15.422,18.189h25.458C296.73,442.719,289.381,434.053,290.964,424.53z"/>
	<path style="fill:#969A9F;" d="M428.43,442.719l11.627-51.848c0.439-1.957-0.089-4.007-1.418-5.509l-9.809-11.081
		c-1.258-1.422-1.33-3.536-0.171-5.04l12.299-15.954c1.4-1.816,1.845-4.194,1.195-6.393l-9.355-31.682
		c-1.682-0.889,3.593,1.898-19.309-10.201l-4.828,137.709H428.43z"/>
	<path style="fill:#969A9F;" d="M326.62,353.287l12.299,15.954c1.159,1.503,1.087,3.618-0.171,5.04l-9.809,11.081
		c-1.329,1.502-1.857,3.551-1.418,5.509l11.627,51.848h19.928l-3.012-137.709l-19.774,10.378l-10.865,31.505
		C324.775,349.093,325.219,351.471,326.62,353.287z"/>
</g>
<path style="fill:#FFFFFF;" d="M323.866,197.365v41.744c0,21.073,11.873,40.467,30.82,49.69
	c45.546,22.171,90.455-10.404,90.455-53.482c0-1.018,0-50.573,0-48.846c0-3.63-4.16-5.654-7.039-3.442
	c-5.258,4.04-13.642,8.957-25.748,11.898c-4.049,0.984-7.367-1.623-7.367-5.79v-7.65c0-1.889-2.067-3.046-3.676-2.056
	c-11.514,7.087-42.376,23.217-73.471,14.875C325.834,193.766,323.866,195.287,323.866,197.365z"/>
<path style="fill:#E4EAF8;" d="M384.795,288.8c-18.947-9.223-30.82-28.618-30.82-49.69v-42.87
	c-8.396,0.828-17.254,0.446-26.133-1.936c-2.007-0.538-3.975,0.983-3.975,3.061v41.744c0,21.073,11.873,40.467,30.821,49.69
	c15.575,7.581,31.073,8.758,44.728,5.305C394.586,292.932,389.694,291.185,384.795,288.8z"/>
<circle style="fill:#ABFFDB;" cx="441.516" cy="70.612" r="63.112"/>
<g>
	<path style="fill:#FFFFFF;" d="M225.107,504.493H22.433c-8.168,0-14.791-6.622-14.791-14.791l0,0
		c0-8.168,6.622-14.791,14.791-14.791h202.673c8.169,0,14.791,6.622,14.791,14.791l0,0
		C239.897,497.87,233.275,504.493,225.107,504.493z"/>
	<path style="fill:#FFFFFF;" d="M489.837,504.493H287.164c-8.169,0-14.791-6.622-14.791-14.791l0,0
		c0-8.168,6.622-14.791,14.791-14.791h202.673c8.168,0,14.791,6.622,14.791,14.791l0,0
		C504.629,497.87,498.007,504.493,489.837,504.493z"/>
</g>
<path style="fill:#FFC850;" d="M22.434,474.912c-8.168,0-14.792,6.622-14.792,14.791c0,8.168,6.621,14.791,14.79,14.792h18.528
	c16.783,0,65.89,0,82.81,0v-29.582C93.945,474.912,52.943,474.912,22.434,474.912z"/>
<path style="fill:#FEA82F;" d="M37.365,489.702c0-8.168,6.622-14.791,14.791-14.791c-9.868,0-18.892,0-29.723,0
	c-8.168,0-14.791,6.622-14.791,14.791c0,8.168,6.621,14.791,14.79,14.792c10.815,0,19.873,0,29.723,0
	C43.988,504.493,37.365,497.87,37.365,489.702z"/>
<g>
	<path style="fill:#ABFFDB;" d="M287.164,474.912c-8.168,0-14.791,6.622-14.791,14.791c0,8.168,6.622,14.791,14.79,14.792h96.531
		v-29.582L287.164,474.912L287.164,474.912z"/>
	<path style="fill:#ABFFDB;" d="M226.322,443.201c8.194,0,14.439-7.341,13.123-15.43l-13.024-80.103
		c-1.65-8.35-2.592-22.236-18.586-28.959c-1.493-0.626-4.892-1.564-4.824-1.544c-70.143-24.778-5.59-1.975-36.614-12.897
		l-15.539-9.621v-18.249c-16.673,8.393-37.135,9.038-54.172,1.167l0.011,17.082l-15.978,9.788l-8.233,2.831h-0.018l0.003,0.005
		c-0.106,0.037-33.78,11.958-31.609,10.983c-8.853,3.306-16.336,10.582-17.383,20.766c-0.44,4.281-9.752,55.925-15.917,89.905
		c-1.349,7.437,4.366,14.274,11.925,14.274h206.833V443.201z"/>
</g>
<path style="fill:#92E0C0;" d="M37.563,428.926C55.402,318.113,53.185,323.878,56.782,318.31c2.395-3.707,5.608-6.626,9.308-8.781
	c-25.652,9.064-25.361,8.785-25.229,8.726c-8.853,3.306-16.337,10.582-17.383,20.766c-0.44,4.281-9.752,55.925-15.917,89.905
	c-1.349,7.437,4.366,14.274,11.925,14.274h30.001C41.93,443.201,36.214,436.363,37.563,428.926z"/>
<path style="fill:#E4EAF8;" d="M122.845,320.115l32.177-22.89l-4.165-2.579v-18.249c-16.673,8.393-37.135,9.038-54.172,1.167
	l0.011,17.082l-4.962,3.04L122.845,320.115z"/>
<path style="fill:#C3C8D1;" d="M122.845,320.115v-37.037c-8.977,0.069-17.965-1.726-26.16-5.512l0.011,17.082l-4.962,3.04
	L122.845,320.115z"/>
<path style="fill:#FEA82F;" d="M186.829,133.357c-0.053,0.009-0.106,0.014-0.158,0.023c-15.957-20.011-39.799-29.524-63.623-29.386
	c-0.066,0.107-0.136,0.212-0.202,0.319c-0.066-0.107-0.136-0.211-0.202-0.319c-23.824-0.137-47.667,9.375-63.623,29.386
	c-0.052-0.008-0.105-0.014-0.158-0.023c-21.033,25.428-18.138,51.291-18.125,81.518c17.966,0,145.305,0,164.216,0
	C204.953,184.701,208.02,158.978,186.829,133.357z"/>
<path style="fill:#FF8031;" d="M93.207,209.555c-0.004-24.549-2.865-50.821,18.126-76.198c0.052,0.009,0.105,0.014,0.158,0.023
	c10.056-12.611,23.248-21.05,37.59-25.534c-8.414-2.631-17.225-3.903-26.033-3.852c-0.066,0.107-0.136,0.212-0.202,0.319
	c-0.066-0.107-0.136-0.211-0.202-0.319c-23.824-0.137-47.668,9.375-63.623,29.386c-0.052-0.008-0.105-0.014-0.158-0.023
	c-20.934,25.309-18.136,50.823-18.125,81.518c6.576,0,45.933,0,52.471,0c0-0.675,0-1.323,0-1.956
	C93.206,211.766,93.206,210.647,93.207,209.555z"/>
<g>
	<path style="fill:#E4EAF8;" d="M64.938,202.017c-15.07-5.37-31.429,4.617-31.429,19.188c0,14.567,16.358,24.558,31.429,19.188
		V202.017z"/>
	<path style="fill:#E4EAF8;" d="M180.983,202.141c14.973-5.336,31.226,4.587,31.226,19.064c0,14.473-16.252,24.4-31.226,19.064
		V202.141z"/>
</g>
<g>
	<path style="fill:#C3C8D1;" d="M35.72,212.329c-1.409,2.657-2.211,5.653-2.211,8.875c0,14.567,16.358,24.558,31.429,19.188v-17.75
		C53.199,226.826,40.683,221.688,35.72,212.329z"/>
	<path style="fill:#C3C8D1;" d="M180.983,222.519v17.75c19.273,6.868,37.949-11.19,28.996-27.939
		C205.028,221.591,192.622,226.666,180.983,222.519z"/>
</g>
<g>
	<path style="fill:#FF8031;" d="M96.696,294.646l26.149,25.469l-23.341,16.244c-3.406,2.37-8.134,0.783-9.419-3.163l-9.367-28.761
		L96.696,294.646z"/>
	<path style="fill:#FF8031;" d="M150.857,294.646l-28.012,25.469l23.341,16.244c3.406,2.37,8.134,0.783,9.419-3.163l10.791-28.928
		L150.857,294.646z"/>
</g>
<path style="fill:#FF9052;" d="M133.45,356.362c-7.417,0-13.79,0-21.208,0l-14.669,86.838c16.084,0,34.46,0,50.544,0L133.45,356.362
	z"/>
<path style="fill:#FFFFFF;" d="M179.79,181.586c1.521,0.147,2.69,1.408,2.69,2.936c0,50.199,0.033,42.86-0.084,45.194
	c-3.411,67.307-99.082,77.774-117.009,12.821c-0.988-3.592-1.633-6.945-1.958-11.113c-0.334-4.215-0.195-27.101-0.195-27.027
	c0-11.69,10.375-20.61,21.946-18.94c18.224,2.63,44.823,1.609,68.032-18.231c2.385-2.038,6.004-1.38,7.527,1.363
	C163.615,173.768,169.333,180.577,179.79,181.586z"/>
<path style="fill:#E4EAF8;" d="M93.295,229.715c-0.116-2.306-0.085,4.823-0.084-43.42c-2.815-0.184-5.506-0.474-8.031-0.839
	c-11.57-1.67-21.946,7.249-21.946,18.94c0-0.073-0.139,22.812,0.195,27.027c0.325,4.168,0.97,7.521,1.958,11.113
	c9.93,35.979,43.714,48.805,72.459,41.658C114.699,278.44,94.817,259.738,93.295,229.715z"/>
<path style="fill:#FEA82F;" d="M122.845,320.115l-19.735,13.734l9.141,22.513c7.41,0,13.777,0,21.187,0l9.141-22.513
	L122.845,320.115z"/>
<path style="fill:#FF8031;" d="M133.45,356.362c-7.417,0-13.79,0-21.208,0l-14.669,86.838h21.23l14.658-86.772L133.45,356.362z"/>
<path style="fill:#FF9052;" d="M119.663,322.33l-16.553,11.519l9.141,22.513c7.41,0,13.777,0,21.188,0l0.021-0.053L119.663,322.33z"
	/>
<circle style="fill:#FFC850;" cx="177.056" cy="71.102" r="63.112"/>
<path style="fill:#FEA82F;" d="M147.033,88.432c-14.981-25.948-9.426-58.099,11.597-77.689
	c-38.892,11.908-56.502,56.804-36.232,91.911c17.428,30.185,56.026,40.527,86.211,23.1c4.238-2.447,8.069-5.323,11.502-8.522
	C192.635,125.645,162.014,114.38,147.033,88.432z"/>
<g>
	<path style="fill:#92E0C0;" d="M411.507,88.432c-14.981-25.948-9.426-58.099,11.597-77.689
		c-38.892,11.908-56.502,56.804-36.232,91.911c20.25,35.074,67.93,42.327,97.713,14.578
		C457.109,125.645,426.488,114.38,411.507,88.432z"/>
	<path style="fill:#92E0C0;" d="M302.374,489.702c0-8.168,6.622-14.791,14.792-14.791h-30.001c-8.169,0-14.792,6.622-14.792,14.791
		c0,8.168,6.622,14.791,14.79,14.792h30.001C308.996,504.493,302.374,497.87,302.374,489.702z"/>
</g>
<g>
	<path style="fill:#474D54;" d="M421.26,300.781l0.002,0.001C421.261,300.781,421.261,300.781,421.26,300.781z"/>
	<polygon style="fill:#474D54;" points="421.429,300.87 421.422,300.866 421.428,300.87 	"/>
	<path style="fill:#474D54;" d="M421.35,300.828c0.009,0.005,0.021,0.011,0.028,0.015
		C421.369,300.838,421.36,300.834,421.35,300.828z"/>
	<path style="fill:#474D54;" d="M490.843,450.083c13.659-1.457,23.027-14.184,20.84-27.304
		c-9.419-58.214-10.329-64.281-11.427-69.45c-1.856-8.795-5.772-20.305-19.087-27.506c-1.496-0.817-3.457-1.713-4.188-1.987
		l-40.963-15.261c-10.987-5.804-13.922-7.355-14.588-7.706c0.002,0.001,0.002,0.001,0,0c-0.012-0.006-0.02-0.01-0.031-0.016
		c0.01,0.005,0.018,0.01,0.024,0.013c-0.008-0.004-0.022-0.011-0.044-0.023c0.005,0.003,0.01,0.005,0.015,0.008
		c-0.027-0.014-0.052-0.028-0.07-0.037c0.009,0.005,0.019,0.01,0.028,0.015c-0.023-0.012-0.052-0.028-0.088-0.047
		c0.009,0.005,0.027,0.015,0.049,0.026c-0.05-0.026-0.063-0.033-0.05-0.027c-0.067-0.035-0.154-0.081-0.275-0.145v-7.747
		c3.115-1.976,6.035-4.169,8.744-6.555c32.734-0.001,39.872-0.022,40.968-0.027c-0.319,0.002-0.883,0.01,0.139,0.027
		c15.046,0,23.876-16.998,16.019-29.737c-20.03-32.482,5.251-72.132-24.174-118.657c28.555-9.056,49.31-35.807,49.31-67.321
		c0-38.935-31.676-70.61-70.611-70.61c-48.758,0-82.979,48.571-66.456,94.464c-18.406,1.979-35.96,9.638-50.372,22.217
		c-3.121,2.724-3.442,7.461-0.719,10.582c2.724,3.122,7.462,3.443,10.582,0.719c13.529-11.808,30.327-18.479,47.688-19.014
		c14.146,21.825,39.121,33.983,64.545,32.049c11.61,15.712,15.908,31.921,16.516,50.915c-3.113-1.652-6.584-2.832-10.283-3.441
		c-0.001-3.086,0.002-2.775-0.002-3.003c-0.168-9.753-11.388-15.175-19.161-9.205c-4.118,3.164-11.081,7.411-21.3,10.174v-5.781
		c0-7.755-8.527-12.531-15.136-8.459c-11.03,6.787-39.754,21.749-68.16,14.133c-3.15-0.847-6.436-0.219-9.062,1.703
		c-5.341,0.201-10.337,1.589-14.65,3.875c0.148-13.387,3.351-26.67,9.303-38.472c1.865-3.698,0.38-8.208-3.319-10.073
		c-3.696-1.867-8.209-0.38-10.073,3.319c-22.634,44.873-0.019,78.388-19.444,109.889c-7.867,12.758,0.993,29.737,16.02,29.737
		h39.249c3.34,2.95,7.008,5.554,10.963,7.744l0.005,6.545l-15.484,8.127c-41.949,15.592-45.485,16.075-52.598,22.861
		c-5.934,5.633-9.226,12.338-10.07,19.878c-15.805,86.33-12.759,69.379-13.11,71.622c-2.369,13.518,7.569,26.882,22.774,27.108
		C500.275,450.219,489.181,450.263,490.843,450.083z M449.563,345.236l-5.177-17.535c30.502,11.416,37.895,10.189,41.781,31.765
		c1.322,7.313,5.914,36.416,10.753,66.233c0.515,5.076-3.467,9.518-8.6,9.518h-19.617v-23.935c0-4.143-3.357-7.5-7.5-7.5
		s-7.5,3.357-7.5,7.5v23.935h-15.524l9.396-41.899c0.967-4.31-0.204-8.856-3.132-12.164l-7.96-8.992l10.622-13.778
		C449.975,354.659,450.893,349.745,449.563,345.236z M407.876,114.969c-13.419-10.162-22.109-26.259-22.109-44.352
		c0-30.663,24.947-55.61,55.611-55.61c30.663,0,55.61,24.947,55.61,55.61C496.989,115.916,444.724,142.734,407.876,114.969z
		 M452.881,203.864c13.682,4.135,13.692,18.567,0,22.706V203.864z M452.518,241.994c4.271-0.657,8.245-2.078,11.727-4.104
		c3.484,22.701,12.982,25.883,9.922,31.356c-0.351,0.63-1.079,1.604-2.341,1.955c-0.979-0.155-1.992-0.117-2.983,0.131h-26.366
		C447.975,262.555,451.443,252.559,452.518,241.994z M315.671,203.869v22.695C302.018,222.435,302.023,207.997,315.671,203.869z
		 M297.896,271.332c-3.18,0-5.007-4.016-3.251-6.863c5.118-8.298,8.415-17.166,9.876-26.465c3.356,1.918,7.159,3.281,11.241,3.942
		c0.536,10.514,3.695,20.594,8.947,29.386H297.896z M363.517,323.318l8.297,8.082l-7.999,5.567
		C363.813,336.868,363.523,323.588,363.517,323.318z M401.42,435.218h-10.364v-71.52c0-4.143-3.357-7.5-7.5-7.5
		c-4.143,0-7.5,3.357-7.5,7.5v71.52h-10.091l-1.755-80.248l19.347-13.465l20.647,14.369L401.42,435.218z M404.828,338.033
		l-9.264-6.446l9.802-8.913L404.828,338.033z M405.984,301.839l-22.251,20.23l-20.618-20.082l-0.001-1.149
		c6.762,1.893,13.787,2.788,20.824,2.705c0.146,0.001,0.294,0.007,0.44,0.007c7.376,0,14.641-1.177,21.606-3.509V301.839z
		 M426.644,320.591l8.49,28.752l-12.303,15.958c-3.358,4.356-3.151,10.508,0.496,14.63l9.476,10.704l-9.997,44.583h-6.376
		l4.132-117.841L426.644,320.591z M330.672,238.748c0-6.102,0-22.345,0-36.663c26.604,5.047,52.018-4.936,66.777-12.708
		c0.562,8.559,8.219,14.187,16.663,12.138c10.271-2.496,18.144-6.327,23.768-9.87c0,15.838,0,28.83,0,43.283
		c0,38.741-40.218,66.692-80.368,47.15C341.208,274.14,330.672,257.132,330.672,238.748z M341.811,320.872l6.573-3.449
		c0.321,14.692,2.312,105.723,2.576,117.795h-6.654l-9.997-44.583l9.478-10.706c3.646-4.12,3.853-10.271,0.494-14.628
		l-12.292-15.945L341.811,320.872z M271.517,427.24c14.409-79.783,13.104-78.645,17.928-83.832
		c5.036-5.427,9.523-6.103,33.981-15.235c-4.297,12.465-5.802,16.814-5.877,17.064c-1.33,4.508-0.412,9.422,2.458,13.146
		l10.621,13.777l-7.961,8.993c-2.927,3.307-4.098,7.854-3.131,12.163l9.396,41.899h-15.815v-23.935c0-4.143-3.357-7.5-7.5-7.5
		s-7.5,3.357-7.5,7.5v23.935h-18.493C275.131,435.218,271.573,431.573,271.517,427.24z"/>
</g>
<path style="fill:#48C397;" d="M462.838,41.491c-3.348-2.438-8.039-1.701-10.479,1.646l-34.085,46.797
	c-2.438,3.349-1.701,8.04,1.646,10.479c3.377,2.459,8.06,1.674,10.479-1.646l34.085-46.797
	C466.922,48.622,466.185,43.931,462.838,41.491z"/>
<g>
	<path style="fill:#474D54;" d="M205.518,309.567c-0.023-0.008-0.054-0.019-0.09-0.031c0.004,0.001,0.009,0.003,0.013,0.005
		C205.475,309.551,205.499,309.56,205.518,309.567z"/>
	<path style="fill:#474D54;" d="M205.08,309.412c0.003,0.001,0.006,0.002,0.009,0.003
		C205.082,309.413,205.08,309.412,205.08,309.412z"/>
	<path style="fill:#474D54;" d="M205.261,309.476c0.015,0.005,0.029,0.01,0.046,0.016
		C205.292,309.487,205.276,309.481,205.261,309.476z"/>
	<path style="fill:#474D54;" d="M205.103,309.42c0.019,0.007,0.037,0.013,0.054,0.019
		C205.135,309.431,205.117,309.425,205.103,309.42z"/>
	<path style="fill:#474D54;" d="M233.482,343.374c-1.629-9.122-4.354-24.39-22.61-32.064c-1.477-0.62-4.326-1.479-5.307-1.727
		c-0.003-0.001-0.005-0.002-0.008-0.003c0.001,0,0,0,0,0c-0.004-0.001-0.007-0.002-0.01-0.004c-0.006-0.002-0.016-0.006-0.028-0.01
		c0.01,0.003,0.018,0.006,0.024,0.009c-0.036-0.013-0.07-0.025-0.101-0.036c-0.014-0.005-0.031-0.011-0.048-0.017
		c0.012,0.004,0.024,0.008,0.035,0.012c-0.046-0.016-0.085-0.03-0.121-0.043c0.024,0.009,0.048,0.017,0.071,0.025
		c-0.034-0.012-0.072-0.025-0.117-0.042c-0.031-0.011-0.067-0.024-0.104-0.037c0.013,0.005,0.026,0.009,0.041,0.014
		c-0.047-0.017-0.079-0.028-0.097-0.034l0.002,0.001c-0.005-0.002-0.01-0.004-0.015-0.005l0.002,0.001
		c-0.008-0.003-0.011-0.004-0.011-0.004c-1.69-0.597-8.708-3.076-33.646-11.883l-0.001,0.003c-3.53-1.135,0.194,0.157-12.937-7.543
		v-6.641c12.724-7.518,23.338-19.421,28.415-35.81c1.253,0.152,2.51,0.231,3.764,0.231c24.625,0,38.72-27.335,21.893-44.903
		c0.006-0.101,0.155-21.043-0.14-22.755c-0.895-15.707-5.358-30.239-13.01-42.667c27.793-9.497,47.842-35.854,47.842-66.823
		c0-38.935-31.676-70.61-70.61-70.61c-49.715,0-84.06,50.382-65.605,96.673c-44.316,5.222-74.124,40.314-77.338,81.506
		c-0.377,4.758-0.375,23.611-0.303,24.705c-18.05,18.896-0.413,48.02,25.938,44.617c5.813,17.867,16.899,29.988,29.987,37.218
		l0.004,5.241l-11.69,7.162c-0.101,0.035-39.16,13.58-39.264,13.618c-11.383,4.252-20.861,13.787-22.22,27.024
		c-0.152,1.453-2,13.066-15.836,89.334c-1.04,5.736,0.505,11.592,4.24,16.067c3.738,4.478,9.229,7.046,15.065,7.046
		c8.691,0,198.04,0,206.833,0c12.822,0,22.581-11.492,20.526-24.134C231.977,333.789,234.38,348.399,233.482,343.374z
		 M199.73,229.937c-2.801,1.975-6.168,2.939-9.605,2.821v-24.071C203.508,208.278,210.153,222.591,199.73,229.937z M176.648,15.007
		c30.663,0,55.61,24.947,55.61,55.61c0,31.208-26.162,57.263-58.68,55.523c-29.241-1.599-52.541-25.889-52.541-55.523
		C121.037,39.954,145.985,15.007,176.648,15.007z M41.148,220.724c0-7.27,7.354-12.265,14.704-12.035
		c-0.01,3.335,0.02,23.969,0.02,24.071C48.531,233.01,41.148,227.999,41.148,220.724z M57.876,193.797
		c-3.198-0.262-6.401-0.03-9.498,0.679c0.025-11.365-0.245-18.194,2.729-29.001c10.615-38.462,41.188-53.199,67.672-54.386
		c14.944,21.413,39.769,32.292,64.917,29.788c14.905,20.332,13.896,41.213,13.895,53.595c-2.442-0.557-4.951-0.816-7.472-0.771
		l-0.001-9.659c0-5.409-4.07-9.88-9.469-10.4c-5.694-0.551-10.141-3.636-13.215-9.173c-3.833-6.903-12.982-8.529-18.958-3.423
		c-21.069,18.011-45.395,18.918-62.086,16.51C74.399,175.824,62.575,182.361,57.876,193.797z M70.873,222.48v-18.492
		c0.023-0.107-0.256-5.161,4.01-8.854c2.57-2.226,5.987-3.218,9.364-2.734c19.161,2.766,46.897,1.77,71.663-18.039
		c4.707,7.07,11.364,11.759,19.209,13.551c0.008,44.577,0.019,39.043-0.074,40.941C171.783,293.189,71.459,297.934,70.873,222.48z
		 M123.161,309.337l-18.829-18.339v-0.243c12.731,3.436,26.411,3.168,39.163-0.764v0.857L123.161,309.337z M133.515,336.101
		l-4.986,12.279H117.44l-4.986-12.279l10.53-7.328C125.464,330.499,131.016,334.362,133.515,336.101z M111.243,318.667
		c-4.919,3.423-11.209,7.8-14.435,10.044l-6.986-21.454c0.117-0.072,6.348-3.889,5.958-3.65L111.243,318.667z M151.855,303.52
		l5.502,3.406l-8.141,21.826c-2.918-2.031-11.431-7.955-14.224-9.898L151.855,303.52z M91.372,435.218h-24.82v-56.126
		c0-4.143-3.357-7.5-7.5-7.5s-7.5,3.357-7.5,7.5v56.126H19.627c-2.889,0-5.059-2.604-4.545-5.435
		c18.328-101.029,15.888-93.399,18.138-96.883c2.522-3.903,6.537-6.826,10.829-8.198c4.835-1.548,26.264-9.14,31.047-10.835
		c0.078-0.028,0.743-0.256,0.991-0.342l7.005,21.512c1.355,4.161,4.512,7.346,8.66,8.738c1.444,0.485,2.924,0.725,4.391,0.725
		c1.134,0,2.258-0.151,3.354-0.434l5.135,12.647L91.372,435.218z M106.585,435.218l12.135-71.838h8.527l12.134,71.838H106.585z
		 M226.46,435.218h-32.02v-56.126c0-4.143-3.357-7.5-7.5-7.5c-4.143,0-7.5,3.357-7.5,7.5v56.126h-24.844l-13.26-78.507l5.135-12.646
		c1.096,0.283,2.22,0.434,3.354,0.434c1.467,0,2.946-0.239,4.391-0.725c4.089-1.372,7.214-4.486,8.601-8.56l8.173-21.913
		c1.535,0.538,1.707,0.604,1.965,0.686l0.003,0.001c0.1,0.031,32.007,11.11,32.107,11.152c10.95,4.603,11.934,12.285,14.109,23.37
		l13.004,79.982C232.753,432.019,230.037,435.218,226.46,435.218z"/>
</g>
<path style="fill:#FF9052;" d="M159.6,101.852c2.315,0,4.601-1.07,6.068-3.085l34.085-46.797c2.438-3.349,1.701-8.04-1.646-10.479
	c-3.348-2.438-8.039-1.701-10.479,1.646l-34.085,46.797C149.91,94.923,153.545,101.852,159.6,101.852z"/>
<g>
	<circle style="fill:#48C397;" cx="419.015" cy="50.821" r="10.893"/>
	<circle style="fill:#48C397;" cx="463.916" cy="90.673" r="10.893"/>
</g>
<g>
	<circle style="fill:#FF9052;" cx="154.285" cy="50.821" r="10.893"/>
	<circle style="fill:#FF9052;" cx="199.187" cy="90.673" r="10.893"/>
</g>
<g>
	<path style="fill:#474D54;" d="M224.968,467.41h-24.844c-4.143,0-7.5,3.357-7.5,7.5s3.357,7.5,7.5,7.5h24.844
		c4.02,0,7.29,3.271,7.29,7.29c0,4.021-3.271,7.291-7.29,7.291h-86.86h86.86l-123.186,0.003v-0.005
		c-84.851-0.007-79.566,0.032-80.232-0.036c-3.671-0.374-6.546-3.485-6.546-7.253c0-4.002,3.253-7.29,7.291-7.29h142.828
		c4.143,0,7.5-3.357,7.5-7.5s-3.357-7.5-7.5-7.5H22.294c-13.968,0-24.555,12.77-21.878,26.55
		c2.005,10.318,11.109,18.033,21.877,18.033h202.675c12.291,0,22.291-10,22.291-22.292S237.259,467.41,224.968,467.41z"/>
	<path style="fill:#474D54;" d="M489.699,467.41H287.025c-14.016,0-24.546,12.818-21.878,26.55
		c1.984,10.211,10.956,17.955,21.722,18.029c0.052,0,0.103,0.004,0.155,0.004h137.07c4.143,0,7.5-3.357,7.5-7.5s-3.357-7.5-7.5-7.5
		h-2.834v0.003h-65.195v-0.005c-73.661-0.005-69.135,0.031-69.783-0.036c-3.671-0.374-6.546-3.485-6.546-7.253
		c0-4.02,3.271-7.29,7.29-7.29h202.674c4.02,0,7.29,3.271,7.29,7.29c0,4.021-3.271,7.291-7.29,7.291h-30.604
		c-4.143,0-7.5,3.357-7.5,7.5s3.357,7.5,7.5,7.5h30.604c12.291,0,22.291-10,22.291-22.292S501.991,467.41,489.699,467.41z"/>
</g>
<g>
</g>
<g>
</g>
<g>
</g>
<g>
</g>
<g>
</g>
<g>
</g>
<g>
</g>
<g>
</g>
<g>
</g>
<g>
</g>
<g>
</g>
<g>
</g>
<g>
</g>
<g>
</g>
<g>
</g>
</svg>
