<?xml version="1.0" encoding="iso-8859-1"?>
<!-- Generator: Adobe Illustrator 19.0.0, SVG Export Plug-In . SVG Version: 6.00 Build 0)  -->
<svg version="1.1" id="Capa_1" xmlns="http://www.w3.org/2000/svg" xmlns:xlink="http://www.w3.org/1999/xlink" x="0px" y="0px"
	 viewBox="0 0 512 512" style="enable-background:new 0 0 512 512;" xml:space="preserve">
<path style="fill:#FEA82F;" d="M262.638,208.646c0,10.595,0,264.498,0,282.352c0,7.456,6.044,13.501,13.501,13.501
	s13.501-6.044,13.501-13.501c0-17.854,0-271.758,0-282.352H262.638z"/>
<path style="fill:#FFFFFF;" d="M332.969,347.748c-1.567-9.292-9.903-15.926-19.325-15.926c-17.555,0-39.357,0-62.306,0
	c-4.536,0-6.783-5.459-3.601-8.694c32.788-33.322,2.202-71.372-14.723-44.192c-18.423,29.589-62.749,43.465-62.749,43.465
	c-5.207,3.53-10.132,7.434-14.591,11.973c-5.223,5.316-12.319,8.378-19.771,8.378h-23.265v114.023h28.866
	c7.949,0,15.748,2.509,22.018,7.395c29.269,22.807,56.947,15.124,71.725,16.708h58.735c9.607,0,17.94-7.143,18.867-16.705
	c0.927-9.564-5.539-17.876-14.336-19.885v-0.465h3.844c9.607,0,17.939-7.143,18.866-16.705c1.067-11-7.647-20.35-18.439-20.35h2.085
	c9.607,0,17.939-7.143,18.866-16.705c1.066-11-7.647-20.35-18.44-20.35l9.263-0.095
	C325.882,369.617,334.937,359.411,332.969,347.748z"/>
<path style="fill:#E4EAF8;" d="M430.186,7.5H122.094c-7.335,0-13.338,6.002-13.338,13.338v177.471
	c0,7.335,6.002,13.337,13.338,13.337h308.092c7.335,0,13.337-6.001,13.337-13.337V20.838C443.522,13.502,437.521,7.5,430.186,7.5z"
	/>
<path style="fill:#C2C7D0;" d="M138.758,198.309V20.838c0-7.335,6.002-13.338,13.338-13.338h-30.002
	c-7.335,0-13.338,6.001-13.338,13.338v177.471c0,7.335,6.002,13.337,13.338,13.337h30.002
	C144.76,211.646,138.758,205.644,138.758,198.309z"/>
<path style="fill:#E4EAF8;" d="M145.427,394.917c0-27.996,9.835-53.533,26.009-72.903c-0.757,0.258-1.17,0.388-1.17,0.388
	c-5.208,3.53-10.132,7.434-14.591,11.973c-5.223,5.316-12.319,8.378-19.772,8.378h-23.265v114.023h28.866
	c16.183,0,21.472,8.329,33.03,14.594C156.525,451.625,145.427,424.658,145.427,394.917z"/>
<path style="fill:#6DC296;" d="M92.057,317.172c-13.023,0-23.58,10.557-23.58,23.58v115.673c0,13.023,10.557,23.58,23.58,23.58
	s23.58-10.557,23.58-23.58V340.752C115.638,327.729,105.081,317.172,92.057,317.172z"/>
<path style="fill:#5FA77E;" d="M92.057,400.087c-13.023,0-23.58-10.557-23.58-23.58v79.918c0,13.024,10.557,23.58,23.58,23.58
	s23.58-10.557,23.58-23.58v-79.918C115.638,389.531,105.081,400.087,92.057,400.087z"/>
<g>
	<path style="fill:#ABB0B7;" d="M337.958,56.572c0-4.142-3.357-7.5-7.5-7.5H156.281c-4.143,0-7.5,3.358-7.5,7.5s3.357,7.5,7.5,7.5
		h174.177C334.601,64.073,337.958,60.715,337.958,56.572z"/>
	<path style="fill:#ABB0B7;" d="M391.295,49.072h-32.17c-4.143,0-7.5,3.358-7.5,7.5s3.357,7.5,7.5,7.5h32.17
		c4.143,0,7.5-3.358,7.5-7.5S395.438,49.072,391.295,49.072z"/>
	<path style="fill:#ABB0B7;" d="M337.958,128.574c0-4.142-3.357-7.5-7.5-7.5H156.281c-4.143,0-7.5,3.358-7.5,7.5
		c0,4.142,3.357,7.5,7.5,7.5h174.177C334.601,136.074,337.958,132.716,337.958,128.574z"/>
	<path style="fill:#ABB0B7;" d="M391.295,121.073h-32.17c-4.143,0-7.5,3.358-7.5,7.5c0,4.142,3.357,7.5,7.5,7.5h32.17
		c4.143,0,7.5-3.358,7.5-7.5C398.796,124.432,395.438,121.073,391.295,121.073z"/>
	<path style="fill:#ABB0B7;" d="M391.295,85.072H217.119c-4.143,0-7.5,3.358-7.5,7.5s3.357,7.5,7.5,7.5h174.177
		c4.143,0,7.5-3.358,7.5-7.5S395.438,85.072,391.295,85.072z"/>
	<path style="fill:#ABB0B7;" d="M188.452,85.072h-32.171c-4.143,0-7.5,3.358-7.5,7.5s3.357,7.5,7.5,7.5h32.171
		c4.143,0,7.5-3.358,7.5-7.5S192.594,85.072,188.452,85.072z"/>
	<path style="fill:#ABB0B7;" d="M391.295,157.075H217.119c-4.143,0-7.5,3.358-7.5,7.5c0,4.142,3.357,7.5,7.5,7.5h174.177
		c4.143,0,7.5-3.358,7.5-7.5C398.796,160.432,395.438,157.075,391.295,157.075z"/>
	<path style="fill:#ABB0B7;" d="M156.281,157.075c-4.143,0-7.5,3.358-7.5,7.5c0,4.142,3.357,7.5,7.5,7.5h32.171
		c4.143,0,7.5-3.358,7.5-7.5c0-4.142-3.357-7.5-7.5-7.5H156.281z"/>
</g>
<g>
	<path style="fill:#474D54;" d="M430.186,0H189.867c-4.143,0-7.5,3.358-7.5,7.5s3.357,7.5,7.5,7.5h240.319
		c3.218,0,5.836,2.618,5.836,5.836v177.471c0,3.218-2.618,5.836-5.836,5.836h-21.389c-4.143,0-7.5,3.358-7.5,7.5
		c0,4.142,3.357,7.5,7.5,7.5h21.389c11.49,0,20.837-9.348,20.837-20.837V20.837C451.023,9.348,441.675,0,430.186,0z"/>
	<path style="fill:#474D54;" d="M373.794,204.145c-12.253,0-243.251,0-251.7,0c-3.219,0-5.837-2.618-5.837-5.836V20.837
		c0-3.218,2.618-5.836,5.837-5.836h32.772c4.143,0,7.5-3.358,7.5-7.5s-3.357-7.5-7.5-7.5h-32.772
		c-11.49,0-20.838,9.348-20.838,20.837v177.471c0,11.49,9.349,20.837,20.838,20.837h133.044v45.149
		c-9.185-4.633-20.652-1.913-28.492,10.678c-17.09,27.449-58.933,40.097-60.59,41.22c-6.114,4.146-11.261,8.374-15.731,12.925
		c-8.802,8.957-18.453,5.289-27.684,6.134c-2.605-14.522-15.324-25.58-30.584-25.58c-17.138,0-31.081,13.943-31.081,31.08v17.021
		c0,4.143,3.357,7.5,7.5,7.5c4.143,0,7.5-3.357,7.5-7.5v-17.021c0-8.866,7.213-16.079,16.08-16.079s16.08,7.213,16.08,16.079
		c0,0.101,0,0.123,0,0l-0.001,115.692c-0.011,8.858-7.218,16.061-16.079,16.061c-8.867,0-16.08-7.213-16.08-16.08v-63.65
		c0-4.143-3.357-7.5-7.5-7.5c-4.143,0-7.5,3.357-7.5,7.5v63.65c0,17.138,13.943,31.081,31.081,31.081
		c14.427,0,26.588-9.882,30.075-23.23c13.968,0.902,25.679-2.838,36.779,5.812c15.356,11.967,33.721,18.292,53.105,18.292h43.121
		v2.619c0,11.58,9.422,21.001,21.001,21.001s21.001-9.422,21.001-21.001v-2.807c19.79-2.283,29.752-24.353,18.75-40.481
		c7.034-4.088,11.967-11.305,12.797-19.866c0.701-7.223-1.666-14.449-6.498-19.86c10.196-8.637,11.921-23.266,4.834-34.034
		c23.923-13.009,14.617-49.627-13.38-49.627h-16.503V219.146h76.654c4.143,0,7.5-3.358,7.5-7.5
		C381.295,207.504,377.937,204.145,373.794,204.145z M270.139,219.146h12.001v105.174h-12.001V219.146z M282.14,490.999
		c0,3.309-2.691,6-6,6c-3.309,0-6-2.691-6-6v-2.619h12.001V490.999z M313.643,339.323c10.169,0,15.741,11.365,9.455,18.8
		c-4.906,5.803-11.422,3.453-17.88,4.09c-4.127,0.043-7.444,3.412-7.423,7.539c0.021,4.127,3.373,7.461,7.5,7.461
		c3.084,0,6.057,1.326,8.156,3.64c6.589,7.253,1.137,18.414-8.584,18.414h-2.085c-4.143,0-7.5,3.357-7.5,7.5s3.357,7.5,7.5,7.5
		c3.084,0,6.058,1.327,8.158,3.641c6.576,7.242,1.155,18.413-8.586,18.413h-3.844c-4.143,0-7.5,3.357-7.5,7.5
		c0.035,0.1-0.314,6.374,5.83,7.776c5.404,1.234,9.077,6.328,8.542,11.85c-0.54,5.567-5.549,9.93-11.402,9.93
		c-17.073,0-64.751,0-81.964,0c-16.013,0-31.189-5.229-43.886-15.124c-16.229-12.646-33.027-7.964-44.993-8.98v-99.022
		c6.808-0.843,23.765,3.749,37.887-10.622c3.561-3.625,7.687-7.045,12.591-10.435c7.368-2.473,47.553-17.044,65.764-46.296
		c2.414-3.876,5.125-5.959,7.456-5.707c7.177,0.77,15.25,20.656-4.446,40.673c-7.83,7.958-2.231,21.455,8.948,21.455
		C258.471,339.323,307.143,339.323,313.643,339.323z"/>
</g>
<g>
</g>
<g>
</g>
<g>
</g>
<g>
</g>
<g>
</g>
<g>
</g>
<g>
</g>
<g>
</g>
<g>
</g>
<g>
</g>
<g>
</g>
<g>
</g>
<g>
</g>
<g>
</g>
<g>
</g>
</svg>
