<?xml version="1.0" encoding="iso-8859-1"?>
<!-- Generator: Adobe Illustrator 19.0.0, SVG Export Plug-In . SVG Version: 6.00 Build 0)  -->
<svg version="1.1" id="Capa_1" xmlns="http://www.w3.org/2000/svg" xmlns:xlink="http://www.w3.org/1999/xlink" x="0px" y="0px"
	 viewBox="0 0 512.001 512.001" style="enable-background:new 0 0 512.001 512.001;" xml:space="preserve">
<path style="fill:#FF9052;" d="M485.897,252.644c-0.465-11.066-6.279-21.224-15.236-27.74l-37.724-27.449l0,0
	c0,31.971,0,68.948,0,93.977c-172.473,91.817-165.064,91.885-176.638,91.885c-11.402,0-2.859,0.627-176.639-91.885
	c0,2.391,0-89.712,0-93.977H79.66l-37.724,27.449c-15.472,11.258-15.266,27.852-15.237,27.752
	c-0.049,1.199-0.07,229.498,0.026,232.044c0.785,11.023,10.041,19.8,21.254,19.8h416.636c11.214,0,20.47-8.777,21.254-19.8
	C485.996,481.421,485.9,251.269,485.897,252.644z"/>
<path style="fill:#FF8031;" d="M56.728,484.7c-0.097-2.572-0.074-219.891-0.026-221.044c-0.03,0.1-0.235-16.495,15.237-27.752
	l7.722-5.619v-32.831l0,0l-37.724,27.449c-15.472,11.258-15.266,27.852-15.237,27.752c-0.049,1.199-0.07,229.498,0.026,232.044
	c0.785,11.023,10.041,19.8,21.254,19.8h30.001C66.769,504.5,57.512,495.723,56.728,484.7z"/>
<path style="fill:#FFFFFF;" d="M363.615,18.533c-6.418-6.418-14.124-11.025-23.201-11.025c-87.943,0-231.353,0-235.482,0
	c-13.956,0-25.27,11.314-25.27,25.27c0,4.565,0,259.363,0,258.653c173.779,92.513,165.237,91.885,176.639,91.885
	c11.574,0,4.164-0.068,176.638-91.885c0-28.893,0-169.192,0-188.673c0-10.824-5.299-20.203-12.953-27.856L363.615,18.533z"/>
<g>
	<path style="fill:#E4EAF8;" d="M113.41,32.777c0-13.957,11.314-25.27,25.27-25.27c-19.734,0-32.557,0-33.75,0
		c-13.956,0-25.27,11.314-25.27,25.27c0,4.565,0,259.363,0,258.653c12.114,6.448,23.339,12.444,33.75,18.019
		C113.41,205.776,113.41,135.758,113.41,32.777z"/>
	<path style="fill:#E4EAF8;" d="M429.261,85.854L429.261,85.854c-2.064-4.392-4.664-8.341-8.276-11.953
		c-75.936-75.935-54.484-55.212-66.394-63.31l0,0c-9.3-4.234-16.409-2.783-21.057-3.083c0,0,21.057,2.299,21.057,24.8
		c0.132,33.917-0.548,34.35,1.282,39.368c2.971,8.26,10.854,14.179,20.137,14.179h31.385c4.507,0.088,25.542,1.74,25.542,24.957
		C432.587,105.435,434.303,96.93,429.261,85.854z"/>
</g>
<path style="fill:#C2C7D0;" d="M385.699,69.419c-1.111-4.675-0.345-5.927-0.607-31.411c-0.102-0.102-20.598-20.597-20.498-20.497
	c-4.814-4.804-9.81-6.79-10.003-6.921l0,0c-9.3-4.234-16.409-2.783-21.057-3.083c0,0,21.057,2.299,21.057,24.8
	c0,18.593,0,13.335,0,32.128c0,11.473,9.316,21.419,21.419,21.419h30.501C396.482,85.854,388,78.937,385.699,69.419z"/>
<path style="fill:#E4EAF8;" d="M241.809,180.76c-0.056-0.548-0.167-1.08-0.327-1.59c-0.08-0.256-0.172-0.506-0.276-0.75
	c-1.245-2.93-4.156-4.998-7.527-4.998l0,0H121.582l0,0c-4.479,0-8.171,3.661-8.171,8.171c0,13.92,0,114.705,0,132.927
	c0,4.494,3.677,8.171,8.171,8.171c24.989,0,88.091,0,112.097,0c4.494,0,8.171-3.677,8.171-8.171v-5.07V181.594
	C241.851,181.312,241.837,181.034,241.809,180.76z"/>
<circle style="fill:#FFC850;" cx="177.63" cy="230.072" r="25.121"/>
<path style="fill:#E4EAF8;" d="M398.73,179.17c-1.046-3.345-4.175-5.748-7.803-5.748l0,0H278.831l0,0
	c-3.371,0-6.282,2.068-7.527,4.998c-0.104,0.244-0.196,0.494-0.276,0.75c-0.16,0.511-0.271,1.043-0.327,1.59
	c-0.028,0.274-0.042,0.551-0.042,0.833c0,13.92,0,114.705,0,132.926c0,4.494,3.677,8.171,8.171,8.171h16.491
	c11.536,0,88.09,0,95.607,0c4.494,0,8.171-3.677,8.171-8.171c0-18.222,0-119.007,0-132.926
	C399.099,180.765,398.975,179.951,398.73,179.17z"/>
<g>
	<path style="fill:#C2C7D0;" d="M143.412,314.52c0-18.222,0-119.007,0-132.926c0-0.281,0.014-0.559,0.042-0.833
		c0.056-0.548,0.167-1.08,0.327-1.59c0.08-0.256,0.172-0.506,0.276-0.75c1.245-2.93,4.156-4.999,7.527-4.999h-30.001
		c-4.472,0-8.171,3.655-8.171,8.171c0,13.92,0,114.705,0,132.926c0,4.494,3.677,8.171,8.171,8.171c7.531,0,22.324,0,30.001,0
		C147.089,322.691,143.412,319.014,143.412,314.52z"/>
	<path style="fill:#C2C7D0;" d="M300.661,314.52v-5.07V181.593c0-0.281,0.014-0.559,0.042-0.833c0.056-0.548,0.167-1.08,0.327-1.59
		c0.08-0.256,0.172-0.506,0.276-0.75c1.245-2.93,4.156-4.999,7.527-4.999h-30.001c-3.371,0-6.282,2.068-7.527,4.999
		c-0.104,0.244-0.196,0.494-0.276,0.75c-0.16,0.511-0.271,1.043-0.327,1.59c-0.028,0.274-0.042,0.552-0.042,0.833
		c0,13.92,0,114.705,0,132.926c0,4.494,3.677,8.171,8.171,8.171h16.491h13.511C304.338,322.691,300.661,319.014,300.661,314.52z"/>
</g>
<path style="fill:#ABFFDB;" d="M358.665,278.147h-47.572c-8.297,0-15.023,6.726-15.023,15.023v29.635h77.617V293.17
	C373.688,284.874,366.963,278.147,358.665,278.147z"/>
<circle style="fill:#FFC850;" cx="334.877" cy="230.072" r="25.121"/>
<g>
	<path style="fill:#FEA82F;" d="M177.631,230.069c-4.649-8.052-4.328-17.606,0.001-25.122c-4.271-0.004-8.6,1.074-12.565,3.363
		c-12.018,6.938-16.135,22.305-9.196,34.323c6.938,12.018,22.305,16.136,34.323,9.197c3.965-2.289,7.063-5.499,9.195-9.2
		C190.713,242.619,182.28,238.121,177.631,230.069z"/>
	<path style="fill:#FEA82F;" d="M334.879,230.069c-4.649-8.052-4.328-17.606,0.001-25.122c-4.271-0.004-8.6,1.074-12.565,3.363
		c-12.018,6.938-16.135,22.305-9.196,34.323c6.938,12.018,22.305,16.136,34.323,9.197c3.965-2.289,7.063-5.499,9.195-9.2
		C347.962,242.619,339.529,238.121,334.879,230.069z"/>
</g>
<path style="fill:#FFC850;" d="M432.937,291.431c-179.045,96.549-167.77,91.885-176.639,91.885
	c-8.912,0,8.173,7.773-229.633-120.463c0.022,232.727-0.053,218.848,0.06,221.848c0.785,11.023,10.041,19.8,21.255,19.8h416.636
	c11.214,0,20.47-8.777,21.255-19.8c0.113-2.984,0.039,10.88,0.061-221.848L432.937,291.431L432.937,291.431z"/>
<path style="fill:#EAB883;" d="M56.728,484.7c-0.095-2.501-0.059,10.59-0.063-205.663c-9.522-5.14-19.508-10.528-29.998-16.185
	c0.007,223.395-0.064,218.56,0.061,221.848c0.785,11.023,10.041,19.8,21.254,19.8h30.001C66.769,504.5,57.512,495.723,56.728,484.7z
	"/>
<path style="fill:#FEA82F;" d="M26.665,262.853c0.022,232.251-0.054,218.817,0.06,221.848c0.435,6.118,3.487,11.537,8.028,15.155
	l155.333-148.878C181.509,346.352,35.145,267.426,26.665,262.853z"/>
<path style="fill:#FF9052;" d="M34.755,499.855l21.912-21.002c0.006-125.179-0.002-177.84-0.003-199.823
	c-16.135-8.7-27.782-14.982-29.998-16.177c0.008,314.09-1.149,189.941,0.061,221.848C27.145,490.599,30.072,496.125,34.755,499.855z
	"/>
<g>
	<path style="fill:#FEA82F;" d="M485.932,262.853c-0.022,232.727,0.053,218.848-0.061,221.848
		c-0.435,6.118-3.487,11.537-8.028,15.155L322.512,350.978C331.088,346.352,477.452,267.426,485.932,262.853z"/>
	<path style="fill:#FEA82F;" d="M201.417,278.147h-47.572c-8.297,0-15.022,6.726-15.022,15.023v29.635h77.617V293.17
		C216.439,284.874,209.714,278.147,201.417,278.147z"/>
</g>
<path style="fill:#92E0C0;" d="M349.683,278.147h-38.591c-8.297,0-15.023,6.726-15.023,15.023v29.635h38.591V293.17
	C334.661,284.874,341.387,278.147,349.683,278.147z"/>
<path style="fill:#FF9052;" d="M192.434,278.147h-38.591c-8.297,0-15.022,6.726-15.022,15.023v29.635h38.591V293.17
	C177.413,284.874,184.137,278.147,192.434,278.147z"/>
<g>
	<path style="fill:#ABB0B7;" d="M318.147,62.294H193.963c-4.143,0-7.5,3.357-7.5,7.5c0,4.143,3.357,7.5,7.5,7.5h124.183
		c4.143,0,7.5-3.357,7.5-7.5C325.647,65.651,322.289,62.294,318.147,62.294z"/>
	<path style="fill:#ABB0B7;" d="M325.647,101.295c0-4.143-3.357-7.5-7.5-7.5H193.963c-4.143,0-7.5,3.357-7.5,7.5
		c0,4.143,3.357,7.5,7.5,7.5h124.183C322.289,108.795,325.647,105.437,325.647,101.295z"/>
	<path style="fill:#ABB0B7;" d="M225.009,125.295c-4.143,0-7.5,3.357-7.5,7.5s3.357,7.5,7.5,7.5h62.092c4.143,0,7.5-3.357,7.5-7.5
		s-3.357-7.5-7.5-7.5C287.101,125.295,225.009,125.295,225.009,125.295z"/>
</g>
<g>
	<path style="fill:#474D54;" d="M18.961,252.35l0.011,0.001c0-0.113,0.001-0.171,0.001-0.173L18.961,252.35z"/>
	<path style="fill:#474D54;" d="M156.079,15.007c187.301,0.859,176.179-2.057,183.681,2.769c4.768,3.068,7.086,7.821,7.086,14.531
		c0.005,33.307-0.283,34.249,0.819,38.886c3.194,13.159,14.961,22.161,28.101,22.161c28.734,0.266,34.88-1.322,42.125,2.817
		c9.468,5.407,6.84,16.728,7.301,20.058c0,4.143,3.357,7.5,7.5,7.5s7.5-3.357,7.5-7.5c0-15.666,1.765-31.719-14.149-47.632
		c-59.383-59.296-55.893-56.083-58.708-58.523c-5.827-5.015-12.823-8.273-20.34-9.504c-5.057-0.842-8.761-0.475-13.707-0.563
		H156.079c-4.143,0-7.5,3.357-7.5,7.5S151.936,15.007,156.079,15.007z M415.642,79.421c-7.456-1.733-9.84-0.882-39.876-1.067
		c-5.841,0-11.098-3.704-13.11-9.298c-2.268-6.236,0.434-34.152-1.484-44.114C372.688,36.458,414.573,78.333,415.642,79.421z"/>
	<path style="fill:#474D54;" d="M493.106,252.66c-0.006-0.11-0.014-0.22-0.022-0.328l0.063-0.002
		c-0.555-13.219-7.23-25.425-18.315-33.491l-34.638-25.203v-42.404c0-4.143-3.357-7.5-7.5-7.5s-7.5,3.357-7.5,7.5v135.696
		c-1.94,1.034-3.856,2.055-5.749,3.064l5.749-3.064l-118.73,64.05l0,0c-39.712,21.708-45.202,24.838-50.407,24.838
		c-5.289-0.029-3.339,0.71-58.632-29.378l0,0L96.333,291.947l0,0c-3.288-1.754-6.458-3.444-9.415-5.02V32.778
		c0-9.798,7.971-17.771,17.77-17.771h16.391c4.143,0,7.5-3.357,7.5-7.5s-3.357-7.5-7.5-7.5h-16.391
		c-18.069,0-32.771,14.701-32.771,32.772v160.857l-34.638,25.204c-12.321,8.964-18.421,23.377-18.306,33.513h-0.002
		c-0.024,7.12-0.526,232.003,0.696,237.295c2.998,12.955,14.656,22.354,28.069,22.354h311.012c4.143,0,7.5-3.357,7.5-7.5
		c0-4.143-3.357-7.5-7.5-7.5H48.328l142.627-136.701c52.453,28.321,56.345,31.03,64.209,30.555
		c11.785-0.749,4.447,2.72,65.971-30.57L463.781,497h-70.03c-4.143,0-7.5,3.357-7.5,7.5c0,4.143,3.357,7.5,7.5,7.5h70.622
		c15.549,0,28.072-12.553,28.749-27.017c0.029-218.293,0.03-231.779,0.03-232.324L493.106,252.66L493.106,252.66z M46.105,230.969
		l25.811-18.781v66.677l-37.995-20.489C33.924,254.46,32.533,240.844,46.105,230.969z M35.161,488.841
		c-2.25-5.66-1.231,6.512-1.239-213.421c66.913,36.096,110.559,59.753,143.172,77.388L35.161,488.841z M440.193,212.187
		l25.81,18.781c7.214,5.249,11.748,13.409,12.148,21.851c0,0.557,0.002,2.494,0.003,5.574l-37.962,20.471v-66.677H440.193z
		 M476.948,488.841L334.989,352.783c86.28-46.733,107.806-58.259,143.173-77.351C478.253,493.637,478.893,484.579,476.948,488.841z"
		/>
</g>
<g>
</g>
<g>
</g>
<g>
</g>
<g>
</g>
<g>
</g>
<g>
</g>
<g>
</g>
<g>
</g>
<g>
</g>
<g>
</g>
<g>
</g>
<g>
</g>
<g>
</g>
<g>
</g>
<g>
</g>
</svg>
