<?xml version="1.0" encoding="iso-8859-1"?>
<!-- Generator: Adobe Illustrator 19.0.0, SVG Export Plug-In . SVG Version: 6.00 Build 0)  -->
<svg version="1.1" id="Capa_1" xmlns="http://www.w3.org/2000/svg" xmlns:xlink="http://www.w3.org/1999/xlink" x="0px" y="0px"
	 viewBox="0 0 511.998 511.998" style="enable-background:new 0 0 511.998 511.998;" xml:space="preserve">
<path style="fill:#FF9052;" d="M332.907,504.499c11.561,0,20.374-10.348,18.535-21.761L333.65,372.343
	c-2.471-12.502-3.881-33.291-27.827-43.355c0,0-0.103-0.03,0,0l-58.038-21.62l-27.264-14.404v-28.83
	c-24.961,12.567-55.597,13.532-81.103,1.747l0.016,27.083l-27.922,14.655l-55.671,20.69l0,0l0,0l0,0c0,0-0.212,0.095,0,0
	c-13.252,4.949-24.456,15.84-26.023,31.09L7.822,481.115c-2.201,12.181,7.159,23.384,19.537,23.384H332.907z"/>
<path style="fill:#E4EAF8;" d="M226.749,296.253L226.749,296.253l-6.227-3.29v-28.83c-24.961,12.567-55.597,13.532-81.103,1.747
	l0.016,27.083l-6.144,3.225v0.065l45.294,34.84L226.749,296.253z"/>
<path style="fill:#C3C8D1;" d="M169.436,273.793c-10.345-0.916-20.535-3.531-30.017-7.912l0.016,27.083l-6.144,3.225v0.065
	l36.145,27.804L169.436,273.793L169.436,273.793z"/>
<path style="fill:#FEA82F;" d="M314.384,230.436c-19.204-31.142-12.271-56.112-13.752-96.564
	c0-67.794-51.12-123.105-115.303-126.231C116.043,4.265,58.553,63.251,58.553,135.669V183.2c0,19.585-6.205,35.405-13.501,47.236
	c-6.828,11.073,0.888,25.643,13.501,25.643c11.725,0,230.642,0,242.08,0v-0.313l0.251,0.313
	C313.497,256.079,321.213,241.507,314.384,230.436z"/>
<path style="fill:#FF8031;" d="M110.669,230.436c7.296-11.832,13.501-27.651,13.501-47.236v-47.531
	c0-58.494,37.511-108.216,88.448-123.399c-8.736-2.581-17.869-4.171-27.288-4.63C116.043,4.265,58.553,63.251,58.553,135.669V183.2
	c0,19.585-6.205,35.405-13.501,47.236c-6.828,11.073,0.888,25.643,13.501,25.643c10.201,0,55.508,0,65.617,0
	C111.556,256.079,103.84,241.507,110.669,230.436z"/>
<g>
	<path style="fill:#E4EAF8;" d="M266.749,142.832h-2.035c0,14.813,0,34.994,0,45.409h2.035c14.975,0,27.115-10.165,27.115-22.705
		C293.864,152.996,281.724,142.832,266.749,142.832z"/>
	<path style="fill:#E4EAF8;" d="M94.122,143.105h-2.01c-14.795,0-26.789,10.043-26.789,22.431c0,12.391,11.994,22.432,26.789,22.432
		h2.01V143.105z"/>
</g>
<g>
	<path style="fill:#C3C8D1;" d="M266.749,168.573h-2.035c0,7.669,0,14.756,0,19.668h2.035c20.19,0,32.991-17.672,24.446-32.539
		C286.819,163.318,277.517,168.573,266.749,168.573z"/>
	<path style="fill:#C3C8D1;" d="M68.03,155.703c-8.611,14.759,4.172,32.266,24.08,32.266h2.01V168.3
		C93.846,168.235,76.14,169.6,68.03,155.703z"/>
</g>
<path style="fill:#FF8031;" d="M218.275,357.048l2.247-64.085l-41.938,38.13C214.375,355.415,213.593,356.781,218.275,357.048z"/>
<path style="fill:#AFB5BC;" d="M351.442,482.738L333.65,372.343c-2.471-12.502-3.881-33.291-27.826-43.355c0,0-0.103-0.03,0,0
	l-58.038-21.62l-27.264-14.404l-7.416,211.536h119.802C344.468,504.499,353.281,494.152,351.442,482.738z"/>
<path style="fill:#FF8031;" d="M178.583,331.093l-39.148-38.13l1.395,63.767C143.603,355.955,141.656,356.558,178.583,331.093z"/>
<path style="fill:#AFB5BC;" d="M111.514,307.618l-55.671,20.69c-8.562,3.198-16.023,8.727-21.08,16.552
	c-4.924,7.621-2.299,1.537-26.941,136.255c-2.201,12.181,7.158,23.384,19.537,23.384h116.703l-4.626-211.536L111.514,307.618z
	 M55.79,328.331C55.756,328.347,55.741,328.353,55.79,328.331L55.79,328.331z"/>
<g>
	<path style="fill:#969A9F;" d="M37.823,481.115c23.591-141.689,21.298-140.524,26.941-149.255c2.72-4.209,6.151-7.731,10.06-10.607
		c-13.342,6.015-29.528,7.303-40.061,23.607c-4.924,7.621-2.299,1.537-26.941,136.255c-2.201,12.181,7.158,23.384,19.537,23.384
		h30.002C44.983,504.499,35.622,493.296,37.823,481.115z"/>
	<path style="fill:#969A9F;" d="M241.941,383.658l17.367-22.527c1.977-2.565,2.605-5.922,1.688-9.028l-13.21-44.737l-27.264-14.404
		l-7.416,211.536h24.679l20.25-90.299c0.62-2.764-0.125-5.657-2.002-7.778l-13.851-15.647
		C240.406,388.768,240.304,385.782,241.941,383.658z"/>
	<path style="fill:#969A9F;" d="M115.226,383.658l-17.367-22.527c-1.977-2.565-2.605-5.922-1.688-9.028l15.342-44.486l27.922-14.655
		l4.627,211.536h-24.679L99.132,414.2c-0.62-2.764,0.125-5.657,2.002-7.778l13.851-15.647
		C116.761,388.768,116.862,385.782,115.226,383.658z"/>
</g>
<path style="fill:#FFFFFF;" d="M348.29,7.502h141.677c7.991,0,14.53,6.538,14.53,14.53c0,3.122,0,95.821,0,93.892
	c0,9.096-7.373,16.468-16.468,16.468c-3.108,0-120.381,0-119.307,0c-2.505,0-4.915,0.958-6.737,2.677l-20.82,19.651
	c-2.8,2.643-7.404,0.658-7.404-3.193c0-3.586,0-133.013,0-129.496C333.76,14.04,340.299,7.502,348.29,7.502z"/>
<path style="fill:#E4EAF8;" d="M363.762,22.032c0-7.991,6.538-14.53,14.53-14.53H348.29c-7.991,0-14.53,6.538-14.53,14.53
	c0,12.817,0,114.814,0,129.496c0,3.85,4.604,5.835,7.403,3.193c21.89-20.531,20.786-19.909,22.598-20.971
	C363.762,133.749,363.762,36.089,363.762,22.032z"/>
<path style="fill:#FFFFFF;" d="M93.971,140.967v58.944c0,29.755,16.766,57.14,43.519,70.163
	c64.311,31.306,127.724-14.692,127.724-75.518c0-1.438,0-71.41,0-68.971c0-5.126-5.874-7.984-9.939-4.86
	c-7.424,5.704-19.264,12.647-36.356,16.801c-5.717,1.389-10.403-2.292-10.403-8.176v-10.803c0-2.668-2.919-4.302-5.191-2.903
	c-16.259,10.007-59.836,32.783-103.742,21.002C96.75,135.884,93.971,138.033,93.971,140.967z"/>
<path style="fill:#E4EAF8;" d="M124.123,194.556c0-0.993,0-34.677,0-54.618c-8.048-0.087-16.288-1.079-24.539-3.293
	c-2.833-0.76-5.612,1.388-5.612,4.321v58.945c0,53.55,51.275,87.714,100.698,78.933
	C154.573,271.722,124.123,236.704,124.123,194.556z"/>
<g>
	<path style="fill:#ABB0B7;" d="M374.626,97.432h58.837c4.143,0,7.5-3.357,7.5-7.5s-3.357-7.5-7.5-7.5h-58.837
		c-4.143,0-7.5,3.357-7.5,7.5S370.483,97.432,374.626,97.432z"/>
	<path style="fill:#ABB0B7;" d="M463.631,82.431h-0.166c-4.143,0-7.5,3.357-7.5,7.5s3.357,7.5,7.5,7.5h0.166
		c4.143,0,7.5-3.357,7.5-7.5S467.774,82.431,463.631,82.431z"/>
	<path style="fill:#ABB0B7;" d="M463.631,46.43h-58.837c-4.143,0-7.5,3.357-7.5,7.5s3.357,7.5,7.5,7.5h58.837
		c4.143,0,7.5-3.357,7.5-7.5S467.774,46.43,463.631,46.43z"/>
	<path style="fill:#ABB0B7;" d="M374.626,61.431h0.166c4.143,0,7.5-3.357,7.5-7.5s-3.357-7.5-7.5-7.5h-0.166
		c-4.143,0-7.5,3.357-7.5,7.5S370.483,61.431,374.626,61.431z"/>
</g>
<g>
	<path style="fill:#474D54;" d="M355.579,461.268c-0.659-4.09-4.511-6.874-8.598-6.211c-4.089,0.659-6.87,4.508-6.211,8.598
		l3.268,20.276c1.105,6.855-4.194,13.067-11.13,13.067h-38.022v-55.323c0-4.143-3.357-7.5-7.5-7.5s-7.5,3.357-7.5,7.5v55.324
		h-32.732l18.201-81.157c1.144-5.1-0.242-10.48-3.705-14.391l-12.804-14.465l16.403-21.277c3.434-4.454,4.532-10.335,2.94-15.73
		l-8.96-30.346l43.826,16.326c18.871,8.002,20.228,22.489,23.211,37.706l8.935,55.433c0.658,4.09,4.498,6.866,8.598,6.211
		c4.09-0.659,6.87-4.508,6.211-8.598c-11.456-56.822-5.264-89.5-41.278-104.639c-3.318-1.402-15.164-5.705-59.119-22.224
		l-21.589-11.407v-14.346c5.076-3.098,9.648-6.494,14.106-10.517c6.659,0,52.164,0,58.756,0c18.57,0,29.752-21.083,19.885-37.08
		c-17.845-28.938-11.159-51.988-12.636-92.766C308.061,62.157,254.306,3.491,185.695,0.149c-27.01-1.323-53.267,6.203-75.9,21.746
		c-3.414,2.345-4.281,7.014-1.937,10.43c2.346,3.415,7.014,4.281,10.43,1.937c73.91-50.755,174.846,4.285,174.846,99.611
		c0,1.357,0.21,4.046,0.227,12.511c-5.149-5.349-12.406-9.1-20.644-10.27c-0.829-5.689,3.153-17.466-7.608-22.77
		c-4.712-2.321-10.23-1.771-14.4,1.434c-14.229,10.931-33.678,16-34.495,15.491c-0.405-0.385-0.082-3.178-0.193-11.723
		c0-8.521-9.364-13.76-16.624-9.291c-47.389,29.169-84.228,23.804-97.867,20.145c-5.794-1.554-11.592,1.398-13.963,6.578
		c-8.568,0.969-16.147,4.717-21.511,10.178c0.702-4.782-5.483-48.694,27.913-89.484c2.624-3.205,2.153-7.93-1.052-10.555
		c-3.203-2.625-7.931-2.153-10.555,1.052c-20.19,24.658-31.309,56.088-31.309,88.499v47.531c0,15.405-4.166,29.974-12.385,43.298
		c-9.866,15.996,1.312,37.081,19.885,37.081h56.131c5.171,4.694,10.949,8.766,17.237,12.073l0.01,12.779l-23.479,12.324
		L53.218,321.28c-10.478,3.913-19.037,10.66-24.755,19.509c-6.363,9.847-3.488,6.23-28.023,138.991
		c-1.445,7.999,0.715,16.165,5.926,22.402c5.212,6.238,12.863,9.816,20.992,9.816c72.456,0,233.017,0,305.548,0
		c16.187,0,28.51-14.498,25.939-30.455L355.579,461.268z M272.715,151.345c18.148,4.216,18.141,24.168,0,28.383V151.345z
		 M272.709,194.961c8.22-1.166,15.464-4.903,20.612-10.234c0.813,16.494,4.001,32.331,14.679,49.646
		c3.622,5.871-0.107,13.124-5.681,14.085c-1.241-0.289-2.561-0.26-3.829,0.12h-42.98
		C266.491,233.186,272.625,214.598,272.709,194.961z M86.471,151.345v28.383C68.325,175.513,68.327,155.561,86.471,151.345z
		 M58.553,248.579c-6.595,0-10.944-7.999-7.116-14.206c9.399-15.241,14.293-31.883,14.589-49.485
		c5.137,5.242,12.312,8.917,20.447,10.072c0.337,2.422-2.691,27.592,15.149,53.619H58.553z M101.472,199.911
		c0-11.225,0-43.824,0-55.073c33.585,7.616,69.612-2.356,99.545-19.143c0.25,1.552-1.523,10.513,5.922,16.366
		c3.763,2.959,8.777,3.962,13.752,2.752c17.112-4.157,29.321-11.018,37.023-16.557c0,15.616,0,51.255,0,66.3
		c0,21.312-8.495,41.181-23.309,55.7c-0.301,0.244-0.578,0.516-0.838,0.803C185.73,296.574,101.472,265.744,101.472,199.911z
		 M76.874,496.999v-55.324c0-4.143-3.357-7.5-7.5-7.5s-7.5,3.357-7.5,7.5v55.324H27.359c-3.671,0-7.126-1.615-9.48-4.433
		s-3.329-6.504-2.676-10.117C39.892,347.305,36.565,351.74,46.276,342.737c9.225-8.541,19.019-8.865,52.972-22.559
		c-10.432,30.254-10.182,29.501-10.271,29.802c-1.593,5.396-0.492,11.276,2.941,15.73l16.402,21.276l-12.803,14.464
		c-3.463,3.911-4.849,9.291-3.706,14.392l18.201,81.157H76.874V496.999z M125.386,496.999l-18.937-84.439
		c-0.093-0.413,0.02-0.85,0.301-1.167l13.851-15.647c4.154-4.693,4.392-11.703,0.564-16.667l-17.366-22.528
		c-1.612-2.089-0.216-1.436,13.835-43.674l14.567-7.646l4.193,191.769L125.386,496.999L125.386,496.999z M147.335,311.127l19.507,19
		l-18.806,13.087L147.335,311.127z M205.863,496.999H186.08c0.008-0.247,0.001-133.272,0.004-134.159c0-4.143-3.357-7.5-7.5-7.5
		c-4.143,0-7.5,3.357-7.5,7.5c0.001,0.146,0,3.601,0,3.741c0.043,29.217-0.015,129.869,0.004,130.417h-19.688l-2.969-135.783
		l30.154-20.985c32.522,22.59,30.52,21.332,31.999,22.167L205.863,496.999z M211.203,344.657l-20.611-14.346l21.81-19.829
		L211.203,344.657z M213.021,289.646l-34.26,31.149l-31.829-31l-0.005-6.934c20.076,6.517,43.645,6.844,66.094-1.332V289.646z
		 M220.873,496.999l6.725-191.814c4.951,2.616,8.587,4.536,13.889,7.337l12.315,41.703c0.678,2.298-0.359,1.59-17.801,24.853
		c-3.827,4.964-3.59,11.974,0.564,16.667l13.853,15.649c0.279,0.316,0.392,0.751,0.299,1.163l-18.937,84.441H220.873z"/>
	<path style="fill:#474D54;" d="M489.967,0.002H348.289c-12.147,0-22.029,9.883-22.029,22.029v129.497
		c0,10.405,12.478,15.796,20.053,8.647l20.821-19.652c1.268-1.199-2.596-0.399,79.503-0.631c4.143,0,7.5-3.357,7.5-7.5
		c0-4.143-3.357-7.5-7.5-7.5h-77.916c-4.438,0-8.659,1.678-11.886,4.724l-15.575,14.701V22.032c0-3.875,3.153-7.028,7.028-7.028
		h141.678c3.875,0,7.028,3.153,7.028,7.028v93.893c0,4.944-4.022,8.968-8.969,8.968h-6.388c-4.143,0-7.5,3.357-7.5,7.5
		c0,4.143,3.357,7.5,7.5,7.5h6.388c13.217,0,23.969-10.753,23.969-23.968V22.032C511.997,9.884,502.115,0.002,489.967,0.002z"/>
</g>
<g>
</g>
<g>
</g>
<g>
</g>
<g>
</g>
<g>
</g>
<g>
</g>
<g>
</g>
<g>
</g>
<g>
</g>
<g>
</g>
<g>
</g>
<g>
</g>
<g>
</g>
<g>
</g>
<g>
</g>
</svg>
