<?xml version="1.0" encoding="iso-8859-1"?>
<!-- Generator: Adobe Illustrator 19.0.0, SVG Export Plug-In . SVG Version: 6.00 Build 0)  -->
<svg version="1.1" id="Capa_1" xmlns="http://www.w3.org/2000/svg" xmlns:xlink="http://www.w3.org/1999/xlink" x="0px" y="0px"
	 viewBox="0 0 512 512" style="enable-background:new 0 0 512 512;" xml:space="preserve">
<path style="fill:#FFFFFF;" d="M276.829,7.5H27.594c-9.575,0-17.336,7.761-17.336,17.336c0,20.807,0,476.278,0,462.327
	c0,9.575,7.761,17.336,17.336,17.336h320.339c11.285,0,20.338-8.708,21.32-19.458c0.144-1.553,0.099,6.307,0.099-137.295
	c0-0.009,0-0.019,0-0.028c0-8.485,0-246.304,0-244.967c0-10.824-5.299-20.203-12.953-27.857l-56.369-56.369
	C293.612,12.107,285.907,7.5,276.829,7.5z"/>
<g>
	<path style="fill:#E4EAF8;" d="M44.914,487.164c0-99.267,0-363.745,0-462.327c0-9.575,7.761-17.336,17.335-17.336H27.594
		c-9.575,0-17.336,7.761-17.336,17.336c0,97.819,0,368.496,0,462.327c0,9.575,7.761,17.336,17.336,17.336h34.655
		C52.676,504.5,44.914,496.738,44.914,487.164z"/>
	<path style="fill:#E4EAF8;" d="M365.678,85.848L365.678,85.848c-1.749-3.709-3.843-7.146-6.948-10.558
		c-0.301-0.331-57.819-58.158-60.76-60.469c-2.355-1.848-4.406-3.026-6.962-4.238l0,0C281.707,6.349,274.598,7.8,269.95,7.5
		c0,0,21.057,2.299,21.057,24.801c0,33.706-0.307,33.841,0.779,37.78c2.48,9.087,10.789,15.767,20.64,15.767h31.385
		c4.507,0.088,25.543,1.74,25.543,24.958C369.004,105.428,370.719,96.925,365.678,85.848z"/>
</g>
<path style="fill:#C2C7D0;" d="M321.02,64.65c-0.022-1.671-0.007-14.195-0.011-27.149c-20.19-20.169-22.465-23.487-30.002-26.918
	l0,0l0,0C281.707,6.349,274.598,7.8,269.95,7.5c0,0,21.057,2.299,21.057,24.801c0,18.593,0,13.335,0,32.128
	c0,11.616,9.442,21.419,21.419,21.419h30.002C330.514,85.848,321.154,76.18,321.02,64.65z"/>
<path style="fill:#E4EAF8;" d="M173.314,208.649c-0.056-0.548-0.167-1.08-0.327-1.59c-0.08-0.256-0.172-0.506-0.276-0.75
	c-1.245-2.93-4.156-4.999-7.527-4.999l0,0H53.086l0,0c-4.502,0-8.171,3.682-8.171,8.171c0,13.92,0,114.706,0,132.928
	c0,4.494,3.677,8.172,8.171,8.172c24.99,0,88.092,0,112.099,0c4.494,0,8.171-3.677,8.171-8.172c0-18.222,0-119.008,0-132.928
	C173.356,209.2,173.342,208.923,173.314,208.649z"/>
<path style="fill:#C2C7D0;" d="M73.165,342.048c0-18.222,0-119.008,0-132.928c0-0.281,0.014-0.559,0.042-0.832
	c0.056-0.548,0.167-1.08,0.327-1.59c0.08-0.256,0.172-0.506,0.276-0.75c1.245-2.93,4.156-4.999,7.527-4.999H51.336
	c-4.495,0-8.171,3.676-8.171,8.172c0,13.92,0,114.706,0,132.928c0,4.494,3.677,8.171,8.171,8.171c7.531,0,22.324,0,30.002,0
	C76.842,350.219,73.165,346.542,73.165,342.048z"/>
<path style="fill:#E4EAF8;" d="M327.737,201.309L327.737,201.309H213.218l0,0c-2.872,0-5.352,1.762-6.413,4.259
	c-0.354,0.832-0.549,1.746-0.549,2.703c0,13.086,0,115.272,0,135.348c0,3.829,3.133,6.962,6.962,6.962c16.305,0,98.099,0,114.518,0
	c3.829,0,6.962-3.133,6.962-6.962c0-20.075,0-122.263,0-135.348C334.7,204.442,331.567,201.309,327.737,201.309z"/>
<path style="fill:#FEA82F;" d="M132.922,306.037H85.349c-8.298,0-15.022,6.726-15.022,15.023v29.636h77.618v-29.636
	C147.943,312.763,141.219,306.037,132.922,306.037z"/>
<circle style="fill:#FFC850;" cx="109.136" cy="257.956" r="25.122"/>
<path style="fill:#FEA82F;" d="M109.134,257.958c-4.649-8.052-4.328-17.606,0.001-25.124c-4.271-0.004-8.6,1.074-12.565,3.363
	c-12.018,6.938-16.135,22.305-9.197,34.323s22.305,16.136,34.323,9.198c3.965-2.289,7.063-5.498,9.195-9.2
	C122.217,270.508,113.783,266.01,109.134,257.958z"/>
<path style="fill:#FF9052;" d="M124.157,306.037H85.348c-8.298,0-15.022,6.726-15.022,15.023v29.636h38.809v-29.636
	C109.135,312.763,115.859,306.037,124.157,306.037z"/>
<circle style="fill:#FFC850;" cx="270.476" cy="257.956" r="25.122"/>
<path style="fill:#FEA82F;" d="M270.478,232.834c-4.271-0.004-8.6,1.074-12.565,3.363c-12.018,6.938-16.135,22.305-9.197,34.323
	c9.712,16.82,33.944,16.618,43.518-0.002C272.893,270.497,260.827,249.591,270.478,232.834z"/>
<path style="fill:#ABFFDB;" d="M294.921,450.902h-48.887c-6.865,0-12.482-5.616-12.482-12.482v-48.887
	c0-6.865,5.616-12.482,12.482-12.482h48.887c6.865,0,12.482,5.616,12.482,12.482v48.887
	C307.403,445.286,301.786,450.902,294.921,450.902z"/>
<path style="fill:#92E0C0;" d="M270.478,438.421v-48.887c0-6.865,5.617-12.482,12.482-12.482h-36.925
	c-6.865,0-12.482,5.616-12.482,12.482v48.887c0,6.865,5.616,12.482,12.482,12.482h36.925
	C276.095,450.902,270.478,445.286,270.478,438.421z"/>
<path style="fill:#FEA82F;" d="M133.579,450.902H84.692c-6.865,0-12.482-5.616-12.482-12.482v-48.887
	c0-6.865,5.617-12.482,12.482-12.482h48.887c6.865,0,12.482,5.616,12.482,12.482v48.887
	C146.06,445.286,140.443,450.902,133.579,450.902z"/>
<path style="fill:#FF9052;" d="M109.135,438.421v-48.887c0-6.865,5.616-12.482,12.482-12.482H84.692
	c-6.865,0-12.482,5.616-12.482,12.482v48.887c0,6.865,5.616,12.482,12.482,12.482h36.925
	C114.751,450.902,109.135,445.286,109.135,438.421z"/>
<path style="fill:#FFFFFF;" d="M409.806,392.285v15.773c0,30.735,18.772,46.65,24.83,56.978c2.275,3.157,6.975,3.157,9.251,0
	c6.058-10.33,24.829-26.243,24.829-56.978v-15.773C467.48,392.32,411.044,392.32,409.806,392.285z"/>
<path style="fill:#E4EAF8;" d="M437.834,408.058v-15.751c-11.666-0.008-26.613,0.018-28.028-0.022v15.773
	c0,30.735,18.772,46.65,24.83,56.977c2.275,3.157,6.975,3.157,9.251,0c2.066-3.523,5.613-7.698,9.389-12.889
	C445.983,442.123,437.834,428.308,437.834,408.058z"/>
<path style="fill:#666666;" d="M416.96,438.736c5.973,12.038,14.073,20.157,17.676,26.301c2.275,3.157,6.975,3.157,9.251,0
	c3.603-6.143,11.703-14.263,17.676-26.301H416.96z"/>
<path style="fill:#C2C7D0;" d="M444.994,438.736H416.96l0,0c5.967,12.028,14.066,20.146,17.676,26.301c2.28,3.164,6.98,3.15,9.251,0
	c2.017-3.439,5.773-7.921,9.388-12.891C450.469,448.289,447.541,443.864,444.994,438.736z"/>
<path style="fill:#92E0C0;" d="M407.832,107.876v281.068c0,3.512,2.847,6.358,6.359,6.358h51.395c2.819,0,5.104-2.285,5.104-5.104
	c0-17.184,0-299.954,0-282.886c0-5.797-4.699-10.497-10.497-10.497h-41.302C412.784,96.816,407.832,101.767,407.832,107.876z"/>
<path style="fill:#48C397;" d="M437.834,388.945V107.876c0-6.108,4.951-11.06,11.06-11.06h-30.002c-6.108,0-11.06,4.952-11.06,11.06
	v281.068c0,3.512,2.847,6.359,6.359,6.359h30.002C440.681,395.303,437.834,392.456,437.834,388.945z"/>
<path style="fill:#ABFFDB;" d="M460.194,96.816h-41.302c-6.108,0-11.06,4.951-11.06,11.061v32.39h62.859c0-11.407,0-21.535,0-32.954
	C470.691,101.515,465.992,96.816,460.194,96.816z"/>
<path style="fill:#92E0C0;" d="M407.832,140.266h30.002v-32.39c0-6.108,4.951-11.06,11.06-11.06
	c-32.92,0.081-32.448-0.636-36.185,1.889c-2.961,2-4.876,5.376-4.876,9.172V140.266z"/>
<path style="fill:#FFC850;" d="M439.261,56.878c-11.407,0-20.654,9.248-20.654,20.654c0,1.676,0,8.749,0,19.283h41.309V77.533
	C459.916,66.126,450.669,56.878,439.261,56.878z"/>
<path style="fill:#FEA82F;" d="M449.589,59.665c-13.628-7.893-30.981,1.876-30.981,17.868c0,1.677,0,8.75,0,19.283h20.654
	c0-10.534,0-17.606,0-19.283C439.262,69.892,443.421,63.238,449.589,59.665z"/>
<path style="fill:#C2C7D0;" d="M236.88,342.048c0-18.222,0-119.008,0-132.928c0-0.281,0.014-0.559,0.042-0.832
	c0.056-0.548,0.167-1.08,0.327-1.59c0.08-0.256,0.172-0.506,0.276-0.75c1.245-2.93,4.156-4.999,7.527-4.999h-30.002
	c-4.495,0-8.172,3.676-8.172,8.172c0,13.92,0,114.706,0,132.928c0,4.494,3.677,8.171,8.172,8.171c7.531,0,22.324,0,30.002,0
	C240.558,350.219,236.88,346.542,236.88,342.048z"/>
<path style="fill:#ABFFDB;" d="M294.264,306.037h-47.573c-8.298,0-15.023,6.726-15.023,15.023v29.636h77.618v-29.636
	C309.287,312.763,302.562,306.037,294.264,306.037z"/>
<path style="fill:#92E0C0;" d="M285.501,306.037h-38.809c-8.298,0-15.022,6.726-15.022,15.023v29.636h38.809v-29.636
	C270.478,312.763,277.203,306.037,285.501,306.037z"/>
<g>
	<path style="fill:#ABB0B7;" d="M225.965,156.818c0-4.143-3.357-7.5-7.5-7.5h-62.092c-4.143,0-7.5,3.357-7.5,7.5
		c0,4.143,3.357,7.5,7.5,7.5h62.092C222.608,164.319,225.965,160.961,225.965,156.818z"/>
	<path style="fill:#ABB0B7;" d="M125.326,132.819h124.186c4.143,0,7.5-3.357,7.5-7.5s-3.357-7.5-7.5-7.5H125.326
		c-4.143,0-7.5,3.357-7.5,7.5C117.826,129.462,121.184,132.819,125.326,132.819z"/>
	<path style="fill:#ABB0B7;" d="M125.326,101.318h124.186c4.143,0,7.5-3.357,7.5-7.5s-3.357-7.5-7.5-7.5H125.326
		c-4.143,0-7.5,3.357-7.5,7.5S121.184,101.318,125.326,101.318z"/>
</g>
<path style="fill:#FFFFFF;" d="M126.168,397.74c-3.124-2.718-7.861-2.391-10.582,0.733l-12.532,14.4l-2.96-3.677
	c-2.599-3.227-7.319-3.737-10.547-1.14c-3.227,2.598-3.736,7.319-1.139,10.547c7.436,8.271,8.644,13.344,14.277,13.453
	c2.162,0.044,4.311-0.864,5.801-2.575l18.414-21.159C129.621,405.197,129.292,400.459,126.168,397.74z"/>
<g>
	<path style="fill:#474D54;" d="M363.647,71.108c2.541,2.208-59.172-59.399-60.629-60.686C289.452-1.278,276.969,0.144,268.562,0
		H88.323c-4.143,0-7.5,3.357-7.5,7.5s3.357,7.5,7.5,7.5c192.403,0.868,179.211-2.056,186.708,2.77
		c4.769,3.067,7.087,7.82,7.087,14.53c0.005,31.107-0.728,35.368,1.724,41.907c4.119,11.449,15.048,19.141,27.196,19.141
		c28.735,0.266,34.881-1.322,42.127,2.817c4.902,2.8,7.289,7.575,7.3,14.595v288.58c0,4.143,3.357,7.5,7.5,7.5
		c4.143,0,7.5-3.357,7.5-7.5c0.001-317.492,0.148-298.078-0.336-302.219C373.33,81.514,364.816,72.951,363.647,71.108z
		 M311.038,78.348c-6.802,0-13.497-5.004-13.919-14.11c-0.195-30.362,0.479-33.315-0.675-39.302
		c0.127,0.127,53.512,53.505,54.47,54.479C347.283,78.57,341.074,78.532,311.038,78.348z"/>
	<path style="fill:#474D54;" d="M367.966,426.842c-4.143,0-7.5,3.357-7.5,7.5c-0.133,54.446,0.474,48.827-0.839,53.439
		c-1.983,5.513-7.239,9.218-13.08,9.218H26.207c-5.423,0-9.835-4.412-9.835-9.836V24.837c0-5.423,4.411-9.836,9.835-9.836h27.114
		c4.143,0,7.5-3.357,7.5-7.5S57.464,0,53.321,0H26.207C12.513,0,1.372,11.142,1.372,24.837v462.327
		C1.372,500.858,12.513,512,26.207,512h320.339c15.937,0,28.92-13.046,28.92-28.963v-48.694
		C375.466,430.2,372.109,426.842,367.966,426.842z"/>
	<path style="fill:#474D54;" d="M476.216,102.827c-1.387-5.377-5.187-9.788-10.188-11.989V77.533
		c0-15.524-12.63-28.155-28.154-28.155S409.72,62.009,409.72,77.533V91.05c-6.35,2.951-10.775,9.375-10.775,16.826v75.933
		c0,4.143,3.357,7.5,7.5,7.5c4.143,0,7.5-3.357,7.5-7.5v-75.933c0-1.963,1.597-3.56,3.56-3.56h41.302
		c1.652,0,2.996,1.344,2.996,2.996v280.491h-47.859V218.81c0-4.143-3.357-7.5-7.5-7.5c-4.143,0-7.5,3.357-7.5,7.5
		c0.735,176.41-1.776,170.968,1.975,177.228v12.021c0,27.455,11.994,41.652,26.245,61.362c4.188,5.815,10.811,5.509,10.711,5.484
		c4.829,0,9.142-2.744,11.096-6.074c5.711-9.739,25.86-27.24,25.86-60.773v-11.114c3.764-5.911,1.221,5.85,1.975-256.678v-22.397
		c10.467,0.547,18.821,9.21,18.821,19.811v100.209c-1.849,0.328-8.589-1.563-11.219,4.526c-1.188,2.747-0.627,5.937,1.425,8.115
		c3.92,3.456,6.526,9.279,13.55,9.279c6.132,0,11.245-4.917,11.245-11.23v-110.9C510.627,118.607,495.231,103.071,476.216,102.827z
		 M451.028,89.315H424.72V77.533c0-7.253,5.9-13.154,13.154-13.154c7.252,0,13.153,5.9,13.153,13.154L451.028,89.315L451.028,89.315
		z M437.875,458.377c-2.593-3.741-5.617-7.316-9.019-12.141h18.037C443.59,450.918,440.339,454.818,437.875,458.377z
		 M455.325,431.235h-34.902c-5.764-14.06-4.242-25.298-4.503-28.428h43.909C459.561,406.011,461.108,417.13,455.325,431.235z"/>
</g>
<g>
</g>
<g>
</g>
<g>
</g>
<g>
</g>
<g>
</g>
<g>
</g>
<g>
</g>
<g>
</g>
<g>
</g>
<g>
</g>
<g>
</g>
<g>
</g>
<g>
</g>
<g>
</g>
<g>
</g>
</svg>
