<?xml version="1.0" encoding="iso-8859-1"?>
<!-- Generator: Adobe Illustrator 19.0.0, SVG Export Plug-In . SVG Version: 6.00 Build 0)  -->
<svg version="1.1" id="Capa_1" xmlns="http://www.w3.org/2000/svg" xmlns:xlink="http://www.w3.org/1999/xlink" x="0px" y="0px"
	 viewBox="0 0 512.001 512.001" style="enable-background:new 0 0 512.001 512.001;" xml:space="preserve">
<path style="fill:#FEA82F;" d="M311.533,84.367C306.907-6.914,177.159-21.108,152.847,66.978
	c-3.556,12.928-2.994,20.029-2.955,47.921h161.759C311.657,86.409,311.654,86.77,311.533,84.367z"/>
<path style="fill:#FF8031;" d="M205.3,66.978c8.133-29.468,28.071-47.472,51.171-54.991
	c-50.536-16.094-102.042,15.689-106.28,70.062c-0.283,3.579-0.315,21.865-0.3,32.849h52.453
	C202.301,83.624,202.101,78.611,205.3,66.978z"/>
<path style="fill:#ABFFDB;" d="M342.806,312.437l-10.008-64.497c-1.626-8.225-2.554-21.903-18.309-28.526
	c-1.471-0.617-4.82-1.541-4.752-1.521c-69.096-24.408-5.507-1.946-36.066-12.705l-15.307-9.477v-18.217
	c-16.424,8.268-36.58,8.903-53.362,1.15l0.011,17.068l-15.739,9.642l-8.11,2.789h-0.018l0.003,0.005
	c-0.103,0.036-33.275,11.781-31.137,10.819c-8.719,3.257-16.092,10.422-17.123,20.455c-0.65,6.328-12.23,73.015-12.23,73.015
	h222.146V312.437z"/>
<path style="fill:#91DFBF;" d="M172.344,211.261c-22.727,8.02-22.456,7.761-22.331,7.705c-8.719,3.257-16.091,10.421-17.123,20.455
	c-0.65,6.328-12.23,73.015-12.23,73.015h30.118c0,0,11.58-78.687,12.23-85.014C163.709,220.601,167.184,215.249,172.344,211.261z"/>
<path style="fill:#E4EAF8;" d="M230.771,220.799l31.08-22.929l0,0l-3.486-2.159v-18.217c-16.424,8.268-36.58,8.903-53.362,1.15
	l0.011,17.068l-3.524,2.159L230.771,220.799z"/>
<path style="fill:#C3C8D1;" d="M230.771,220.799v-36.725c-8.843,0.068-17.697-1.701-25.769-5.431l0.011,17.068l-3.524,2.159
	L230.771,220.799z"/>
<path style="fill:#DDDDDD;" d="M175.785,279.37c0-4.414-3.578-7.991-7.991-7.991s-7.991,3.577-7.991,7.991v30.068h15.983V279.37z"/>
<g>
	<path style="fill:#FF8031;" d="M205.013,195.711l25.758,25.088L207.78,236.8c-3.355,2.335-8.012,0.771-9.278-3.116l-9.227-28.331
		L205.013,195.711z"/>
	<path style="fill:#FF8031;" d="M258.365,195.711l-27.594,25.088l22.991,16.001c3.355,2.335,8.012,0.771,9.278-3.116l10.63-28.496
		L258.365,195.711z"/>
</g>
<path style="fill:#FF9052;" d="M241.133,256.253c-7.247,0-13.475,0-20.723,0l-14.219,53.228c15.646,0,33.514,0,49.16,0
	L241.133,256.253z"/>
<path style="fill:#FEA82F;" d="M230.771,220.799l-19.303,13.433l8.94,22.019c7.247,0,13.475,0,20.723,0l8.941-22.019
	L230.771,220.799z"/>
<path style="fill:#FF8031;" d="M241.133,256.253c-7.247,0-13.475,0-20.723,0l-14.219,53.228h20.739l14.211-53.198L241.133,256.253z"
	/>
<path style="fill:#FF9052;" d="M227.638,222.979l-16.17,11.253l8.941,22.019c7.247,0,13.475,0,20.722,0l0.008-0.02L227.638,222.979z
	"/>
<g>
	<path style="fill:#E4EAF8;" d="M174.182,105.491c-14.04-5.004-30.346,4.302-30.346,17.876c0,13.571,16.305,22.88,30.346,17.876
		L174.182,105.491L174.182,105.491z"/>
	<path style="fill:#E4EAF8;" d="M287.388,105.491c14.04-5.004,30.347,4.302,30.347,17.876c0,13.571-16.305,22.88-30.347,17.876
		V105.491z"/>
</g>
<g>
	<path style="fill:#C3C8D1;" d="M145.996,115.155c-8.796,15.755,10.132,32.522,28.186,26.089v-16.426
		C163.222,128.724,150.884,123.909,145.996,115.155z"/>
	<path style="fill:#C3C8D1;" d="M287.388,124.817v16.426c18.067,6.438,36.977-10.342,28.186-26.089
		C310.686,123.908,298.349,128.723,287.388,124.817z"/>
</g>
<path style="fill:#FFFFFF;" d="M286.865,84.341c1.498,0.145,2.65,1.387,2.65,2.892c0,49.448,0.032,42.219-0.083,44.518
	c-3.361,66.302-97.601,76.611-115.261,12.63c-0.973-3.538-1.608-6.841-1.928-10.947c-0.329-4.153-0.192-26.696-0.192-26.623
	c0-11.516,10.22-20.301,21.617-18.657c17.951,2.591,44.153,1.585,67.016-17.959c2.35-2.008,5.915-1.36,7.414,1.343
	C270.931,76.64,276.564,83.346,286.865,84.341z"/>
<path style="fill:#E4EAF8;" d="M202.43,131.75c-0.114-2.271-0.084,4.747-0.083-42.722c-3.054-0.176-5.962-0.483-8.678-0.875
	c-11.397-1.645-21.617,7.14-21.617,18.657c0-0.072-0.137,22.47,0.192,26.623c2.899,37.183,36.973,61.26,73.688,51.886
	C223.293,179.541,203.92,161.159,202.43,131.75z"/>
<path style="fill:#AFB5BC;" d="M137.12,197.973c-14.318,0-20.299-18.41-8.675-26.801l8.396-6.063
	c6.625-4.783,15.879-3.294,20.663,3.336c4.785,6.627,3.291,15.879-3.336,20.663C147.548,193.286,144.34,197.973,137.12,197.973z"/>
<path style="fill:#969A9F;" d="M140.112,163.343c-3.001,1.177-3.781,2.3-11.667,7.829c-11.591,8.368-5.672,26.802,8.675,26.802
	c3.002,0,6.034-0.911,8.652-2.802c8.098-5.933,8.586-6.005,10.206-7.627C141.137,193.336,128.881,174.638,140.112,163.343z"/>
<path style="fill:#E4EAF8;" d="M125.368,312.437v-22.509c0-10.585-8.581-19.167-19.167-19.167s-19.167,8.581-19.167,19.167v22.51
	h38.333V312.437z"/>
<path style="fill:#C2C7D0;" d="M115.785,273.346c-12.645-7.325-28.75,1.741-28.75,16.582v22.509h19.167v-22.509
	C106.202,282.837,110.061,276.662,115.785,273.346z"/>
<path style="fill:#FFFFFF;" d="M111.003,365.64l13.409,124.872c0.856,7.779,7.428,13.669,15.256,13.669h184.447
	c7.366,0,13.533-5.586,14.259-12.917l7.773-81.503l3.475-44.123C329.569,365.64,117.659,365.64,111.003,365.64z"/>
<path style="fill:#E4EAF8;" d="M154.41,490.512L141.001,365.64h-29.998l13.409,124.872c0.856,7.779,7.428,13.669,15.256,13.669
	h29.998C161.838,504.181,155.266,498.292,154.41,490.512z"/>
<path style="fill:#6DC296;" d="M288.612,346.828c-4.243-4.135-4.244-10.941,0-15.076c3.546-4.921,13.404-8.37,12.024-22.315H80.213
	c-4.382,0-7.691,3.972-6.901,8.281l7.734,42.177c0.929,5.066,5.344,8.744,10.493,8.744H300.7
	C301.823,355.272,292.209,351.72,288.612,346.828z"/>
<path style="fill:#5FA77E;" d="M133.219,359.895l-7.734-42.177c-0.79-4.31,2.52-8.281,6.9-8.281H80.213
	c-4.382,0-7.691,3.972-6.9,8.281l7.734,42.177c0.929,5.066,5.344,8.744,10.493,8.744h52.173
	C138.563,368.64,134.148,364.961,133.219,359.895z"/>
<path style="fill:#ABFFDB;" d="M435.622,331.753l-6.606-6.44c-9.57-9.326-3.949-20.703-3.823-25.403
	c1-5.828-2.987-11.343-8.861-12.197c-4.482-1.322-17.176,0.424-23.058-11.497l-4.091-8.288c-2.622-5.313-9.094-7.416-14.339-4.659
	c-4.404,1.564-13.622,10.426-25.388,4.24l-8.065-4.24c-5.172-2.718-11.685-0.718-14.339,4.659
	c-2.672,3.903-4.933,16.557-18.106,18.471l-9.043,1.314c-5.865,0.852-9.863,6.359-8.862,12.197
	c0.124,4.63,5.693,16.129-3.822,25.402l-6.606,6.44c-4.244,4.135-4.243,10.942,0,15.076l6.606,6.439
	c9.568,9.327,3.949,20.703,3.823,25.403c-1.002,5.841,2.999,11.345,8.862,12.197c4.474,1.32,17.175-0.423,23.058,11.497l4.091,8.288
	c1.869,3.787,5.643,5.875,9.454,5.875c4.069,0,5.943-2.064,12.949-5.456c11.844-6.228,20.854,2.629,25.388,4.24
	c5.235,2.752,11.711,0.664,14.339-4.659l4.091-8.288c5.917-11.989,18.485-10.147,23.058-11.497
	c5.864-0.852,9.864-6.357,8.861-12.197l-1.531-8.927c-2.262-13.19,9.012-19.087,11.96-22.915
	C439.865,342.694,439.866,335.887,435.622,331.753z"/>
<path style="fill:#91DFBF;" d="M315.766,370.411c-21.324-36.934-8.706-84.315,28.498-105.631l-2.874-1.511
	c-5.172-2.718-11.685-0.718-14.338,4.659c-2.672,3.903-4.933,16.557-18.106,18.471l-9.043,1.314
	c-5.865,0.852-9.863,6.359-8.862,12.197c0.124,4.63,5.693,16.129-3.823,25.402l-6.606,6.44c-4.244,4.135-4.243,10.942,0,15.076
	l6.606,6.439c9.568,9.327,3.949,20.703,3.823,25.403c-1.002,5.841,2.999,11.345,8.862,12.197c4.474,1.32,17.175-0.424,23.058,11.497
	l4.091,8.288c1.869,3.787,5.643,5.875,9.454,5.875c4.069,0,5.943-2.064,12.949-5.456c11.844-6.228,20.854,2.629,25.388,4.24
	c5.235,2.752,11.711,0.664,14.339-4.659l0.985-1.995C360.952,411.495,331.4,397.488,315.766,370.411z"/>
<path style="fill:#FFFFFF;" d="M387.226,319.498c-3.125-2.719-7.861-2.391-10.58,0.733l-26.916,30.929l-9.661-12.002
	c-2.599-3.228-7.319-3.737-10.545-1.14c-3.227,2.598-3.736,7.318-1.14,10.545l15.279,18.981c2.928,3.636,8.433,3.742,11.499,0.221
	l32.797-37.687C390.678,326.953,390.349,322.216,387.226,319.498z"/>
<g>
	<path style="fill:#ABB0B7;" d="M281.196,413.702H180.27c-4.143,0-7.499,3.357-7.499,7.499c0,4.143,3.357,7.499,7.499,7.499h100.926
		c4.143,0,7.499-3.357,7.499-7.499C288.695,417.059,285.339,413.702,281.196,413.702z"/>
	<path style="fill:#ABB0B7;" d="M281.196,448.169H180.27c-4.143,0-7.499,3.357-7.499,7.499c0,4.143,3.357,7.499,7.499,7.499h100.926
		c4.143,0,7.499-3.357,7.499-7.499C288.695,451.525,285.339,448.169,281.196,448.169z"/>
</g>
<path style="fill:#474D54;" d="M434.25,320.262c-9.062-8.831,4.417-19.658-4.848-32.41c-9.202-12.665-23.855-3.388-29.405-14.635
	l-4.091-8.287c-4.419-8.952-15.208-12.582-24.105-8.206c-5.516,2.209-11.392,8.397-18.856,4.469
	c-7.506-3.848-8.359-4.637-11.123-5.487c-3.474-20.846-5.337-38.654-29.531-44.801l-33.445-11.814
	c-0.043-0.015-0.087-0.03-0.13-0.044l-0.117-0.042l-0.001,0.003c-3.599-1.178,0.515,0.344-12.711-7.412v-6.449
	c12.543-7.423,23.005-19.161,28.027-35.309c26.646,3.154,42.662-26.123,25.36-44.241c0.047-0.831,0.018-19.844,0.01-20.673
	c-0.013-1.407-0.613-8.97-1.851-15.242c-0.801-4.063-4.748-6.711-8.809-5.907c-4.064,0.802-6.708,4.746-5.907,8.809
	c1.85,9.372,1.581,15.763,1.58,24.645c-2.352-0.527-4.764-0.776-7.188-0.74l-0.001-9.439c0-5.388-4.055-9.842-9.432-10.363
	c-0.001,0-0.002,0-0.004-0.001c-5.589-0.539-9.953-3.569-12.972-9.006c-3.817-6.871-12.916-8.485-18.862-3.406
	c-20.774,17.76-44.761,18.653-61.224,16.277c-11.885-1.723-23.563,4.773-28.225,16.034c-3.105-0.247-6.214-0.025-9.221,0.651
	c0.026-11.146-0.234-17.858,2.691-28.491c17.645-63.923,96.922-68.939,130.066-25.157c2.499,3.302,7.2,3.954,10.505,1.453
	c3.303-2.499,3.953-7.202,1.454-10.505C281.813,8.021,246.716-4.872,212.483,1.688c-41.74,7.998-67.075,42.193-69.989,79.573
	c-0.372,4.698-0.371,23.197-0.301,24.361c-17.316,18.183-1.108,47.576,25.639,44.188c5.747,17.604,16.675,29.559,29.577,36.7
	l0.004,5.064l-11.488,7.037c-0.103,0.036-37.516,12.981-38.758,13.443c-7.428,2.775-13.506,7.571-17.576,13.871
	c-4.303,6.659-3.33,8.029-9.281,41.708c-2.036-1.275-4.255-2.281-6.608-2.972v-51.232c0-5.819,5.649-7.192,10.781-11.572
	c7.719,5.297,17.955,5.293,25.68-0.286c4.9-4.393,15.295-7.826,17.357-20.588c3.152-19.526-19.021-33.22-35.067-21.634l-8.397,6.063
	c-7.832,5.656-10.876,15.486-8.341,24.277l-7.721,5.576c-5.817,4.201-9.289,10.991-9.289,18.166v51.232
	c-11.063,3.249-19.167,13.485-19.167,25.585v12.048c-8.871,0.412-15.174,8.515-13.601,17.097l7.734,42.177
	c1.582,8.628,9.097,14.892,17.87,14.892h12.744l12.674,115.192c1.275,11.601,11.039,20.349,22.71,20.349h124.028
	c4.143,0,7.499-3.357,7.499-7.499c0-4.143-3.357-7.499-7.499-7.499H139.668c-4.01,0-7.362-3.005-7.801-6.989l-12.494-113.553
	c7.137,0,23.612,0,30.743,0c4.143,0,7.499-3.357,7.499-7.499c0-4.143-3.357-7.499-7.499-7.499c-6.933,0-51.288,0-58.575,0
	c-1.53,0-2.841-1.093-3.117-2.598l-7.63-41.605c0.137,0,166.106,0.02,203.419,0c-3.015,6.1-14.281,9.914-14.281,22.351
	c0,0.001,0,0.001,0,0.002c0,12.022,10.528,15.803,14.016,21.85h-98.834c-4.143,0-7.499,3.357-7.499,7.499
	c0,4.143,3.357,7.499,7.499,7.499h98.664c-1.848,11.678,4.106,21.177,19.208,22.778c6.125,0.649,10.66,1.515,13.252,6.766
	l4.091,8.288c3.132,6.345,9.674,10.416,17.171,10.029l-6.588,66.524c-0.347,3.51-3.269,6.156-6.795,6.156h-25.421
	c-4.143,0-7.499,3.357-7.499,7.499c0,4.143,3.357,7.499,7.499,7.499h25.421c11.273,0,20.611-8.459,21.722-19.677l7.369-74.417
	c10.931-5.471,17.312,10.362,32.112,5.555c10.168-3.306,11.512-12.417,14.681-17.457c3.786-7.67,11.981-5.972,17.911-7.473
	c9.758-1.69,16.367-10.956,14.676-20.807l-1.53-8.927c-2.155-12.559,15.25-13.315,15.25-29.187
	C446.304,328.929,437.982,324.734,434.25,320.262z M297.114,135.038c0-0.925,0-1.234,0-1.233c0-2.258,0-8.196,0-22.33
	c12.931-0.357,19.598,13.566,9.335,20.81c-2.725,1.921-6.006,2.857-9.335,2.771C297.114,135.049,297.114,135.044,297.114,135.038z
	 M155.044,114.246c2.796-1.971,6.12-2.868,9.315-2.772c-0.019,6.667,0,11.897,0.021,23.581
	C151.431,135.388,144.794,121.474,155.044,114.246z M132.834,177.573l8.397-6.063c1.541-1.113,3.463-1.607,5.438-1.289
	c6.391,1.031,8.364,9.334,3.109,13.127c-7.642,5.116-8.872,7.445-12.657,7.445c-2.38,0-4.542-1.105-5.932-3.029
	C128.833,184.502,129.571,179.93,132.834,177.573z M117.869,302.259H94.535v-12.011c0-6.434,5.234-11.667,11.667-11.667
	c6.563,0,11.667,5.405,11.667,11.667V302.259z M179.379,125c0-5.858,0-8.71,0-18.33c0-7.103,6.311-12.251,13.096-11.276
	c18.918,2.732,46.287,1.755,70.744-17.765c4.644,6.932,11.187,11.537,18.893,13.315c0.008,54.439,0.237,34.108-0.073,40.343
	C278.818,194.798,179.952,199.255,179.379,125z M230.911,210.622l-18.498-18.017v-0.077c12.511,3.353,25.943,3.09,38.476-0.749
	v0.678L230.911,210.622z M240.876,237.114l-4.808,11.838h-10.672l-4.807-11.838l10.143-7.059
	C231.57,230.638,238.891,235.733,240.876,237.114z M218.993,219.951c-13.047,9.08-11.864,8.256-14.052,9.779l-6.836-20.989
	l5.758-3.527L218.993,219.951z M259.25,205.128l5.306,3.285l-7.968,21.362c-2.36-1.643-13.745-9.566-13.846-9.637L259.25,205.128z
	 M200.348,302.259h-25.235v-22.637c0-4.143-3.357-7.499-7.499-7.499s-7.499,3.357-7.499,7.499v22.637h-27.247
	c-0.011-12.421,0.167-13.595-0.468-16.958c9.285-51.874,7.531-47.739,9.79-51.235c2.496-3.862,6.401-6.677,10.638-8.054
	c4.682-1.496,25.779-8.971,31.544-11.004l6.886,21.146c2.309,7.089,9.661,10.732,16.39,8.955l4.806,11.836L200.348,302.259z
	 M215.873,302.259l10.234-38.308h9.251l10.233,38.308H215.873z M283.703,302.259h-22.585l-12.105-45.314l4.806-11.835
	c6.663,1.76,13.954-1.796,16.331-8.776l8.037-21.546c1.547,0.539,1.614,0.579,2.147,0.735c32.379,11.433,31.393,10.917,31.36,10.902
	c0.003,0.001,0.014,0.006,0.044,0.019c12.562,5.281,12.623,15.693,15.202,31.168c-10.669,6.658-7.633,20.024-19.069,21.686
	c-5.788,1.465-14.737-0.115-21.037,8.556C283.622,292.271,282.945,296.874,283.703,302.259z M416.271,371.333l1.531,8.927
	c0.287,1.676-0.849,3.262-2.55,3.509c-0.353,0.051-0.687,0.123-1.028,0.225c-3.286,0.873-19.916-0.35-27.677,15.374l-4.091,8.288
	c-0.758,1.537-2.618,2.132-4.125,1.34c-0.315-0.166-0.631-0.306-0.968-0.425c-3.155-1.209-15.797-11.931-31.283-3.876
	c-5.314,2.58-7.926,4.473-9.239,4.633c-1.167,0.144-2.457-0.437-3.066-1.672l-4.091-8.288
	c-9.035-18.306-27.879-12.901-30.723-16.814c-2.513-3.461,7.231-19.181-5.233-32.996c-6.337-7.017-8.801-7.475-8.802-9.945
	c0-0.476,0.119-1.389,0.918-2.167c5.812-5.682,8.186-7.665,10.342-10.954c8.651-13.215,0.348-26.477,2.775-29.821
	c1.375-1.894,3.531-1.032,11.06-2.529c17.299-2.513,21.498-20.192,24.219-23.255c0.481-0.54,1.107-0.852,1.757-0.961
	c1.709-0.284,2.135,0.607,9.966,4.544c15.423,8.106,28.196-2.56,31.389-3.813c0.336-0.119,0.663-0.263,0.979-0.429
	c1.511-0.793,3.369-0.193,4.125,1.341l4.091,8.286c9.038,18.316,27.916,12.937,30.721,16.814c2.827,3.881-8.15,20.045,6.513,34.334
	l6.605,6.44v0.001C436.265,343.163,412.37,348.586,416.271,371.333z"/>
<g>
</g>
<g>
</g>
<g>
</g>
<g>
</g>
<g>
</g>
<g>
</g>
<g>
</g>
<g>
</g>
<g>
</g>
<g>
</g>
<g>
</g>
<g>
</g>
<g>
</g>
<g>
</g>
<g>
</g>
</svg>
