<?xml version="1.0" encoding="iso-8859-1"?>
<!-- Generator: Adobe Illustrator 19.0.0, SVG Export Plug-In . SVG Version: 6.00 Build 0)  -->
<svg version="1.1" id="Capa_1" xmlns="http://www.w3.org/2000/svg" xmlns:xlink="http://www.w3.org/1999/xlink" x="0px" y="0px"
	 viewBox="0 0 511.999 511.999" style="enable-background:new 0 0 511.999 511.999;" xml:space="preserve">
<path style="fill:#FFFFFF;" d="M430.576,504.5H81.423c-19.442,0-35.203-15.761-35.203-35.203V42.704
	C46.22,23.261,61.981,7.5,81.423,7.5h349.152c19.442,0,35.203,15.761,35.203,35.203v426.592
	C465.779,488.739,450.018,504.5,430.576,504.5z"/>
<path style="fill:#E4EAF8;" d="M73.555,469.296V42.704c0-19.442,15.761-35.203,35.203-35.203H81.423
	C61.981,7.5,46.22,23.261,46.22,42.704v426.592c0,19.442,15.761,35.203,35.203,35.203h27.335
	C89.316,504.5,73.555,488.739,73.555,469.296z"/>
<path style="fill:#FFC850;" d="M430.527,34.666H81.473c-4.466,0-8.087,3.621-8.087,8.087v308.346c0,4.466,3.621,8.087,8.087,8.087
	h349.053c4.466,0,8.087-3.621,8.087-8.087V42.754C438.614,38.286,434.993,34.666,430.527,34.666z"/>
<g>
	<path style="fill:#FEA82F;" d="M103.387,351.099V42.754c0-4.466,3.621-8.087,8.087-8.087H81.472c-4.466,0-8.087,3.621-8.087,8.087
		V351.1c0,4.466,3.621,8.087,8.087,8.087h30.002C107.008,359.187,103.387,355.567,103.387,351.099z"/>
	<path style="fill:#FEA82F;" d="M330.588,147.928c-4.342-85.679-126.128-99.002-148.947-16.321
		c-1.257,4.572-2.078,8.841-2.492,14.147c-0.266,3.359-0.296,20.523-0.281,30.834H330.7
		C330.704,149.844,330.701,150.183,330.588,147.928z"/>
</g>
<path style="fill:#FF8031;" d="M232.418,131.607c7.541-27.324,25.894-44.155,47.242-51.362
	c-37.71-12.422-84.705,3.124-98.019,51.362c-1.257,4.572-2.078,8.841-2.492,14.147c-0.266,3.359-0.296,20.523-0.281,30.834h50.777
	C229.602,147.231,229.414,142.526,232.418,131.607z"/>
<path style="fill:#ABFFDB;" d="M359.941,359.186l-9.394-57.724c-1.526-7.72-2.397-20.559-17.185-26.776
	c-1.38-0.579-4.523-1.446-4.46-1.427c-64.855-22.91-5.168-1.826-33.853-11.925l-14.367-8.896V235.34
	c-15.415,7.76-34.335,8.357-50.087,1.079l0.01,16.02l-14.773,9.051l-7.612,2.617h-0.017l0.003,0.005
	c-0.111,0.039-31.232,11.057-29.226,10.156c-8.185,3.056-15.104,9.783-16.072,19.2c-0.61,5.939-11.48,65.718-11.48,65.718
	L359.941,359.186L359.941,359.186z"/>
<path style="fill:#91DFBF;" d="M200.671,266.777c-22.083,7.796-21.809,7.543-21.691,7.49c-8.185,3.056-15.104,9.783-16.072,19.2
	c-0.61,5.939-11.48,65.718-11.48,65.718h28.27c0,0,10.87-70.78,11.48-76.719C191.858,275.842,195.322,270.624,200.671,266.777z"/>
<g>
	<path style="fill:#E4EAF8;" d="M254.782,275.988l29.172-21.522l0,0l-3.272-2.026V235.34c-15.415,7.76-34.335,8.357-50.087,1.079
		l0.01,16.02l-3.307,2.026L254.782,275.988z"/>
	<path style="fill:#E4EAF8;" d="M230.594,236.419l0.01,16.02l-3.307,2.026l27.485,21.522v-34.471
		C246.481,241.58,238.171,239.92,230.594,236.419z"/>
</g>
<g>
	<path style="fill:#FF8031;" d="M230.604,252.439l24.177,23.548l-21.58,15.019c-3.149,2.191-7.52,0.724-8.71-2.924l-8.661-26.592
		L230.604,252.439z"/>
	<path style="fill:#FF8031;" d="M280.682,252.439l-25.9,23.548l21.58,15.019c3.149,2.191,7.52,0.724,8.709-2.924l9.978-26.747
		L280.682,252.439z"/>
</g>
<path style="fill:#FF9052;" d="M264.508,309.265h-9.726h-9.726l-13.347,49.961c36.303,0,9.853,0,46.144,0L264.508,309.265z"/>
<polygon style="fill:#FEA82F;" points="254.782,275.988 236.664,288.596 245.056,309.265 254.782,309.265 264.508,309.265 
	272.9,288.596 "/>
<polygon style="fill:#FF8031;" points="264.508,309.265 254.782,309.265 245.056,309.265 231.71,359.226 251.188,359.226 
	264.521,309.314 "/>
<polygon style="fill:#FF9052;" points="251.851,278.028 236.664,288.596 245.056,309.265 254.782,309.265 264.508,309.265 
	264.521,309.232 "/>
<g>
	<path style="fill:#E4EAF8;" d="M201.666,167.756c-13.178-4.696-28.484,4.037-28.484,16.779c0,12.738,15.304,21.475,28.484,16.779
		V167.756z"/>
	<path style="fill:#E4EAF8;" d="M307.924,167.756c13.178-4.696,28.484,4.037,28.484,16.779c0,12.738-15.304,21.475-28.484,16.779
		V167.756z"/>
</g>
<g>
	<path style="fill:#C3C8D1;" d="M175.385,176.534c-1.394,2.383-2.203,5.085-2.203,8c0,12.738,15.304,21.475,28.484,16.779v-16.001
		C191.502,188.934,180.082,184.563,175.385,176.534z"/>
	<path style="fill:#C3C8D1;" d="M307.924,185.312v16.001c17.071,6.083,34.955-9.953,26.281-24.779
		C329.507,184.563,318.088,188.934,307.924,185.312z"/>
</g>
<path style="fill:#FFFFFF;" d="M307.433,147.903c1.406,0.136,2.487,1.302,2.487,2.714c0,46.414,0.03,39.627-0.078,41.786
	c-3.154,62.233-91.612,71.909-108.187,11.855c-0.913-3.321-1.51-6.421-1.81-10.276c-0.309-3.898-0.18-25.058-0.18-24.99
	c0-10.809,9.593-19.055,20.29-17.511c16.849,2.432,41.442,1.487,62.903-16.856c2.205-1.885,5.551-1.276,6.959,1.26
	C292.477,140.675,297.765,146.97,307.433,147.903z"/>
<path style="fill:#E4EAF8;" d="M229.722,192.404c-0.107-2.13-0.079,4.449-0.078-40.025c-3.433-0.14-6.685-0.462-9.689-0.896
	c-10.698-1.544-20.291,6.702-20.291,17.511c0-0.068-0.128,21.091,0.18,24.99c0.3,3.854,0.897,6.954,1.81,10.276
	c9.313,33.739,41.311,45.467,68.127,38.233C248.867,236.85,231.105,219.673,229.722,192.404z"/>
<g>
	<path style="fill:#92E0C0;" d="M142.439,399.483l-12.147,44.831l-12.234-44.831c-1.645-5.248-14.421-1.544-13.022,4.019
		c17.808,55.672,15.012,54.688,19.619,56.716c4.876,2.147,13.106,1.279,14.55-3.408c16.423-54.073,16.43-53.499,16.43-54.269
		C155.635,397.841,144.052,394.317,142.439,399.483z"/>
	<path style="fill:#92E0C0;" d="M172.981,460.262c5.193,1.46,11.647,1.463,16.91,0c5.273-1.464,9.159-4.803,11.361-9.963
		c2.658-6.23,1.286-12.378,1.66-32.728c0-13.034-7.191-20.623-21.498-20.623c-5.458,0-11.061,1.096-15.206,4.675
		c-8.292,7.162-5.806,17.452-6.204,39.106C160.003,451.668,165.262,458.097,172.981,460.262z M173.636,417.572
		c0-5.464,2.358-8.739,7.777-8.739c4.981,0,7.865,2.774,7.865,8.739v23.158c0,5.434-2.409,8.739-7.865,8.739
		c-5.401,0-7.777-3.25-7.777-8.739V417.572z"/>
	<path style="fill:#92E0C0;" d="M236.47,456.636v-47.453c11.049-0.468,13.388,1.194,15.119-1.835
		c2.036-3.569,1.191-10.399-3.059-10.399c-38.321,0.611-39.179-1.515-40.898,1.922c-1.42,2.838-1.171,6.274,0.088,8.478
		c1.734,3.039,4.09,1.367,15.118,1.835v47.453C222.837,462.214,236.47,462.231,236.47,456.636z"/>
	<path style="fill:#92E0C0;" d="M259.89,459.782c3.197,1.827,3.555,0.723,35.218,1.049c4.215,0,5.108-6.592,3.059-10.094
		c-1.821-3.107-3.184-1.251-26.48-1.792V434.09c12.222-0.445,14.67,1.101,16.255-1.704c2-3.549,0.716-8.783-3.146-8.783h-13.109
		v-14.77c22.92-0.53,24.652,1.329,26.48-1.791c2.043-3.486,1.151-10.094-3.059-10.094c-31.656,0.326-32.018-0.778-35.218,1.048
		c-3.289,1.879-1.22,0.365-1.835,58.64C258.055,458.035,258.666,459.083,259.89,459.782z"/>
	<path style="fill:#92E0C0;" d="M374.893,423.254c0.99,0,1.879-0.466,2.665-1.398c0.787-0.932,1.18-2.154,1.18-3.67
		c0-1.398-0.379-2.578-1.136-3.539c-0.758-0.962-1.632-1.442-2.621-1.442h-6.117l1.923-9.7c-0.06-1.864-0.729-3.16-2.01-3.889
		c-1.282-0.728-2.681-1.093-4.195-1.093c-1.341,0-2.577,0.249-3.714,0.743c-1.136,0.495-1.791,1.18-1.966,2.054l-2.271,11.885
		h-9.002l1.835-9.7c0-1.864-0.642-3.16-1.923-3.889c-1.281-0.728-2.68-1.093-4.194-1.093c-1.341,0-2.577,0.249-3.714,0.743
		c-1.136,0.495-1.791,1.18-1.966,2.054l-2.272,11.885h-8.126c-1.166,0-2.084,0.496-2.753,1.486c-0.671,0.991-1.005,2.214-1.005,3.67
		c0,1.516,0.319,2.709,0.961,3.583c0.641,0.873,1.543,1.311,2.709,1.311h6.204l-1.835,9.439h-8.039c-1.107,0-2.01,0.495-2.709,1.485
		c-0.699,0.991-1.049,2.215-1.049,3.67c0,1.516,0.335,2.709,1.005,3.583c0.669,0.874,1.558,1.311,2.665,1.311h6.117l-1.922,10.662
		c0,0.816,0.203,1.544,0.611,2.185c0.407,0.642,0.946,1.166,1.616,1.573c0.669,0.408,1.398,0.714,2.185,0.917
		c0.787,0.205,1.529,0.307,2.229,0.307c1.049,0,2.141-0.291,3.277-0.874c1.136-0.582,1.791-1.281,1.966-2.098l2.447-12.672h8.826
		l-2.01,10.662c0,0.816,0.219,1.544,0.655,2.185c0.438,0.642,0.976,1.166,1.617,1.573c3.725,2.377,9.143,0.855,9.7-1.748
		l2.447-12.672h7.952c0.989,0,1.892-0.466,2.708-1.398c0.815-0.932,1.224-2.155,1.224-3.671c0-1.397-0.393-2.577-1.18-3.539
		c-0.786-0.961-1.675-1.441-2.665-1.441h-6.117l1.923-9.439h7.865V423.254z M352.784,432.691h-8.914l1.835-9.439h8.914
		L352.784,432.691z"/>
	<path style="fill:#92E0C0;" d="M401.068,397.91c-1.97-1.137-4.88-1.618-6.598-0.524c-11.048,6.928-14.07,7.275-14.07,11.623
		c0,2.497,1.558,5.418,4.282,5.418c1.604,0,2.353-0.915,4.719-2.271v44.481c0,5.546,13.633,5.608,13.633,0
		C402.37,397.961,404.579,399.94,401.068,397.91z"/>
</g>
<g>
	<path style="fill:#474D54;" d="M430.576,0H81.423C57.876,0,38.72,19.156,38.72,42.704v426.592
		c0,23.547,19.156,42.704,42.704,42.704h36.087c4.143,0,7.5-3.357,7.5-7.5s-3.357-7.5-7.5-7.5H81.423
		c-15.275,0-27.703-12.428-27.703-27.703V42.704c0-15.275,12.428-27.703,27.703-27.703h349.152
		c15.275,0,27.703,12.428,27.703,27.703v426.592c0,15.275-12.428,27.703-27.703,27.703H152.513c-4.143,0-7.5,3.357-7.5,7.5
		s3.357,7.5,7.5,7.5h278.063c23.547,0,42.704-19.156,42.704-42.704V42.704C473.279,19.156,454.123,0,430.576,0z"/>
	<path style="fill:#474D54;" d="M330.719,265.947c0.002,0.001,0.004,0.001,0.006,0.002
		C330.723,265.948,330.721,265.947,330.719,265.947z"/>
	<path style="fill:#474D54;" d="M331.165,266.104c0.019,0.007,0.036,0.013,0.052,0.018
		C331.2,266.117,331.183,266.11,331.165,266.104z"/>
	<path style="fill:#474D54;" d="M331.216,266.122c0.029,0.01,0.053,0.019,0.069,0.024
		C331.271,266.141,331.247,266.133,331.216,266.122z"/>
	<path style="fill:#474D54;" d="M330.657,265.925c0.01,0.004,0.022,0.008,0.032,0.011
		C330.676,265.931,330.665,265.928,330.657,265.925z"/>
	<path style="fill:#474D54;" d="M330.689,265.936c0.005,0.002,0.011,0.004,0.017,0.006
		C330.701,265.94,330.695,265.938,330.689,265.936z"/>
	<path style="fill:#474D54;" d="M330.818,265.981c-0.034-0.012-0.066-0.023-0.092-0.033c0.003,0.001,0.007,0.002,0.009,0.003
		C330.764,265.963,330.79,265.972,330.818,265.981z"/>
	<polygon style="fill:#474D54;" points="330.719,265.947 330.706,265.942 330.716,265.945 	"/>
	<path style="fill:#474D54;" d="M331.285,266.147c0.006,0.002,0.01,0.003,0.013,0.005
		C331.295,266.15,331.29,266.148,331.285,266.147z"/>
	<path style="fill:#474D54;" d="M331.073,266.072c-0.038-0.014-0.079-0.028-0.118-0.042c0.035,0.012,0.074,0.026,0.115,0.041
		C331.071,266.071,331.072,266.071,331.073,266.072z"/>
	<path style="fill:#474D54;" d="M331.299,266.151C331.312,266.156,331.312,266.156,331.299,266.151L331.299,266.151z"/>
</g>
<g>
</g>
<g>
</g>
<g>
</g>
<g>
</g>
<g>
</g>
<g>
</g>
<g>
</g>
<g>
</g>
<g>
</g>
<g>
</g>
<g>
</g>
<g>
</g>
<g>
</g>
<g>
</g>
<g>
</g>
</svg>
