<?xml version="1.0" encoding="iso-8859-1"?>
<!-- Generator: Adobe Illustrator 19.0.0, SVG Export Plug-In . SVG Version: 6.00 Build 0)  -->
<svg version="1.1" id="Capa_1" xmlns="http://www.w3.org/2000/svg" xmlns:xlink="http://www.w3.org/1999/xlink" x="0px" y="0px"
	 viewBox="0 0 511.998 511.998" style="enable-background:new 0 0 511.998 511.998;" xml:space="preserve">
<path style="fill:#ABFFDB;" d="M490.648,442.723c8.194,0,14.439-7.341,13.123-15.43l-13.024-80.103
	c-1.65-8.35-2.592-22.236-18.586-28.959c-1.493-0.626-4.892-1.564-4.824-1.544c-70.144-24.778-5.59-1.975-36.614-12.898
	l-15.539-9.621V275.92c-16.673,8.393-37.135,9.038-54.172,1.167l0.011,17.082l-15.978,9.788l-8.233,2.831h-0.018l0.003,0.006
	c-0.106,0.037-33.78,11.958-31.609,10.983c-5.719,2.136-10.702,5.828-14.08,11.055c-3.461,5.357-1.118-0.169-19.219,99.616
	c-1.349,7.437,4.366,14.275,11.925,14.275L490.648,442.723L490.648,442.723z"/>
<path style="fill:#92E0C0;" d="M301.89,428.45c17.839-110.813,15.622-105.048,19.219-110.616c2.395-3.707,5.608-6.626,9.308-8.781
	c-25.652,9.064-25.361,8.785-25.229,8.726c-5.719,2.136-10.702,5.828-14.081,11.055c-3.461,5.357-1.118-0.169-19.219,99.616
	c-1.349,7.437,4.366,14.275,11.925,14.275h30.001C306.256,442.723,300.541,435.887,301.89,428.45z"/>
<g>
	<path style="fill:#E4EAF8;" d="M387.172,319.639l32.177-22.89l-4.165-2.579v-18.249c-16.673,8.393-37.135,9.038-54.172,1.167
		l0.011,17.082l-4.962,3.04L387.172,319.639z"/>
	<path style="fill:#E4EAF8;" d="M387.171,319.639V282.6c-8.977,0.069-17.965-1.726-26.16-5.512l0.011,17.082l-4.962,3.04
		L387.171,319.639z"/>
</g>
<path style="fill:#FEA82F;" d="M469.159,181.135c-0.999-19.715-7.76-35.872-18.004-48.257c-0.052,0.009-0.106,0.014-0.158,0.023
	c-15.957-20.011-39.8-29.524-63.624-29.386c-0.066,0.107-0.136,0.212-0.202,0.319c-0.066-0.107-0.137-0.212-0.202-0.319
	c-23.824-0.137-47.668,9.375-63.624,29.386c-0.052-0.008-0.105-0.014-0.158-0.023c-21.033,25.428-18.138,51.291-18.125,81.518
	c17.966,0,145.306,0,164.216,0C469.28,192.544,469.303,184.003,469.159,181.135z"/>
<path style="fill:#FF8031;" d="M375.659,132.879c0.052,0.009,0.105,0.014,0.158,0.023c10.056-12.611,23.248-21.05,37.59-25.534
	c-8.414-2.631-17.225-3.903-26.033-3.852c-0.066,0.107-0.136,0.212-0.202,0.319c-0.066-0.107-0.136-0.211-0.202-0.319
	c-23.824-0.137-47.668,9.375-63.624,29.386c-0.052-0.008-0.105-0.014-0.158-0.023c-20.934,25.309-18.136,50.823-18.125,81.518
	c6.576,0,45.933,0,52.471,0C357.523,183.484,354.608,158.329,375.659,132.879z"/>
<g>
	<path style="fill:#E4EAF8;" d="M329.264,201.54c-15.07-5.37-31.429,4.617-31.429,19.188c0,14.567,16.358,24.558,31.429,19.188
		V201.54z"/>
	<path style="fill:#E4EAF8;" d="M445.31,201.664c14.973-5.335,31.226,4.587,31.226,19.064c0,14.473-16.252,24.4-31.226,19.064
		V201.664z"/>
	<path style="fill:#E4EAF8;" d="M300.047,211.852c-8.87,16.728,9.709,35.014,29.217,28.063v-17.75
		C317.525,226.349,305.009,221.211,300.047,211.852z"/>
	<path style="fill:#E4EAF8;" d="M445.31,222.042v17.75c19.273,6.868,37.949-11.19,28.996-27.939
		C469.355,221.114,456.949,226.189,445.31,222.042z"/>
</g>
<g>
	<path style="fill:#48C397;" d="M361.022,294.17l26.149,25.469l-23.341,16.244c-3.406,2.37-8.134,0.783-9.419-3.163l-9.367-28.761
		L361.022,294.17z"/>
	<path style="fill:#48C397;" d="M415.183,294.17l-28.012,25.469l23.341,16.244c3.406,2.37,8.134,0.783,9.419-3.163l10.791-28.928
		L415.183,294.17z"/>
	<path style="fill:#48C397;" d="M397.776,355.886c-7.417,0-13.791,0-21.208,0l-14.669,86.838c16.084,0,34.46,0,50.544,0
		L397.776,355.886z"/>
</g>
<path style="fill:#FFFFFF;" d="M444.116,181.109c1.521,0.147,2.69,1.408,2.69,2.936c0,50.199,0.033,42.86-0.084,45.194
	c-3.411,67.308-99.083,77.773-117.01,12.822c-0.988-3.592-1.633-6.945-1.958-11.113c-0.334-4.215-0.195-27.101-0.195-27.027
	c0-11.69,10.375-20.61,21.946-18.94c18.224,2.63,44.823,1.608,68.033-18.231c2.385-2.038,6.004-1.38,7.527,1.363
	C427.941,173.291,433.66,180.099,444.116,181.109z"/>
<path style="fill:#E4EAF8;" d="M357.621,229.238c-0.116-2.306-0.085,4.823-0.084-43.42c-2.815-0.184-5.506-0.474-8.031-0.839
	c-11.57-1.67-21.946,7.249-21.946,18.94c0-0.073-0.139,22.812,0.195,27.027c0.325,4.168,0.97,7.521,1.958,11.113
	c9.93,35.979,43.714,48.805,72.459,41.659C379.025,277.963,359.143,259.261,357.621,229.238z"/>
<path style="fill:#92E0C0;" d="M387.172,319.639l-19.735,13.735l9.141,22.513c7.41,0,13.778,0,21.187,0l9.141-22.513
	L387.172,319.639z"/>
<path style="fill:#5FA77E;" d="M397.776,355.886c-7.417,0-13.791,0-21.208,0l-14.669,86.838h21.23l14.658-86.772L397.776,355.886z"
	/>
<path style="fill:#48C397;" d="M383.989,321.854l-16.553,11.519l9.141,22.513c7.41,0,13.778,0,21.188,0l0.021-0.053L383.989,321.854
	z"/>
<path style="fill:#ABFFDB;" d="M226.461,442.723c8.194,0,14.439-7.341,13.124-15.43l-13.025-80.103
	c-1.65-8.35-2.592-22.236-18.586-28.959c-1.493-0.626-4.892-1.564-4.824-1.544c-70.144-24.778-5.59-1.975-36.614-12.898
	l-15.539-9.621V275.92c-16.673,8.393-37.135,9.038-54.172,1.167l0.011,17.082l-15.978,9.788l-8.233,2.831h-0.018l0.003,0.006
	c-0.106,0.037-33.781,11.959-31.609,10.983c-8.853,3.306-16.336,10.582-17.383,20.766c-0.44,4.281-9.752,55.925-15.917,89.906
	c-1.349,7.437,4.366,14.275,11.925,14.275H226.461z"/>
<path style="fill:#92E0C0;" d="M37.702,428.45c0,0,15.477-96.625,15.917-100.906c0.837-8.143,5.658-14.441,12.61-18.492
	c-25.652,9.064-25.361,8.785-25.229,8.726c-8.853,3.306-16.337,10.582-17.383,20.766c-0.44,4.281-9.752,55.925-15.917,89.906
	c-1.349,7.437,4.366,14.275,11.925,14.275h30.001C42.07,442.723,36.353,435.887,37.702,428.45z"/>
<g>
	<path style="fill:#E4EAF8;" d="M122.985,319.639l32.177-22.89l-4.165-2.579v-18.249c-16.673,8.393-37.135,9.038-54.172,1.167
		l0.011,17.082l-4.962,3.04L122.985,319.639z"/>
	<path style="fill:#E4EAF8;" d="M122.985,319.639V282.6c-8.977,0.069-17.965-1.726-26.16-5.512l0.011,17.082l-4.962,3.04
		L122.985,319.639z"/>
</g>
<path style="fill:#FEA82F;" d="M186.968,132.879c-0.053,0.009-0.106,0.014-0.158,0.023c-15.957-20.011-39.8-29.524-63.623-29.386
	c-0.066,0.107-0.136,0.212-0.202,0.319c-0.066-0.107-0.136-0.212-0.202-0.319c-23.824-0.137-47.668,9.375-63.623,29.386
	c-0.052-0.008-0.105-0.014-0.158-0.023c-20.923,25.296-18.139,50.889-18.125,81.518c54.741,0,109.417,0,164.216,0
	C205.093,184.224,208.16,158.499,186.968,132.879z"/>
<path style="fill:#FF8031;" d="M93.468,181.135c0.999-19.715,7.76-35.872,18.004-48.257c0.052,0.009,0.105,0.014,0.158,0.023
	c10.056-12.611,23.248-21.05,37.59-25.534c-8.414-2.631-17.225-3.903-26.033-3.852c-0.066,0.107-0.136,0.212-0.202,0.319
	c-0.066-0.107-0.136-0.211-0.202-0.319c-23.824-0.137-47.668,9.375-63.623,29.386c-0.052-0.008-0.105-0.014-0.158-0.023
	c-20.924,25.296-18.136,50.889-18.125,81.518c6.576,0,45.933,0,52.471,0C93.341,195.278,93.319,184.098,93.468,181.135z"/>
<circle style="fill:#ABFFDB;" cx="441.376" cy="70.622" r="63.112"/>
<g>
	<path style="fill:#E4EAF8;" d="M65.078,201.54c-15.07-5.37-31.429,4.617-31.429,19.188c0,14.567,16.358,24.558,31.429,19.188
		V201.54z"/>
	<path style="fill:#E4EAF8;" d="M181.123,201.664c14.973-5.335,31.226,4.587,31.226,19.064c0,14.473-16.252,24.4-31.226,19.064
		V201.664z"/>
	<path style="fill:#E4EAF8;" d="M35.859,211.852c-8.87,16.728,9.709,35.014,29.217,28.063v-17.75
		C53.338,226.349,40.823,221.211,35.859,211.852z"/>
	<path style="fill:#E4EAF8;" d="M181.123,222.042v17.75c19.273,6.868,37.949-11.19,28.996-27.939
		C205.168,221.114,192.762,226.189,181.123,222.042z"/>
</g>
<g>
	<path style="fill:#FF8031;" d="M96.836,294.17l26.149,25.469l-23.341,16.244c-3.406,2.37-8.134,0.783-9.419-3.163l-9.367-28.761
		L96.836,294.17z"/>
	<path style="fill:#FF8031;" d="M150.997,294.17l-28.012,25.469l23.341,16.244c3.406,2.37,8.134,0.783,9.419-3.163l10.791-28.928
		L150.997,294.17z"/>
</g>
<path style="fill:#FF9052;" d="M133.588,355.886c-7.417,0-13.791,0-21.208,0l-14.669,86.838c16.084,0,34.46,0,50.544,0
	L133.588,355.886z"/>
<g>
	<path style="fill:#FFFFFF;" d="M224.969,504.499H22.295c-8.168,0-14.791-6.622-14.791-14.791l0,0
		c0-8.169,6.622-14.791,14.791-14.791h202.674c8.169,0,14.791,6.622,14.791,14.791l0,0
		C239.76,497.877,233.138,504.499,224.969,504.499z"/>
	<path style="fill:#FFFFFF;" d="M489.7,504.499H287.026c-8.169,0-14.791-6.622-14.791-14.791l0,0
		c0-8.169,6.622-14.791,14.791-14.791H489.7c8.169,0,14.791,6.622,14.791,14.791l0,0C504.492,497.877,497.87,504.499,489.7,504.499z
		"/>
</g>
<path style="fill:#FFC850;" d="M59.052,474.917H22.295c-8.168,0-14.791,6.622-14.791,14.791c0,8.168,6.621,14.791,14.79,14.791
	h36.759L59.052,474.917L59.052,474.917z"/>
<path style="fill:#FEA82F;" d="M37.504,489.707c0-8.169,6.622-14.791,14.792-14.791H22.295c-8.168,0-14.792,6.622-14.792,14.791
	c0,8.168,6.621,14.791,14.79,14.792h30.001C44.126,504.498,37.504,497.877,37.504,489.707z"/>
<path style="fill:#FFFFFF;" d="M179.93,181.109c1.521,0.147,2.69,1.408,2.69,2.936c0,50.199,0.033,42.86-0.084,45.194
	c-3.411,67.308-99.083,77.773-117.01,12.822c-0.988-3.592-1.633-6.945-1.958-11.113c-0.334-4.215-0.195-27.101-0.195-27.027
	c0-11.69,10.375-20.61,21.946-18.94c18.224,2.63,44.823,1.608,68.033-18.231c2.385-2.038,6.004-1.38,7.527,1.363
	C163.754,173.291,169.473,180.099,179.93,181.109z"/>
<path style="fill:#E4EAF8;" d="M93.435,229.238c-0.116-2.306-0.085,4.823-0.084-43.42c-2.815-0.184-5.506-0.474-8.031-0.839
	c-11.57-1.67-21.946,7.249-21.946,18.94c0-0.073-0.139,22.812,0.195,27.027c2.916,37.435,37.104,62.048,74.417,52.771
	C114.838,277.963,94.957,259.261,93.435,229.238z"/>
<circle style="fill:#FFC850;" cx="176.646" cy="70.622" r="63.112"/>
<path style="fill:#FEA82F;" d="M146.628,87.955c-14.981-25.948-9.426-58.099,11.597-77.689
	c-38.893,11.908-56.502,56.804-36.232,91.912c20.25,35.074,67.932,42.328,97.714,14.578
	C192.23,125.168,161.608,113.903,146.628,87.955z"/>
<path style="fill:#92E0C0;" d="M411.359,87.955c-14.981-25.948-9.426-58.099,11.597-77.689
	c-38.893,11.908-56.502,56.804-36.232,91.912c20.25,35.074,67.931,42.328,97.714,14.578
	C456.962,125.168,426.341,113.903,411.359,87.955z"/>
<path style="fill:#FEA82F;" d="M122.985,319.639l-19.735,13.735l9.141,22.513c7.41,0,13.778,0,21.187,0l9.141-22.513
	L122.985,319.639z"/>
<path style="fill:#FF8031;" d="M133.588,355.886c-7.417,0-13.791,0-21.208,0l-14.669,86.838h21.23l14.658-86.772L133.588,355.886z"
	/>
<path style="fill:#FF9052;" d="M119.803,321.854l-16.553,11.519l9.141,22.513c7.41,0,13.778,0,21.188,0l0.021-0.053L119.803,321.854
	z"/>
<path style="fill:#ABFFDB;" d="M407.451,474.917H287.026c-8.168,0-14.791,6.622-14.791,14.791c0,8.168,6.622,14.791,14.791,14.791
	h120.426L407.451,474.917L407.451,474.917z"/>
<path style="fill:#92E0C0;" d="M302.236,489.707c0-8.169,6.622-14.791,14.792-14.791h-30.001c-8.168,0-14.792,6.622-14.792,14.791
	c0,8.168,6.621,14.791,14.79,14.792h30.001C308.858,504.498,302.236,497.877,302.236,489.707z"/>
<g>
	<circle style="fill:#48C397;" cx="418.935" cy="50.692" r="10.893"/>
	<circle style="fill:#48C397;" cx="463.837" cy="90.543" r="10.893"/>
	<path style="fill:#48C397;" d="M424.337,101.851c2.315,0,4.601-1.07,6.068-3.085l34.086-46.797
		c2.438-3.349,1.701-8.04-1.646-10.479c-3.348-2.438-8.039-1.702-10.479,1.647l-34.086,46.797
		C414.647,94.922,418.282,101.851,424.337,101.851z"/>
</g>
<g>
	<circle style="fill:#FF9052;" cx="154.205" cy="50.692" r="10.893"/>
	<circle style="fill:#FF9052;" cx="199.097" cy="90.543" r="10.893"/>
	<path style="fill:#FF9052;" d="M159.605,101.851c2.315,0,4.601-1.07,6.068-3.085l34.085-46.797
		c2.438-3.349,1.701-8.04-1.647-10.479c-3.348-2.438-8.039-1.702-10.478,1.647l-34.085,46.797
		C149.916,94.922,153.551,101.851,159.605,101.851z"/>
</g>
<g>
	<path style="fill:#474D54;" d="M205.085,309.411c0.003,0.001,0.006,0.002,0.009,0.003
		C205.088,309.412,205.085,309.411,205.085,309.411z"/>
	<path style="fill:#474D54;" d="M240.325,385.082c-0.664-4.088-4.508-6.865-8.606-6.198c-4.088,0.664-6.863,4.518-6.198,8.606
		l6.666,41.002c0.573,3.527-2.143,6.726-5.72,6.726h-32.02v-56.126c0-4.143-3.357-7.5-7.5-7.5s-7.5,3.357-7.5,7.5v56.126h-24.845
		l-13.261-78.507l5.135-12.646c6.685,1.723,13.968-1.863,16.345-8.852l8.174-21.912c1.491,0.523,1.733,0.613,1.966,0.686
		c0.001,0,0.002,0.001,0.003,0.001c0.958,0.3,27.665,9.785,28.262,9.943c12.632,3.461,15.406,10.373,17.495,22.078
		c1.297,7.254,0.146,0.812,1.175,6.898c0.665,4.089,4.515,6.859,8.607,6.2c4.089-0.665,6.864-4.518,6.2-8.607l-0.734-4.518
		c-0.082-0.505,0.06,0.414-0.481-2.608c-1.629-9.122-4.354-24.39-22.61-32.065c-1.483-0.622-4.331-1.48-5.308-1.727
		c-0.003-0.001-0.005-0.002-0.008-0.003c0.001,0,0,0,0,0c-0.004-0.001-0.007-0.002-0.01-0.004c-0.005-0.002-0.01-0.004-0.018-0.006
		c0.006,0.002,0.01,0.004,0.014,0.005c-0.018-0.006-0.034-0.012-0.051-0.018c-0.046-0.016-0.119-0.042-0.226-0.08
		c0.004,0.001,0.007,0.003,0.011,0.004c-0.028-0.01-0.053-0.019-0.075-0.026c-0.015-0.005-0.029-0.01-0.045-0.016
		c0.009,0.003,0.019,0.007,0.029,0.01c-0.041-0.014-0.069-0.024-0.086-0.03c0.001,0,0.002,0.001,0.002,0.001
		c-0.004-0.001-0.009-0.003-0.014-0.005c0.001,0,0.001,0,0.002,0.001c-0.008-0.003-0.011-0.004-0.011-0.004
		c-1.69-0.597-8.708-3.076-33.645-11.883l-0.001,0.003c-3.547-1.14,0.184,0.151-12.938-7.543v-6.641
		c12.725-7.518,23.339-19.421,28.415-35.81c26.265,3.177,43.675-25.86,25.657-44.672c2.013-32.342-4.217-50.913-13.151-65.423
		c27.793-9.497,47.842-35.854,47.842-66.824c0-38.936-31.676-70.611-70.611-70.611c-49.709,0-84.058,50.373-65.609,96.665
		c-44.114,5.189-74.108,40.157-77.335,81.514c-0.378,4.765-0.375,23.607-0.303,24.705c-17.673,18.502-0.879,48.081,25.938,44.617
		c5.813,17.867,16.899,29.988,29.987,37.218l0.004,5.241l-11.69,7.162c-0.106,0.037-37.99,13.143-39.265,13.619
		c-11.409,4.261-20.863,13.812-22.22,27.024c-0.152,1.453-2,13.066-15.836,89.334c-2.184,12.046,7.075,23.113,19.306,23.113
		c9.236,0,195.32,0,206.834,0c12.823,0,22.581-11.492,20.526-24.134L240.325,385.082z M149.222,328.751
		c-5.248-3.652-8.786-6.115-14.225-9.898l16.864-15.334l5.502,3.406L149.222,328.751z M123.167,309.336l-18.829-18.34v-0.243
		c12.732,3.436,26.412,3.168,39.164-0.764v0.857L123.167,309.336z M133.52,336.1l-4.986,12.279h-11.088l-4.986-12.279l10.53-7.328
		C125.468,330.496,131.015,334.357,133.52,336.1z M111.248,318.667c-5.037,3.505-11.351,7.899-14.435,10.044l-6.986-21.454
		c0.122-0.075,6.353-3.892,5.958-3.65L111.248,318.667z M199.736,229.936c-2.801,1.976-6.173,2.953-9.606,2.821v-24.07
		C203.503,208.273,210.167,222.584,199.736,229.936z M176.654,15.006c30.663,0,55.61,24.947,55.61,55.61
		c0,31.81-26.774,57.243-58.68,55.523c-29.241-1.599-52.541-25.889-52.541-55.523C121.044,39.953,145.991,15.006,176.654,15.006z
		 M41.154,220.723c0-7.284,7.368-12.262,14.704-12.036c-0.01,3.327,0.02,23.97,0.02,24.071
		C48.548,233.038,41.154,227.978,41.154,220.723z M57.882,193.796c-3.198-0.262-6.401-0.03-9.497,0.679
		c0.025-11.365-0.245-18.194,2.729-29.001c10.615-38.463,41.189-53.199,67.673-54.386c14.944,21.413,39.769,32.292,64.918,29.788
		c14.905,20.332,13.897,41.213,13.896,53.594c-2.443-0.557-4.951-0.816-7.472-0.771l-0.001-9.658c0-5.409-4.07-9.88-9.469-10.4
		c-5.694-0.551-10.141-3.636-13.216-9.173c-3.834-6.904-12.982-8.529-18.958-3.423c-21.069,18.01-45.395,18.918-62.086,16.51
		c-7.69-1.108-15.465,1.163-21.328,6.241C61.883,186.551,59.446,189.99,57.882,193.796z M72.763,240.065
		c-2.456-8.923-1.81-12.747-1.885-36.077c0.023-0.107-0.256-5.161,4.01-8.854c2.57-2.226,5.988-3.219,9.364-2.734
		c19.16,2.767,46.896,1.77,71.663-18.039c4.707,7.07,11.364,11.759,19.209,13.552c0.008,44.577,0.019,39.045-0.074,40.942
		C172.072,287.599,88.409,296.757,72.763,240.065z M91.378,435.218h-24.82v-56.126c0-4.143-3.357-7.5-7.5-7.5s-7.5,3.357-7.5,7.5
		v56.126H19.633c-1.884,0-3.032-1.039-3.55-1.659c-0.516-0.617-1.33-1.929-0.995-3.775c18.415-101.511,15.893-93.408,18.139-96.885
		c4.11-6.363,9.59-7.747,14.884-9.561c7.278-2.496,18.054-6.313,27.983-9.813l7.005,21.512c2.308,7.085,9.648,10.771,16.406,9.029
		l5.135,12.647L91.378,435.218z M106.591,435.218l12.135-71.838h8.527l12.134,71.838H106.591z"/>
	<path style="fill:#474D54;" d="M205.533,309.569c-0.024-0.008-0.059-0.021-0.1-0.035c0.019,0.007,0.042,0.015,0.063,0.022
		C205.512,309.562,205.524,309.566,205.533,309.569z"/>
	<path style="fill:#474D54;" d="M205.109,309.419c0.018,0.007,0.037,0.013,0.054,0.019
		C205.14,309.43,205.122,309.424,205.109,309.419z"/>
	<path style="fill:#474D54;" d="M205.298,309.486c0.046,0.016,0.094,0.033,0.136,0.048
		C205.381,309.515,205.337,309.5,205.298,309.486z"/>
	<path style="fill:#474D54;" d="M205.282,309.48c0.005,0.002,0.01,0.004,0.016,0.005
		C205.292,309.484,205.287,309.482,205.282,309.48z"/>
	<path style="fill:#474D54;" d="M284.364,450.219c9.236,0,195.32,0,206.834,0c12.822,0,22.582-11.494,20.525-24.134
		c-13.544-83.283-13.023-80.117-13.07-80.353c-2.188-11.098-4.06-26.443-23.044-34.423c-1.462-0.613-4.294-1.471-5.309-1.727
		c-0.279-0.098-34.258-12.1-34.131-12.055v0.002c-3.537-1.138,0.238,0.184-12.937-7.542v-6.641
		c12.725-7.518,23.338-19.421,28.414-35.81c26.469,3.2,43.509-26.035,25.658-44.672c0.006-0.1,0.154-21.043-0.14-22.755
		c-0.895-15.707-5.358-30.239-13.01-42.668c29.592-10.111,48.832-38.604,47.805-68.536l-0.015-0.458
		c-0.126-4.141-3.579-7.384-7.724-7.271c-4.14,0.125-7.395,3.583-7.27,7.724l0.017,0.515c1.069,31.236-25.577,58.507-58.652,56.725
		c-29.241-1.599-52.542-25.889-52.542-55.523c0-30.663,24.947-55.61,55.611-55.61c18.512,0,35.755,9.174,46.13,24.542
		c2.315,3.432,6.978,4.339,10.412,2.02c3.433-2.317,4.338-6.979,2.02-10.412c-13.164-19.506-35.056-31.15-58.559-31.15
		c-49.709,0-84.059,50.372-65.61,96.665c-44.114,5.189-74.107,40.157-77.334,81.514c-0.378,4.765-0.375,23.607-0.303,24.705
		c-10.92,11.433-9.523,29.614,4.218,39.305c5.21,3.675,11.409,5.571,17.701,5.571c1.338,0,2.68-0.086,4.018-0.259
		c5.813,17.867,16.9,29.988,29.988,37.218l0.004,5.241c-18.158,11.123-8.341,5.419-19.5,9.85
		c-37.118,13.152-29.459,10.184-31.456,10.931c-7.504,2.803-13.645,7.648-17.756,14.013c-2.432,3.764-3.975,8.264-4.464,13.014
		c-0.151,1.45-1.998,13.059-15.836,89.334C262.874,439.151,272.135,450.219,284.364,450.219z M371.323,435.218l12.135-71.838h8.527
		l12.134,71.838H371.323z M408.233,290.847l-20.335,18.489l-18.829-18.34v-0.243c12.732,3.436,26.411,3.168,39.164-0.764
		L408.233,290.847L408.233,290.847z M416.593,303.519l5.502,3.406l-8.142,21.826l-14.224-9.898L416.593,303.519z M398.252,336.1
		l-4.986,12.279h-11.087l-4.986-12.279l10.53-7.328L398.252,336.1z M375.981,318.667c-5.037,3.505-11.351,7.899-14.435,10.044
		l-6.987-21.454l5.959-3.651L375.981,318.667z M427.554,335.214l8.174-21.913c1.683,0.589,1.602,0.567,1.964,0.686
		c0.002,0,0.003,0.001,0.004,0.001c1.027,0.325,27.589,9.765,28.261,9.943c13.984,3.831,15.416,11.557,17.956,24.58l13.006,79.982
		c0.374,2.301-0.657,3.922-1.306,4.685c-0.648,0.762-2.083,2.04-4.414,2.04h-32.02v-56.126c0-4.143-3.357-7.5-7.5-7.5
		c-4.143,0-7.5,3.357-7.5,7.5v56.126h-24.844l-13.261-78.507l5.134-12.645c2.623,0.676,5.249,0.548,7.746-0.291
		C423.042,342.402,426.167,339.287,427.554,335.214z M469.586,220.723c0,7.309-7.449,12.304-14.726,12.034c0-2.465,0-21.456,0-24.07
		C458.28,208.581,469.586,213.463,469.586,220.723z M305.886,220.723c0-7.284,7.368-12.262,14.704-12.036
		c-0.01,3.327,0.02,23.97,0.02,24.071C313.281,233.039,305.886,227.978,305.886,220.723z M322.614,193.796
		c-3.198-0.262-6.401-0.03-9.497,0.679c0.025-11.365-0.245-18.194,2.729-29.001c10.615-38.463,41.19-53.199,67.673-54.386
		c15.055,21.572,39.953,32.274,64.918,29.788c14.905,20.332,13.897,41.213,13.896,53.594c-2.443-0.557-4.951-0.817-7.472-0.772
		l-0.001-9.657c0-5.409-4.071-9.88-9.47-10.4c-5.693-0.551-10.14-3.636-13.215-9.173c-3.834-6.904-12.983-8.529-18.958-3.423
		c-21.07,18.01-45.398,18.917-62.087,16.51C339.073,175.815,327.29,182.415,322.614,193.796z M337.494,240.066
		c-0.935-3.4-1.446-6.304-1.712-9.717c-0.091-1.143-0.143-4.192-0.172-7.88c0-5.93,0-8.817,0-18.555
		c0-7.275,6.471-12.514,13.374-11.516c19.161,2.767,46.898,1.771,71.664-18.039c4.707,7.07,11.364,11.759,19.209,13.552
		c0.005,44.97,0.03,38.838-0.074,40.942C436.8,287.668,353.131,296.714,337.494,240.066z M279.818,429.783
		c18.382-101.327,15.889-93.4,18.14-96.885c4.211-6.518,10.041-7.9,14.885-9.561c7.509-2.575,19.78-6.922,27.982-9.813l7.006,21.512
		c2.303,7.068,9.625,10.777,16.406,9.029l5.135,12.647l-13.261,78.506h-24.82v-56.126c0-4.143-3.357-7.5-7.5-7.5s-7.5,3.357-7.5,7.5
		v56.126h-31.925C281.481,435.218,279.304,432.62,279.818,429.783z"/>
	<path style="fill:#474D54;" d="M489.706,482.411c4.02,0,7.29,3.271,7.29,7.29c0,4.021-3.271,7.291-7.29,7.291h-19.267
		c-4.143,0-7.5,3.357-7.5,7.5c0,4.143,3.357,7.5,7.5,7.5h19.267c12.292,0,22.291-10,22.291-22.292
		c0-12.291-9.999-22.291-22.291-22.291c-217.324,0-203.979-0.199-207.162,0.454c-10.148,2.082-17.804,11.082-17.804,21.837v0.001
		c0,12.232,9.966,22.291,22.29,22.291h0.001c17.881,0,134.204,0,148.407,0c4.143,0,7.5-3.357,7.5-7.5c0-4.143-3.357-7.5-7.5-7.5l0,0
		l0,0l0,0l-48.267-0.031c-105.227-0.217-100.651,0.76-103.612-0.851c-6.64-3.612-4.044-13.701,3.472-13.701h202.675"/>
	<path style="fill:#474D54;" d="M224.975,467.41H22.3c-10.755,0-19.756,7.656-21.837,17.805
		c-2.854,13.914,7.86,26.778,21.836,26.778h202.676c12.291,0,22.291-10,22.291-22.292C247.266,477.41,237.266,467.41,224.975,467.41
		z M224.975,496.994H22.3c-4.031-0.001-7.29-3.281-7.29-7.291c0-4.02,3.271-7.291,7.291-7.291h202.674c4.02,0,7.29,3.271,7.29,7.291
		C232.265,493.722,228.994,496.994,224.975,496.994z"/>
</g>
<g>
</g>
<g>
</g>
<g>
</g>
<g>
</g>
<g>
</g>
<g>
</g>
<g>
</g>
<g>
</g>
<g>
</g>
<g>
</g>
<g>
</g>
<g>
</g>
<g>
</g>
<g>
</g>
<g>
</g>
</svg>
