<?xml version="1.0" encoding="iso-8859-1"?>
<!-- Generator: Adobe Illustrator 19.0.0, SVG Export Plug-In . SVG Version: 6.00 Build 0)  -->
<svg version="1.1" id="Capa_1" xmlns="http://www.w3.org/2000/svg" xmlns:xlink="http://www.w3.org/1999/xlink" x="0px" y="0px"
	 viewBox="0 0 512 512" style="enable-background:new 0 0 512 512;" xml:space="preserve">
<path style="fill:#FEA82F;" d="M291.823,114.729C285.336-13.257,103.416-33.158,69.327,90.349
	c-4.746,17.258-4.211,25.029-4.143,73.578h226.805C291.997,123.98,291.992,118.098,291.823,114.729z"/>
<path style="fill:#FF8031;" d="M119.941,111.48c0.618-7.925,1.844-14.302,3.722-21.132c12.504-45.303,44.898-71.309,81.228-79.766
	C150.725-1.808,87.954,22.859,69.327,90.349c-4.746,17.258-4.211,25.029-4.143,73.578h54.336
	C119.499,148.525,119.544,116.498,119.941,111.48z"/>
<g>
	<path style="fill:#E4EAF8;" d="M90.339,155.568c-18.557-6.613-39.702,5.685-39.702,23.628c0,17.938,21.143,30.242,39.702,23.628
		V155.568z"/>
	<path style="fill:#E4EAF8;" d="M266.874,155.568c18.557-6.613,39.702,5.685,39.702,23.628c0,17.938-21.143,30.242-39.702,23.628
		V155.568z"/>
</g>
<g>
	<path style="fill:#C2C7D0;" d="M53.621,168.036c-11.809,20.779,12.647,43.366,36.718,34.788v-22.319
		C75.981,185.622,60.087,179.413,53.621,168.036z"/>
	<path style="fill:#C2C7D0;" d="M266.874,180.506v22.319c24.103,8.589,48.509-14.043,36.718-34.788
		C297.127,179.413,281.232,185.622,266.874,180.506z"/>
</g>
<path style="fill:#ABFFDB;" d="M332.909,504.498c11.561,0,20.374-10.348,18.535-21.761l-17.792-110.395
	c-2.471-12.502-3.881-33.291-27.826-43.355c0,0-0.103-0.03,0,0l-66.039-21.62l-19.263-14.404v-25.829
	c-24.961,12.567-55.597,13.532-81.103,1.747l0.016,24.082l-19.921,14.655l-63.672,20.69l0,0l0,0l0,0c0,0-0.212,0.095,0,0
	c-13.252,4.949-24.456,15.84-26.023,31.09L7.824,481.114c-2.201,12.181,7.159,23.384,19.537,23.384H332.909z"/>
<path style="fill:#91DFBF;" d="M37.415,481.114c24.406-143.55,21.516-137.861,26.941-146.255
	c4.304-6.662,10.361-11.643,17.347-14.955l-25.858,8.402c-13.252,4.949-24.457,15.843-26.023,31.09L7.824,481.114
	c-2.201,12.181,7.158,23.384,19.537,23.384h29.592C44.574,504.498,35.214,493.294,37.415,481.114z M55.791,328.33
	C55.757,328.346,55.742,328.352,55.791,328.33L55.791,328.33z"/>
<path style="fill:#E4EAF8;" d="M226.978,297.788l-6.454-4.826v-25.829c-24.961,12.567-55.597,13.532-81.103,1.747l0.016,24.082
	l-6.56,4.826l0,0l45.71,33.304L226.978,297.788z"/>
<path style="fill:#C2C7D0;" d="M169.593,276.807c-10.398-0.903-20.643-3.525-30.172-7.927l0.016,24.082l-6.56,4.826l0,0
	l36.717,26.751v-47.733H169.593z"/>
<path style="fill:#FFFFFF;" d="M263.84,123.694c2.276,0.22,4.027,2.108,4.027,4.395c0,75.154,0.049,64.167-0.126,67.661
	c-5.107,100.769-148.34,116.438-175.18,19.196c-1.479-5.377-2.445-10.398-2.931-16.638c-0.499-6.311-0.292-40.573-0.292-40.463
	c0-17.502,15.533-30.856,32.856-28.355c27.283,3.938,67.106,2.408,101.854-27.294c3.57-3.052,8.99-2.066,11.27,2.04
	C239.623,111.99,248.185,122.183,263.84,123.694z"/>
<path style="fill:#E4EAF8;" d="M120.03,195.75c-0.174-3.476-0.127,7.364-0.126-66.49c-16.377-1.068-30.565,11.859-30.565,28.585
	c0-0.11-0.208,34.152,0.292,40.463c4.082,52.371,49.632,89.735,104.255,80.499C156.264,272.444,122.463,243.768,120.03,195.75z"/>
<g>
	<path style="fill:#FF8031;" d="M139.437,292.962l39.148,38.13l-34.944,24.318c-5.099,3.549-12.178,1.172-14.102-4.735
		l-10.024-43.058L139.437,292.962z"/>
	<path style="fill:#FF8031;" d="M220.524,292.962l-41.938,38.13l34.944,24.318c5.099,3.549,12.178,1.172,14.102-4.735l12.156-43.309
		L220.524,292.962z"/>
</g>
<path style="fill:#FF9052;" d="M192.542,378.848h-13.957h-13.958l-20.564,125.65c18.713,0,58.025,0,69.044,0L192.542,378.848z"/>
<path style="fill:#FFFFFF;" d="M348.292,7.501h141.677c7.991,0,14.53,6.538,14.53,14.53c0,3.122,0,95.821,0,93.892
	c0,9.096-7.373,16.468-16.468,16.468c-3.108,0-120.381,0-119.307,0c-2.505,0-4.915,0.958-6.737,2.677l-20.82,19.651
	c-2.8,2.643-7.404,0.658-7.404-3.193c0-3.586,0-133.013,0-129.496C333.762,14.039,340.3,7.501,348.292,7.501z"/>
<path style="fill:#E4EAF8;" d="M363.764,22.031c0-7.991,6.538-14.53,14.53-14.53h-30.002c-7.991,0-14.53,6.538-14.53,14.53
	c0,12.817,0,114.814,0,129.496c0,3.85,4.604,5.835,7.404,3.193c21.89-20.531,20.786-19.909,22.597-20.971
	C363.764,117.86,363.764,25.759,363.764,22.031z"/>
<polygon style="fill:#FEA82F;" points="178.585,331.092 152.585,349.187 164.628,378.848 178.585,378.848 192.542,378.848 
	204.587,349.187 "/>
<polygon style="fill:#FF8031;" points="178.585,378.848 164.628,378.848 144.063,504.498 171.94,504.498 192.505,378.848 "/>
<polygon style="fill:#FF9052;" points="152.585,349.187 164.628,378.848 178.585,378.848 192.505,378.848 174.32,334.06 "/>
<g>
	<path style="fill:#ABB0B7;" d="M374.629,61.43h28.168c4.143,0,7.5-3.357,7.5-7.5s-3.357-7.5-7.5-7.5h-28.168
		c-4.143,0-7.5,3.357-7.5,7.5C367.129,58.072,370.486,61.43,374.629,61.43z"/>
	<path style="fill:#ABB0B7;" d="M463.634,46.429h-32.17c-4.143,0-7.5,3.357-7.5,7.5s3.357,7.5,7.5,7.5h32.17
		c4.143,0,7.5-3.357,7.5-7.5S467.777,46.429,463.634,46.429z"/>
	<path style="fill:#ABB0B7;" d="M374.629,97.431h58.837c4.143,0,7.5-3.357,7.5-7.5c0-4.142-3.357-7.5-7.5-7.5h-58.837
		c-4.143,0-7.5,3.358-7.5,7.5C367.129,94.073,370.486,97.431,374.629,97.431z"/>
	<path style="fill:#ABB0B7;" d="M463.634,82.43h-0.166c-4.143,0-7.5,3.358-7.5,7.5c0,4.143,3.357,7.5,7.5,7.5h0.166
		c4.143,0,7.5-3.357,7.5-7.5C471.135,85.787,467.777,82.43,463.634,82.43z"/>
</g>
<g>
	<path style="fill:#474D54;" d="M489.971,0.001H348.294c-12.149,0-22.03,9.883-22.03,22.029v129.496
		c0,10.485,12.546,15.733,20.053,8.647c22.002-20.457,20.732-20.283,22.408-20.283h77.408c4.143,0,7.5-3.357,7.5-7.5
		c0-4.143-3.357-7.5-7.5-7.5h-77.408c-4.438,0-8.659,1.678-11.886,4.724l-15.575,14.701V22.03c0-3.875,3.153-7.028,7.029-7.028
		h141.677c3.875,0,7.028,3.153,7.028,7.028v93.893c0,4.944-4.022,8.968-8.968,8.968h-6.896c-4.143,0-7.5,3.357-7.5,7.5
		c0,4.143,3.357,7.5,7.5,7.5h6.896c13.217,0,23.969-10.753,23.969-23.968V22.03C512,9.883,502.118,0.001,489.971,0.001z"/>
	<path style="fill:#474D54;" d="M190.759,330.425c0.026,0.018,0.049,0.034,0.073,0.051
		C190.806,330.458,190.782,330.441,190.759,330.425z"/>
	<path style="fill:#474D54;" d="M191.373,330.852c-0.007-0.005-0.015-0.01-0.024-0.017
		C191.356,330.841,191.365,330.847,191.373,330.852z"/>
	<path style="fill:#474D54;" d="M190.832,330.476c0.051,0.035,0.105,0.073,0.16,0.112
		C190.944,330.554,190.891,330.517,190.832,330.476z"/>
	<path style="fill:#474D54;" d="M191.399,330.871L191.399,330.871L191.399,330.871z"/>
	<path style="fill:#474D54;" d="M354.021,451.583c-0.658-4.089-4.491-6.873-8.598-6.211c-4.089,0.659-6.87,4.508-6.211,8.598
		l4.828,29.961c1.105,6.856-4.194,13.067-11.131,13.067h-44.022v-68.026c0-4.143-3.357-7.5-7.5-7.5s-7.5,3.357-7.5,7.5v68.026
		H219.48l-19.195-117.281l7.72-19.012c0.311,0.078,6.843,6.123,16.154,2.994c5.465-1.835,9.335-6.212,10.695-10.997l10.04-35.773
		l58.297,19.086c22.29,9.535,20.562,24.656,30.45,83.394c0.658,4.089,4.503,6.874,8.598,6.211c4.089-0.659,6.87-4.508,6.211-8.598
		c-9.449-58.617-6.939-43.659-7.439-46.135c-3.1-15.718-5.646-37.622-32.277-48.816c-0.188-0.079-0.379-0.15-0.572-0.214
		l-64.868-21.236l-15.269-11.418v-14.609c21.681-12.21,39.433-33.049,45.297-62.786c36.489,4.808,56.061-38.913,26.168-59.121
		c0.007-35.658,0.003-34.888-0.176-38.339C292.396-22.146,98.426-43.264,62.097,88.36c-5.344,19.43-4.438,30.974-4.415,64.358
		c-28.04,19.021-12.673,59.426,21.175,59.426c1.73,0,3.466-0.122,5.195-0.357c0.372,1.675,0.792,3.378,1.281,5.156
		c8.108,29.38,25.71,48.722,46.592,59.637l0.01,12.591l-15.887,11.688c-67.273,21.863-62.522,20.31-62.827,20.422
		c-10.478,3.914-19.037,10.66-24.755,19.509c-6.363,9.847-3.488,6.23-28.022,138.991C-2.592,496.577,10.325,512,27.362,512h67.134
		c4.142,0,7.5-3.357,7.5-7.5s-3.358-7.5-7.5-7.5H82.877v-68.026c0-4.143-3.358-7.5-7.5-7.5c-4.142,0-7.5,3.357-7.5,7.5v68.026
		H27.362c-7.706,0-13.524-6.978-12.156-14.55c22.973-127.169,22.021-121.75,22.076-122.285c1.247-12.14,10.281-20.679,21.13-24.805
		l55.651-18.084c5.82,24.973,8.187,35.239,8.344,35.724c3.487,10.707,16.289,14.991,25.518,8.568l1.24-0.863l7.72,19.013
		l-19.195,117.281h-8.194c-4.142,0-7.5,3.357-7.5,7.5s3.358,7.5,7.5,7.5c12.079,0,192.827,0,203.412,0
		c16.187,0,28.511-14.498,25.939-30.455L354.021,451.583z M231.176,310.292c-11.319,38.696-10.032,38.595-11.792,39.186
		c-1.585,0.535-1.969-0.899-10.508-6.443c-11.332-7.886-15.856-11.035-17.478-12.164c0.002,0.001,0.001,0.001-0.002-0.002
		l0.002,0.001c-0.004-0.003-0.008-0.006-0.013-0.009c-0.002-0.002-0.005-0.004-0.008-0.006c-0.002-0.001-0.004-0.003-0.005-0.004
		h0.001c-0.008-0.005-0.017-0.012-0.029-0.02c0.002,0.001,0.003,0.002,0.005,0.003c-0.006-0.004-0.011-0.008-0.017-0.012
		c-0.029-0.02-0.068-0.047-0.119-0.083c0.003,0.002,0.006,0.004,0.009,0.006c-0.019-0.013-0.04-0.028-0.058-0.041
		c-0.038-0.027-0.083-0.057-0.132-0.092c-0.136-0.095-0.236-0.164-0.305-0.213c0.01,0.007,0.021,0.015,0.032,0.022
		c-0.051-0.036-0.105-0.073-0.164-0.114c0.002,0.001,0.006,0.004,0.009,0.006c-0.013-0.009-0.015-0.01-0.009-0.006l30.395-27.636
		L231.176,310.292z M195.383,351.921l-7.889,19.428h-17.815l-7.888-19.428l16.796-11.689L195.383,351.921z M146.935,289.794
		l-0.005-6.934c20.505,6.657,44.098,6.678,66.094-1.332v8.117l-34.261,31.151L146.935,289.794z M190.642,330.344
		c-0.007-0.005-0.014-0.01-0.019-0.013C190.629,330.335,190.635,330.339,190.642,330.344z M291.455,193.044
		c-4.653,3.281-10.407,4.636-16.078,3.908v-35.513C295.885,158.824,307.738,181.559,291.455,193.044z M65.762,193.044
		c-16.231-11.447-4.544-34.235,16.061-31.605c-0.007,33.333,0.006,12.673,0.017,35.513
		C76.165,197.679,70.414,196.325,65.762,193.044z M83.648,146.565c-3.67-0.46-7.362-0.387-10.966,0.202
		c0.018-27.112-0.816-37.36,3.876-54.422c31.907-115.604,201.725-96.52,207.775,22.761c0.149,2.889,0.162,1.878,0.158,31.655
		c-3-0.486-6.06-0.615-9.12-0.377l-0.002-18.294c0-6.167-4.646-11.267-10.808-11.86c0,0,0,0,0-0.001
		c-12.231-1.18-19.087-9.153-22.685-15.633c-2.187-3.938-5.972-6.651-10.388-7.446c-4.406-0.795-8.896,0.425-12.314,3.346
		c-32.606,27.871-70.154,29.291-95.909,25.571C105.826,119.544,89.126,129.888,83.648,146.565z M99.795,212.958
		c-1.465-5.328-2.268-9.885-2.685-15.242c-0.411-5.197-0.229-27.989-0.268-39.871c0-12.932,11.492-22.778,24.283-20.932
		c28.794,4.155,70.839,2.505,107.697-28.929c7.077,12.68,18.203,20.701,31.547,22.824c0.014,71.105,0.034,61.501-0.116,64.562
		C255.602,287.134,124.426,302.199,99.795,212.958z M139.358,349.255c-0.959,0.667-2.196,0.226-2.613-0.712l-8.803-37.813
		l10.818-7.958l28.084,27.355C150.777,341.308,145.774,344.79,139.358,349.255z M152.893,496.998l18.109-110.649h15.169
		l18.109,110.649H152.893z"/>
	<path style="fill:#474D54;" d="M191.164,330.707c0.018,0.013,0.034,0.023,0.049,0.034c-0.044-0.031-0.092-0.064-0.143-0.099
		C191.101,330.663,191.131,330.684,191.164,330.707z"/>
	<path style="fill:#474D54;" d="M190.992,330.587c0.013,0.009,0.027,0.019,0.04,0.028c0.011,0.007,0.023,0.016,0.034,0.024
		C191.042,330.622,191.017,330.605,190.992,330.587z"/>
	<path style="fill:#474D54;" d="M191.067,330.639c0.001,0.001,0.003,0.002,0.004,0.003
		C191.07,330.641,191.068,330.64,191.067,330.639z"/>
</g>
<g>
</g>
<g>
</g>
<g>
</g>
<g>
</g>
<g>
</g>
<g>
</g>
<g>
</g>
<g>
</g>
<g>
</g>
<g>
</g>
<g>
</g>
<g>
</g>
<g>
</g>
<g>
</g>
<g>
</g>
</svg>
