<?xml version="1.0" encoding="iso-8859-1"?>
<!-- Generator: Adobe Illustrator 19.0.0, SVG Export Plug-In . SVG Version: 6.00 Build 0)  -->
<svg version="1.1" id="Capa_1" xmlns="http://www.w3.org/2000/svg" xmlns:xlink="http://www.w3.org/1999/xlink" x="0px" y="0px"
	 viewBox="0 0 512 512" style="enable-background:new 0 0 512 512;" xml:space="preserve">
<path style="fill:#ABFFDB;" d="M181.917,283.223c13.057,0,23.006-11.698,20.908-24.586l-5.159-31.702
	c-1.488-7.528-2.337-20.048-16.757-26.109c-1.347-0.565-4.411-1.41-4.349-1.392c-63.241-22.34-5.04-1.781-33.011-11.628
	l-14.01-8.674v-16.673c-15.031,7.567-33.481,8.149-48.841,1.052l0.01,15.621l-14.406,8.825l-7.423,2.552h-0.016l0.003,0.005
	c-0.109,0.038-30.458,10.782-28.498,9.903c-5.157,1.926-9.65,5.255-12.694,9.968c-3.107,4.808-1.656,3.025-9.637,47.669
	c-2.345,13.121,7.742,25.169,21.071,25.169L181.917,283.223L181.917,283.223z"/>
<path style="fill:#92E0C0;" d="M24.564,258.054c7.739-53.118,5.774-52.797,11.418-59.499c-5.821,2.01-5.691,1.897-5.615,1.863
	c-5.157,1.926-9.65,5.255-12.694,9.968c-3.107,4.808-1.656,3.025-9.637,47.669c-2.345,13.121,7.742,25.169,21.071,25.169h16.528
	C32.306,283.223,22.218,271.175,24.564,258.054z"/>
<path style="fill:#E4EAF8;" d="M104.283,202.094l28.446-20.987l0,0l-3.19-1.976v-16.673c-15.031,7.567-33.481,8.149-48.841,1.052
	l0.01,15.621l-3.225,1.976L104.283,202.094z"/>
<path style="fill:#C2C7D0;" d="M104.283,202.094v-33.6c-8.094,0.062-16.197-1.57-23.585-4.983l0.01,15.621l-3.225,1.976
	L104.283,202.094z"/>
<g>
	<path style="fill:#FF8031;" d="M80.708,179.131l23.575,22.963L83.239,216.74c-3.071,2.137-7.333,0.706-8.492-2.851l-8.445-25.931
		L80.708,179.131z"/>
	<path style="fill:#FF8031;" d="M129.538,179.131l-25.256,22.963l21.044,14.646c3.071,2.137,7.333,0.706,8.492-2.851l9.73-26.082
		L129.538,179.131z"/>
</g>
<path style="fill:#FF9052;" d="M113.779,234.514l-19.01-0.045l-12.984,48.792c34.047,0,10.96,0,44.995,0L113.779,234.514z"/>
<g>
	<polygon style="fill:#FF8031;" points="113.779,234.514 94.769,234.469 81.785,283.262 101.418,283.262 113.984,235.282 	"/>
	<path style="fill:#FF8031;" d="M104.283,202.094l-17.667,12.295l8.183,20.154c6.633,0,12.334,0,18.968,0l8.184-20.154
		L104.283,202.094z"/>
</g>
<path style="fill:#FF9052;" d="M101.424,204.085l-14.807,10.305l8.183,20.154c6.633,0,12.334,0,18.968,0l0.012-0.03L101.424,204.085
	z"/>
<path style="fill:#ABFFDB;" d="M483.116,283.223c13.057,0,23.006-11.698,20.908-24.586l-5.159-31.702
	c-1.488-7.528-2.337-20.048-16.757-26.109c-1.347-0.565-4.411-1.41-4.349-1.392c-63.241-22.34-5.04-1.781-33.011-11.628
	l-14.01-8.674v-16.673c-15.031,7.567-33.481,8.149-48.841,1.052l0.01,15.621l-14.406,8.825l-7.423,2.552h-0.016l0.003,0.005
	c-0.109,0.038-30.458,10.782-28.498,9.903c-7.98,2.98-14.729,9.541-15.672,18.723c-0.328,3.194-3.701,22.366-6.659,38.914
	c-2.345,13.121,7.742,25.169,21.071,25.169L483.116,283.223L483.116,283.223z"/>
<path style="fill:#DDDDDD;" d="M325.763,258.054c7.739-53.118,5.774-52.797,11.418-59.499c-5.821,2.01-5.691,1.897-5.615,1.863
	c-7.98,2.98-14.729,9.541-15.672,18.723c-0.328,3.194-3.701,22.366-6.659,38.914c-2.345,13.121,7.742,25.169,21.071,25.169h16.528
	C333.505,283.223,323.417,271.175,325.763,258.054z"/>
<path style="fill:#E4EAF8;" d="M405.482,202.094l28.446-20.987l0,0l-3.19-1.976v-16.673c-15.031,7.567-33.481,8.149-48.841,1.052
	l0.01,15.621l-3.225,1.976L405.482,202.094z"/>
<path style="fill:#C2C7D0;" d="M405.482,202.094v-33.6c-8.094,0.062-16.197-1.57-23.585-4.983l0.01,15.621l-3.225,1.976
	L405.482,202.094z"/>
<g>
	<path style="fill:#FF8031;" d="M381.907,179.131l23.575,22.963l-21.044,14.646c-3.071,2.137-7.333,0.706-8.492-2.851l-8.445-25.931
		L381.907,179.131z"/>
	<path style="fill:#FF8031;" d="M430.737,179.131l-25.256,22.963l21.044,14.646c3.071,2.137,7.333,0.706,8.492-2.851l9.73-26.082
		L430.737,179.131z"/>
</g>
<path style="fill:#FF9052;" d="M414.978,234.514l-19.01-0.045l-12.984,48.792c34.047,0,10.96,0,44.995,0L414.978,234.514z"/>
<g>
	<polygon style="fill:#FF8031;" points="414.978,234.514 395.968,234.469 382.984,283.262 402.617,283.262 415.183,235.282 	"/>
	<path style="fill:#FF8031;" d="M405.482,202.094l-17.667,12.295l8.183,20.154c6.633,0,12.334,0,18.968,0l8.184-20.154
		L405.482,202.094z"/>
</g>
<path style="fill:#FF9052;" d="M402.622,204.085l-14.807,10.305l8.183,20.154c6.633,0,12.334,0,18.967,0l0.012-0.03L402.622,204.085
	z"/>
<path style="fill:#FEA82F;" d="M479.592,77.513C475.364-5.916,356.777-18.888,334.557,61.62c-3.249,11.816-2.736,18.306-2.7,43.799
	h147.845C479.705,79.38,479.702,79.71,479.592,77.513z"/>
<path style="fill:#FF8031;" d="M385.638,61.621c7.247-26.26,24.75-42.567,45.189-49.735c-46.426-15.87-94.77,13.107-98.697,63.51
	c-0.259,3.271-0.288,19.984-0.274,30.024h51.081C382.897,76.899,382.711,72.264,385.638,61.621z"/>
<g>
	<path style="fill:#E4EAF8;" d="M354.056,96.821c-12.832-4.573-27.735,3.931-27.735,16.338c0,12.404,14.902,20.912,27.735,16.338
		V96.821z"/>
	<path style="fill:#E4EAF8;" d="M457.525,96.821c12.832-4.573,27.735,3.931,27.735,16.338c0,12.404-14.902,20.912-27.735,16.338
		V96.821z"/>
</g>
<g>
	<path style="fill:#C2C7D0;" d="M328.185,105.862c-1.186,2.197-1.865,4.658-1.865,7.296c0,12.404,14.902,20.912,27.735,16.338
		v-14.593C343.952,118.505,332.572,113.995,328.185,105.862z"/>
	<path style="fill:#C2C7D0;" d="M457.525,114.905v14.593c16.404,5.846,33.624-9.26,25.871-23.634
		C479.009,113.995,467.628,118.505,457.525,114.905z"/>
</g>
<path style="fill:#FFFFFF;" d="M457.046,77.489c1.369,0.132,2.422,1.268,2.422,2.643c0,45.194,0.03,38.587-0.076,40.688
	c-3.071,60.598-89.206,70.02-105.346,11.543c-0.889-3.233-1.47-6.253-1.763-10.006c-0.3-3.795-0.175-24.399-0.175-24.333
	c0-10.525,9.341-18.555,19.757-17.052c16.407,2.368,40.354,1.449,61.25-16.413c2.148-1.836,5.406-1.243,6.777,1.227
	C442.483,70.451,447.632,76.581,457.046,77.489z"/>
<path style="fill:#E4EAF8;" d="M384.948,132.364c-2.267-8.244-2.036-9.965-1.948-50.466c-3.973-0.085-7.718-0.431-11.133-0.924
	c-10.417-1.504-19.758,6.526-19.758,17.052c0-0.066-0.125,20.537,0.175,24.333c2.719,34.888,35.089,56.438,68.567,47.102
	C404.702,164.868,390.572,152.745,384.948,132.364z"/>
<path style="fill:#FEA82F;" d="M348.526,243.176c-5.37-105.951-155.969-122.426-184.188-20.183
	c-4.127,15.005-3.475,23.249-3.429,55.622h187.757C348.67,245.546,348.666,245.966,348.526,243.176z"/>
<path style="fill:#FF8031;" d="M216.939,240.487c2.821-36.198,25.826-70.578,65.003-82.12
	c-45.977-13.236-101.563,6.503-117.605,64.626c-4.127,15.005-3.475,23.249-3.429,55.622h55.684
	C216.574,265.865,216.612,244.641,216.939,240.487z"/>
<path style="fill:#ABFFDB;" d="M353.236,504.419c16.559,0,29.175-14.835,26.515-31.179l-6.542-40.202
	c-1.887-9.548-2.964-25.424-21.251-33.11c-1.708-0.716-5.594-1.789-5.516-1.765c-80.2-28.33-6.39-2.258-41.863-14.746l-17.767-11
	v-21.144c-19.062,9.597-42.459,10.334-61.937,1.334l0.012,19.81l-18.269,11.192l-9.413,3.236h-0.021l0.003,0.006
	c-0.107,0.037-38.626,13.674-36.14,12.558c-10.121,3.779-18.678,12.099-19.874,23.743c-0.417,4.051-4.693,28.363-8.445,49.349
	c-2.974,16.639,9.819,31.918,26.722,31.918h193.787V504.419z"/>
<path style="fill:#92E0C0;" d="M153.689,472.5c9.982-63.511,6.335-65.782,14.48-75.454c-7.382,2.547-7.216,2.404-7.12,2.361
	c-10.121,3.779-18.678,12.099-19.874,23.743c-0.416,4.051-4.693,28.363-8.445,49.349c-2.974,16.639,9.819,31.918,26.722,31.918
	h20.96C163.508,504.418,150.714,489.139,153.689,472.5z"/>
<path style="fill:#E4EAF8;" d="M254.786,401.535l36.074-26.615l0,0l-4.046-2.505V351.27c-19.062,9.597-42.459,10.334-61.937,1.335
	l0.012,19.81l-4.09,2.505L254.786,401.535z"/>
<path style="fill:#C2C7D0;" d="M254.785,401.534v-42.611c-10.265,0.079-20.54-1.991-29.91-6.32l0.012,19.81l-4.09,2.505
	L254.785,401.534z"/>
<g>
	<path style="fill:#FF8031;" d="M224.888,372.415l29.898,29.12l-26.687,18.573c-3.894,2.71-9.3,0.895-10.769-3.616l-10.709-32.884
		L224.888,372.415z"/>
	<path style="fill:#FF8031;" d="M286.813,372.415l-32.027,29.12l26.687,18.573c3.894,2.71,9.3,0.895,10.769-3.616l12.338-33.075
		L286.813,372.415z"/>
</g>
<path style="fill:#FF9052;" d="M266.827,442.648l-24.106-0.057l-16.466,61.876c19.029,0,38.046,0,57.062,0L266.827,442.648z"/>
<polygon style="fill:#FF8031;" points="266.827,442.648 242.72,442.591 226.254,504.468 251.151,504.468 267.087,443.622 "/>
<g>
	<path style="fill:#E4EAF8;" d="M189.101,267.695c-16.296-5.808-35.223,4.993-35.223,20.749c0,15.752,18.926,26.557,35.223,20.749
		V267.695z"/>
	<path style="fill:#E4EAF8;" d="M320.501,267.695c16.296-5.808,35.224,4.993,35.224,20.749c0,15.752-18.926,26.557-35.224,20.749
		V267.695z"/>
</g>
<g>
	<path style="fill:#C2C7D0;" d="M156.595,278.562c-10.692,18.306,11.349,38.17,32.506,30.631V289.43
		C176.528,293.911,162.4,288.5,156.595,278.562z"/>
	<path style="fill:#C2C7D0;" d="M320.501,289.43v19.762c21.156,7.539,43.2-12.324,32.506-30.631
		C347.203,288.5,333.075,293.911,320.501,289.43z"/>
</g>
<path style="fill:#FFFFFF;" d="M319.894,243.145c1.739,0.168,3.076,1.61,3.076,3.356c0,57.395,0.037,49.003-0.097,51.673
	c-3.9,76.957-113.287,88.923-133.784,14.66c-1.13-4.107-1.867-7.941-2.238-12.706c-0.382-4.82-0.223-30.986-0.223-30.902
	c0-13.366,11.862-23.564,25.092-21.655c20.836,3.007,51.248,1.84,77.786-20.844c2.727-2.33,6.865-1.578,8.607,1.559
	C301.4,234.206,307.938,241.992,319.894,243.145z"/>
<path style="fill:#E4EAF8;" d="M216.844,300.128c-0.325-4.109-0.258-41.169-0.231-51.958c-1.68-0.172-3.317-0.372-4.893-0.6
	c-13.229-1.91-25.091,8.288-25.091,21.655c0-0.084-0.159,26.082,0.223,30.902c3.237,41.539,40.261,69.743,82.375,60.956
	C238.55,354.558,219.097,329.044,216.844,300.128z"/>
<path style="fill:#FF8031;" d="M254.786,401.535l-22.405,15.592l10.378,25.559c8.413,0,15.641,0,24.053,0l10.379-25.559
	L254.786,401.535z"/>
<path style="fill:#FF9052;" d="M251.158,404.058l-18.778,13.068l10.378,25.559c8.412,0,15.641,0,24.053,0l0.015-0.038
	L251.158,404.058z"/>
<path style="fill:#FEA82F;" d="M178.085,77.513C173.857-5.915,55.271-18.888,33.049,61.621c-3.249,11.816-2.736,18.306-2.7,43.799
	h147.845C178.199,79.38,178.195,79.71,178.085,77.513z"/>
<path style="fill:#FF8031;" d="M84.131,61.621c7.247-26.26,24.75-42.567,45.189-49.735C92.464-0.713,46.111,14.297,33.049,61.621
	c-3.249,11.816-2.736,18.306-2.7,43.799h51.082C81.39,76.899,81.204,72.264,84.131,61.621z"/>
<g>
	<path style="fill:#E4EAF8;" d="M52.549,96.821c-12.832-4.573-27.735,3.931-27.735,16.338c0,12.404,14.902,20.912,27.735,16.338
		V96.821z"/>
	<path style="fill:#E4EAF8;" d="M156.017,96.821c12.832-4.573,27.735,3.931,27.735,16.338c0,12.404-14.902,20.912-27.735,16.338
		V96.821z"/>
</g>
<g>
	<path style="fill:#C2C7D0;" d="M26.678,105.862c-7.758,14.383,9.473,29.478,25.871,23.634v-14.593
		C42.446,118.505,31.065,113.995,26.678,105.862z"/>
	<path style="fill:#C2C7D0;" d="M156.017,114.905v14.593c16.404,5.846,33.624-9.26,25.871-23.634
		C177.501,113.995,166.12,118.505,156.017,114.905z"/>
</g>
<path style="fill:#FFFFFF;" d="M155.539,77.489c1.369,0.132,2.422,1.268,2.422,2.643c0,45.194,0.03,38.587-0.076,40.688
	c-3.071,60.598-89.206,70.02-105.346,11.543c-0.889-3.233-1.47-6.253-1.763-10.006c-0.3-3.795-0.176-24.399-0.176-24.333
	c0-10.525,9.341-18.555,19.758-17.052c16.407,2.368,40.354,1.449,61.251-16.413c2.147-1.836,5.406-1.243,6.777,1.227
	C140.975,70.451,146.124,76.581,155.539,77.489z"/>
<path style="fill:#E4EAF8;" d="M81.678,122.359c-0.243-3.071-0.208-30.239-0.185-40.46c-3.973-0.085-7.718-0.431-11.133-0.924
	c-10.417-1.504-19.758,6.526-19.758,17.052c0-0.066-0.125,20.537,0.175,24.333c2.719,34.888,35.089,56.438,68.567,47.102
	C96.996,163.104,83.336,143.64,81.678,122.359z"/>
<g>
	<path style="fill:#474D54;" d="M487.001,76.672c-0.016-0.105-0.044-0.21-0.066-0.316c0.002,0.028,0.004,0.056,0.006,0.084
		C486.957,76.516,486.987,76.597,487.001,76.672z"/>
	<path style="fill:#474D54;" d="M348.461,391.024c0.015,0.005,0.031,0.011,0.048,0.017
		C348.494,391.036,348.477,391.03,348.461,391.024z"/>
	<path style="fill:#474D54;" d="M348.316,390.973c-0.014-0.005-0.028-0.01-0.04-0.014
		C348.288,390.963,348.3,390.967,348.316,390.973z"/>
	<path style="fill:#474D54;" d="M348.276,390.959C348.176,390.923,348.199,390.932,348.276,390.959L348.276,390.959z"/>
	<path style="fill:#474D54;" d="M394.018,201.311l-0.01,0.007L394.018,201.311z"/>
	<path style="fill:#474D54;" d="M405.608,211.517C405.612,211.514,405.615,211.512,405.608,211.517L405.608,211.517z"/>
	<path style="fill:#474D54;" d="M511.511,257.238c-6.581-40.34-4.492-27.86-5.537-33.719c-2.775-15.545-9.039-26.007-24.203-30.592
		c-2.915-0.879,3.492,1.331-32.14-11.254l-0.001,0.002c-3.112-1.011,0.406,0.279-11.154-6.505v-5.135
		c11.296-6.776,20.721-17.374,25.367-31.872c24.006,2.381,39.451-24.039,23.329-41.298c0.11-7.115,0.176-13.868-0.23-20.425
		c-0.073-0.337-0.152-0.678-0.27-1.027c0.115,0.312,0.198,0.628,0.264,0.943c-0.903-14.427-4.099-27.91-14.149-42.236
		c-2.377-3.391-7.055-4.211-10.444-1.834c-3.391,2.378-4.211,7.055-1.833,10.445c12.087,17.232,11.673,34.063,11.672,45.929
		c-1.722-0.334-3.474-0.506-5.237-0.521l-0.001-7.939c0-5.257-3.955-9.602-9.2-10.107c-4.868-0.469-8.676-3.119-11.316-7.879
		c-3.679-6.618-12.456-8.194-18.205-3.285c-18.757,16.033-40.431,16.839-55.307,14.693c-10.977-1.591-21.764,4.299-26.255,14.581
		c-2.462-0.155-4.926-0.005-7.326,0.463c0.017-5.53,0.077-10.441,0.249-12.617c3.759-48.247,53.452-75.052,96.994-53.603
		c3.717,1.834,8.212,0.302,10.04-3.412c1.831-3.715,0.303-8.21-3.412-10.04c-52.394-25.812-113.928,6.344-118.572,65.879
		c-0.27,3.403-0.313,10.593-0.298,21.861c0,0.053,0.007,0.105,0.008,0.158c-15.734,16.889-1.12,43.902,23.595,41.241
		c5.291,15.811,15.138,26.631,26.77,33.167l0.003,3.85c-12.529,7.675-5.14,4.491-35.713,15.153
		c-38.287-56.209-128.827-59.053-167.921-0.486c-0.13-0.046-19.316-6.821-23.046-8.139l-0.009,0.024
		c-3.095-1.092,0.166,0.205-11.156-6.531v-5.135c11.296-6.776,20.721-17.374,25.367-31.873
		c23.964,2.377,39.492-23.997,23.329-41.297c0.002-0.104,0.105-18.768-0.142-20.252c-2.678-47.232-38.222-72.155-72.388-75.905
		c-47.61-5.228-86.4,27.904-90.005,74.162c-0.34,4.284-0.333,20.187-0.29,22.02c-16.175,17.362-0.491,43.835,23.594,41.242
		c5.291,15.811,15.138,26.631,26.77,33.167l0.003,3.85c-3.481,2.132-6.477,3.968-10.101,6.188
		c-0.113,0.04-31.625,11.091-34.348,11.958c-7.129,1.634-17.89,9.823-20.714,21.183c-0.999,4.02,1.449,8.087,5.468,9.086
		c4.022,1.001,8.088-1.449,9.086-5.468c1.218-4.899,5.551-8.557,10.182-10.361c2.217-0.586,25.472-8.841,28.775-10.007l6.074,18.648
		c2.173,6.676,8.95,10.084,15.176,8.737l4.084,10.06l-10.85,40.619H54.09v-19.983c0-4.142-3.356-7.498-7.498-7.498
		s-7.498,3.356-7.498,7.498v19.983H28.106c-8.136,0-14.288-7.354-12.856-15.354l1.487-8.34c0.726-4.077-1.991-7.971-6.068-8.696
		c-4.072-0.724-7.971,1.991-8.696,6.068c-0.124,4.233-6.337,18.186,4.616,31.271c5.346,6.386,13.188,10.049,21.517,10.049
		c115.195,0.017-7.14,0.077,117.033,0c1.451,17.92,19.372,29.965,37.521,27.142c6.551,20.856,19.416,34.88,34.614,43.107
		l0.005,7.245c-3.551,2.175-10.45,6.401-13.983,8.566l-8.366,2.876c-0.219,0.066-0.435,0.142-0.646,0.227
		c-42.875,15.19-33.509,11.578-35.969,12.498c-12.536,4.682-23.19,15.186-24.71,30.001c-0.183,1.776-1.541,10.635-8.585,50.015
		c-3.681,20.572,12.128,39.518,33.081,39.518c18.002,0,96.635,0.039,194.647,0c21.39,0,37.668-19.174,34.236-40.258l-2.088-12.83
		c-0.664-4.087-4.517-6.864-8.604-6.197c-4.088,0.665-6.861,4.517-6.197,8.604l2.088,12.831
		c1.951,11.984-7.309,22.853-19.434,22.853h-17.447v-27.402c0-4.142-3.356-7.498-7.498-7.498s-7.498,3.356-7.498,7.498v27.402
		h-31.352L274.6,443.243l6.122-15.077c7.327,2.512,15.809-1.221,18.487-9.113l9.722-26.061c0.724,0.253,3.062,1.081,3.262,1.141
		v-0.001c0.867,0.271,31.671,11.195,32.223,11.341c12.208,3.35,17.413,9.769,19.939,21.676c0.86,4.051,4.841,6.633,8.893,5.778
		c4.051-0.86,6.637-4.842,5.778-8.893c-3.625-17.076-13.27-28.609-30.263-32.904c-0.101-0.036-0.184-0.065-0.254-0.09
		c0.012,0.004,0.024,0.009,0.036,0.013c-0.03-0.01-0.063-0.022-0.1-0.035c0.005,0.002,0.01,0.004,0.016,0.006
		c-0.06-0.021-0.108-0.038-0.145-0.051c0.037,0.013,0.079,0.028,0.124,0.044c-1.482-0.523-8.92-3.15-38.728-13.678l-0.001,0.004
		c-3.905-1.231-1.049-0.571-15.505-9.04v-8.827c14.789-8.586,27.134-22.367,32.813-41.503c18.165,2.67,35.8-9.467,37.233-27.185
		c37.353,0.002-15.686,0.053,118.727,0C500.773,290.789,514.375,274.843,511.511,257.238z M466.948,103.13
		c10.686,0.187,16.142,11.668,7.473,17.782c-2.19,1.546-4.8,2.364-7.473,2.41V103.13z M332.824,113.226
		c0-5.864,5.822-9.985,11.745-10.095c-0.007,2.646,0.02,20.111,0.02,20.191C338.623,123.218,332.824,119.063,332.824,113.226z
		 M348.721,391.116c-0.02-0.007-0.046-0.016-0.083-0.029C348.671,391.098,348.699,391.108,348.721,391.116z M348.755,391.128
		C348.764,391.131,348.765,391.132,348.755,391.128L348.755,391.128z M361.255,130.445c-1.927-7.011-1.758-9.97-1.67-32.35
		c0-5.947,5.25-10.481,11.188-9.631c17.239,2.486,42.119,1.623,64.462-15.897c4.195,5.988,9.961,10.022,16.714,11.708
		c0.005,39.362,0.018,34.56-0.066,36.234C449.246,172.52,375.128,180.702,361.255,130.445z M405.607,211.518
		c0.015-0.01,0.054-0.038,0.149-0.104l8.44,5.874l-4.018,9.895h-8.845l-4.017-9.895c7.391-5.144,8.229-5.727,8.291-5.771
		C405.608,211.517,405.607,211.517,405.607,211.518z M405.934,191.982l-14.787-14.402c10.296,2.349,21.163,2.091,31.45-0.748
		L405.934,191.982z M382.589,209.266l-5.799-17.803l4.368-2.676l12.858,12.524c0.003-0.003,0.004-0.003,0,0s-0.006,0.004-0.01,0.007
		l0.001-0.001C393.872,201.413,392.187,202.585,382.589,209.266z M393.981,201.337c-0.08,0.056-0.125,0.087-0.14,0.097
		C393.862,201.42,393.934,201.37,393.981,201.337z M431.836,188.7c0.164,0.101,4.211,2.606,3.956,2.449l-6.781,18.178
		c-9.391-6.536-11.095-7.723-11.249-7.83L431.836,188.7z M165.345,123.323V103.13c2.672,0.047,5.282,0.865,7.473,2.41
		C181.438,111.615,176.117,123.134,165.345,123.323z M35.511,120.913c-8.645-6.097-3.255-17.582,7.452-17.782
		c-0.012,4.536-0.005,6.52,0.02,20.191C40.311,123.276,37.703,122.458,35.511,120.913z M45.056,88.202
		c-2.462-0.156-4.925-0.005-7.325,0.463c0.03-9.81-0.141-15.637,2.427-24.981C60.12-8.633,166.682,3.109,170.476,77.957
		c0.104,2.139,0.101-2.67,0.1,10.703c-1.721-0.334-3.474-0.507-5.236-0.522L165.34,80.2c0-5.257-3.955-9.602-9.201-10.107
		c-4.867-0.469-8.675-3.119-11.315-7.877c-3.675-6.616-12.458-8.2-18.205-3.287c-18.759,16.033-40.43,16.839-55.308,14.693
		C60.355,72.034,49.556,77.901,45.056,88.202z M59.651,130.447c-2.14-7.794-1.603-10.796-1.671-32.278
		c0.117-0.546-0.362-4.2,3.353-7.416c2.182-1.891,4.967-2.699,7.836-2.288c17.24,2.487,42.119,1.621,64.462-15.897
		c4.197,5.989,9.963,10.022,16.714,11.708c0.007,39.417,0.021,34.497-0.066,36.234C147.639,172.552,73.511,180.671,59.651,130.447z
		 M104.151,211.413l8.44,5.874l-4.018,9.895h-8.844l-4.018-9.895c7.172-4.992,8.172-5.688,8.282-5.764
		C103.992,211.524,104.015,211.508,104.151,211.413z M103.997,211.52C104.013,211.509,104.004,211.515,103.997,211.52
		L103.997,211.52z M104.328,191.982l-14.787-14.402c10.296,2.349,21.163,2.091,31.45-0.748L104.328,191.982z M130.231,188.7
		c0.164,0.101,4.211,2.606,3.956,2.449l-6.781,18.178c-9.391-6.536-11.095-7.723-11.249-7.83L130.231,188.7z M80.984,209.266
		l-5.799-17.803l4.368-2.676l12.858,12.524C92.266,201.413,83.582,207.458,80.984,209.266z M91.46,275.793l8.979-33.613h7.423
		l8.979,33.613H91.46z M153.3,268.582c-2.124,2.169-3.869,4.597-5.2,7.21h-15.734l-10.85-40.619l4.084-10.06
		c6.234,1.349,12.897-2.054,15.115-8.558l7.1-19.033c3.953,1.388,9.189,3.226,15.809,5.565
		C151.273,229.467,153.413,248.516,153.3,268.582z M160.468,285.204c0.873-3.309,9.161-12.293,18.537-11.471
		c-0.031,8.205-0.007,4.225,0.02,29.548C167.991,304.246,157.718,295.581,160.468,285.204z M223.727,381.921l19.214,18.715
		c-1.354,0.942-16.354,11.381-18.764,13.059l-8.702-26.718C215.576,386.914,224.274,381.586,223.727,381.921z M232.277,369.313
		l-0.001-2.154c15.206,4.408,31.701,4.079,46.934-0.928v2.931l-24.352,22.141L232.277,369.313z M267.883,419.926l-6.225,15.328
		h-13.957l-6.226-15.329c0.236-0.165,13.106-9.121,13.204-9.188L267.883,419.926z M220.404,496.987H189.08v-27.403
		c0-4.142-3.356-7.498-7.498-7.498c-4.142,0-7.498,3.356-7.498,7.498v27.403h-15.979c-11.61,0-20.356-10.495-18.319-21.881
		c10.579-59.146,8.577-54.62,11.355-58.924c3.035-4.698,7.817-8.163,12.955-9.814c6.572-2.108,32.734-11.438,37.649-13.128
		l8.35,25.639c2.61,8.015,11.168,11.817,18.544,9.287l6.123,15.077L220.404,496.987z M235.926,496.987l12.486-46.737h12.537
		l12.485,46.737H235.926z M295.302,386.62l-10.104,27.084c-2.499-1.74-17.47-12.159-18.513-12.885l20.883-18.987L295.302,386.62z
		 M315.281,297.858c-1.969,38.835-35.884,62.528-72.144,56.364c-28.445-4.991-46.83-27.803-48.918-54.621
		c-0.299-3.768-0.199-21.777-0.199-30.31c0-9.033,8.04-15.462,16.522-14.234c21.938,3.168,53.786,1.986,82.04-21.151
		c5.418,8.661,13.361,14.303,22.786,16.216C315.374,302.546,315.401,295.414,315.281,297.858z M330.364,246.564
		c0-5.626-4.235-10.278-9.853-10.819c-6.885-0.665-12.25-4.378-15.948-11.036c-4.043-7.283-13.704-9.029-20.033-3.618
		c-24.397,20.854-52.539,21.909-71.844,19.123c-13.625-1.969-26.829,5.729-31.739,18.641c-4.267-0.448-8.557-0.091-12.649,1.019
		c0.022-15.45-0.375-23.956,4.328-38.703c26.451-82.671,142.152-75.336,164.676,0.572c4.423,15.024,3.764,27.026,3.763,38.123
		c-3.469-0.938-7.079-1.333-10.698-1.154L330.364,246.564z M343.051,299.924c-3.68,2.595-8.182,3.751-12.682,3.358
		c0-6.452,0-19.26,0-29.548C346.655,272.294,356.648,290.336,343.051,299.924z M377.543,275.793h-16.248
		c-1.339-2.626-3.093-5.066-5.233-7.244c-0.86-10.569,3.639-36.632-9.536-64.99c4.556-1.596,11.37-4,16.534-5.829l6.073,18.648
		c2.169,6.663,8.938,10.087,15.175,8.737l4.084,10.06L377.543,275.793z M393.065,275.793l8.979-33.613h7.424l8.978,33.613H393.065z
		 M493.576,270.894c-6.184,7.269-14.436,4.16-22.741,4.898v-19.983c0-4.142-3.356-7.498-7.498-7.498s-7.498,3.356-7.498,7.498
		v19.983h-21.87l-10.85-40.619l4.085-10.06c6.243,1.351,12.9-2.063,15.115-8.558l7.1-19.033c28.158,9.903,26.03,9.195,26.551,9.336
		c14.969,4.126,13.781,10.146,20.738,52.79C497.365,263.681,496.224,267.78,493.576,270.894z"/>
</g>
<g>
</g>
<g>
</g>
<g>
</g>
<g>
</g>
<g>
</g>
<g>
</g>
<g>
</g>
<g>
</g>
<g>
</g>
<g>
</g>
<g>
</g>
<g>
</g>
<g>
</g>
<g>
</g>
<g>
</g>
</svg>
