<?xml version="1.0" encoding="iso-8859-1"?>
<!-- Generator: Adobe Illustrator 19.0.0, SVG Export Plug-In . SVG Version: 6.00 Build 0)  -->
<svg version="1.1" id="Capa_1" xmlns="http://www.w3.org/2000/svg" xmlns:xlink="http://www.w3.org/1999/xlink" x="0px" y="0px"
	 viewBox="0 0 512 512" style="enable-background:new 0 0 512 512;" xml:space="preserve">
<path style="fill:#FFC850;" d="M396.331,353.018c-3.013-3.048-3.013-7.954,0-11.004l16.216-16.407c3.034-3.07,3.034-8.01,0-11.08
	l-16.216-16.406c-3.013-3.049-3.013-7.954,0-11.004l15.736-15.918c3.3-3.338,3.3-8.711,0-12.049l-15.736-15.919
	c-3.014-3.049-3.013-7.955,0.001-11.005l15.845-16.026c3.239-3.276,3.239-8.55,0-11.826l-15.846-16.031
	c-3.013-3.049-3.013-7.954,0-11.004l13.9-14.061c2.31-2.337,0.655-6.301-2.631-6.301h-63.752v65.485c0,2.343,0,74.374,0,72.884
	c0,14.536-11.784,23.319-26.32,23.319c-2.55,0-82.53,0-80.939,0c-9.608,0-17.402,0-26.321,0c-14.536,0-26.32,14.784-26.32,29.32l0,0
	c0,14.536,11.784,26.32,26.32,26.32c5.828,0,205.126,0,198.032,0c3.366,0,5.062-4.061,2.696-6.455L396.331,353.018z"/>
<g>
	<path style="fill:#FEA82F;" d="M213.451,344.523v-25.852h-3.183c-14.536,0-26.32,14.784-26.32,29.32l0,0
		c0,14.536,11.784,26.32,26.32,26.32c0.295,0,33.815,0,32.972,0C226.787,374.312,213.451,360.975,213.451,344.523z"/>
	<path style="fill:#FEA82F;" d="M320.527,266.03c-32.95,0-102.672,0-136.579,0v36.774v18.866v26.321
		c0-14.536,11.784-26.321,26.32-26.321c39.001,0,71.395,0,110.259,0c14.536,0,26.32-11.784,26.32-26.32l0,0
		C346.847,280.814,335.063,266.03,320.527,266.03z"/>
</g>
<path style="fill:#FF8031;" d="M213.95,266.03h-30.002v36.774v18.866v26.321c0-14.536,11.784-26.321,26.32-26.321h3.682
	C213.95,310.281,213.95,276.759,213.95,266.03z"/>
<path style="fill:#FFC850;" d="M332.029,51.456h-207.34v217.33h164.765v0.244c9.456,0,21.851,0,31.073,0
	c14.536,0,26.32,11.784,26.32,26.321c0-10.357,0-62.542,0-72.884V66.274C346.847,58.124,340.178,51.456,332.029,51.456z"/>
<rect x="124.687" y="51.453" style="fill:#FEA82F;" width="35.002" height="217.333"/>
<path style="fill:#E4EAF8;" d="M102.688,34.807v456.192c0,7.456,6.044,13.501,13.501,13.501c7.456,0,13.501-6.044,13.501-13.501
	V34.807C122.264,42.328,110.134,42.35,102.688,34.807z"/>
<path style="fill:#FF9052;" d="M237.302,104.242l14.188,28.748c0.655,1.328,1.922,2.248,3.387,2.461l31.725,4.609
	c3.69,0.536,5.164,5.071,2.493,7.674l-22.956,22.376c-1.06,1.034-1.544,2.523-1.294,3.982l5.419,31.596
	c0.63,3.675-3.227,6.478-6.528,4.743l-28.376-14.918c-1.311-0.689-2.877-0.689-4.187,0l-28.375,14.918
	c-3.301,1.735-7.158-1.067-6.528-4.743l5.419-31.596c0.25-1.46-0.234-2.949-1.294-3.982l-22.956-22.376
	c-2.67-2.603-1.197-7.138,2.493-7.674l31.725-4.609c1.465-0.213,2.732-1.133,3.388-2.461l14.188-28.748
	C230.884,100.898,235.652,100.898,237.302,104.242z"/>
<path style="fill:#FF8031;" d="M231.692,164.761c0.25-1.46-0.234-2.949-1.294-3.982c-23.74-23.495-23.648-22.27-24.192-24.534
	l-26.272,3.817c-3.69,0.536-5.164,5.071-2.494,7.674l22.956,22.376c2.983,2.908,0.586,4.19-4.125,35.579
	c-0.63,3.675,3.227,6.478,6.528,4.743l23.513-12.362C225.965,196.457,226.199,197.515,231.692,164.761z"/>
<circle style="fill:#FFC850;" cx="116.187" cy="26.478" r="18.977"/>
<path style="fill:#FEA82F;" d="M116.197,7.515c-3.228-0.005-6.5,0.797-9.498,2.528c-9.077,5.24-12.187,16.847-6.946,25.924
	c7.35,12.731,25.649,12.521,32.861-0.015C118.018,35.93,108.903,20.19,116.197,7.515z"/>
<path style="fill:#474D54;" d="M401.663,347.288l16.218-16.407c5.892-5.962,5.892-15.663-0.001-21.624l-16.216-16.406
	c-0.444-0.448-0.363,0.118,15.736-16.376c6.156-6.229,6.156-16.365,0-22.595l-15.737-15.919c-0.441-0.446-0.367,0.124,15.846-16.483
	c6.098-6.168,6.099-16.204,0.001-22.372c-16.005-16.397-16.289-16.04-15.846-16.488l13.899-14.061
	c6.978-7.061,1.969-19.074-7.966-19.074h-53.251V66.274c0-12.307-10.012-22.318-22.317-22.318H201.447c-4.142,0-7.5,3.358-7.5,7.5
	s3.358,7.5,7.5,7.5h130.581c4.034,0,7.316,3.282,7.316,7.317v90.707v110.282c-13.126-8.827-24.126-4.657-47.99-5.732
	c-1.764-0.462,7.038-0.155-154.166-0.243V58.957h29.257c4.142,0,7.5-3.358,7.5-7.5s-3.358-7.5-7.5-7.5h-29.257v-1.378
	C150.464,25.301,138.156,0,116.187,0c-21.963,0-34.28,25.295-21.001,42.577v350.924c0,4.143,3.358,7.5,7.5,7.5
	c4.142,0,7.5-3.357,7.5-7.5V52.277c3.733,0.861,7.964,0.93,12.001,0c0,10.632,0,425.968,0,438.722c0,3.309-2.691,6-6,6
	c-3.309,0-6-2.691-6-6v-62.496c0-4.143-3.358-7.5-7.5-7.5c-4.142,0-7.5,3.357-7.5,7.5v62.496c0,11.58,9.421,21.001,21.001,21.001
	s21.001-9.422,21.001-21.001V276.288h39.257c0,2.175,0,72.414,0,71.704c0,18.648,15.172,33.82,33.82,33.82h119.078
	c4.143,0,7.5-3.357,7.5-7.5s-3.357-7.5-7.5-7.5H210.265c-10.377,0-18.819-8.443-18.819-18.82c0-10.375,8.441-18.819,18.819-18.819
	h110.259c18.648,0,33.82-15.172,33.82-33.82V164.481h44.151l-7.501,7.588c-5.872,5.941-5.872,15.608,0,21.549
	c15.022,15.729,17.057,16.086,15.847,17.311l-15.845,16.025c-5.875,5.942-5.876,15.61-0.002,21.551
	c14.638,15.419,17.15,15.991,15.736,17.421l-15.736,15.918c-5.872,5.94-5.872,15.608,0,21.549
	c16.559,16.996,16.728,16.421,16.216,16.94l-16.218,16.407c-5.87,5.94-5.869,15.607,0.002,21.548l8.422,8.52h-35.07
	c-4.143,0-7.5,3.357-7.5,7.5s3.357,7.5,7.5,7.5h43.952c10.008,0,15.072-12.105,8.03-19.229
	C401.377,347.248,401.223,347.734,401.663,347.288z M108.57,35.04c-7.88-7.034-2.876-20.039,7.616-20.039
	c6.328,0,11.478,5.148,11.478,11.478C127.664,36.331,115.961,41.622,108.57,35.04z M338.961,299.139
	c-1.758,8.568-9.357,15.031-18.436,15.031c-118.011,0.038-117.265-2.211-129.079,5.731v-43.371h129.079
	C332.413,276.532,341.355,287.47,338.961,299.139z"/>
<g>
</g>
<g>
</g>
<g>
</g>
<g>
</g>
<g>
</g>
<g>
</g>
<g>
</g>
<g>
</g>
<g>
</g>
<g>
</g>
<g>
</g>
<g>
</g>
<g>
</g>
<g>
</g>
<g>
</g>
</svg>
